<svg xmlns="http://www.w3.org/2000/svg" width="1000" height="150" viewBox="0,0,1000,150" style="max-width: 100%; height: auto; height: intrinsic;" id="chartSmall"><g><path fill="#7f7f7f" d="M-602.5257394999182,70.548916278208L-592.7331535653974,69.9905925073879C-582.9405676308764,69.43226873656779,-563.3553957618348,68.3156211949276,-543.7433948902326,67.1989736532874C-524.1313940186305,66.08232611164719,-504.4925641444681,64.965678570007,-484.8805632728659,64.965678570007C-465.2685624012638,64.965678570007,-445.68339053222206,66.08232611164719,-426.09821866318026,67.75729742410749C-406.5130467941385,69.43226873656779,-386.92787492509666,71.6655638198482,-367.3427030560549,72.22388759066831C-347.75753118701306,72.78221136148841,-328.1723593179713,71.6655638198482,-308.5603584463692,70.548916278208C-288.94835757476704,69.43226873656779,-269.30952770060463,68.3156211949276,-249.69752682900253,67.86896217827153C-230.08552595740045,67.42230316161543,-210.50035408835868,67.64563266994348,-190.91518221931688,68.3156211949276C-171.3300103502751,68.98560971991172,-151.7448384812333,70.10225726155191,-132.15966661219153,70.44053578151939C-112.57449474314974,70.77881430148686,-92.98932287410797,70.33872379978162,-73.37732200250585,69.52828085935964C-53.76532113090374,68.71783791893768,-34.126491256741296,67.537042539799,-14.514490385139181,66.6614470321621C5.09751048646293,65.78585152452519,24.682682355504713,65.21545588839007,44.26785422454649,66.21440274320872C63.85302609358828,67.21334959802739,83.43819796263006,69.78163894379986,103.02336983167186,71.38482577144043C122.60854170071362,72.988012599081,142.19371356975543,73.62609690858969,161.80571444135754,72.63522560103533C181.41771531295964,71.64435429348099,201.05654518712208,69.02452736886359,220.66854605872422,66.19155859685262C240.28054693032632,63.35858982484164,259.8657187993681,60.31247920543709,279.4508906684099,57.88693935275248C299.0360625374517,55.46139950006787,318.62123440649344,53.65643041410319,338.20640627553524,54.273528278690264C357.79157814457704,54.89062614327732,377.37675001361885,57.92979095841613,396.98875088522095,60.24219312055008C416.600751756823,62.554595282684026,436.2395816309854,64.14023479181311,455.85158250258763,65.02610850818101C475.4635833741897,65.91198222454891,495.0487552432315,66.0980901481556,514.6339271122733,68.34816115694422C534.2190989813151,70.59823216573282,553.8042708503568,74.91226625970334,573.3894427193986,79.20138220650786C592.9746145884404,83.49049815331237,612.5597864574821,87.7546959529509,632.1717873290843,89.51709397749738C651.7837882006864,91.27949200204387,671.4226180748489,90.54009025149833,691.0346189464509,88.64106774310962C710.646619818053,86.74204523472092,730.2317916870948,83.68340196848908,749.8169635561366,80.69127205582448C769.4021354251785,77.6991421431599,788.9873072942202,74.77352558406257,808.572479163262,73.28892905979897C828.1576510323038,71.80433253553538,847.7428229013454,71.76075604610553,867.3548237729477,71.78589440053314C886.9668246445498,71.81103275496075,906.6056545187122,71.90488595324585,926.2176553903142,72.6260958756096C945.8296562619165,73.34730579797333,965.4148281309582,74.69587244441574,975.2074140654792,75.37015576763693L985,76.04443909085813L985,76.04443909085813L975.2074140654792,75.37015576763694C965.4148281309582,74.69587244441574,945.8296562619165,73.34730579797333,926.2176553903142,72.6260958756096C906.6056545187122,71.90488595324585,886.9668246445498,71.81103275496075,867.3548237729477,71.78589440053314C847.7428229013454,71.76075604610553,828.1576510323038,71.80433253553538,808.5724791632618,73.28892905979897C788.9873072942202,74.77352558406257,769.4021354251785,77.6991421431599,749.8169635561366,80.69127205582448C730.2317916870948,83.68340196848908,710.646619818053,86.74204523472092,691.0346189464509,88.64106774310962C671.4226180748489,90.54009025149833,651.7837882006864,91.27949200204387,632.1717873290843,89.51709397749738C612.5597864574821,87.7546959529509,592.9746145884404,83.49049815331237,573.3894427193986,79.20138220650786C553.8042708503568,74.91226625970334,534.2190989813151,70.59823216573282,514.6339271122733,68.34816115694422C495.0487552432315,66.0980901481556,475.4635833741897,65.91198222454891,455.8515825025875,65.026108508181C436.2395816309854,64.14023479181311,416.600751756823,62.554595282684026,396.9887508852209,60.24219312055008C377.37675001361885,57.92979095841613,357.79157814457704,54.89062614327732,338.20640627553524,54.27352827869026C318.62123440649344,53.65643041410319,299.0360625374517,55.46139950006787,279.4508906684099,57.886939352752485C259.8657187993681,60.31247920543709,240.28054693032632,63.35858982484164,220.66854605872422,66.19155859685262C201.05654518712208,69.02452736886359,181.41771531295964,71.64435429348099,161.80571444135754,72.63522560103534C142.19371356975543,73.62609690858969,122.60854170071362,72.988012599081,103.02336983167184,71.38482577144043C83.43819796263006,69.78163894379986,63.85302609358828,67.21334959802739,44.267854224546504,66.21440274320874C24.682682355504713,65.21545588839007,5.09751048646293,65.78585152452519,-14.514490385139183,66.66144703216209C-34.126491256741296,67.537042539799,-53.76532113090374,68.71783791893768,-73.37732200250585,69.52828085935964C-92.98932287410797,70.33872379978162,-112.57449474314974,70.77881430148686,-132.15966661219153,70.44053578151939C-151.7448384812333,70.10225726155191,-171.3300103502751,68.98560971991172,-190.91518221931688,68.3156211949276C-210.50035408835868,67.64563266994348,-230.08552595740045,67.42230316161543,-249.69752682900253,67.86896217827153C-269.30952770060463,68.3156211949276,-288.94835757476704,69.43226873656779,-308.5603584463692,70.548916278208C-328.1723593179713,71.6655638198482,-347.75753118701306,72.78221136148841,-367.3427030560549,73.3405351323085C-386.92787492509666,73.89885890312861,-406.5130467941385,73.89885890312861,-426.09821866318026,74.45718267394871C-445.68339053222206,75.0155064447688,-465.2685624012638,76.132153986409,-484.880563272866,76.132153986409C-504.4925641444681,76.132153986409,-524.1313940186305,75.0155064447688,-543.7433948902326,73.89885890312861C-563.3553957618348,72.78221136148841,-582.9405676308764,71.6655638198482,-592.7331535653974,71.1072400490281L-602.5257394999182,70.548916278208Z"><title>QBasic</title></path><path fill="#c49c94" d="M-602.5257394999182,70.548916278208L-592.7331535653974,69.9905925073879C-582.9405676308764,69.43226873656779,-563.3553957618348,68.3156211949276,-543.7433948902326,67.1989736532874C-524.1313940186305,66.08232611164719,-504.4925641444681,64.965678570007,-484.8805632728659,63.849031028366795C-465.2685624012638,62.7323834867266,-445.68339053222206,61.61573594508639,-426.09821866318026,59.94076463262609C-406.5130467941385,58.26579332016579,-386.92787492509666,56.032498236885395,-367.3427030560549,55.4741744660653C-347.75753118701306,54.915850695245204,-328.1723593179713,56.0324982368854,-308.5603584463692,58.265793320165805C-288.94835757476704,60.499088403446194,-269.30952770060463,63.849031028366795,-249.69752682900253,65.63566709499112C-230.08552595740045,67.42230316161543,-210.50035408835868,67.64563266994348,-190.91518221931688,68.3156211949276C-171.3300103502751,68.98560971991172,-151.7448384812333,70.10225726155191,-132.15966661219153,70.44053578151939C-112.57449474314974,70.77881430148686,-92.98932287410797,70.33872379978162,-73.37732200250585,69.52828085935964C-53.76532113090374,68.71783791893768,-34.126491256741296,67.537042539799,-14.514490385139181,66.6614470321621C5.09751048646293,65.78585152452519,24.682682355504713,65.21545588839007,44.26785422454649,65.09775520156853C63.85302609358828,64.980054514747,83.43819796263006,65.31504877723906,103.02336983167186,66.35991183405953C122.60854170071362,67.40477489088,142.19371356975543,69.15950674202888,161.80571444135754,69.28528297611474C181.41771531295964,69.41105921020058,201.05654518712208,67.90787982722338,220.66854605872422,65.63323482603252C240.28054693032632,63.35858982484164,259.8657187993681,60.31247920543709,279.4508906684099,57.88693935275248C299.0360625374517,55.46139950006787,318.62123440649344,53.65643041410319,338.20640627553524,54.273528278690264C357.79157814457704,54.89062614327732,377.37675001361885,57.92979095841613,396.98875088522095,60.24219312055008C416.600751756823,62.554595282684026,436.2395816309854,64.14023479181311,455.85158250258763,65.02610850818101C475.4635833741897,65.91198222454891,495.0487552432315,66.0980901481556,514.6339271122733,68.34816115694422C534.2190989813151,70.59823216573282,553.8042708503568,74.91226625970334,573.3894427193986,79.20138220650786C592.9746145884404,83.49049815331237,612.5597864574821,87.7546959529509,632.1717873290843,89.51709397749738C651.7837882006864,91.27949200204387,671.4226180748489,90.54009025149833,691.0346189464509,88.64106774310962C710.646619818053,86.74204523472092,730.2317916870948,83.68340196848908,749.8169635561366,80.69127205582448C769.4021354251785,77.6991421431599,788.9873072942202,74.77352558406257,808.572479163262,73.28892905979897C828.1576510323038,71.80433253553538,847.7428229013454,71.76075604610553,867.3548237729477,71.78589440053314C886.9668246445498,71.81103275496075,906.6056545187122,71.90488595324585,926.2176553903142,72.6260958756096C945.8296562619165,73.34730579797333,965.4148281309582,74.69587244441574,975.2074140654792,75.37015576763693L985,76.04443909085813L985,76.04443909085813L975.2074140654792,75.37015576763694C965.4148281309582,74.69587244441574,945.8296562619165,73.34730579797333,926.2176553903142,72.6260958756096C906.6056545187122,71.90488595324585,886.9668246445498,71.81103275496075,867.3548237729477,71.78589440053314C847.7428229013454,71.76075604610553,828.1576510323038,71.80433253553538,808.5724791632618,73.28892905979897C788.9873072942202,74.77352558406257,769.4021354251785,77.6991421431599,749.8169635561366,80.69127205582448C730.2317916870948,83.68340196848908,710.646619818053,86.74204523472092,691.0346189464509,88.64106774310962C671.4226180748489,90.54009025149833,651.7837882006864,91.27949200204387,632.1717873290843,89.51709397749738C612.5597864574821,87.7546959529509,592.9746145884404,83.49049815331237,573.3894427193986,79.20138220650786C553.8042708503568,74.91226625970334,534.2190989813151,70.59823216573282,514.6339271122733,68.34816115694422C495.0487552432315,66.0980901481556,475.4635833741897,65.91198222454891,455.8515825025875,65.026108508181C436.2395816309854,64.14023479181311,416.600751756823,62.554595282684026,396.9887508852209,60.24219312055008C377.37675001361885,57.92979095841613,357.79157814457704,54.89062614327732,338.20640627553524,54.27352827869026C318.62123440649344,53.65643041410319,299.0360625374517,55.46139950006787,279.4508906684099,57.886939352752485C259.8657187993681,60.31247920543709,240.28054693032632,63.35858982484164,220.66854605872422,66.19155859685262C201.05654518712208,69.02452736886359,181.41771531295964,71.64435429348099,161.80571444135754,72.63522560103534C142.19371356975543,73.62609690858969,122.60854170071362,72.988012599081,103.02336983167184,71.38482577144043C83.43819796263006,69.78163894379986,63.85302609358828,67.21334959802739,44.267854224546504,66.21440274320874C24.682682355504713,65.21545588839007,5.09751048646293,65.78585152452519,-14.514490385139183,66.66144703216209C-34.126491256741296,67.537042539799,-53.76532113090374,68.71783791893768,-73.37732200250585,69.52828085935964C-92.98932287410797,70.33872379978162,-112.57449474314974,70.77881430148686,-132.15966661219153,70.44053578151939C-151.7448384812333,70.10225726155191,-171.3300103502751,68.98560971991172,-190.91518221931688,68.3156211949276C-210.50035408835868,67.64563266994348,-230.08552595740045,67.42230316161543,-249.69752682900253,67.86896217827153C-269.30952770060463,68.3156211949276,-288.94835757476704,69.43226873656779,-308.5603584463692,70.548916278208C-328.1723593179713,71.6655638198482,-347.75753118701306,72.78221136148841,-367.3427030560549,72.2238875906683C-386.92787492509666,71.6655638198482,-406.5130467941385,69.43226873656779,-426.09821866318026,67.75729742410749C-445.68339053222206,66.08232611164719,-465.2685624012638,64.965678570007,-484.880563272866,64.965678570007C-504.4925641444681,64.965678570007,-524.1313940186305,66.08232611164719,-543.7433948902326,67.1989736532874C-563.3553957618348,68.3156211949276,-582.9405676308764,69.43226873656779,-592.7331535653974,69.99059250738789L-602.5257394999182,70.548916278208Z"><title>Visual Basic</title></path><path fill="#ff7f0e" d="M-602.5257394999182,70.548916278208L-592.7331535653974,71.1072400490281C-582.9405676308764,71.6655638198482,-563.3553957618348,72.78221136148841,-543.7433948902326,73.8988589031286C-524.1313940186305,75.0155064447688,-504.4925641444681,76.132153986409,-484.8805632728659,76.132153986409C-465.2685624012638,76.132153986409,-445.68339053222206,75.0155064447688,-426.09821866318026,74.45718267394871C-406.5130467941385,73.89885890312861,-386.92787492509666,73.89885890312861,-367.3427030560549,73.3405351323085C-347.75753118701306,72.78221136148841,-328.1723593179713,71.6655638198482,-308.5603584463692,70.548916278208C-288.94835757476704,69.43226873656779,-269.30952770060463,68.3156211949276,-249.69752682900253,67.86896217827153C-230.08552595740045,67.42230316161543,-210.50035408835868,67.64563266994348,-190.91518221931688,68.3156211949276C-171.3300103502751,68.98560971991172,-151.7448384812333,70.10225726155191,-132.15966661219153,71.55718332315959C-112.57449474314974,73.01210938476726,-92.98932287410797,74.80531396634241,-73.37732200250585,76.22816610920084C-53.76532113090374,77.65101825205927,-34.126491256741296,78.703517956201,-14.514490385139181,80.0612175318445C5.09751048646293,81.41891710748801,24.682682355504713,83.08181655463328,44.26785422454649,82.96411586781173C63.85302609358828,82.8464151809902,83.43819796263006,80.94811436020184,103.02336983167186,79.20135856292183C122.60854170071362,77.4546027656418,142.19371356975543,75.85939199187008,161.80571444135754,74.31019691349563C181.41771531295964,72.76100183512118,201.05654518712208,71.25782245214398,220.66854605872422,70.65814876341341C240.28054693032632,70.05847507468285,259.8657187993681,70.36230708019889,279.4508906684099,71.84503362325498C299.0360625374517,73.32776016631107,318.62123440649344,75.9893812469072,338.20640627553524,76.60647911149427C357.79157814457704,77.22357697608133,377.37675001361885,75.79615162465933,396.98875088522095,74.20028739105258C416.600751756823,72.60442315744582,436.2395816309854,70.8401200416543,455.85158250258763,69.49269867474179C475.4635833741897,68.14527730782929,495.0487552432315,67.2147376897958,514.6339271122733,68.90648492776431C534.2190989813151,70.59823216573282,553.8042708503568,74.91226625970334,573.3894427193986,79.20138220650786C592.9746145884404,83.49049815331237,612.5597864574821,87.7546959529509,632.1717873290843,89.51709397749738C651.7837882006864,91.27949200204387,671.4226180748489,90.54009025149833,691.0346189464509,88.64106774310962C710.646619818053,86.74204523472092,730.2317916870948,83.68340196848908,749.8169635561366,80.69127205582448C769.4021354251785,77.6991421431599,788.9873072942202,74.77352558406257,808.572479163262,73.28892905979897C828.1576510323038,71.80433253553538,847.7428229013454,71.76075604610553,867.3548237729477,71.78589440053314C886.9668246445498,71.81103275496075,906.6056545187122,71.90488595324585,926.2176553903142,72.6260958756096C945.8296562619165,73.34730579797333,965.4148281309582,74.69587244441574,975.2074140654792,75.37015576763693L985,76.04443909085813L985,76.04443909085813L975.2074140654792,75.37015576763694C965.4148281309582,74.69587244441574,945.8296562619165,73.34730579797333,926.2176553903142,72.6260958756096C906.6056545187122,71.90488595324585,886.9668246445498,71.81103275496075,867.3548237729477,71.78589440053314C847.7428229013454,71.76075604610553,828.1576510323038,71.80433253553538,808.5724791632618,73.28892905979897C788.9873072942202,74.77352558406257,769.4021354251785,77.6991421431599,749.8169635561366,80.69127205582448C730.2317916870948,83.68340196848908,710.646619818053,86.74204523472092,691.0346189464509,88.64106774310962C671.4226180748489,90.54009025149833,651.7837882006864,91.27949200204387,632.1717873290843,89.51709397749738C612.5597864574821,87.7546959529509,592.9746145884404,83.49049815331237,573.3894427193986,79.75970597732795C553.8042708503568,76.02891380134353,534.2190989813151,72.8315272490132,514.6339271122733,73.3730750943251C495.0487552432315,73.914622939637,475.4635833741897,78.19510518259109,455.8515825025875,84.56744048688451C436.2395816309854,90.93977579117791,416.600751756823,99.40396415681063,396.9887508852209,103.23312347369779C377.37675001361885,107.06228279058494,357.79157814457704,106.25641305872652,338.20640627553524,103.40602011085906C318.62123440649344,100.5556271629916,299.0360625374517,95.6607109991151,279.4508906684099,91.9446893727786C259.8657187993681,88.22866774644211,240.28054693032632,85.69154065764565,220.66854605872422,84.05791926309583C201.05654518712208,82.42429786854599,181.41771531295964,81.69418216824278,161.80571444135754,82.12672970497704C142.19371356975543,82.55927724171129,122.60854170071362,84.15448801548301,103.02336983167184,85.90124381276303C83.43819796263006,87.64799961004307,63.85302609358828,89.54630043083141,44.267854224546504,89.10567734683282C24.682682355504713,88.66505426283426,5.09751048646293,85.88550727404879,-14.514490385139183,84.5278076984053C-34.126491256741296,83.1701081227618,-53.76532113090374,83.23425596026027,-73.37732200250585,83.48637512986214C-92.98932287410797,83.73849429946401,-112.57449474314974,84.17858480116927,-132.15966661219153,84.956953822842C-151.7448384812333,85.73532284451473,-171.3300103502751,86.85197038615495,-190.91518221931688,86.18198186117081C-210.50035408835868,85.51199333618668,-230.08552595740045,83.05536874457825,-249.69752682900253,81.26873267795393C-269.30952770060463,79.4820966113296,-288.94835757476704,78.3654490696894,-308.5603584463692,77.2488015280492C-328.1723593179713,76.132153986409,-347.75753118701306,75.0155064447688,-367.3427030560549,74.45718267394871C-386.92787492509666,73.89885890312861,-406.5130467941385,73.89885890312861,-426.09821866318026,74.45718267394871C-445.68339053222206,75.0155064447688,-465.2685624012638,76.132153986409,-484.880563272866,76.132153986409C-504.4925641444681,76.132153986409,-524.1313940186305,75.0155064447688,-543.7433948902326,73.89885890312861C-563.3553957618348,72.78221136148841,-582.9405676308764,71.6655638198482,-592.7331535653974,71.1072400490281L-602.5257394999182,70.548916278208Z"><title>C/C++</title></path><path fill="#1f77b4" d="M-602.5257394999182,70.548916278208L-592.7331535653974,69.9905925073879C-582.9405676308764,69.43226873656779,-563.3553957618348,68.3156211949276,-543.7433948902326,67.1989736532874C-524.1313940186305,66.08232611164719,-504.4925641444681,64.965678570007,-484.8805632728659,63.849031028366795C-465.2685624012638,62.7323834867266,-445.68339053222206,61.61573594508639,-426.09821866318026,59.94076463262609C-406.5130467941385,58.26579332016579,-386.92787492509666,56.032498236885395,-367.3427030560549,55.4741744660653C-347.75753118701306,54.915850695245204,-328.1723593179713,56.0324982368854,-308.5603584463692,58.265793320165805C-288.94835757476704,60.499088403446194,-269.30952770060463,63.849031028366795,-249.69752682900253,63.402372011710725C-230.08552595740045,62.95571299505463,-210.50035408835868,58.712452336821876,-190.91518221931688,56.0324982368854C-171.3300103502751,53.352544136948914,-151.7448384812333,52.23589659530871,-132.15966661219153,51.457527573635986C-112.57449474314974,50.67915855196326,-92.98932287410797,50.239068050258005,-73.37732200250585,50.54527265147624C-53.76532113090374,50.85147725269447,-34.126491256741296,51.90397695683618,-14.514490385139181,51.02838144919929C5.09751048646293,50.15278594156238,24.682682355504713,47.34909522214684,44.26785422454649,46.11474699368512C63.85302609358828,44.88039876522338,83.43819796263006,45.21539302771544,103.02336983167186,45.14360854289572C122.60854170071362,45.071824058076,142.19371356975543,44.59326082594449,161.80571444135754,45.27736083085043C181.41771531295964,45.96146083575638,201.05654518712208,47.808224077699776,220.66854605872422,49.441845472249604C240.28054693032632,51.075466866799424,259.8657187993681,52.495946413955686,279.4508906684099,52.527031152879516C299.0360625374517,52.55811589180334,318.62123440649344,51.19980582249474,338.20640627553524,52.2635627037379C357.79157814457704,53.32731958498103,377.37675001361885,56.81314341677592,396.98875088522095,58.343892299761734C416.600751756823,59.874641182747546,436.2395816309854,59.450315116924266,455.85158250258763,59.331206045815975C475.4635833741897,59.21209697470769,495.0487552432315,59.3982048983144,514.6339271122733,61.648275907103006C534.2190989813151,63.898346915891615,553.8042708503568,68.21238100986214,573.3894427193986,71.38484941502647C592.9746145884404,74.55731782019076,612.5597864574821,76.58822053654887,632.1717873290843,77.23397101945517C651.7837882006864,77.87972150236145,671.4226180748489,77.14031975181592,691.0346189464509,76.35794478506743C710.646619818053,75.57556981831893,730.2317916870948,74.75022163536748,749.8169635561366,73.43306303516319C769.4021354251785,72.11590443495889,788.9873072942202,70.30693541750176,808.572479163262,69.49232741822229C828.1576510323038,68.67771941894281,847.7428229013454,68.857472437841,867.3548237729477,69.10594030059666C886.9668246445498,69.35440816335232,906.6056545187122,69.67159086996546,926.2176553903142,70.61613030065725C945.8296562619165,71.56066973134902,965.4148281309582,73.13256588611945,975.2074140654792,73.91851396350468L985,74.7044620408899L985,76.04443909085813L975.2074140654792,75.37015576763694C965.4148281309582,74.69587244441574,945.8296562619165,73.34730579797333,926.2176553903142,72.6260958756096C906.6056545187122,71.90488595324585,886.9668246445498,71.81103275496075,867.3548237729477,71.78589440053314C847.7428229013454,71.76075604610553,828.1576510323038,71.80433253553538,808.5724791632618,73.28892905979897C788.9873072942202,74.77352558406257,769.4021354251785,77.6991421431599,749.8169635561366,80.69127205582448C730.2317916870948,83.68340196848908,710.646619818053,86.74204523472092,691.0346189464509,88.64106774310962C671.4226180748489,90.54009025149833,651.7837882006864,91.27949200204387,632.1717873290843,89.51709397749738C612.5597864574821,87.7546959529509,592.9746145884404,83.49049815331237,573.3894427193986,79.20138220650786C553.8042708503568,74.91226625970334,534.2190989813151,70.59823216573282,514.6339271122733,68.34816115694422C495.0487552432315,66.0980901481556,475.4635833741897,65.91198222454891,455.8515825025875,65.026108508181C436.2395816309854,64.14023479181311,416.600751756823,62.554595282684026,396.9887508852209,60.24219312055008C377.37675001361885,57.92979095841613,357.79157814457704,54.89062614327732,338.20640627553524,54.27352827869026C318.62123440649344,53.65643041410319,299.0360625374517,55.46139950006787,279.4508906684099,57.886939352752485C259.8657187993681,60.31247920543709,240.28054693032632,63.35858982484164,220.66854605872422,65.6332348260325C201.05654518712208,67.90787982722338,181.41771531295964,69.41105921020058,161.80571444135754,69.28528297611473C142.19371356975543,69.15950674202888,122.60854170071362,67.40477489088,103.02336983167184,66.35991183405953C83.43819796263006,65.31504877723906,63.85302609358828,64.980054514747,44.267854224546504,65.09775520156852C24.682682355504713,65.21545588839007,5.09751048646293,65.78585152452519,-14.514490385139183,66.66144703216209C-34.126491256741296,67.537042539799,-53.76532113090374,68.71783791893768,-73.37732200250585,69.52828085935964C-92.98932287410797,70.33872379978162,-112.57449474314974,70.77881430148686,-132.15966661219153,70.44053578151939C-151.7448384812333,70.10225726155191,-171.3300103502751,68.98560971991172,-190.91518221931688,68.3156211949276C-210.50035408835868,67.64563266994348,-230.08552595740045,67.42230316161543,-249.69752682900253,65.63566709499112C-269.30952770060463,63.849031028366795,-288.94835757476704,60.499088403446194,-308.5603584463692,58.265793320165805C-328.1723593179713,56.0324982368854,-347.75753118701306,54.915850695245204,-367.3427030560549,55.4741744660653C-386.92787492509666,56.032498236885395,-406.5130467941385,58.26579332016579,-426.09821866318026,59.9407646326261C-445.68339053222206,61.61573594508639,-465.2685624012638,62.7323834867266,-484.880563272866,63.849031028366795C-504.4925641444681,64.965678570007,-524.1313940186305,66.08232611164719,-543.7433948902326,67.1989736532874C-563.3553957618348,68.3156211949276,-582.9405676308764,69.43226873656779,-592.7331535653974,69.99059250738789L-602.5257394999182,70.548916278208Z"><title>Java</title></path><path fill="#2ca02c" d="M-602.5257394999182,70.548916278208L-592.7331535653974,71.1072400490281C-582.9405676308764,71.6655638198482,-563.3553957618348,72.78221136148841,-543.7433948902326,73.8988589031286C-524.1313940186305,75.0155064447688,-504.4925641444681,76.132153986409,-484.8805632728659,76.132153986409C-465.2685624012638,76.132153986409,-445.68339053222206,75.0155064447688,-426.09821866318026,74.45718267394871C-406.5130467941385,73.89885890312861,-386.92787492509666,73.89885890312861,-367.3427030560549,73.3405351323085C-347.75753118701306,72.78221136148841,-328.1723593179713,71.6655638198482,-308.5603584463692,70.548916278208C-288.94835757476704,69.43226873656779,-269.30952770060463,68.3156211949276,-249.69752682900253,67.86896217827153C-230.08552595740045,67.42230316161543,-210.50035408835868,67.64563266994348,-190.91518221931688,68.3156211949276C-171.3300103502751,68.98560971991172,-151.7448384812333,70.10225726155191,-132.15966661219153,70.44053578151939C-112.57449474314974,70.77881430148686,-92.98932287410797,70.33872379978162,-73.37732200250585,69.52828085935964C-53.76532113090374,68.71783791893768,-34.126491256741296,67.537042539799,-14.514490385139181,66.6614470321621C5.09751048646293,65.78585152452519,24.682682355504713,65.21545588839007,44.26785422454649,66.21440274320872C63.85302609358828,67.21334959802739,83.43819796263006,69.78163894379986,103.02336983167186,71.38482577144043C122.60854170071362,72.988012599081,142.19371356975543,73.62609690858969,161.80571444135754,72.63522560103533C181.41771531295964,71.64435429348099,201.05654518712208,69.02452736886359,220.66854605872422,66.19155859685262C240.28054693032632,63.35858982484164,259.8657187993681,60.31247920543709,279.4508906684099,57.88693935275248C299.0360625374517,55.46139950006787,318.62123440649344,53.65643041410319,338.20640627553524,54.273528278690264C357.79157814457704,54.89062614327732,377.37675001361885,57.92979095841613,396.98875088522095,60.24219312055008C416.600751756823,62.554595282684026,436.2395816309854,64.14023479181311,455.85158250258763,65.02610850818101C475.4635833741897,65.91198222454891,495.0487552432315,66.0980901481556,514.6339271122733,68.34816115694422C534.2190989813151,70.59823216573282,553.8042708503568,74.91226625970334,573.3894427193986,79.20138220650786C592.9746145884404,83.49049815331237,612.5597864574821,87.7546959529509,632.1717873290843,89.51709397749738C651.7837882006864,91.27949200204387,671.4226180748489,90.54009025149833,691.0346189464509,88.64106774310962C710.646619818053,86.74204523472092,730.2317916870948,83.68340196848908,749.8169635561366,80.69127205582448C769.4021354251785,77.6991421431599,788.9873072942202,74.77352558406257,808.572479163262,73.28892905979897C828.1576510323038,71.80433253553538,847.7428229013454,71.76075604610553,867.3548237729477,71.78589440053314C886.9668246445498,71.81103275496075,906.6056545187122,71.90488595324585,926.2176553903142,72.6260958756096C945.8296562619165,73.34730579797333,965.4148281309582,74.69587244441574,975.2074140654792,75.37015576763693L985,76.04443909085813L985,76.04443909085813L975.2074140654792,75.37015576763694C965.4148281309582,74.69587244441574,945.8296562619165,73.34730579797333,926.2176553903142,72.6260958756096C906.6056545187122,71.90488595324585,886.9668246445498,71.81103275496075,867.3548237729477,71.78589440053314C847.7428229013454,71.76075604610553,828.1576510323038,71.80433253553538,808.5724791632618,73.28892905979897C788.9873072942202,74.77352558406257,769.4021354251785,77.6991421431599,749.8169635561366,80.69127205582448C730.2317916870948,83.68340196848908,710.646619818053,86.74204523472092,691.0346189464509,88.64106774310962C671.4226180748489,90.54009025149833,651.7837882006864,91.27949200204387,632.1717873290843,89.51709397749738C612.5597864574821,87.7546959529509,592.9746145884404,83.49049815331237,573.3894427193986,79.20138220650786C553.8042708503568,74.91226625970334,534.2190989813151,70.59823216573282,514.6339271122733,68.34816115694422C495.0487552432315,66.0980901481556,475.4635833741897,65.91198222454891,455.8515825025875,65.026108508181C436.2395816309854,64.14023479181311,416.600751756823,62.554595282684026,396.9887508852209,60.24219312055008C377.37675001361885,57.92979095841613,357.79157814457704,54.89062614327732,338.20640627553524,54.27352827869026C318.62123440649344,53.65643041410319,299.0360625374517,55.46139950006787,279.4508906684099,57.886939352752485C259.8657187993681,60.31247920543709,240.28054693032632,63.35858982484164,220.66854605872422,66.19155859685262C201.05654518712208,69.02452736886359,181.41771531295964,71.64435429348099,161.80571444135754,73.75187314267554C142.19371356975543,75.85939199187008,122.60854170071362,77.4546027656418,103.02336983167184,79.20135856292183C83.43819796263006,80.94811436020184,63.85302609358828,82.8464151809902,44.267854224546504,82.96411586781174C24.682682355504713,83.08181655463328,5.09751048646293,81.41891710748801,-14.514490385139183,80.0612175318445C-34.126491256741296,78.703517956201,-53.76532113090374,77.65101825205927,-73.37732200250585,76.22816610920084C-92.98932287410797,74.80531396634241,-112.57449474314974,73.01210938476726,-132.15966661219153,71.55718332315958C-151.7448384812333,70.10225726155191,-171.3300103502751,68.98560971991172,-190.91518221931688,68.3156211949276C-210.50035408835868,67.64563266994348,-230.08552595740045,67.42230316161543,-249.69752682900253,67.86896217827153C-269.30952770060463,68.3156211949276,-288.94835757476704,69.43226873656779,-308.5603584463692,70.548916278208C-328.1723593179713,71.6655638198482,-347.75753118701306,72.78221136148841,-367.3427030560549,73.3405351323085C-386.92787492509666,73.89885890312861,-406.5130467941385,73.89885890312861,-426.09821866318026,74.45718267394871C-445.68339053222206,75.0155064447688,-465.2685624012638,76.132153986409,-484.880563272866,76.132153986409C-504.4925641444681,76.132153986409,-524.1313940186305,75.0155064447688,-543.7433948902326,73.89885890312861C-563.3553957618348,72.78221136148841,-582.9405676308764,71.6655638198482,-592.7331535653974,71.1072400490281L-602.5257394999182,70.548916278208Z"><title>PHP</title></path><path fill="#9467bd" d="M-602.5257394999182,70.548916278208L-592.7331535653974,71.1072400490281C-582.9405676308764,71.6655638198482,-563.3553957618348,72.78221136148841,-543.7433948902326,73.8988589031286C-524.1313940186305,75.0155064447688,-504.4925641444681,76.132153986409,-484.8805632728659,76.132153986409C-465.2685624012638,76.132153986409,-445.68339053222206,75.0155064447688,-426.09821866318026,74.45718267394871C-406.5130467941385,73.89885890312861,-386.92787492509666,73.89885890312861,-367.3427030560549,74.45718267394871C-347.75753118701306,75.0155064447688,-328.1723593179713,76.132153986409,-308.5603584463692,77.2488015280492C-288.94835757476704,78.3654490696894,-269.30952770060463,79.4820966113296,-249.69752682900253,81.26873267795392C-230.08552595740045,83.05536874457825,-210.50035408835868,85.51199333618668,-190.91518221931688,86.18198186117081C-171.3300103502751,86.85197038615495,-151.7448384812333,85.73532284451473,-132.15966661219153,84.956953822842C-112.57449474314974,84.17858480116927,-92.98932287410797,83.73849429946401,-73.37732200250585,83.48637512986214C-53.76532113090374,83.23425596026027,-34.126491256741296,83.1701081227618,-14.514490385139181,84.5278076984053C5.09751048646293,85.88550727404879,24.682682355504713,88.66505426283426,44.26785422454649,89.10567734683282C63.85302609358828,89.54630043083141,83.43819796263006,87.64799961004307,103.02336983167186,85.90124381276303C122.60854170071362,84.15448801548301,142.19371356975543,82.55927724171129,161.80571444135754,82.12672970497702C181.41771531295964,81.69418216824278,201.05654518712208,82.42429786854599,220.66854605872422,84.05791926309583C240.28054693032632,85.69154065764565,259.8657187993681,88.22866774644211,279.4508906684099,91.9446893727786C299.0360625374517,95.6607109991151,318.62123440649344,100.5556271629916,338.20640627553524,103.40602011085906C357.79157814457704,106.25641305872652,377.37675001361885,107.06228279058494,396.98875088522095,104.34977101533799C416.600751756823,101.63725924009104,436.2395816309854,95.40636595773873,455.85158250258763,91.26732573672574C475.4635833741897,87.12828551571272,495.0487552432315,85.08109835603902,514.6339271122733,86.7728455940075C534.2190989813151,88.46459283197602,553.8042708503568,93.89527446758676,573.3894427193986,98.18439041439126C592.9746145884404,102.47350636119579,612.5597864574821,105.6210566191941,632.1717873290843,109.61674972702099C651.7837882006864,113.61244283484787,671.4226180748489,118.45627879250333,691.0346189464509,117.11558005493474C710.646619818053,115.77488131736614,730.2317916870948,108.24964788457349,749.8169635561366,105.25751797190891C769.4021354251785,102.2653880592443,788.9873072942202,103.80636166670779,808.572479163262,105.6717077673648C828.1576510323038,107.53705386802181,847.7428229013454,109.72677246187236,867.3548237729477,109.75191081629997C886.9668246445498,109.77704917072758,906.6056545187122,107.63760728573226,926.2176553903142,107.24216966645581C945.8296562619165,106.84673204717934,965.4148281309582,108.19529869362175,975.2074140654792,108.86958201684295L985,109.54386534006414L985,129.64352108958775L975.2074140654792,128.96923776636655C965.4148281309582,128.29495444314537,945.8296562619165,126.94638779670295,926.2176553903142,126.22517787433922C906.6056545187122,125.50396795197548,886.9668246445498,125.41011475369038,867.3548237729477,123.15168131598234C847.7428229013454,120.89324787827434,828.1576510323038,116.4702342011434,808.5724791632618,113.4882405588462C788.9873072942202,110.50624691654899,769.4021354251785,108.9652733090855,749.8169635561366,111.9574032217501C730.2317916870948,114.9495331344147,710.646619818053,122.47476656720734,691.0346189464509,123.25714153395582C671.4226180748489,124.03951650070434,651.7837882006864,118.07903300140867,632.1717873290843,113.19002186026962C612.5597864574821,108.30101071913056,592.9746145884404,104.48347193614813,573.3894427193986,100.19435598934363C553.8042708503568,95.9052400425391,534.2190989813151,91.1445469319125,514.6339271122733,90.34611772725616C495.0487552432315,89.54768852259981,475.4635833741897,92.71152322391372,455.8515825025875,96.8505634449267C436.2395816309854,100.98960366593973,416.600751756823,106.10384940665183,396.9887508852209,107.8113783944226C377.37675001361885,109.51890738219339,357.79157814457704,107.81971961702281,338.20640627553524,104.52266765249927C318.62123440649344,101.22561568797573,299.0360625374517,96.3306995240992,279.4508906684099,93.0613369144188C259.8657187993681,89.79197430473839,240.28054693032632,88.14816524925409,220.66854605872422,87.51952664218044C201.05654518712208,86.8908880351068,181.41771531295964,87.27741987644379,161.80571444135754,87.70996741317805C142.19371356975543,88.14251494991231,122.60854170071362,88.6210781820438,103.02336983167184,89.69784545433971C83.43819796263006,90.77461272663562,63.85302609358828,92.44958403909591,44.267854224546504,91.67396669260529C24.682682355504713,90.89834934611467,5.09751048646293,87.67214334067312,-14.514490385139183,85.97944950253755C-34.126491256741296,84.28675566440201,-53.76532113090374,84.12757399357245,-73.37732200250585,84.15636365484627C-92.98932287410797,84.1851533161201,-112.57449474314974,84.40191430949731,-132.15966661219153,85.06861857700602C-151.7448384812333,85.73532284451473,-171.3300103502751,86.85197038615495,-190.91518221931688,86.18198186117081C-210.50035408835868,85.51199333618668,-230.08552595740045,83.05536874457825,-249.69752682900253,81.26873267795393C-269.30952770060463,79.4820966113296,-288.94835757476704,78.3654490696894,-308.5603584463692,77.2488015280492C-328.1723593179713,76.132153986409,-347.75753118701306,75.0155064447688,-367.3427030560549,74.45718267394871C-386.92787492509666,73.89885890312861,-406.5130467941385,73.89885890312861,-426.09821866318026,74.45718267394871C-445.68339053222206,75.0155064447688,-465.2685624012638,76.132153986409,-484.880563272866,76.132153986409C-504.4925641444681,76.132153986409,-524.1313940186305,75.0155064447688,-543.7433948902326,73.89885890312861C-563.3553957618348,72.78221136148841,-582.9405676308764,71.6655638198482,-592.7331535653974,71.1072400490281L-602.5257394999182,70.548916278208Z"><title>JavaScript</title></path><path fill="#e377c2" d="M-602.5257394999182,70.548916278208L-592.7331535653974,69.9905925073879C-582.9405676308764,69.43226873656779,-563.3553957618348,68.3156211949276,-543.7433948902326,67.1989736532874C-524.1313940186305,66.08232611164719,-504.4925641444681,64.965678570007,-484.8805632728659,63.849031028366795C-465.2685624012638,62.7323834867266,-445.68339053222206,61.61573594508639,-426.09821866318026,59.94076463262609C-406.5130467941385,58.26579332016579,-386.92787492509666,56.032498236885395,-367.3427030560549,55.4741744660653C-347.75753118701306,54.915850695245204,-328.1723593179713,56.0324982368854,-308.5603584463692,58.265793320165805C-288.94835757476704,60.499088403446194,-269.30952770060463,63.849031028366795,-249.69752682900253,63.402372011710725C-230.08552595740045,62.95571299505463,-210.50035408835868,58.712452336821876,-190.91518221931688,56.0324982368854C-171.3300103502751,53.352544136948914,-151.7448384812333,52.23589659530871,-132.15966661219153,51.457527573635986C-112.57449474314974,50.67915855196326,-92.98932287410797,50.239068050258005,-73.37732200250585,50.54527265147624C-53.76532113090374,50.85147725269447,-34.126491256741296,51.90397695683618,-14.514490385139181,51.02838144919929C5.09751048646293,50.15278594156238,24.682682355504713,47.34909522214684,44.26785422454649,46.11474699368512C63.85302609358828,44.88039876522338,83.43819796263006,45.21539302771544,103.02336983167186,44.585284772075624C122.60854170071362,43.95517651643579,142.19371356975543,42.35996574266408,161.80571444135754,41.927418205929825C181.41771531295964,41.49487066919557,201.05654518712208,42.22498636949877,220.66854605872422,42.183636451588306C240.28054693032632,42.14228653367783,259.8657187993681,41.32947099755369,279.4508906684099,39.12726065319712C299.0360625374517,36.92505030884054,318.62123440649344,33.333445156251535,338.20640627553524,32.16390695421428C357.79157814457704,30.994368752177028,377.37675001361885,32.246897500691524,396.98875088522095,36.01094146695773C416.600751756823,39.77498543322394,436.2395816309854,46.05054461724186,455.85158250258763,50.398025712694384C475.4635833741897,54.7455068081469,495.0487552432315,57.164909815034,514.6339271122733,60.53162836546281C534.2190989813151,63.898346915891615,553.8042708503568,68.21238100986214,573.3894427193986,71.38484941502647C592.9746145884404,74.55731782019076,612.5597864574821,76.58822053654887,632.1717873290843,77.23397101945517C651.7837882006864,77.87972150236145,671.4226180748489,77.14031975181592,691.0346189464509,76.35794478506743C710.646619818053,75.57556981831893,730.2317916870948,74.75022163536748,749.8169635561366,73.43306303516319C769.4021354251785,72.11590443495889,788.9873072942202,70.30693541750176,808.572479163262,69.49232741822229C828.1576510323038,68.67771941894281,847.7428229013454,68.857472437841,867.3548237729477,69.10594030059666C886.9668246445498,69.35440816335232,906.6056545187122,69.67159086996546,926.2176553903142,70.61613030065725C945.8296562619165,71.56066973134902,965.4148281309582,73.13256588611945,975.2074140654792,73.91851396350468L985,74.7044620408899L985,74.7044620408899L975.2074140654792,73.91851396350468C965.4148281309582,73.13256588611945,945.8296562619165,71.56066973134902,926.2176553903142,70.61613030065725C906.6056545187122,69.67159086996546,886.9668246445498,69.35440816335232,867.3548237729477,69.10594030059666C847.7428229013454,68.857472437841,828.1576510323038,68.67771941894281,808.5724791632618,69.49232741822229C788.9873072942202,70.30693541750176,769.4021354251785,72.11590443495889,749.8169635561366,73.43306303516319C730.2317916870948,74.75022163536748,710.646619818053,75.57556981831893,691.0346189464509,76.35794478506743C671.4226180748489,77.14031975181592,651.7837882006864,77.87972150236145,632.1717873290843,77.23397101945517C612.5597864574821,76.58822053654887,592.9746145884404,74.55731782019076,573.3894427193986,71.38484941502647C553.8042708503568,68.21238100986214,534.2190989813151,63.898346915891615,514.6339271122733,61.648275907103006C495.0487552432315,59.3982048983144,475.4635833741897,59.21209697470769,455.8515825025875,59.331206045815975C436.2395816309854,59.450315116924266,416.600751756823,59.874641182747546,396.9887508852209,58.343892299761734C377.37675001361885,56.81314341677592,357.79157814457704,53.32731958498103,338.20640627553524,52.2635627037379C318.62123440649344,51.19980582249474,299.0360625374517,52.55811589180334,279.4508906684099,52.527031152879516C259.8657187993681,52.495946413955686,240.28054693032632,51.075466866799424,220.66854605872422,49.441845472249604C201.05654518712208,47.808224077699776,181.41771531295964,45.96146083575638,161.80571444135754,45.27736083085043C142.19371356975543,44.59326082594449,122.60854170071362,45.071824058076,103.02336983167184,45.14360854289572C83.43819796263006,45.21539302771544,63.85302609358828,44.88039876522338,44.267854224546504,46.11474699368512C24.682682355504713,47.34909522214684,5.09751048646293,50.15278594156238,-14.514490385139183,51.02838144919928C-34.126491256741296,51.90397695683618,-53.76532113090374,50.85147725269447,-73.37732200250585,50.54527265147624C-92.98932287410797,50.239068050258005,-112.57449474314974,50.67915855196326,-132.15966661219153,51.457527573635986C-151.7448384812333,52.23589659530871,-171.3300103502751,53.352544136948914,-190.91518221931688,56.0324982368854C-210.50035408835868,58.712452336821876,-230.08552595740045,62.95571299505463,-249.69752682900253,63.402372011710725C-269.30952770060463,63.849031028366795,-288.94835757476704,60.499088403446194,-308.5603584463692,58.265793320165805C-328.1723593179713,56.0324982368854,-347.75753118701306,54.915850695245204,-367.3427030560549,55.4741744660653C-386.92787492509666,56.032498236885395,-406.5130467941385,58.26579332016579,-426.09821866318026,59.9407646326261C-445.68339053222206,61.61573594508639,-465.2685624012638,62.7323834867266,-484.880563272866,63.849031028366795C-504.4925641444681,64.965678570007,-524.1313940186305,66.08232611164719,-543.7433948902326,67.1989736532874C-563.3553957618348,68.3156211949276,-582.9405676308764,69.43226873656779,-592.7331535653974,69.99059250738789L-602.5257394999182,70.548916278208Z"><title>MATLAB</title></path><path fill="#7f7f7f" d="M-602.5257394999182,70.548916278208L-592.7331535653974,71.1072400490281C-582.9405676308764,71.6655638198482,-563.3553957618348,72.78221136148841,-543.7433948902326,73.8988589031286C-524.1313940186305,75.0155064447688,-504.4925641444681,76.132153986409,-484.8805632728659,76.132153986409C-465.2685624012638,76.132153986409,-445.68339053222206,75.0155064447688,-426.09821866318026,74.45718267394871C-406.5130467941385,73.89885890312861,-386.92787492509666,73.89885890312861,-367.3427030560549,73.3405351323085C-347.75753118701306,72.78221136148841,-328.1723593179713,71.6655638198482,-308.5603584463692,70.548916278208C-288.94835757476704,69.43226873656779,-269.30952770060463,68.3156211949276,-249.69752682900253,67.86896217827153C-230.08552595740045,67.42230316161543,-210.50035408835868,67.64563266994348,-190.91518221931688,68.3156211949276C-171.3300103502751,68.98560971991172,-151.7448384812333,70.10225726155191,-132.15966661219153,71.55718332315959C-112.57449474314974,73.01210938476726,-92.98932287410797,74.80531396634241,-73.37732200250585,76.22816610920084C-53.76532113090374,77.65101825205927,-34.126491256741296,78.703517956201,-14.514490385139181,80.0612175318445C5.09751048646293,81.41891710748801,24.682682355504713,83.08181655463328,44.26785422454649,82.96411586781173C63.85302609358828,82.8464151809902,83.43819796263006,80.94811436020184,103.02336983167186,79.20135856292183C122.60854170071362,77.4546027656418,142.19371356975543,75.85939199187008,161.80571444135754,73.75187314267554C181.41771531295964,71.64435429348099,201.05654518712208,69.02452736886359,220.66854605872422,66.19155859685262C240.28054693032632,63.35858982484164,259.8657187993681,60.31247920543709,279.4508906684099,57.88693935275248C299.0360625374517,55.46139950006787,318.62123440649344,53.65643041410319,338.20640627553524,54.273528278690264C357.79157814457704,54.89062614327732,377.37675001361885,57.92979095841613,396.98875088522095,60.24219312055008C416.600751756823,62.554595282684026,436.2395816309854,64.14023479181311,455.85158250258763,65.02610850818101C475.4635833741897,65.91198222454891,495.0487552432315,66.0980901481556,514.6339271122733,68.34816115694422C534.2190989813151,70.59823216573282,553.8042708503568,74.91226625970334,573.3894427193986,79.20138220650786C592.9746145884404,83.49049815331237,612.5597864574821,87.7546959529509,632.1717873290843,89.51709397749738C651.7837882006864,91.27949200204387,671.4226180748489,90.54009025149833,691.0346189464509,88.64106774310962C710.646619818053,86.74204523472092,730.2317916870948,83.68340196848908,749.8169635561366,80.69127205582448C769.4021354251785,77.6991421431599,788.9873072942202,74.77352558406257,808.572479163262,73.28892905979897C828.1576510323038,71.80433253553538,847.7428229013454,71.76075604610553,867.3548237729477,71.78589440053314C886.9668246445498,71.81103275496075,906.6056545187122,71.90488595324585,926.2176553903142,72.6260958756096C945.8296562619165,73.34730579797333,965.4148281309582,74.69587244441574,975.2074140654792,75.37015576763693L985,76.04443909085813L985,76.04443909085813L975.2074140654792,75.37015576763694C965.4148281309582,74.69587244441574,945.8296562619165,73.34730579797333,926.2176553903142,72.6260958756096C906.6056545187122,71.90488595324585,886.9668246445498,71.81103275496075,867.3548237729477,71.78589440053314C847.7428229013454,71.76075604610553,828.1576510323038,71.80433253553538,808.5724791632618,73.28892905979897C788.9873072942202,74.77352558406257,769.4021354251785,77.6991421431599,749.8169635561366,80.69127205582448C730.2317916870948,83.68340196848908,710.646619818053,86.74204523472092,691.0346189464509,88.64106774310962C671.4226180748489,90.54009025149833,651.7837882006864,91.27949200204387,632.1717873290843,89.51709397749738C612.5597864574821,87.7546959529509,592.9746145884404,83.49049815331237,573.3894427193986,79.20138220650786C553.8042708503568,74.91226625970334,534.2190989813151,70.59823216573282,514.6339271122733,68.90648492776431C495.0487552432315,67.2147376897958,475.4635833741897,68.14527730782929,455.8515825025875,69.4926986747418C436.2395816309854,70.8401200416543,416.600751756823,72.60442315744582,396.9887508852209,74.20028739105258C377.37675001361885,75.79615162465933,357.79157814457704,77.22357697608133,338.20640627553524,76.60647911149425C318.62123440649344,75.9893812469072,299.0360625374517,73.32776016631107,279.4508906684099,71.84503362325498C259.8657187993681,70.36230708019889,240.28054693032632,70.05847507468285,220.66854605872422,70.65814876341342C201.05654518712208,71.25782245214398,181.41771531295964,72.76100183512118,161.80571444135754,74.31019691349563C142.19371356975543,75.85939199187008,122.60854170071362,77.4546027656418,103.02336983167184,79.20135856292183C83.43819796263006,80.94811436020184,63.85302609358828,82.8464151809902,44.267854224546504,82.96411586781174C24.682682355504713,83.08181655463328,5.09751048646293,81.41891710748801,-14.514490385139183,80.0612175318445C-34.126491256741296,78.703517956201,-53.76532113090374,77.65101825205927,-73.37732200250585,76.22816610920084C-92.98932287410797,74.80531396634241,-112.57449474314974,73.01210938476726,-132.15966661219153,71.55718332315958C-151.7448384812333,70.10225726155191,-171.3300103502751,68.98560971991172,-190.91518221931688,68.3156211949276C-210.50035408835868,67.64563266994348,-230.08552595740045,67.42230316161543,-249.69752682900253,67.86896217827153C-269.30952770060463,68.3156211949276,-288.94835757476704,69.43226873656779,-308.5603584463692,70.548916278208C-328.1723593179713,71.6655638198482,-347.75753118701306,72.78221136148841,-367.3427030560549,73.3405351323085C-386.92787492509666,73.89885890312861,-406.5130467941385,73.89885890312861,-426.09821866318026,74.45718267394871C-445.68339053222206,75.0155064447688,-465.2685624012638,76.132153986409,-484.880563272866,76.132153986409C-504.4925641444681,76.132153986409,-524.1313940186305,75.0155064447688,-543.7433948902326,73.89885890312861C-563.3553957618348,72.78221136148841,-582.9405676308764,71.6655638198482,-592.7331535653974,71.1072400490281L-602.5257394999182,70.548916278208Z"><title>Scheme</title></path><path fill="#ffd43b" d="M-602.5257394999182,70.548916278208L-592.7331535653974,69.9905925073879C-582.9405676308764,69.43226873656779,-563.3553957618348,68.3156211949276,-543.7433948902326,67.1989736532874C-524.1313940186305,66.08232611164719,-504.4925641444681,64.965678570007,-484.8805632728659,63.849031028366795C-465.2685624012638,62.7323834867266,-445.68339053222206,61.61573594508639,-426.09821866318026,59.94076463262609C-406.5130467941385,58.26579332016579,-386.92787492509666,56.032498236885395,-367.3427030560549,55.4741744660653C-347.75753118701306,54.915850695245204,-328.1723593179713,56.0324982368854,-308.5603584463692,58.265793320165805C-288.94835757476704,60.499088403446194,-269.30952770060463,63.849031028366795,-249.69752682900253,63.402372011710725C-230.08552595740045,62.95571299505463,-210.50035408835868,58.712452336821876,-190.91518221931688,56.0324982368854C-171.3300103502751,53.352544136948914,-151.7448384812333,52.23589659530871,-132.15966661219153,51.457527573635986C-112.57449474314974,50.67915855196326,-92.98932287410797,50.239068050258005,-73.37732200250585,50.54527265147624C-53.76532113090374,50.85147725269447,-34.126491256741296,51.90397695683618,-14.514490385139181,51.02838144919929C5.09751048646293,50.15278594156238,24.682682355504713,47.34909522214684,44.26785422454649,46.11474699368512C63.85302609358828,44.88039876522338,83.43819796263006,45.21539302771544,103.02336983167186,44.585284772075624C122.60854170071362,43.95517651643579,142.19371356975543,42.35996574266408,161.80571444135754,41.927418205929825C181.41771531295964,41.49487066919557,201.05654518712208,42.22498636949877,220.66854605872422,41.0669889099481C240.28054693032632,39.90899145039744,259.8657187993681,36.86288083099289,279.4508906684099,32.42737540335592C299.0360625374517,27.991869975718938,318.62123440649344,22.16696973984953,338.20640627553524,16.53084137125147C357.79157814457704,10.894713002653411,377.37675001361885,5.447356501326706,396.98875088522095,4.744810301032114C416.600751756823,4.0422641007375235,436.2395816309854,8.084528201475047,455.85158250258763,12.43200929692756C475.4635833741897,16.779490392380072,495.0487552432315,21.432188482547577,514.6339271122733,20.33231686641559C534.2190989813151,19.2324452502836,553.8042708503568,12.380003927852115,573.3894427193986,8.852587083175228C592.9746145884404,5.325170238498341,612.5597864574821,5.122777871576052,632.1717873290843,5.21020458366224C651.7837882006864,5.2976312957484275,671.4226180748489,5.6748770868430904,691.0346189464509,9.917416057475497C710.646619818053,14.159955028107902,730.2317916870948,22.267787178278045,749.8169635561366,25.97554251545466C769.4021354251785,29.683297852631274,788.9873072942202,28.99097637681435,808.572479163262,26.50139706507458C828.1576510323038,24.011817753334807,847.7428229013454,19.724980605672183,867.3548237729477,17.74015338514744C886.9668246445498,15.755326164622696,906.6056545187122,16.072508871235833,926.2176553903142,14.783753218647218C945.8296562619165,13.494997566058606,965.4148281309582,10.600303554268242,975.2074140654792,9.15295654837306L985,7.705609542477879L985,54.60480629136628L975.2074140654792,54.93550575562126C965.4148281309582,55.26620521987625,945.8296562619165,55.92760414838622,926.2176553903142,54.98306471769444C906.6056545187122,54.03852528700265,886.9668246445498,51.48804749710911,867.3548237729477,50.122932092713256C847.7428229013454,48.7578166883174,828.1576510323038,48.578063669419215,808.5724791632618,47.15937658541829C788.9873072942202,45.74068950141736,769.4021354251785,43.08306835231368,749.8169635561366,36.58369416103656C730.2317916870948,30.08431996975945,710.646619818053,19.743192736308902,691.0346189464509,14.9423299948564C671.4226180748489,10.141467253403897,651.7837882006864,10.880869003949435,632.1717873290843,13.585061145963744C612.5597864574821,16.289253287978056,592.9746145884404,20.95823582146114,573.3894427193986,25.602300207778228C553.8042708503568,30.246364594095315,534.2190989813151,34.8655108332464,514.6339271122733,37.082029991018594C495.0487552432315,39.29854914879079,475.4635833741897,39.112441225184085,455.8515825025875,38.11490275465217C436.2395816309854,37.117364284120264,416.600751756823,35.30839526666314,396.9887508852209,33.77764638367733C377.37675001361885,32.246897500691524,357.79157814457704,30.994368752177028,338.20640627553524,32.16390695421428C318.62123440649344,33.333445156251535,299.0360625374517,36.92505030884054,279.4508906684099,39.12726065319711C259.8657187993681,41.32947099755369,240.28054693032632,42.14228653367783,220.66854605872422,42.183636451588306C201.05654518712208,42.22498636949877,181.41771531295964,41.49487066919557,161.80571444135754,41.92741820592983C142.19371356975543,42.35996574266408,122.60854170071362,43.95517651643579,103.02336983167184,44.585284772075624C83.43819796263006,45.21539302771544,63.85302609358828,44.88039876522338,44.267854224546504,46.11474699368512C24.682682355504713,47.34909522214684,5.09751048646293,50.15278594156238,-14.514490385139183,51.02838144919928C-34.126491256741296,51.90397695683618,-53.76532113090374,50.85147725269447,-73.37732200250585,50.54527265147624C-92.98932287410797,50.239068050258005,-112.57449474314974,50.67915855196326,-132.15966661219153,51.457527573635986C-151.7448384812333,52.23589659530871,-171.3300103502751,53.352544136948914,-190.91518221931688,56.0324982368854C-210.50035408835868,58.712452336821876,-230.08552595740045,62.95571299505463,-249.69752682900253,63.402372011710725C-269.30952770060463,63.849031028366795,-288.94835757476704,60.499088403446194,-308.5603584463692,58.265793320165805C-328.1723593179713,56.0324982368854,-347.75753118701306,54.915850695245204,-367.3427030560549,55.4741744660653C-386.92787492509666,56.032498236885395,-406.5130467941385,58.26579332016579,-426.09821866318026,59.9407646326261C-445.68339053222206,61.61573594508639,-465.2685624012638,62.7323834867266,-484.880563272866,63.849031028366795C-504.4925641444681,64.965678570007,-524.1313940186305,66.08232611164719,-543.7433948902326,67.1989736532874C-563.3553957618348,68.3156211949276,-582.9405676308764,69.43226873656779,-592.7331535653974,69.99059250738789L-602.5257394999182,70.548916278208Z"><title>Python</title></path><path fill="#aec7e8" d="M-602.5257394999182,70.548916278208L-592.7331535653974,69.9905925073879C-582.9405676308764,69.43226873656779,-563.3553957618348,68.3156211949276,-543.7433948902326,67.1989736532874C-524.1313940186305,66.08232611164719,-504.4925641444681,64.965678570007,-484.8805632728659,63.849031028366795C-465.2685624012638,62.7323834867266,-445.68339053222206,61.61573594508639,-426.09821866318026,59.94076463262609C-406.5130467941385,58.26579332016579,-386.92787492509666,56.032498236885395,-367.3427030560549,55.4741744660653C-347.75753118701306,54.915850695245204,-328.1723593179713,56.0324982368854,-308.5603584463692,58.265793320165805C-288.94835757476704,60.499088403446194,-269.30952770060463,63.849031028366795,-249.69752682900253,63.402372011710725C-230.08552595740045,62.95571299505463,-210.50035408835868,58.712452336821876,-190.91518221931688,56.0324982368854C-171.3300103502751,53.352544136948914,-151.7448384812333,52.23589659530871,-132.15966661219153,51.457527573635986C-112.57449474314974,50.67915855196326,-92.98932287410797,50.239068050258005,-73.37732200250585,50.54527265147624C-53.76532113090374,50.85147725269447,-34.126491256741296,51.90397695683618,-14.514490385139181,51.02838144919929C5.09751048646293,50.15278594156238,24.682682355504713,47.34909522214684,44.26785422454649,46.11474699368512C63.85302609358828,44.88039876522338,83.43819796263006,45.21539302771544,103.02336983167186,44.585284772075624C122.60854170071362,43.95517651643579,142.19371356975543,42.35996574266408,161.80571444135754,41.927418205929825C181.41771531295964,41.49487066919557,201.05654518712208,42.22498636949877,220.66854605872422,42.183636451588306C240.28054693032632,42.14228653367783,259.8657187993681,41.32947099755369,279.4508906684099,39.12726065319712C299.0360625374517,36.92505030884054,318.62123440649344,33.333445156251535,338.20640627553524,32.16390695421428C357.79157814457704,30.994368752177028,377.37675001361885,32.246897500691524,396.98875088522095,33.77764638367733C416.600751756823,35.30839526666314,436.2395816309854,37.117364284120264,455.85158250258763,38.11490275465217C475.4635833741897,39.112441225184085,495.0487552432315,39.29854914879079,514.6339271122733,37.082029991018594C534.2190989813151,34.8655108332464,553.8042708503568,30.246364594095315,573.3894427193986,25.602300207778228C592.9746145884404,20.95823582146114,612.5597864574821,16.289253287978056,632.1717873290843,13.585061145963747C651.7837882006864,10.880869003949435,671.4226180748489,10.141467253403897,691.0346189464509,14.9423299948564C710.646619818053,19.743192736308902,730.2317916870948,30.08431996975945,749.8169635561366,36.58369416103656C769.4021354251785,43.08306835231368,788.9873072942202,45.74068950141736,808.572479163262,47.15937658541829C828.1576510323038,48.578063669419215,847.7428229013454,48.7578166883174,867.3548237729477,50.122932092713256C886.9668246445498,51.48804749710911,906.6056545187122,54.03852528700265,926.2176553903142,54.98306471769444C945.8296562619165,55.92760414838622,965.4148281309582,55.26620521987625,975.2074140654792,54.93550575562127L985,54.60480629136628L985,74.7044620408899L975.2074140654792,73.91851396350468C965.4148281309582,73.13256588611945,945.8296562619165,71.56066973134902,926.2176553903142,70.61613030065725C906.6056545187122,69.67159086996546,886.9668246445498,69.35440816335232,867.3548237729477,69.10594030059666C847.7428229013454,68.857472437841,828.1576510323038,68.67771941894281,808.5724791632618,69.49232741822229C788.9873072942202,70.30693541750176,769.4021354251785,72.11590443495889,749.8169635561366,73.43306303516319C730.2317916870948,74.75022163536748,710.646619818053,75.57556981831893,691.0346189464509,76.35794478506743C671.4226180748489,77.14031975181592,651.7837882006864,77.87972150236145,632.1717873290843,77.23397101945517C612.5597864574821,76.58822053654887,592.9746145884404,74.55731782019076,573.3894427193986,71.38484941502647C553.8042708503568,68.21238100986214,534.2190989813151,63.898346915891615,514.6339271122733,60.531628365462815C495.0487552432315,57.164909815034,475.4635833741897,54.7455068081469,455.8515825025875,50.398025712694384C436.2395816309854,46.05054461724186,416.600751756823,39.77498543322394,396.9887508852209,36.01094146695773C377.37675001361885,32.246897500691524,357.79157814457704,30.994368752177028,338.20640627553524,32.16390695421428C318.62123440649344,33.333445156251535,299.0360625374517,36.92505030884054,279.4508906684099,39.12726065319711C259.8657187993681,41.32947099755369,240.28054693032632,42.14228653367783,220.66854605872422,42.183636451588306C201.05654518712208,42.22498636949877,181.41771531295964,41.49487066919557,161.80571444135754,41.92741820592983C142.19371356975543,42.35996574266408,122.60854170071362,43.95517651643579,103.02336983167184,44.585284772075624C83.43819796263006,45.21539302771544,63.85302609358828,44.88039876522338,44.267854224546504,46.11474699368512C24.682682355504713,47.34909522214684,5.09751048646293,50.15278594156238,-14.514490385139183,51.02838144919928C-34.126491256741296,51.90397695683618,-53.76532113090374,50.85147725269447,-73.37732200250585,50.54527265147624C-92.98932287410797,50.239068050258005,-112.57449474314974,50.67915855196326,-132.15966661219153,51.457527573635986C-151.7448384812333,52.23589659530871,-171.3300103502751,53.352544136948914,-190.91518221931688,56.0324982368854C-210.50035408835868,58.712452336821876,-230.08552595740045,62.95571299505463,-249.69752682900253,63.402372011710725C-269.30952770060463,63.849031028366795,-288.94835757476704,60.499088403446194,-308.5603584463692,58.265793320165805C-328.1723593179713,56.0324982368854,-347.75753118701306,54.915850695245204,-367.3427030560549,55.4741744660653C-386.92787492509666,56.032498236885395,-406.5130467941385,58.26579332016579,-426.09821866318026,59.9407646326261C-445.68339053222206,61.61573594508639,-465.2685624012638,62.7323834867266,-484.880563272866,63.849031028366795C-504.4925641444681,64.965678570007,-524.1313940186305,66.08232611164719,-543.7433948902326,67.1989736532874C-563.3553957618348,68.3156211949276,-582.9405676308764,69.43226873656779,-592.7331535653974,69.99059250738789L-602.5257394999182,70.548916278208Z"><title>Clojure</title></path><path fill="#ff9896" d="M-602.5257394999182,70.548916278208L-592.7331535653974,71.1072400490281C-582.9405676308764,71.6655638198482,-563.3553957618348,72.78221136148841,-543.7433948902326,73.8988589031286C-524.1313940186305,75.0155064447688,-504.4925641444681,76.132153986409,-484.8805632728659,76.132153986409C-465.2685624012638,76.132153986409,-445.68339053222206,75.0155064447688,-426.09821866318026,74.45718267394871C-406.5130467941385,73.89885890312861,-386.92787492509666,73.89885890312861,-367.3427030560549,74.45718267394871C-347.75753118701306,75.0155064447688,-328.1723593179713,76.132153986409,-308.5603584463692,77.2488015280492C-288.94835757476704,78.3654490696894,-269.30952770060463,79.4820966113296,-249.69752682900253,81.26873267795392C-230.08552595740045,83.05536874457825,-210.50035408835868,85.51199333618668,-190.91518221931688,86.18198186117081C-171.3300103502751,86.85197038615495,-151.7448384812333,85.73532284451473,-132.15966661219153,84.956953822842C-112.57449474314974,84.17858480116927,-92.98932287410797,83.73849429946401,-73.37732200250585,83.48637512986214C-53.76532113090374,83.23425596026027,-34.126491256741296,83.1701081227618,-14.514490385139181,84.5278076984053C5.09751048646293,85.88550727404879,24.682682355504713,88.66505426283426,44.26785422454649,89.10567734683282C63.85302609358828,89.54630043083141,83.43819796263006,87.64799961004307,103.02336983167186,85.90124381276303C122.60854170071362,84.15448801548301,142.19371356975543,82.55927724171129,161.80571444135754,82.12672970497702C181.41771531295964,81.69418216824278,201.05654518712208,82.42429786854599,220.66854605872422,84.05791926309583C240.28054693032632,85.69154065764565,259.8657187993681,88.22866774644211,279.4508906684099,91.9446893727786C299.0360625374517,95.6607109991151,318.62123440649344,100.5556271629916,338.20640627553524,103.40602011085906C357.79157814457704,106.25641305872652,377.37675001361885,107.06228279058494,396.98875088522095,103.23312347369779C416.600751756823,99.40396415681063,436.2395816309854,90.93977579117791,455.85158250258763,84.56744048688451C475.4635833741897,78.19510518259109,495.0487552432315,73.914622939637,514.6339271122733,73.3730750943251C534.2190989813151,72.8315272490132,553.8042708503568,76.02891380134353,573.3894427193986,79.75970597732795C592.9746145884404,83.49049815331237,612.5597864574821,87.7546959529509,632.1717873290843,89.51709397749738C651.7837882006864,91.27949200204387,671.4226180748489,90.54009025149833,691.0346189464509,88.64106774310962C710.646619818053,86.74204523472092,730.2317916870948,83.68340196848908,749.8169635561366,80.69127205582448C769.4021354251785,77.6991421431599,788.9873072942202,74.77352558406257,808.572479163262,73.28892905979897C828.1576510323038,71.80433253553538,847.7428229013454,71.76075604610553,867.3548237729477,71.78589440053314C886.9668246445498,71.81103275496075,906.6056545187122,71.90488595324585,926.2176553903142,72.6260958756096C945.8296562619165,73.34730579797333,965.4148281309582,74.69587244441574,975.2074140654792,75.37015576763693L985,76.04443909085813L985,76.04443909085813L975.2074140654792,75.37015576763694C965.4148281309582,74.69587244441574,945.8296562619165,73.34730579797333,926.2176553903142,72.6260958756096C906.6056545187122,71.90488595324585,886.9668246445498,71.81103275496075,867.3548237729477,71.78589440053314C847.7428229013454,71.76075604610553,828.1576510323038,71.80433253553538,808.5724791632618,73.28892905979897C788.9873072942202,74.77352558406257,769.4021354251785,77.6991421431599,749.8169635561366,82.9245671391049C730.2317916870948,88.14999213504989,710.646619818053,95.67522556784253,691.0346189464509,99.80754315951162C671.4226180748489,103.93986075118073,651.7837882006864,104.67926250172627,632.1717873290843,104.03351201881998C612.5597864574821,103.3877615359137,592.9746145884404,101.3568588195556,573.3894427193986,97.62606664357116C553.8042708503568,93.89527446758676,534.2190989813151,88.46459283197602,514.6339271122733,86.77284559400753C495.0487552432315,85.08109835603902,475.4635833741897,87.12828551571272,455.8515825025875,91.26732573672571C436.2395816309854,95.40636595773873,416.600751756823,101.63725924009104,396.9887508852209,104.34977101533799C377.37675001361885,107.06228279058494,357.79157814457704,106.25641305872652,338.20640627553524,103.40602011085906C318.62123440649344,100.5556271629916,299.0360625374517,95.6607109991151,279.4508906684099,91.9446893727786C259.8657187993681,88.22866774644211,240.28054693032632,85.69154065764565,220.66854605872422,84.05791926309583C201.05654518712208,82.42429786854599,181.41771531295964,81.69418216824278,161.80571444135754,82.12672970497704C142.19371356975543,82.55927724171129,122.60854170071362,84.15448801548301,103.02336983167184,85.90124381276303C83.43819796263006,87.64799961004307,63.85302609358828,89.54630043083141,44.267854224546504,89.10567734683282C24.682682355504713,88.66505426283426,5.09751048646293,85.88550727404879,-14.514490385139183,84.5278076984053C-34.126491256741296,83.1701081227618,-53.76532113090374,83.23425596026027,-73.37732200250585,83.48637512986214C-92.98932287410797,83.73849429946401,-112.57449474314974,84.17858480116927,-132.15966661219153,84.956953822842C-151.7448384812333,85.73532284451473,-171.3300103502751,86.85197038615495,-190.91518221931688,86.18198186117081C-210.50035408835868,85.51199333618668,-230.08552595740045,83.05536874457825,-249.69752682900253,81.26873267795393C-269.30952770060463,79.4820966113296,-288.94835757476704,78.3654490696894,-308.5603584463692,77.2488015280492C-328.1723593179713,76.132153986409,-347.75753118701306,75.0155064447688,-367.3427030560549,74.45718267394871C-386.92787492509666,73.89885890312861,-406.5130467941385,73.89885890312861,-426.09821866318026,74.45718267394871C-445.68339053222206,75.0155064447688,-465.2685624012638,76.132153986409,-484.880563272866,76.132153986409C-504.4925641444681,76.132153986409,-524.1313940186305,75.0155064447688,-543.7433948902326,73.89885890312861C-563.3553957618348,72.78221136148841,-582.9405676308764,71.6655638198482,-592.7331535653974,71.1072400490281L-602.5257394999182,70.548916278208Z"><title>Ruby</title></path><path fill="#ffbb78" d="M-602.5257394999182,70.548916278208L-592.7331535653974,71.1072400490281C-582.9405676308764,71.6655638198482,-563.3553957618348,72.78221136148841,-543.7433948902326,73.8988589031286C-524.1313940186305,75.0155064447688,-504.4925641444681,76.132153986409,-484.8805632728659,76.132153986409C-465.2685624012638,76.132153986409,-445.68339053222206,75.0155064447688,-426.09821866318026,74.45718267394871C-406.5130467941385,73.89885890312861,-386.92787492509666,73.89885890312861,-367.3427030560549,74.45718267394871C-347.75753118701306,75.0155064447688,-328.1723593179713,76.132153986409,-308.5603584463692,77.2488015280492C-288.94835757476704,78.3654490696894,-269.30952770060463,79.4820966113296,-249.69752682900253,81.26873267795392C-230.08552595740045,83.05536874457825,-210.50035408835868,85.51199333618668,-190.91518221931688,86.18198186117081C-171.3300103502751,86.85197038615495,-151.7448384812333,85.73532284451473,-132.15966661219153,84.956953822842C-112.57449474314974,84.17858480116927,-92.98932287410797,83.73849429946401,-73.37732200250585,83.48637512986214C-53.76532113090374,83.23425596026027,-34.126491256741296,83.1701081227618,-14.514490385139181,84.5278076984053C5.09751048646293,85.88550727404879,24.682682355504713,88.66505426283426,44.26785422454649,89.10567734683282C63.85302609358828,89.54630043083141,83.43819796263006,87.64799961004307,103.02336983167186,85.90124381276303C122.60854170071362,84.15448801548301,142.19371356975543,82.55927724171129,161.80571444135754,82.12672970497702C181.41771531295964,81.69418216824278,201.05654518712208,82.42429786854599,220.66854605872422,84.05791926309583C240.28054693032632,85.69154065764565,259.8657187993681,88.22866774644211,279.4508906684099,91.9446893727786C299.0360625374517,95.6607109991151,318.62123440649344,100.5556271629916,338.20640627553524,103.40602011085906C357.79157814457704,106.25641305872652,377.37675001361885,107.06228279058494,396.98875088522095,104.34977101533799C416.600751756823,101.63725924009104,436.2395816309854,95.40636595773873,455.85158250258763,91.26732573672574C475.4635833741897,87.12828551571272,495.0487552432315,85.08109835603902,514.6339271122733,86.7728455940075C534.2190989813151,88.46459283197602,553.8042708503568,93.89527446758676,573.3894427193986,97.62606664357116C592.9746145884404,101.3568588195556,612.5597864574821,103.3877615359137,632.1717873290843,104.03351201881998C651.7837882006864,104.67926250172627,671.4226180748489,103.93986075118073,691.0346189464509,99.80754315951162C710.646619818053,95.67522556784253,730.2317916870948,88.14999213504989,749.8169635561366,82.9245671391049C769.4021354251785,77.6991421431599,788.9873072942202,74.77352558406257,808.572479163262,73.28892905979897C828.1576510323038,71.80433253553538,847.7428229013454,71.76075604610553,867.3548237729477,71.78589440053314C886.9668246445498,71.81103275496075,906.6056545187122,71.90488595324585,926.2176553903142,72.6260958756096C945.8296562619165,73.34730579797333,965.4148281309582,74.69587244441574,975.2074140654792,75.37015576763693L985,76.04443909085813L985,76.04443909085813L975.2074140654792,75.37015576763694C965.4148281309582,74.69587244441574,945.8296562619165,73.34730579797333,926.2176553903142,72.6260958756096C906.6056545187122,71.90488595324585,886.9668246445498,71.81103275496075,867.3548237729477,71.78589440053314C847.7428229013454,71.76075604610553,828.1576510323038,71.80433253553538,808.5724791632618,73.28892905979897C788.9873072942202,74.77352558406257,769.4021354251785,77.6991421431599,749.8169635561366,84.04121468074509C730.2317916870948,90.38328721833028,710.646619818053,100.14181573440334,691.0346189464509,104.83245709689253C671.4226180748489,109.52309845938173,651.7837882006864,109.14585266828708,632.1717873290843,107.38345464374059C612.5597864574821,105.6210566191941,592.9746145884404,102.47350636119579,573.3894427193986,98.18439041439127C553.8042708503568,93.89527446758676,534.2190989813151,88.46459283197602,514.6339271122733,86.77284559400753C495.0487552432315,85.08109835603902,475.4635833741897,87.12828551571272,455.8515825025875,91.26732573672571C436.2395816309854,95.40636595773873,416.600751756823,101.63725924009104,396.9887508852209,104.34977101533799C377.37675001361885,107.06228279058494,357.79157814457704,106.25641305872652,338.20640627553524,103.40602011085906C318.62123440649344,100.5556271629916,299.0360625374517,95.6607109991151,279.4508906684099,91.9446893727786C259.8657187993681,88.22866774644211,240.28054693032632,85.69154065764565,220.66854605872422,84.05791926309583C201.05654518712208,82.42429786854599,181.41771531295964,81.69418216824278,161.80571444135754,82.12672970497704C142.19371356975543,82.55927724171129,122.60854170071362,84.15448801548301,103.02336983167184,85.90124381276303C83.43819796263006,87.64799961004307,63.85302609358828,89.54630043083141,44.267854224546504,89.10567734683282C24.682682355504713,88.66505426283426,5.09751048646293,85.88550727404879,-14.514490385139183,84.5278076984053C-34.126491256741296,83.1701081227618,-53.76532113090374,83.23425596026027,-73.37732200250585,83.48637512986214C-92.98932287410797,83.73849429946401,-112.57449474314974,84.17858480116927,-132.15966661219153,84.956953822842C-151.7448384812333,85.73532284451473,-171.3300103502751,86.85197038615495,-190.91518221931688,86.18198186117081C-210.50035408835868,85.51199333618668,-230.08552595740045,83.05536874457825,-249.69752682900253,81.26873267795393C-269.30952770060463,79.4820966113296,-288.94835757476704,78.3654490696894,-308.5603584463692,77.2488015280492C-328.1723593179713,76.132153986409,-347.75753118701306,75.0155064447688,-367.3427030560549,74.45718267394871C-386.92787492509666,73.89885890312861,-406.5130467941385,73.89885890312861,-426.09821866318026,74.45718267394871C-445.68339053222206,75.0155064447688,-465.2685624012638,76.132153986409,-484.880563272866,76.132153986409C-504.4925641444681,76.132153986409,-524.1313940186305,75.0155064447688,-543.7433948902326,73.89885890312861C-563.3553957618348,72.78221136148841,-582.9405676308764,71.6655638198482,-592.7331535653974,71.1072400490281L-602.5257394999182,70.548916278208Z"><title>C#</title></path><path fill="#c7c7c7" d="M-602.5257394999182,70.548916278208L-592.7331535653974,71.1072400490281C-582.9405676308764,71.6655638198482,-563.3553957618348,72.78221136148841,-543.7433948902326,73.8988589031286C-524.1313940186305,75.0155064447688,-504.4925641444681,76.132153986409,-484.8805632728659,76.132153986409C-465.2685624012638,76.132153986409,-445.68339053222206,75.0155064447688,-426.09821866318026,74.45718267394871C-406.5130467941385,73.89885890312861,-386.92787492509666,73.89885890312861,-367.3427030560549,74.45718267394871C-347.75753118701306,75.0155064447688,-328.1723593179713,76.132153986409,-308.5603584463692,77.2488015280492C-288.94835757476704,78.3654490696894,-269.30952770060463,79.4820966113296,-249.69752682900253,81.26873267795392C-230.08552595740045,83.05536874457825,-210.50035408835868,85.51199333618668,-190.91518221931688,86.18198186117081C-171.3300103502751,86.85197038615495,-151.7448384812333,85.73532284451473,-132.15966661219153,84.956953822842C-112.57449474314974,84.17858480116927,-92.98932287410797,83.73849429946401,-73.37732200250585,83.48637512986214C-53.76532113090374,83.23425596026027,-34.126491256741296,83.1701081227618,-14.514490385139181,84.5278076984053C5.09751048646293,85.88550727404879,24.682682355504713,88.66505426283426,44.26785422454649,89.10567734683282C63.85302609358828,89.54630043083141,83.43819796263006,87.64799961004307,103.02336983167186,85.90124381276303C122.60854170071362,84.15448801548301,142.19371356975543,82.55927724171129,161.80571444135754,82.12672970497702C181.41771531295964,81.69418216824278,201.05654518712208,82.42429786854599,220.66854605872422,84.05791926309583C240.28054693032632,85.69154065764565,259.8657187993681,88.22866774644211,279.4508906684099,91.9446893727786C299.0360625374517,95.6607109991151,318.62123440649344,100.5556271629916,338.20640627553524,103.40602011085906C357.79157814457704,106.25641305872652,377.37675001361885,107.06228279058494,396.98875088522095,104.34977101533799C416.600751756823,101.63725924009104,436.2395816309854,95.40636595773873,455.85158250258763,91.26732573672574C475.4635833741897,87.12828551571272,495.0487552432315,85.08109835603902,514.6339271122733,86.7728455940075C534.2190989813151,88.46459283197602,553.8042708503568,93.89527446758676,573.3894427193986,98.18439041439126C592.9746145884404,102.47350636119579,612.5597864574821,105.6210566191941,632.1717873290843,107.38345464374056C651.7837882006864,109.14585266828708,671.4226180748489,109.52309845938173,691.0346189464509,104.83245709689254C710.646619818053,100.14181573440334,730.2317916870948,90.38328721833028,749.8169635561366,84.04121468074509C769.4021354251785,77.6991421431599,788.9873072942202,74.77352558406257,808.572479163262,73.28892905979897C828.1576510323038,71.80433253553538,847.7428229013454,71.76075604610553,867.3548237729477,71.78589440053314C886.9668246445498,71.81103275496075,906.6056545187122,71.90488595324585,926.2176553903142,72.6260958756096C945.8296562619165,73.34730579797333,965.4148281309582,74.69587244441574,975.2074140654792,75.37015576763693L985,76.04443909085813L985,89.44420959054054L975.2074140654792,88.76992626731935C965.4148281309582,88.09564294409815,945.8296562619165,86.74707629765574,926.2176553903142,87.14251391693222C906.6056545187122,87.53795153620865,886.9668246445498,89.67739342120397,867.3548237729477,90.76890260841655C847.7428229013454,91.86041179562913,828.1576510323038,91.90398828505899,808.5724791632618,92.27193726768239C788.9873072942202,92.63988625030578,769.4021354251785,93.3322077261227,749.8169635561366,98.5576327220677C730.2317916870948,103.78305771801269,710.646619818053,113.54158623408574,691.0346189464509,115.99893251329455C671.4226180748489,118.45627879250333,651.7837882006864,113.61244283484787,632.1717873290843,109.61674972702097C612.5597864574821,105.6210566191941,592.9746145884404,102.47350636119579,573.3894427193986,98.18439041439127C553.8042708503568,93.89527446758676,534.2190989813151,88.46459283197602,514.6339271122733,86.77284559400753C495.0487552432315,85.08109835603902,475.4635833741897,87.12828551571272,455.8515825025875,91.26732573672571C436.2395816309854,95.40636595773873,416.600751756823,101.63725924009104,396.9887508852209,104.34977101533799C377.37675001361885,107.06228279058494,357.79157814457704,106.25641305872652,338.20640627553524,103.40602011085906C318.62123440649344,100.5556271629916,299.0360625374517,95.6607109991151,279.4508906684099,91.9446893727786C259.8657187993681,88.22866774644211,240.28054693032632,85.69154065764565,220.66854605872422,84.05791926309583C201.05654518712208,82.42429786854599,181.41771531295964,81.69418216824278,161.80571444135754,82.12672970497704C142.19371356975543,82.55927724171129,122.60854170071362,84.15448801548301,103.02336983167184,85.90124381276303C83.43819796263006,87.64799961004307,63.85302609358828,89.54630043083141,44.267854224546504,89.10567734683282C24.682682355504713,88.66505426283426,5.09751048646293,85.88550727404879,-14.514490385139183,84.5278076984053C-34.126491256741296,83.1701081227618,-53.76532113090374,83.23425596026027,-73.37732200250585,83.48637512986214C-92.98932287410797,83.73849429946401,-112.57449474314974,84.17858480116927,-132.15966661219153,84.956953822842C-151.7448384812333,85.73532284451473,-171.3300103502751,86.85197038615495,-190.91518221931688,86.18198186117081C-210.50035408835868,85.51199333618668,-230.08552595740045,83.05536874457825,-249.69752682900253,81.26873267795393C-269.30952770060463,79.4820966113296,-288.94835757476704,78.3654490696894,-308.5603584463692,77.2488015280492C-328.1723593179713,76.132153986409,-347.75753118701306,75.0155064447688,-367.3427030560549,74.45718267394871C-386.92787492509666,73.89885890312861,-406.5130467941385,73.89885890312861,-426.09821866318026,74.45718267394871C-445.68339053222206,75.0155064447688,-465.2685624012638,76.132153986409,-484.880563272866,76.132153986409C-504.4925641444681,76.132153986409,-524.1313940186305,75.0155064447688,-543.7433948902326,73.89885890312861C-563.3553957618348,72.78221136148841,-582.9405676308764,71.6655638198482,-592.7331535653974,71.1072400490281L-602.5257394999182,70.548916278208Z"><title>ClojureScript</title></path><path fill="#d62728" d="M-602.5257394999182,70.548916278208L-592.7331535653974,71.1072400490281C-582.9405676308764,71.6655638198482,-563.3553957618348,72.78221136148841,-543.7433948902326,73.8988589031286C-524.1313940186305,75.0155064447688,-504.4925641444681,76.132153986409,-484.8805632728659,76.132153986409C-465.2685624012638,76.132153986409,-445.68339053222206,75.0155064447688,-426.09821866318026,74.45718267394871C-406.5130467941385,73.89885890312861,-386.92787492509666,73.89885890312861,-367.3427030560549,74.45718267394871C-347.75753118701306,75.0155064447688,-328.1723593179713,76.132153986409,-308.5603584463692,77.2488015280492C-288.94835757476704,78.3654490696894,-269.30952770060463,79.4820966113296,-249.69752682900253,81.26873267795392C-230.08552595740045,83.05536874457825,-210.50035408835868,85.51199333618668,-190.91518221931688,86.18198186117081C-171.3300103502751,86.85197038615495,-151.7448384812333,85.73532284451473,-132.15966661219153,84.956953822842C-112.57449474314974,84.17858480116927,-92.98932287410797,83.73849429946401,-73.37732200250585,83.48637512986214C-53.76532113090374,83.23425596026027,-34.126491256741296,83.1701081227618,-14.514490385139181,84.5278076984053C5.09751048646293,85.88550727404879,24.682682355504713,88.66505426283426,44.26785422454649,89.10567734683282C63.85302609358828,89.54630043083141,83.43819796263006,87.64799961004307,103.02336983167186,85.90124381276303C122.60854170071362,84.15448801548301,142.19371356975543,82.55927724171129,161.80571444135754,82.12672970497702C181.41771531295964,81.69418216824278,201.05654518712208,82.42429786854599,220.66854605872422,84.05791926309583C240.28054693032632,85.69154065764565,259.8657187993681,88.22866774644211,279.4508906684099,91.9446893727786C299.0360625374517,95.6607109991151,318.62123440649344,100.5556271629916,338.20640627553524,103.40602011085906C357.79157814457704,106.25641305872652,377.37675001361885,107.06228279058494,396.98875088522095,104.34977101533799C416.600751756823,101.63725924009104,436.2395816309854,95.40636595773873,455.85158250258763,91.26732573672574C475.4635833741897,87.12828551571272,495.0487552432315,85.08109835603902,514.6339271122733,86.7728455940075C534.2190989813151,88.46459283197602,553.8042708503568,93.89527446758676,573.3894427193986,98.18439041439126C592.9746145884404,102.47350636119579,612.5597864574821,105.6210566191941,632.1717873290843,109.61674972702099C651.7837882006864,113.61244283484787,671.4226180748489,118.45627879250333,691.0346189464509,115.99893251329452C710.646619818053,113.54158623408574,730.2317916870948,103.78305771801269,749.8169635561366,98.5576327220677C769.4021354251785,93.3322077261227,788.9873072942202,92.63988625030578,808.572479163262,92.27193726768239C828.1576510323038,91.90398828505899,847.7428229013454,91.86041179562913,867.3548237729477,90.76890260841655C886.9668246445498,89.67739342120397,906.6056545187122,87.53795153620865,926.2176553903142,87.14251391693222C945.8296562619165,86.74707629765574,965.4148281309582,88.09564294409815,975.2074140654792,88.76992626731935L985,89.44420959054054L985,109.54386534006414L975.2074140654792,108.86958201684295C965.4148281309582,108.19529869362175,945.8296562619165,106.84673204717934,926.2176553903142,107.24216966645581C906.6056545187122,107.63760728573226,886.9668246445498,109.77704917072758,867.3548237729477,109.75191081629997C847.7428229013454,109.72677246187236,828.1576510323038,107.53705386802181,808.5724791632618,105.67170776736481C788.9873072942202,103.80636166670779,769.4021354251785,102.2653880592443,749.8169635561366,105.2575179719089C730.2317916870948,108.24964788457349,710.646619818053,115.77488131736614,691.0346189464509,117.11558005493474C671.4226180748489,118.45627879250333,651.7837882006864,113.61244283484787,632.1717873290843,109.61674972702097C612.5597864574821,105.6210566191941,592.9746145884404,102.47350636119579,573.3894427193986,98.18439041439127C553.8042708503568,93.89527446758676,534.2190989813151,88.46459283197602,514.6339271122733,86.77284559400753C495.0487552432315,85.08109835603902,475.4635833741897,87.12828551571272,455.8515825025875,91.26732573672571C436.2395816309854,95.40636595773873,416.600751756823,101.63725924009104,396.9887508852209,104.34977101533799C377.37675001361885,107.06228279058494,357.79157814457704,106.25641305872652,338.20640627553524,103.40602011085906C318.62123440649344,100.5556271629916,299.0360625374517,95.6607109991151,279.4508906684099,91.9446893727786C259.8657187993681,88.22866774644211,240.28054693032632,85.69154065764565,220.66854605872422,84.05791926309583C201.05654518712208,82.42429786854599,181.41771531295964,81.69418216824278,161.80571444135754,82.12672970497704C142.19371356975543,82.55927724171129,122.60854170071362,84.15448801548301,103.02336983167184,85.90124381276303C83.43819796263006,87.64799961004307,63.85302609358828,89.54630043083141,44.267854224546504,89.10567734683282C24.682682355504713,88.66505426283426,5.09751048646293,85.88550727404879,-14.514490385139183,84.5278076984053C-34.126491256741296,83.1701081227618,-53.76532113090374,83.23425596026027,-73.37732200250585,83.48637512986214C-92.98932287410797,83.73849429946401,-112.57449474314974,84.17858480116927,-132.15966661219153,84.956953822842C-151.7448384812333,85.73532284451473,-171.3300103502751,86.85197038615495,-190.91518221931688,86.18198186117081C-210.50035408835868,85.51199333618668,-230.08552595740045,83.05536874457825,-249.69752682900253,81.26873267795393C-269.30952770060463,79.4820966113296,-288.94835757476704,78.3654490696894,-308.5603584463692,77.2488015280492C-328.1723593179713,76.132153986409,-347.75753118701306,75.0155064447688,-367.3427030560549,74.45718267394871C-386.92787492509666,73.89885890312861,-406.5130467941385,73.89885890312861,-426.09821866318026,74.45718267394871C-445.68339053222206,75.0155064447688,-465.2685624012638,76.132153986409,-484.880563272866,76.132153986409C-504.4925641444681,76.132153986409,-524.1313940186305,75.0155064447688,-543.7433948902326,73.89885890312861C-563.3553957618348,72.78221136148841,-582.9405676308764,71.6655638198482,-592.7331535653974,71.1072400490281L-602.5257394999182,70.548916278208Z"><title>Scala</title></path></g><g transform="translate(0,130)" fill="none" font-size="10" font-family="sans-serif" text-anchor="middle"><g class="tick" opacity="1" transform="translate(44.2678542245465,0)"><line stroke="currentColor" y2="6"></line><text fill="currentColor" y="9" dy="0.71em">2006</text></g><g class="tick" opacity="1" transform="translate(103.02336983167184,0)"><line stroke="currentColor" y2="6"></line><text fill="currentColor" y="9" dy="0.71em">2007</text></g><g class="tick" opacity="1" transform="translate(161.7788854387972,0)"><line stroke="currentColor" y2="6"></line><text fill="currentColor" y="9" dy="0.71em">2008</text></g><g class="tick" opacity="1" transform="translate(220.69537506128452,0)"><line stroke="currentColor" y2="6"></line><text fill="currentColor" y="9" dy="0.71em">2009</text></g><g class="tick" opacity="1" transform="translate(279.4508906684099,0)"><line stroke="currentColor" y2="6"></line><text fill="currentColor" y="9" dy="0.71em">2010</text></g><g class="tick" opacity="1" transform="translate(338.20640627553524,0)"><line stroke="currentColor" y2="6"></line><text fill="currentColor" y="9" dy="0.71em">2011</text></g><g class="tick" opacity="1" transform="translate(396.9619218826606,0)"><line stroke="currentColor" y2="6"></line><text fill="currentColor" y="9" dy="0.71em">2012</text></g><g class="tick" opacity="1" transform="translate(455.8784115051479,0)"><line stroke="currentColor" y2="6"></line><text fill="currentColor" y="9" dy="0.71em">2013</text></g><g class="tick" opacity="1" transform="translate(514.6339271122733,0)"><line stroke="currentColor" y2="6"></line><text fill="currentColor" y="9" dy="0.71em">2014</text></g><g class="tick" opacity="1" transform="translate(573.3894427193986,0)"><line stroke="currentColor" y2="6"></line><text fill="currentColor" y="9" dy="0.71em">2015</text></g><g class="tick" opacity="1" transform="translate(632.1449583265239,0)"><line stroke="currentColor" y2="6"></line><text fill="currentColor" y="9" dy="0.71em">2016</text></g><g class="tick" opacity="1" transform="translate(691.0614479490113,0)"><line stroke="currentColor" y2="6"></line><text fill="currentColor" y="9" dy="0.71em">2017</text></g><g class="tick" opacity="1" transform="translate(749.8169635561366,0)"><line stroke="currentColor" y2="6"></line><text fill="currentColor" y="9" dy="0.71em">2018</text></g><g class="tick" opacity="1" transform="translate(808.572479163262,0)"><line stroke="currentColor" y2="6"></line><text fill="currentColor" y="9" dy="0.71em">2019</text></g><g class="tick" opacity="1" transform="translate(867.3279947703872,0)"><line stroke="currentColor" y2="6"></line><text fill="currentColor" y="9" dy="0.71em">2020</text></g><g class="tick" opacity="1" transform="translate(926.2444843928747,0)"><line stroke="currentColor" y2="6"></line><text fill="currentColor" y="9" dy="0.71em">2021</text></g><g class="tick" opacity="1" transform="translate(985,0)"><line stroke="currentColor" y2="6"></line><text fill="currentColor" y="9" dy="0.71em">2022</text></g></g><g transform="translate(0,0) rotate(270)"><text x="0" text-anchor="end" y="10" font-family="sans-serif" font-size="10">% time spent with language</text></g><text class="area-label" font-family="sans-serif" fill="white" transform="translate(-501.19430931907243,73.97103207556236) scale(0.6275401239701482)" style="filter: url(&quot;#drop-shadow&quot;);">QBasic</text><text class="area-label" font-family="sans-serif" fill="white" transform="translate(-389.9284251989279,68.09480792949465) scale(0.7987679133008098)" style="filter: url(&quot;#drop-shadow&quot;);">Visual Basic</text><text class="area-label" font-family="sans-serif" fill="white" transform="translate(335.28671236987077,99.48603201940227) scale(1.4376900637094576)" style="filter: url(&quot;#drop-shadow&quot;);">C/C++</text><text class="area-label" font-family="sans-serif" fill="white" transform="translate(128.6500704324596,63.376898263242055) scale(1.2558586867411536)" style="filter: url(&quot;#drop-shadow&quot;);">Java</text><text class="area-label" font-family="sans-serif" fill="white" transform="translate(19.371077100174887,79.21429032189825) scale(0.9394865516895793)" style="filter: url(&quot;#drop-shadow&quot;);">PHP</text><text class="area-label" font-family="sans-serif" fill="white" transform="translate(899.5636961220318,121.97677234211251) scale(0.9300080941815282)" style="filter: url(&quot;#drop-shadow&quot;);">JavaScript</text><text class="area-label" font-family="sans-serif" fill="white" transform="translate(323.3653676427125,46.405915924529374) scale(0.948831163286307)" style="filter: url(&quot;#drop-shadow&quot;);">MATLAB</text><text class="area-label" font-family="sans-serif" fill="white" transform="translate(301.5095689762554,70.01177244360075) scale(1.0041094375742732)" style="filter: url(&quot;#drop-shadow&quot;);">Scheme</text><text class="area-label" font-family="sans-serif" fill="white" transform="translate(887.6423513948737,44.53399341783429) scale(1.9358659741431234)" style="filter: url(&quot;#drop-shadow&quot;);">Python</text><text class="area-label" font-family="sans-serif" fill="white" transform="translate(579.6742792766166,63.36354107982855) scale(2.697378053735636)" style="filter: url(&quot;#drop-shadow&quot;);">Clojure</text><text class="area-label" font-family="sans-serif" fill="white" transform="translate(573.7136069130376,96.6407037113417) scale(0.7462718409485228)" style="filter: url(&quot;#drop-shadow&quot;);">Ruby</text><text class="area-label" font-family="sans-serif" fill="white" transform="translate(682.9926002453221,108.49709531396164) scale(0.3432580563250318)" style="filter: url(&quot;#drop-shadow&quot;);">C#</text><text class="area-label" font-family="sans-serif" fill="white" transform="translate(806.179829092625,85.76099177560404) scale(0.931952393157538)" style="filter: url(&quot;#drop-shadow&quot;);">ClojureScript</text><text class="area-label" font-family="sans-serif" fill="white" transform="translate(909.4981500613305,101.90444138448687) scale(1.0093597961399623)" style="filter: url(&quot;#drop-shadow&quot;);">Scala</text><defs><filter id="drop-shadow"><feGaussianBlur in="SourceAlpha" stdDeviation="1" result="blur"></feGaussianBlur><feOffset in="blur" dx="1" dy="1"></feOffset><feComponentTransfer result="offsetBlur"><feFuncA type="linear" slope="0.4"></feFuncA></feComponentTransfer><feMerge><feMergeNode in="offsetBlur"></feMergeNode><feMergeNode in="SourceGraphic"></feMergeNode></feMerge></filter></defs></svg>