<svg xmlns="http://www.w3.org/2000/svg" width="1000" height="400" viewBox="0,0,1000,400" style="max-width: 100%; height: auto; height: intrinsic;" id="chart"><g><path fill="#7f7f7f" d="M0,206.54675376803496L6.075931183667951,205.00250756207822C12.151862367335902,203.45826135612143,24.303724734671803,200.3697689442079,36.47223348881227,198.82552273825112C48.64074224295275,197.28127653229436,60.8258973838978,197.28127653229436,72.99440613803826,198.05339963527274C85.16291489217873,198.82552273825112,97.31477725951464,200.36976894420786,109.46663962685055,204.23038445909978C121.61850199418643,208.09099997399167,133.77036436152233,214.26798479781874,145.92222672885825,215.8122310037755C158.07408909619414,217.35647720973228,170.22595146353004,214.26798479781874,182.3944602176705,211.1794923859052C194.56296897181096,208.09099997399167,206.74812411275602,205.00250756207814,218.91663286689652,203.76711059731272C231.08514162103697,202.53171363254737,243.23700398837286,203.14941211493002,255.3888663557088,205.0025075620782C267.54072872304465,206.85560300922626,279.6925910903806,209.9440954211398,291.8444534577165,210.8797269459254C303.99631582505236,211.81535847071095,316.1481781923883,210.59812910836857,328.31668694652876,208.35655620515374C340.48519570066924,206.1149833019389,352.67035084161427,202.84906685785162,364.83885959575474,200.42729097925167C377.0073683498952,198.0055151006517,389.1592307172311,196.42787978753915,401.31109308456706,199.19082840468343C413.46295545190287,201.9537770218277,425.61481781923885,209.0573095692288,437.76668018657466,213.49150224633323C449.91854255391064,217.92569492343765,462.0704049212465,219.69054773024538,474.23891367538704,216.9499349581353C486.40742242952746,214.20932218602522,498.59257757047254,206.96324383499731,510.76108632461296,198.1939143963763C522.9295950787536,189.4245849577553,535.0814574460893,179.1320044315411,547.2333198134253,169.2538672119725C559.3851821807611,159.37572999240388,571.5370445480971,149.9120360794808,583.688906915433,146.49931027967386C595.8407692827689,143.08658447986696,607.9926316501047,145.72482679317625,620.1611404042452,154.3760289357136C632.3296491583857,163.02723107825094,644.5148042993308,177.69139305001636,656.6833130534712,188.19775790369906C668.8518218076118,198.7041227573818,681.0036841749476,205.0526904929818,693.1555465422836,213.10548737481145C705.3074089096194,221.15828425664108,717.4592712769553,230.91531028470027,729.6111336442913,239.5675749645367C741.762996011627,248.21983964437314,753.914858378963,255.76734297598682,766.0833671331035,258.8941806906496C778.251875887244,262.02101840531236,790.4370310281889,260.7271905030243,802.6055397823294,252.22476324331754C814.7740485364699,243.72233598361086,826.9259109038059,228.01130936648553,839.0777732711418,213.02850587658395C851.2296356384777,198.0457023866824,863.3814980058136,183.7911220240046,875.5333603731495,178.76089223663723C887.6852227404853,173.73066244926986,899.8370851078213,177.92478323721295,912.0055938619618,184.94439283839188C924.1741026161022,191.96400243957078,936.3592577570472,201.80910085398554,948.5277665111877,210.3334999956272C960.6962752653282,218.85789913726887,972.8481376326641,226.06159900613747,978.9240688163321,229.66344894057173L985,233.26529887500604L985,233.26529887500604L978.9240688163321,229.66344894057178C972.8481376326641,226.06159900613747,960.6962752653282,218.85789913726887,948.5277665111877,210.33349999562722C936.3592577570472,201.80910085398554,924.1741026161022,191.96400243957078,912.0055938619618,184.94439283839185C899.8370851078213,177.92478323721295,887.6852227404853,173.73066244926986,875.5333603731495,178.76089223663723C863.3814980058136,183.7911220240046,851.2296356384777,198.0457023866824,839.0777732711417,213.02850587658398C826.9259109038059,228.01130936648553,814.7740485364699,243.72233598361086,802.6055397823294,252.22476324331754C790.4370310281889,260.7271905030243,778.251875887244,262.02101840531236,766.0833671331035,258.8941806906496C753.914858378963,255.76734297598682,741.762996011627,248.21983964437314,729.6111336442913,239.5675749645367C717.4592712769553,230.91531028470027,705.3074089096194,221.15828425664108,693.1555465422836,213.10548737481145C681.0036841749476,205.0526904929818,668.8518218076118,198.7041227573818,656.6833130534712,188.19775790369906C644.5148042993308,177.69139305001636,632.3296491583857,163.02723107825094,620.1611404042452,154.3760289357136C607.9926316501047,145.72482679317625,595.8407692827689,143.08658447986696,583.688906915433,146.4993102796739C571.5370445480971,149.9120360794808,559.3851821807611,159.37572999240388,547.2333198134253,169.2538672119725C535.0814574460893,179.1320044315411,522.9295950787536,189.4245849577553,510.76108632461296,198.19391439637627C498.59257757047254,206.96324383499731,486.40742242952746,214.20932218602522,474.23891367538704,216.9499349581353C462.0704049212465,219.69054773024538,449.91854255391064,217.92569492343765,437.76668018657466,213.49150224633323C425.61481781923885,209.0573095692288,413.46295545190287,201.9537770218277,401.31109308456706,199.19082840468343C389.1592307172311,196.42787978753915,377.0073683498952,198.0055151006517,364.8388595957547,200.42729097925167C352.67035084161427,202.84906685785162,340.48519570066924,206.1149833019389,328.31668694652876,208.35655620515374C316.1481781923883,210.59812910836857,303.99631582505236,211.81535847071095,291.8444534577165,210.87972694592534C279.6925910903806,209.9440954211398,267.54072872304465,206.85560300922626,255.3888663557088,205.0025075620782C243.23700398837286,203.14941211493002,231.08514162103697,202.53171363254737,218.91663286689652,203.76711059731272C206.74812411275602,205.00250756207814,194.56296897181096,208.09099997399167,182.3944602176705,211.1794923859052C170.22595146353004,214.26798479781874,158.07408909619414,217.35647720973228,145.92222672885825,218.90072341568907C133.77036436152233,220.4449696216458,121.61850199418643,220.4449696216458,109.46663962685055,219.6728465186674C97.31477725951464,218.90072341568904,85.16291489217873,217.35647720973228,72.99440613803826,216.58435410675386C60.8258973838978,215.8122310037755,48.64074224295275,215.8122310037755,36.47223348881227,214.26798479781874C24.303724734671803,212.723738591862,12.151862367335902,209.63524617994847,6.075931183667951,208.09099997399173L0,206.54675376803496Z"><title>QBasic</title></path><path fill="#c49c94" d="M0,206.54675376803496L6.075931183667951,205.00250756207822C12.151862367335902,203.45826135612143,24.303724734671803,200.3697689442079,36.47223348881227,198.82552273825112C48.64074224295275,197.28127653229436,60.8258973838978,197.28127653229436,72.99440613803826,194.9649072233592C85.16291489217873,192.64853791442408,97.31477725951464,188.0157992965538,109.46663962685055,182.6109375757051C121.61850199418643,177.20607585485644,133.77036436152233,171.02909103102942,145.92222672885825,169.48484482507263C158.07408909619414,167.9405986191159,170.22595146353004,171.02909103102937,182.3944602176705,177.20607585485644C194.56296897181096,183.38306067868348,206.74812411275602,192.64853791442405,218.91663286689652,197.5901257734857C231.08514162103697,202.53171363254737,243.23700398837286,203.14941211493002,255.3888663557088,205.0025075620782C267.54072872304465,206.85560300922626,279.6925910903806,209.9440954211398,291.8444534577165,210.8797269459254C303.99631582505236,211.81535847071095,316.1481781923883,210.59812910836857,328.31668694652876,208.35655620515374C340.48519570066924,206.1149833019389,352.67035084161427,202.84906685785162,364.83885959575474,200.42729097925167C377.0073683498952,198.0055151006517,389.1592307172311,196.42787978753915,401.31109308456706,196.1023359927699C413.46295545190287,195.77679219800063,425.61481781923885,196.70333992157467,437.76668018657466,199.59328639272235C449.91854255391064,202.48323286387003,462.0704049212465,207.33657808259127,474.23891367538704,207.68445772239474C486.40742242952746,208.03233736219818,498.59257757047254,203.8747514230838,510.76108632461296,196.64966819041953C522.9295950787536,189.4245849577553,535.0814574460893,179.1320044315411,547.2333198134253,169.2538672119725C559.3851821807611,159.37572999240388,571.5370445480971,149.9120360794808,583.688906915433,146.49931027967386C595.8407692827689,143.08658447986696,607.9926316501047,145.72482679317625,620.1611404042452,154.3760289357136C632.3296491583857,163.02723107825094,644.5148042993308,177.69139305001636,656.6833130534712,188.19775790369906C668.8518218076118,198.7041227573818,681.0036841749476,205.0526904929818,693.1555465422836,213.10548737481145C705.3074089096194,221.15828425664108,717.4592712769553,230.91531028470027,729.6111336442913,239.5675749645367C741.762996011627,248.21983964437314,753.914858378963,255.76734297598682,766.0833671331035,258.8941806906496C778.251875887244,262.02101840531236,790.4370310281889,260.7271905030243,802.6055397823294,252.22476324331754C814.7740485364699,243.72233598361086,826.9259109038059,228.01130936648553,839.0777732711418,213.02850587658395C851.2296356384777,198.0457023866824,863.3814980058136,183.7911220240046,875.5333603731495,178.76089223663723C887.6852227404853,173.73066244926986,899.8370851078213,177.92478323721295,912.0055938619618,184.94439283839188C924.1741026161022,191.96400243957078,936.3592577570472,201.80910085398554,948.5277665111877,210.3334999956272C960.6962752653282,218.85789913726887,972.8481376326641,226.06159900613747,978.9240688163321,229.66344894057173L985,233.26529887500604L985,233.26529887500604L978.9240688163321,229.66344894057178C972.8481376326641,226.06159900613747,960.6962752653282,218.85789913726887,948.5277665111877,210.33349999562722C936.3592577570472,201.80910085398554,924.1741026161022,191.96400243957078,912.0055938619618,184.94439283839185C899.8370851078213,177.92478323721295,887.6852227404853,173.73066244926986,875.5333603731495,178.76089223663723C863.3814980058136,183.7911220240046,851.2296356384777,198.0457023866824,839.0777732711417,213.02850587658398C826.9259109038059,228.01130936648553,814.7740485364699,243.72233598361086,802.6055397823294,252.22476324331754C790.4370310281889,260.7271905030243,778.251875887244,262.02101840531236,766.0833671331035,258.8941806906496C753.914858378963,255.76734297598682,741.762996011627,248.21983964437314,729.6111336442913,239.5675749645367C717.4592712769553,230.91531028470027,705.3074089096194,221.15828425664108,693.1555465422836,213.10548737481145C681.0036841749476,205.0526904929818,668.8518218076118,198.7041227573818,656.6833130534712,188.19775790369906C644.5148042993308,177.69139305001636,632.3296491583857,163.02723107825094,620.1611404042452,154.3760289357136C607.9926316501047,145.72482679317625,595.8407692827689,143.08658447986696,583.688906915433,146.4993102796739C571.5370445480971,149.9120360794808,559.3851821807611,159.37572999240388,547.2333198134253,169.2538672119725C535.0814574460893,179.1320044315411,522.9295950787536,189.4245849577553,510.76108632461296,198.19391439637627C498.59257757047254,206.96324383499731,486.40742242952746,214.20932218602522,474.23891367538704,216.9499349581353C462.0704049212465,219.69054773024538,449.91854255391064,217.92569492343765,437.76668018657466,213.49150224633323C425.61481781923885,209.0573095692288,413.46295545190287,201.9537770218277,401.31109308456706,199.19082840468343C389.1592307172311,196.42787978753915,377.0073683498952,198.0055151006517,364.8388595957547,200.42729097925167C352.67035084161427,202.84906685785162,340.48519570066924,206.1149833019389,328.31668694652876,208.35655620515374C316.1481781923883,210.59812910836857,303.99631582505236,211.81535847071095,291.8444534577165,210.87972694592534C279.6925910903806,209.9440954211398,267.54072872304465,206.85560300922626,255.3888663557088,205.0025075620782C243.23700398837286,203.14941211493002,231.08514162103697,202.53171363254737,218.91663286689652,203.76711059731272C206.74812411275602,205.00250756207814,194.56296897181096,208.09099997399167,182.3944602176705,211.1794923859052C170.22595146353004,214.26798479781874,158.07408909619414,217.35647720973228,145.92222672885825,215.81223100377554C133.77036436152233,214.26798479781874,121.61850199418643,208.09099997399167,109.46663962685055,204.2303844590998C97.31477725951464,200.36976894420786,85.16291489217873,198.82552273825112,72.99440613803826,198.05339963527274C60.8258973838978,197.28127653229436,48.64074224295275,197.28127653229436,36.47223348881227,198.82552273825112C24.303724734671803,200.3697689442079,12.151862367335902,203.45826135612143,6.075931183667951,205.0025075620782L0,206.54675376803496Z"><title>Visual Basic</title></path><path fill="#ff7f0e" d="M0,206.54675376803496L6.075931183667951,208.09099997399173C12.151862367335902,209.63524617994847,24.303724734671803,212.723738591862,36.47223348881227,214.26798479781874C48.64074224295275,215.8122310037755,60.8258973838978,215.8122310037755,72.99440613803826,216.58435410675392C85.16291489217873,217.35647720973228,97.31477725951464,218.90072341568904,109.46663962685055,219.67284651866746C121.61850199418643,220.4449696216458,133.77036436152233,220.4449696216458,145.92222672885825,218.90072341568904C158.07408909619414,217.35647720973228,170.22595146353004,214.26798479781874,182.3944602176705,211.1794923859052C194.56296897181096,208.09099997399167,206.74812411275602,205.00250756207814,218.91663286689652,203.76711059731272C231.08514162103697,202.53171363254737,243.23700398837286,203.14941211493002,255.3888663557088,205.0025075620782C267.54072872304465,206.85560300922626,279.6925910903806,209.9440954211398,291.8444534577165,213.96821935783888C303.99631582505236,217.99234329453802,316.1481781923883,222.95209875602265,328.31668694652876,226.8875106766349C340.48519570066924,230.82292259724707,352.67035084161427,233.7339909769869,364.83885959575474,237.489199922214C377.0073683498952,241.24440886744114,389.1592307172311,245.84375837815557,401.31109308456706,245.5182145833863C413.46295545190287,245.19267078861705,425.61481781923885,239.942233688364,437.76668018657466,235.11094912972786C449.91854255391064,230.27966457109173,462.0704049212465,225.86753255407243,474.23891367538704,221.58267357600553C486.40742242952746,217.29781459793875,498.59257757047254,213.14022865882438,510.76108632461296,210.5478840440304C522.9295950787536,207.95553942923644,535.0814574460893,206.9284361387629,547.2333198134253,207.86002236089158C559.3851821807611,208.79160858302032,571.5370445480971,211.68188431775135,583.688906915433,208.26915851794445C595.8407692827689,204.8564327181375,607.9926316501047,195.14070538379266,620.1611404042452,192.98218408463265C632.3296491583857,190.8236627854727,644.5148042993308,196.22234752149748,656.6833130534712,200.5517275513532C668.8518218076118,204.88110758120888,681.0036841749476,208.14118290489537,693.1555465422836,214.64973358076818C705.3074089096194,221.15828425664108,717.4592712769553,230.91531028470027,729.6111336442913,239.5675749645367C741.762996011627,248.21983964437314,753.914858378963,255.76734297598682,766.0833671331035,258.8941806906496C778.251875887244,262.02101840531236,790.4370310281889,260.7271905030243,802.6055397823294,252.22476324331754C814.7740485364699,243.72233598361086,826.9259109038059,228.01130936648553,839.0777732711418,213.02850587658395C851.2296356384777,198.0457023866824,863.3814980058136,183.7911220240046,875.5333603731495,178.76089223663723C887.6852227404853,173.73066244926986,899.8370851078213,177.92478323721295,912.0055938619618,184.94439283839188C924.1741026161022,191.96400243957078,936.3592577570472,201.80910085398554,948.5277665111877,210.3334999956272C960.6962752653282,218.85789913726887,972.8481376326641,226.06159900613747,978.9240688163321,229.66344894057173L985,233.26529887500604L985,233.26529887500604L978.9240688163321,229.66344894057178C972.8481376326641,226.06159900613747,960.6962752653282,218.85789913726887,948.5277665111877,210.33349999562722C936.3592577570472,201.80910085398554,924.1741026161022,191.96400243957078,912.0055938619618,184.94439283839185C899.8370851078213,177.92478323721295,887.6852227404853,173.73066244926986,875.5333603731495,178.76089223663723C863.3814980058136,183.7911220240046,851.2296356384777,198.0457023866824,839.0777732711417,213.02850587658398C826.9259109038059,228.01130936648553,814.7740485364699,243.72233598361086,802.6055397823294,252.22476324331754C790.4370310281889,260.7271905030243,778.251875887244,262.02101840531236,766.0833671331035,258.8941806906496C753.914858378963,255.76734297598682,741.762996011627,248.21983964437314,729.6111336442913,241.11182117049347C717.4592712769553,234.00380269661377,705.3074089096194,227.33526908046812,693.1555465422836,227.0037032284223C681.0036841749476,226.67213737637653,668.8518218076118,232.67753928843058,656.6833130534712,242.2463751121858C644.5148042993308,251.81521093594097,632.3296491583857,264.9474806713973,620.1611404042452,273.2829867943844C607.9926316501047,281.61849291737144,595.8407692827689,285.1572354278892,583.688906915433,282.3929764038691C571.5370445480971,279.6287173798489,559.3851821807611,270.56145682129085,547.2333198134253,263.45288577533506C535.0814574460893,256.3443147293793,522.9295950787536,251.19443319602578,510.76108632461296,247.60979298699272C498.59257757047254,244.02515277795965,486.40742242952746,242.00575389324695,474.23891367538704,243.20212045940025C462.0704049212465,244.39848702555358,449.91854255391064,248.81061904257294,437.76668018657466,253.64190360120907C425.61481781923885,258.4731881598452,413.46295545190287,263.72362526009823,401.31109308456706,262.50492284891067C389.1592307172311,261.2862204377232,377.0073683498952,253.59837851509522,364.8388595957547,249.84316956986814C352.67035084161427,246.08796062464103,340.48519570066924,246.26538465681475,328.31668694652876,246.9627113540728C316.1481781923883,247.66003805133087,303.99631582505236,248.87726741367328,291.8444534577165,251.03012830080124C279.6925910903806,253.18298918792917,267.54072872304465,256.27148159984273,255.3888663557088,254.41838615269458C243.23700398837286,252.56529070554652,231.08514162103697,245.77060739933668,218.91663286689652,240.82901954027508C206.74812411275602,235.88743168121343,194.56296897181096,232.7989392692999,182.3944602176705,229.7104468573864C170.22595146353004,226.62195444547285,158.07408909619414,223.53346203355932,145.92222672885825,221.9892158276026C133.77036436152233,220.4449696216458,121.61850199418643,220.4449696216458,109.46663962685055,219.6728465186674C97.31477725951464,218.90072341568904,85.16291489217873,217.35647720973228,72.99440613803826,216.58435410675386C60.8258973838978,215.8122310037755,48.64074224295275,215.8122310037755,36.47223348881227,214.26798479781874C24.303724734671803,212.723738591862,12.151862367335902,209.63524617994847,6.075931183667951,208.09099997399173L0,206.54675376803496Z"><title>C/C++</title></path><path fill="#1f77b4" d="M0,206.54675376803496L6.075931183667951,205.00250756207822C12.151862367335902,203.45826135612143,24.303724734671803,200.3697689442079,36.47223348881227,198.82552273825112C48.64074224295275,197.28127653229436,60.8258973838978,197.28127653229436,72.99440613803826,194.9649072233592C85.16291489217873,192.64853791442408,97.31477725951464,188.0157992965538,109.46663962685055,182.6109375757051C121.61850199418643,177.20607585485644,133.77036436152233,171.02909103102942,145.92222672885825,169.48484482507263C158.07408909619414,167.9405986191159,170.22595146353004,171.02909103102937,182.3944602176705,177.20607585485644C194.56296897181096,183.38306067868348,206.74812411275602,192.64853791442405,218.91663286689652,191.41314094965864C231.08514162103697,190.17774398489323,243.23700398837286,178.44147281962182,255.3888663557088,171.02909103102937C267.54072872304465,163.6167092424369,279.6925910903806,160.52821683052338,291.8444534577165,158.37535594339542C303.99631582505236,156.22249505626746,316.1481781923883,155.00526569392505,328.31668694652876,155.85218520262376C340.48519570066924,156.69910471132246,352.67035084161427,159.61017309106225,364.83885959575474,157.1883972124623C377.0073683498952,154.76662133386236,389.1592307172311,147.0120011969227,401.31109308456706,143.59796499023992C413.46295545190287,140.18392878355712,425.61481781923885,141.11047650713118,437.76668018657466,140.91193056636533C449.91854255391064,140.71338462559947,462.0704049212465,139.38974502049368,474.23891367538704,141.2818708662539C486.40742242952746,143.17399671201412,498.59257757047254,148.28188800864032,510.76108632461296,151.86652821767342C522.9295950787536,155.45116842670652,535.0814574460893,157.51255754814648,547.2333198134253,154.4291036347876C559.3851821807611,151.34564972142874,571.5370445480971,143.11735277327105,583.688906915433,140.94002393822953C595.8407692827689,138.76269510318804,607.9926316501047,142.6363343812627,620.1611404042452,149.1255918354606C632.3296491583857,155.61484928965845,644.5148042993308,164.71972491997954,656.6833130534712,172.4464466029401C668.8518218076118,180.1731682859007,681.0036841749476,186.5217360215007,693.1555465422836,194.57453290333032C705.3074089096194,202.6273297851599,717.4592712769553,212.38435581321912,729.6111336442913,217.94812808114204C741.762996011627,223.51190034906494,753.914858378963,224.88241885685156,766.0833671331035,224.9207641596008C778.251875887244,224.95910946235009,790.4370310281889,223.66528156006197,802.6055397823294,218.25134671226883C814.7740485364699,212.8374118644756,826.9259109038059,203.30337007117737,839.0777732711418,192.95330519914606C851.2296356384777,182.60324032711478,863.3814980058136,171.43715237635047,875.5333603731495,168.26001803613124C887.6852227404853,165.082883695912,899.8370851078213,169.89470296623776,912.0055938619618,177.5320110497994C924.1741026161022,185.16931913336103,936.3592577570472,195.6321160301585,948.5277665111877,204.77421365418286C960.6962752653282,213.91631127820725,972.8481376326641,221.73770962945852,978.9240688163321,225.64840880508416L985,229.5591079807098L985,233.26529887500604L978.9240688163321,229.66344894057178C972.8481376326641,226.06159900613747,960.6962752653282,218.85789913726887,948.5277665111877,210.33349999562722C936.3592577570472,201.80910085398554,924.1741026161022,191.96400243957078,912.0055938619618,184.94439283839185C899.8370851078213,177.92478323721295,887.6852227404853,173.73066244926986,875.5333603731495,178.76089223663723C863.3814980058136,183.7911220240046,851.2296356384777,198.0457023866824,839.0777732711417,213.02850587658398C826.9259109038059,228.01130936648553,814.7740485364699,243.72233598361086,802.6055397823294,252.22476324331754C790.4370310281889,260.7271905030243,778.251875887244,262.02101840531236,766.0833671331035,258.8941806906496C753.914858378963,255.76734297598682,741.762996011627,248.21983964437314,729.6111336442913,239.5675749645367C717.4592712769553,230.91531028470027,705.3074089096194,221.15828425664108,693.1555465422836,213.10548737481145C681.0036841749476,205.0526904929818,668.8518218076118,198.7041227573818,656.6833130534712,188.19775790369906C644.5148042993308,177.69139305001636,632.3296491583857,163.02723107825094,620.1611404042452,154.3760289357136C607.9926316501047,145.72482679317625,595.8407692827689,143.08658447986696,583.688906915433,146.4993102796739C571.5370445480971,149.9120360794808,559.3851821807611,159.37572999240388,547.2333198134253,169.2538672119725C535.0814574460893,179.1320044315411,522.9295950787536,189.4245849577553,510.76108632461296,196.64966819041953C498.59257757047254,203.8747514230838,486.40742242952746,208.03233736219818,474.23891367538704,207.68445772239474C462.0704049212465,207.33657808259127,449.91854255391064,202.48323286387003,437.76668018657466,199.59328639272235C425.61481781923885,196.70333992157467,413.46295545190287,195.77679219800063,401.31109308456706,196.1023359927699C389.1592307172311,196.42787978753915,377.0073683498952,198.0055151006517,364.8388595957547,200.42729097925167C352.67035084161427,202.84906685785162,340.48519570066924,206.1149833019389,328.31668694652876,208.35655620515374C316.1481781923883,210.59812910836857,303.99631582505236,211.81535847071095,291.8444534577165,210.87972694592534C279.6925910903806,209.9440954211398,267.54072872304465,206.85560300922626,255.3888663557088,205.0025075620782C243.23700398837286,203.14941211493002,231.08514162103697,202.53171363254737,218.91663286689652,197.5901257734857C206.74812411275602,192.64853791442405,194.56296897181096,183.38306067868348,182.3944602176705,177.2060758548564C170.22595146353004,171.02909103102937,158.07408909619414,167.9405986191159,145.92222672885825,169.48484482507263C133.77036436152233,171.02909103102942,121.61850199418643,177.20607585485644,109.46663962685055,182.61093757570515C97.31477725951464,188.0157992965538,85.16291489217873,192.64853791442408,72.99440613803826,194.9649072233592C60.8258973838978,197.28127653229436,48.64074224295275,197.28127653229436,36.47223348881227,198.82552273825112C24.303724734671803,200.3697689442079,12.151862367335902,203.45826135612143,6.075931183667951,205.0025075620782L0,206.54675376803496Z"><title>Java</title></path><path fill="#2ca02c" d="M0,206.54675376803496L6.075931183667951,208.09099997399173C12.151862367335902,209.63524617994847,24.303724734671803,212.723738591862,36.47223348881227,214.26798479781874C48.64074224295275,215.8122310037755,60.8258973838978,215.8122310037755,72.99440613803826,216.58435410675392C85.16291489217873,217.35647720973228,97.31477725951464,218.90072341568904,109.46663962685055,219.67284651866746C121.61850199418643,220.4449696216458,133.77036436152233,220.4449696216458,145.92222672885825,218.90072341568904C158.07408909619414,217.35647720973228,170.22595146353004,214.26798479781874,182.3944602176705,211.1794923859052C194.56296897181096,208.09099997399167,206.74812411275602,205.00250756207814,218.91663286689652,203.76711059731272C231.08514162103697,202.53171363254737,243.23700398837286,203.14941211493002,255.3888663557088,205.0025075620782C267.54072872304465,206.85560300922626,279.6925910903806,209.9440954211398,291.8444534577165,210.8797269459254C303.99631582505236,211.81535847071095,316.1481781923883,210.59812910836857,328.31668694652876,208.35655620515374C340.48519570066924,206.1149833019389,352.67035084161427,202.84906685785162,364.83885959575474,200.42729097925167C377.0073683498952,198.0055151006517,389.1592307172311,196.42787978753915,401.31109308456706,199.19082840468343C413.46295545190287,201.9537770218277,425.61481781923885,209.0573095692288,437.76668018657466,213.49150224633323C449.91854255391064,217.92569492343765,462.0704049212465,219.69054773024538,474.23891367538704,216.9499349581353C486.40742242952746,214.20932218602522,498.59257757047254,206.96324383499731,510.76108632461296,198.1939143963763C522.9295950787536,189.4245849577553,535.0814574460893,179.1320044315411,547.2333198134253,169.2538672119725C559.3851821807611,159.37572999240388,571.5370445480971,149.9120360794808,583.688906915433,146.49931027967386C595.8407692827689,143.08658447986696,607.9926316501047,145.72482679317625,620.1611404042452,154.3760289357136C632.3296491583857,163.02723107825094,644.5148042993308,177.69139305001636,656.6833130534712,188.19775790369906C668.8518218076118,198.7041227573818,681.0036841749476,205.0526904929818,693.1555465422836,213.10548737481145C705.3074089096194,221.15828425664108,717.4592712769553,230.91531028470027,729.6111336442913,239.5675749645367C741.762996011627,248.21983964437314,753.914858378963,255.76734297598682,766.0833671331035,258.8941806906496C778.251875887244,262.02101840531236,790.4370310281889,260.7271905030243,802.6055397823294,252.22476324331754C814.7740485364699,243.72233598361086,826.9259109038059,228.01130936648553,839.0777732711418,213.02850587658395C851.2296356384777,198.0457023866824,863.3814980058136,183.7911220240046,875.5333603731495,178.76089223663723C887.6852227404853,173.73066244926986,899.8370851078213,177.92478323721295,912.0055938619618,184.94439283839188C924.1741026161022,191.96400243957078,936.3592577570472,201.80910085398554,948.5277665111877,210.3334999956272C960.6962752653282,218.85789913726887,972.8481376326641,226.06159900613747,978.9240688163321,229.66344894057173L985,233.26529887500604L985,233.26529887500604L978.9240688163321,229.66344894057178C972.8481376326641,226.06159900613747,960.6962752653282,218.85789913726887,948.5277665111877,210.33349999562722C936.3592577570472,201.80910085398554,924.1741026161022,191.96400243957078,912.0055938619618,184.94439283839185C899.8370851078213,177.92478323721295,887.6852227404853,173.73066244926986,875.5333603731495,178.76089223663723C863.3814980058136,183.7911220240046,851.2296356384777,198.0457023866824,839.0777732711417,213.02850587658398C826.9259109038059,228.01130936648553,814.7740485364699,243.72233598361086,802.6055397823294,252.22476324331754C790.4370310281889,260.7271905030243,778.251875887244,262.02101840531236,766.0833671331035,258.8941806906496C753.914858378963,255.76734297598682,741.762996011627,248.21983964437314,729.6111336442913,239.5675749645367C717.4592712769553,230.91531028470027,705.3074089096194,221.15828425664108,693.1555465422836,213.10548737481145C681.0036841749476,205.0526904929818,668.8518218076118,198.7041227573818,656.6833130534712,188.19775790369906C644.5148042993308,177.69139305001636,632.3296491583857,163.02723107825094,620.1611404042452,154.3760289357136C607.9926316501047,145.72482679317625,595.8407692827689,143.08658447986696,583.688906915433,146.4993102796739C571.5370445480971,149.9120360794808,559.3851821807611,159.37572999240388,547.2333198134253,169.2538672119725C535.0814574460893,179.1320044315411,522.9295950787536,189.4245849577553,510.76108632461296,198.19391439637627C498.59257757047254,206.96324383499731,486.40742242952746,214.20932218602522,474.23891367538704,220.0384273700488C462.0704049212465,225.86753255407243,449.91854255391064,230.27966457109173,437.76668018657466,235.11094912972786C425.61481781923885,239.942233688364,413.46295545190287,245.19267078861705,401.31109308456706,245.5182145833863C389.1592307172311,245.84375837815557,377.0073683498952,241.24440886744114,364.8388595957547,237.489199922214C352.67035084161427,233.7339909769869,340.48519570066924,230.82292259724707,328.31668694652876,226.8875106766349C316.1481781923883,222.95209875602265,303.99631582505236,217.99234329453802,291.8444534577165,213.96821935783888C279.6925910903806,209.9440954211398,267.54072872304465,206.85560300922626,255.3888663557088,205.0025075620782C243.23700398837286,203.14941211493002,231.08514162103697,202.53171363254737,218.91663286689652,203.76711059731272C206.74812411275602,205.00250756207814,194.56296897181096,208.09099997399167,182.3944602176705,211.1794923859052C170.22595146353004,214.26798479781874,158.07408909619414,217.35647720973228,145.92222672885825,218.90072341568907C133.77036436152233,220.4449696216458,121.61850199418643,220.4449696216458,109.46663962685055,219.6728465186674C97.31477725951464,218.90072341568904,85.16291489217873,217.35647720973228,72.99440613803826,216.58435410675386C60.8258973838978,215.8122310037755,48.64074224295275,215.8122310037755,36.47223348881227,214.26798479781874C24.303724734671803,212.723738591862,12.151862367335902,209.63524617994847,6.075931183667951,208.09099997399173L0,206.54675376803496Z"><title>PHP</title></path><path fill="#9467bd" d="M0,206.54675376803496L6.075931183667951,208.09099997399173C12.151862367335902,209.63524617994847,24.303724734671803,212.723738591862,36.47223348881227,214.26798479781874C48.64074224295275,215.8122310037755,60.8258973838978,215.8122310037755,72.99440613803826,216.58435410675392C85.16291489217873,217.35647720973228,97.31477725951464,218.90072341568904,109.46663962685055,219.67284651866746C121.61850199418643,220.4449696216458,133.77036436152233,220.4449696216458,145.92222672885825,221.98921582760258C158.07408909619414,223.53346203355932,170.22595146353004,226.62195444547285,182.3944602176705,229.7104468573864C194.56296897181096,232.7989392692999,206.74812411275602,235.88743168121343,218.91663286689652,240.82901954027508C231.08514162103697,245.77060739933668,243.23700398837286,252.56529070554652,255.3888663557088,254.41838615269458C267.54072872304465,256.27148159984273,279.6925910903806,253.18298918792917,291.8444534577165,251.03012830080124C303.99631582505236,248.87726741367328,316.1481781923883,247.66003805133087,328.31668694652876,246.9627113540728C340.48519570066924,246.26538465681475,352.67035084161427,246.08796062464103,364.83885959575474,249.8431695698681C377.0073683498952,253.59837851509522,389.1592307172311,261.2862204377232,401.31109308456706,262.50492284891067C413.46295545190287,263.72362526009823,425.61481781923885,258.4731881598452,437.76668018657466,253.64190360120907C449.91854255391064,248.81061904257294,462.0704049212465,244.39848702555358,474.23891367538704,243.20212045940025C486.40742242952746,242.00575389324695,498.59257757047254,244.02515277795965,510.76108632461296,250.69828539890625C522.9295950787536,257.37141801985285,535.0814574460893,268.6982843770334,547.2333198134253,281.9838402468162C559.3851821807611,295.269396116599,571.5370445480971,310.5136414989842,583.688906915433,325.63187017065843C595.8407692827689,340.75009884233265,607.9926316501047,355.74231080329605,620.1611404042452,353.58378950413606C632.3296491583857,351.425268204976,644.5148042993308,332.1160136456927,656.6833130534712,313.2817005861969C668.8518218076118,294.4473875267011,681.0036841749476,276.08801596699294,693.1555465422836,273.3310894071252C705.3074089096194,270.57416284725747,717.4592712769553,283.4196812872302,729.6111336442913,288.9834535551531C741.762996011627,294.5472258230761,753.914858378963,292.8292519189492,766.0833671331035,297.5003358395687C778.251875887244,302.17141976018826,790.4370310281889,313.2315615055543,802.6055397823294,310.9061190696746C814.7740485364699,308.580676633795,826.9259109038059,292.8696500166696,839.0777732711418,288.69656996846544C851.2296356384777,284.52348992026117,863.3814980058136,291.88835644097804,875.5333603731495,291.49086527148097C887.6852227404853,291.0933741019839,899.8370851078213,282.9335252422729,912.0055938619618,277.59916519579764C924.1741026161022,272.26480514932246,936.3592577570472,269.75593391608317,948.5277665111877,267.47060961602745C960.6962752653282,265.18528531597184,972.8481376326641,263.1235079490998,978.9240688163321,262.09261926566376L985,261.06173058222777L985,270.3272078179684L978.9240688163321,272.90234270736113C972.8481376326641,275.4774775967539,960.6962752653282,280.6277473755394,948.5277665111877,287.54581029346537C936.3592577570472,294.46387321139133,924.1741026161022,303.14972926845775,912.0055938619618,308.4840893149329C899.8370851078213,313.8184493614081,887.6852227404853,315.80131339729206,875.5333603731495,313.11031215487566C863.3814980058136,310.4193109124592,851.2296356384777,303.0544443917423,839.0777732711417,307.22752443994654C826.9259109038059,311.4006044881508,814.7740485364699,327.1116311052761,802.6055397823294,327.892827335199C790.4370310281889,328.6740235651219,778.251875887244,314.5253894078424,766.0833671331035,307.383511557692C753.914858378963,300.24163370754167,741.762996011627,300.10651216452044,729.6111336442913,294.54273989659754C717.4592712769553,288.9789676286746,705.3074089096194,277.98654463584995,693.1555465422836,283.2142651252485C681.0036841749476,288.4419856146471,668.8518218076118,309.8898495862688,656.6833130534712,328.7241626457646C644.5148042993308,347.5584757052604,632.3296491583857,363.77923785263016,620.1611404042452,363.158115981068C607.9926316501047,362.53699410950577,595.8407692827689,345.0739882190116,583.688906915433,328.72036258257197C571.5370445480971,312.36673694613233,559.3851821807611,297.1224915637472,547.2333198134253,285.07233265872975C535.0814574460893,273.02217375371237,522.9295950787536,264.16610132606263,510.76108632461296,260.2726118758382C498.59257757047254,256.37912242561373,486.40742242952746,257.44821595281456,474.23891367538704,258.64458251896787C462.0704049212465,259.84094908512117,449.91854255391064,261.164588690227,437.76668018657466,264.14277780171506C425.61481781923885,267.1209669132031,413.46295545190287,271.7537055310734,401.31109308456706,269.60845539631185C389.1592307172311,267.4632052615503,377.0073683498952,258.53996637415685,364.8388595957547,253.85820970535568C352.67035084161427,249.17645303655448,340.48519570066924,248.73617858634555,328.31668694652876,248.8158068012209C316.1481781923883,248.8954350160963,303.99631582505236,249.49496589605596,291.8444534577165,251.33897754199256C279.6925910903806,253.18298918792917,267.54072872304465,256.27148159984273,255.3888663557088,254.41838615269458C243.23700398837286,252.56529070554652,231.08514162103697,245.77060739933668,218.91663286689652,240.82901954027508C206.74812411275602,235.88743168121343,194.56296897181096,232.7989392692999,182.3944602176705,229.7104468573864C170.22595146353004,226.62195444547285,158.07408909619414,223.53346203355932,145.92222672885825,221.9892158276026C133.77036436152233,220.4449696216458,121.61850199418643,220.4449696216458,109.46663962685055,219.6728465186674C97.31477725951464,218.90072341568904,85.16291489217873,217.35647720973228,72.99440613803826,216.58435410675386C60.8258973838978,215.8122310037755,48.64074224295275,215.8122310037755,36.47223348881227,214.26798479781874C24.303724734671803,212.723738591862,12.151862367335902,209.63524617994847,6.075931183667951,208.09099997399173L0,206.54675376803496Z"><title>JavaScript</title></path><path fill="#e377c2" d="M0,206.54675376803496L6.075931183667951,205.00250756207822C12.151862367335902,203.45826135612143,24.303724734671803,200.3697689442079,36.47223348881227,198.82552273825112C48.64074224295275,197.28127653229436,60.8258973838978,197.28127653229436,72.99440613803826,194.9649072233592C85.16291489217873,192.64853791442408,97.31477725951464,188.0157992965538,109.46663962685055,182.6109375757051C121.61850199418643,177.20607585485644,133.77036436152233,171.02909103102942,145.92222672885825,169.48484482507263C158.07408909619414,167.9405986191159,170.22595146353004,171.02909103102937,182.3944602176705,177.20607585485644C194.56296897181096,183.38306067868348,206.74812411275602,192.64853791442405,218.91663286689652,191.41314094965864C231.08514162103697,190.17774398489323,243.23700398837286,178.44147281962182,255.3888663557088,171.02909103102937C267.54072872304465,163.6167092424369,279.6925910903806,160.52821683052338,291.8444534577165,158.37535594339542C303.99631582505236,156.22249505626746,316.1481781923883,155.00526569392505,328.31668694652876,155.85218520262376C340.48519570066924,156.69910471132246,352.67035084161427,159.61017309106225,364.83885959575474,157.1883972124623C377.0073683498952,154.76662133386236,389.1592307172311,147.0120011969227,401.31109308456706,143.59796499023992C413.46295545190287,140.18392878355712,425.61481781923885,141.11047650713118,437.76668018657466,139.36768436040856C449.91854255391064,137.62489221368594,462.0704049212465,133.21276019666664,474.23891367538704,132.01639363051333C486.40742242952746,130.82002706436,498.59257757047254,132.8394259490727,510.76108632461296,131.79132754023547C522.9295950787536,130.74322913139827,535.0814574460893,126.62763342901117,547.2333198134253,117.36719469182526C559.3851821807611,108.10675595463935,571.5370445480971,93.70147418265462,583.688906915433,85.34716052378604C595.8407692827689,76.99284686491751,607.9926316501047,74.68950131916513,620.1611404042452,87.35574359719008C632.3296491583857,100.02198587521501,644.5148042993308,127.65781597701725,656.6833130534712,147.7385073076319C668.8518218076118,167.81919863824655,681.0036841749476,180.34475119767365,693.1555465422836,191.4860404914168C705.3074089096194,202.6273297851599,717.4592712769553,212.38435581321912,729.6111336442913,217.94812808114204C741.762996011627,223.51190034906494,753.914858378963,224.88241885685156,766.0833671331035,224.9207641596008C778.251875887244,224.95910946235009,790.4370310281889,223.66528156006197,802.6055397823294,218.25134671226883C814.7740485364699,212.8374118644756,826.9259109038059,203.30337007117737,839.0777732711418,192.95330519914606C851.2296356384777,182.60324032711478,863.3814980058136,171.43715237635047,875.5333603731495,168.26001803613124C887.6852227404853,165.082883695912,899.8370851078213,169.89470296623776,912.0055938619618,177.5320110497994C924.1741026161022,185.16931913336103,936.3592577570472,195.6321160301585,948.5277665111877,204.77421365418286C960.6962752653282,213.91631127820725,972.8481376326641,221.73770962945852,978.9240688163321,225.64840880508416L985,229.5591079807098L985,229.5591079807098L978.9240688163321,225.64840880508416C972.8481376326641,221.73770962945852,960.6962752653282,213.91631127820725,948.5277665111877,204.7742136541829C936.3592577570472,195.6321160301585,924.1741026161022,185.16931913336103,912.0055938619618,177.5320110497994C899.8370851078213,169.89470296623776,887.6852227404853,165.082883695912,875.5333603731495,168.26001803613124C863.3814980058136,171.43715237635047,851.2296356384777,182.60324032711478,839.0777732711417,192.95330519914606C826.9259109038059,203.30337007117737,814.7740485364699,212.8374118644756,802.6055397823294,218.25134671226883C790.4370310281889,223.66528156006197,778.251875887244,224.95910946235009,766.0833671331035,224.92076415960082C753.914858378963,224.88241885685156,741.762996011627,223.51190034906494,729.6111336442913,217.94812808114202C717.4592712769553,212.38435581321912,705.3074089096194,202.6273297851599,693.1555465422836,194.57453290333032C681.0036841749476,186.5217360215007,668.8518218076118,180.1731682859007,656.6833130534712,172.4464466029401C644.5148042993308,164.71972491997954,632.3296491583857,155.61484928965845,620.1611404042452,149.1255918354606C607.9926316501047,142.6363343812627,595.8407692827689,138.76269510318804,583.688906915433,140.94002393822956C571.5370445480971,143.11735277327105,559.3851821807611,151.34564972142874,547.2333198134253,154.4291036347876C535.0814574460893,157.51255754814648,522.9295950787536,155.45116842670652,510.76108632461296,151.86652821767342C498.59257757047254,148.28188800864032,486.40742242952746,143.17399671201412,474.23891367538704,141.2818708662539C462.0704049212465,139.38974502049368,449.91854255391064,140.71338462559947,437.76668018657466,140.91193056636533C425.61481781923885,141.11047650713118,413.46295545190287,140.18392878355712,401.31109308456706,143.59796499023992C389.1592307172311,147.0120011969227,377.0073683498952,154.76662133386236,364.8388595957547,157.18839721246232C352.67035084161427,159.61017309106225,340.48519570066924,156.69910471132246,328.31668694652876,155.85218520262376C316.1481781923883,155.00526569392505,303.99631582505236,156.22249505626746,291.8444534577165,158.37535594339542C279.6925910903806,160.52821683052338,267.54072872304465,163.6167092424369,255.3888663557088,171.02909103102937C243.23700398837286,178.44147281962182,231.08514162103697,190.17774398489323,218.91663286689652,191.41314094965867C206.74812411275602,192.64853791442405,194.56296897181096,183.38306067868348,182.3944602176705,177.2060758548564C170.22595146353004,171.02909103102937,158.07408909619414,167.9405986191159,145.92222672885825,169.48484482507263C133.77036436152233,171.02909103102942,121.61850199418643,177.20607585485644,109.46663962685055,182.61093757570515C97.31477725951464,188.0157992965538,85.16291489217873,192.64853791442408,72.99440613803826,194.9649072233592C60.8258973838978,197.28127653229436,48.64074224295275,197.28127653229436,36.47223348881227,198.82552273825112C24.303724734671803,200.3697689442079,12.151862367335902,203.45826135612143,6.075931183667951,205.0025075620782L0,206.54675376803496Z"><title>MATLAB</title></path><path fill="#7f7f7f" d="M0,206.54675376803496L6.075931183667951,208.09099997399173C12.151862367335902,209.63524617994847,24.303724734671803,212.723738591862,36.47223348881227,214.26798479781874C48.64074224295275,215.8122310037755,60.8258973838978,215.8122310037755,72.99440613803826,216.58435410675392C85.16291489217873,217.35647720973228,97.31477725951464,218.90072341568904,109.46663962685055,219.67284651866746C121.61850199418643,220.4449696216458,133.77036436152233,220.4449696216458,145.92222672885825,218.90072341568904C158.07408909619414,217.35647720973228,170.22595146353004,214.26798479781874,182.3944602176705,211.1794923859052C194.56296897181096,208.09099997399167,206.74812411275602,205.00250756207814,218.91663286689652,203.76711059731272C231.08514162103697,202.53171363254737,243.23700398837286,203.14941211493002,255.3888663557088,205.0025075620782C267.54072872304465,206.85560300922626,279.6925910903806,209.9440954211398,291.8444534577165,213.96821935783888C303.99631582505236,217.99234329453802,316.1481781923883,222.95209875602265,328.31668694652876,226.8875106766349C340.48519570066924,230.82292259724707,352.67035084161427,233.7339909769869,364.83885959575474,237.489199922214C377.0073683498952,241.24440886744114,389.1592307172311,245.84375837815557,401.31109308456706,245.5182145833863C413.46295545190287,245.19267078861705,425.61481781923885,239.942233688364,437.76668018657466,235.11094912972786C449.91854255391064,230.27966457109173,462.0704049212465,225.86753255407243,474.23891367538704,220.0384273700488C486.40742242952746,214.20932218602522,498.59257757047254,206.96324383499731,510.76108632461296,198.1939143963763C522.9295950787536,189.4245849577553,535.0814574460893,179.1320044315411,547.2333198134253,169.2538672119725C559.3851821807611,159.37572999240388,571.5370445480971,149.9120360794808,583.688906915433,146.49931027967386C595.8407692827689,143.08658447986696,607.9926316501047,145.72482679317625,620.1611404042452,154.3760289357136C632.3296491583857,163.02723107825094,644.5148042993308,177.69139305001636,656.6833130534712,188.19775790369906C668.8518218076118,198.7041227573818,681.0036841749476,205.0526904929818,693.1555465422836,213.10548737481145C705.3074089096194,221.15828425664108,717.4592712769553,230.91531028470027,729.6111336442913,239.5675749645367C741.762996011627,248.21983964437314,753.914858378963,255.76734297598682,766.0833671331035,258.8941806906496C778.251875887244,262.02101840531236,790.4370310281889,260.7271905030243,802.6055397823294,252.22476324331754C814.7740485364699,243.72233598361086,826.9259109038059,228.01130936648553,839.0777732711418,213.02850587658395C851.2296356384777,198.0457023866824,863.3814980058136,183.7911220240046,875.5333603731495,178.76089223663723C887.6852227404853,173.73066244926986,899.8370851078213,177.92478323721295,912.0055938619618,184.94439283839188C924.1741026161022,191.96400243957078,936.3592577570472,201.80910085398554,948.5277665111877,210.3334999956272C960.6962752653282,218.85789913726887,972.8481376326641,226.06159900613747,978.9240688163321,229.66344894057173L985,233.26529887500604L985,233.26529887500604L978.9240688163321,229.66344894057178C972.8481376326641,226.06159900613747,960.6962752653282,218.85789913726887,948.5277665111877,210.33349999562722C936.3592577570472,201.80910085398554,924.1741026161022,191.96400243957078,912.0055938619618,184.94439283839185C899.8370851078213,177.92478323721295,887.6852227404853,173.73066244926986,875.5333603731495,178.76089223663723C863.3814980058136,183.7911220240046,851.2296356384777,198.0457023866824,839.0777732711417,213.02850587658398C826.9259109038059,228.01130936648553,814.7740485364699,243.72233598361086,802.6055397823294,252.22476324331754C790.4370310281889,260.7271905030243,778.251875887244,262.02101840531236,766.0833671331035,258.8941806906496C753.914858378963,255.76734297598682,741.762996011627,248.21983964437314,729.6111336442913,239.5675749645367C717.4592712769553,230.91531028470027,705.3074089096194,221.15828425664108,693.1555465422836,214.64973358076818C681.0036841749476,208.14118290489537,668.8518218076118,204.88110758120888,656.6833130534712,200.5517275513532C644.5148042993308,196.22234752149748,632.3296491583857,190.8236627854727,620.1611404042452,192.98218408463265C607.9926316501047,195.14070538379266,595.8407692827689,204.8564327181375,583.688906915433,208.26915851794442C571.5370445480971,211.68188431775135,559.3851821807611,208.79160858302032,547.2333198134253,207.86002236089158C535.0814574460893,206.9284361387629,522.9295950787536,207.95553942923644,510.76108632461296,210.5478840440304C498.59257757047254,213.14022865882438,486.40742242952746,217.29781459793875,474.23891367538704,221.58267357600553C462.0704049212465,225.86753255407243,449.91854255391064,230.27966457109173,437.76668018657466,235.11094912972786C425.61481781923885,239.942233688364,413.46295545190287,245.19267078861705,401.31109308456706,245.5182145833863C389.1592307172311,245.84375837815557,377.0073683498952,241.24440886744114,364.8388595957547,237.489199922214C352.67035084161427,233.7339909769869,340.48519570066924,230.82292259724707,328.31668694652876,226.8875106766349C316.1481781923883,222.95209875602265,303.99631582505236,217.99234329453802,291.8444534577165,213.96821935783888C279.6925910903806,209.9440954211398,267.54072872304465,206.85560300922626,255.3888663557088,205.0025075620782C243.23700398837286,203.14941211493002,231.08514162103697,202.53171363254737,218.91663286689652,203.76711059731272C206.74812411275602,205.00250756207814,194.56296897181096,208.09099997399167,182.3944602176705,211.1794923859052C170.22595146353004,214.26798479781874,158.07408909619414,217.35647720973228,145.92222672885825,218.90072341568907C133.77036436152233,220.4449696216458,121.61850199418643,220.4449696216458,109.46663962685055,219.6728465186674C97.31477725951464,218.90072341568904,85.16291489217873,217.35647720973228,72.99440613803826,216.58435410675386C60.8258973838978,215.8122310037755,48.64074224295275,215.8122310037755,36.47223348881227,214.26798479781874C24.303724734671803,212.723738591862,12.151862367335902,209.63524617994847,6.075931183667951,208.09099997399173L0,206.54675376803496Z"><title>Scheme</title></path><path fill="#ffd43b" d="M0,206.54675376803496L6.075931183667951,208.09099997399173C12.151862367335902,209.63524617994847,24.303724734671803,212.723738591862,36.47223348881227,214.26798479781874C48.64074224295275,215.8122310037755,60.8258973838978,215.8122310037755,72.99440613803826,216.58435410675392C85.16291489217873,217.35647720973228,97.31477725951464,218.90072341568904,109.46663962685055,219.67284651866746C121.61850199418643,220.4449696216458,133.77036436152233,220.4449696216458,145.92222672885825,221.98921582760258C158.07408909619414,223.53346203355932,170.22595146353004,226.62195444547285,182.3944602176705,229.7104468573864C194.56296897181096,232.7989392692999,206.74812411275602,235.88743168121343,218.91663286689652,240.82901954027508C231.08514162103697,245.77060739933668,243.23700398837286,252.56529070554652,255.3888663557088,254.41838615269458C267.54072872304465,256.27148159984273,279.6925910903806,253.18298918792917,291.8444534577165,251.03012830080124C303.99631582505236,248.87726741367328,316.1481781923883,247.66003805133087,328.31668694652876,246.9627113540728C340.48519570066924,246.26538465681475,352.67035084161427,246.08796062464103,364.83885959575474,249.8431695698681C377.0073683498952,253.59837851509522,389.1592307172311,261.2862204377232,401.31109308456706,262.50492284891067C413.46295545190287,263.72362526009823,425.61481781923885,258.4731881598452,437.76668018657466,253.64190360120907C449.91854255391064,248.81061904257294,462.0704049212465,244.39848702555358,474.23891367538704,243.20212045940025C486.40742242952746,242.00575389324695,498.59257757047254,244.02515277795965,510.76108632461296,247.60979298699272C522.9295950787536,251.19443319602578,535.0814574460893,256.3443147293793,547.2333198134253,263.45288577533506C559.3851821807611,270.56145682129085,571.5370445480971,279.6287173798489,583.688906915433,282.3929764038691C595.8407692827689,285.1572354278892,607.9926316501047,281.61849291737144,620.1611404042452,273.2829867943844C632.3296491583857,264.9474806713973,644.5148042993308,251.81521093594097,656.6833130534712,242.2463751121858C668.8518218076118,232.67753928843058,681.0036841749476,226.67213737637653,693.1555465422836,227.0037032284223C705.3074089096194,227.33526908046812,717.4592712769553,234.00380269661377,729.6111336442913,241.11182117049347C741.762996011627,248.21983964437314,753.914858378963,255.76734297598682,766.0833671331035,258.8941806906496C778.251875887244,262.02101840531236,790.4370310281889,260.7271905030243,802.6055397823294,252.22476324331754C814.7740485364699,243.72233598361086,826.9259109038059,228.01130936648553,839.0777732711418,213.02850587658395C851.2296356384777,198.0457023866824,863.3814980058136,183.7911220240046,875.5333603731495,178.76089223663723C887.6852227404853,173.73066244926986,899.8370851078213,177.92478323721295,912.0055938619618,184.94439283839188C924.1741026161022,191.96400243957078,936.3592577570472,201.80910085398554,948.5277665111877,210.3334999956272C960.6962752653282,218.85789913726887,972.8481376326641,226.06159900613747,978.9240688163321,229.66344894057173L985,233.26529887500604L985,251.79625334648716L978.9240688163321,251.2828958239664C972.8481376326641,250.76953830144566,960.6962752653282,249.7428232564041,948.5277665111877,247.39540893858953C936.3592577570472,245.04799462077492,924.1741026161022,241.3798810301872,912.0055938619618,240.5372562528353C899.8370851078213,239.69463147548345,887.6852227404853,241.67749551136743,875.5333603731495,242.07498668086453C863.3814980058136,242.47247785036157,851.2296356384777,241.28459615347177,839.0777732711417,245.457676201676C826.9259109038059,249.63075624988025,814.7740485364699,259.1647980431785,802.6055397823294,266.1229790969285C790.4370310281889,273.08116015067844,778.251875887244,277.4634804648801,766.0833671331035,282.0578737800011C753.914858378963,286.6522670951221,741.762996011627,291.45873341116254,729.6111336442913,287.43920734919635C717.4592712769553,283.4196812872302,705.3074089096194,270.57416284725747,693.1555465422836,273.3310894071252C681.0036841749476,276.08801596699294,668.8518218076118,294.4473875267011,656.6833130534712,313.2817005861969C644.5148042993308,332.1160136456927,632.3296491583857,351.425268204976,620.1611404042452,353.58378950413606C607.9926316501047,355.74231080329605,595.8407692827689,340.75009884233265,583.688906915433,325.6318701706584C571.5370445480971,310.5136414989842,559.3851821807611,295.269396116599,547.2333198134253,281.9838402468162C535.0814574460893,268.6982843770334,522.9295950787536,257.37141801985285,510.76108632461296,250.69828539890625C498.59257757047254,244.02515277795965,486.40742242952746,242.00575389324695,474.23891367538704,243.20212045940025C462.0704049212465,244.39848702555358,449.91854255391064,248.81061904257294,437.76668018657466,253.64190360120907C425.61481781923885,258.4731881598452,413.46295545190287,263.72362526009823,401.31109308456706,262.50492284891067C389.1592307172311,261.2862204377232,377.0073683498952,253.59837851509522,364.8388595957547,249.84316956986814C352.67035084161427,246.08796062464103,340.48519570066924,246.26538465681475,328.31668694652876,246.9627113540728C316.1481781923883,247.66003805133087,303.99631582505236,248.87726741367328,291.8444534577165,251.03012830080124C279.6925910903806,253.18298918792917,267.54072872304465,256.27148159984273,255.3888663557088,254.41838615269458C243.23700398837286,252.56529070554652,231.08514162103697,245.77060739933668,218.91663286689652,240.82901954027508C206.74812411275602,235.88743168121343,194.56296897181096,232.7989392692999,182.3944602176705,229.7104468573864C170.22595146353004,226.62195444547285,158.07408909619414,223.53346203355932,145.92222672885825,221.9892158276026C133.77036436152233,220.4449696216458,121.61850199418643,220.4449696216458,109.46663962685055,219.6728465186674C97.31477725951464,218.90072341568904,85.16291489217873,217.35647720973228,72.99440613803826,216.58435410675386C60.8258973838978,215.8122310037755,48.64074224295275,215.8122310037755,36.47223348881227,214.26798479781874C24.303724734671803,212.723738591862,12.151862367335902,209.63524617994847,6.075931183667951,208.09099997399173L0,206.54675376803496Z"><title>Python</title></path><path fill="#aec7e8" d="M0,206.54675376803496L6.075931183667951,205.00250756207822C12.151862367335902,203.45826135612143,24.303724734671803,200.3697689442079,36.47223348881227,198.82552273825112C48.64074224295275,197.28127653229436,60.8258973838978,197.28127653229436,72.99440613803826,194.9649072233592C85.16291489217873,192.64853791442408,97.31477725951464,188.0157992965538,109.46663962685055,182.6109375757051C121.61850199418643,177.20607585485644,133.77036436152233,171.02909103102942,145.92222672885825,169.48484482507263C158.07408909619414,167.9405986191159,170.22595146353004,171.02909103102937,182.3944602176705,177.20607585485644C194.56296897181096,183.38306067868348,206.74812411275602,192.64853791442405,218.91663286689652,191.41314094965864C231.08514162103697,190.17774398489323,243.23700398837286,178.44147281962182,255.3888663557088,171.02909103102937C267.54072872304465,163.6167092424369,279.6925910903806,160.52821683052338,291.8444534577165,158.37535594339542C303.99631582505236,156.22249505626746,316.1481781923883,155.00526569392505,328.31668694652876,155.85218520262376C340.48519570066924,156.69910471132246,352.67035084161427,159.61017309106225,364.83885959575474,157.1883972124623C377.0073683498952,154.76662133386236,389.1592307172311,147.0120011969227,401.31109308456706,143.59796499023992C413.46295545190287,140.18392878355712,425.61481781923885,141.11047650713118,437.76668018657466,139.36768436040856C449.91854255391064,137.62489221368594,462.0704049212465,133.21276019666664,474.23891367538704,132.01639363051333C486.40742242952746,130.82002706436,498.59257757047254,132.8394259490727,510.76108632461296,131.79132754023547C522.9295950787536,130.74322913139827,535.0814574460893,126.62763342901117,547.2333198134253,117.36719469182526C559.3851821807611,108.10675595463935,571.5370445480971,93.70147418265462,583.688906915433,85.34716052378604C595.8407692827689,76.99284686491751,607.9926316501047,74.68950131916513,620.1611404042452,78.0902663614495C632.3296491583857,81.49103140373386,644.5148042993308,90.59590703405492,656.6833130534712,95.23413630510196C668.8518218076118,99.87236557614898,681.0036841749476,100.04394848792195,693.1555465422836,89.5657908982704C705.3074089096194,79.08763330861883,717.4592712769553,57.959735217542764,729.6111336442913,41.90406060207099C741.762996011627,25.848385986599226,753.914858378963,14.864934846731755,766.0833671331035,8.726295325653972C778.251875887244,2.587655804576189,790.4370310281889,1.2938279022880945,802.6055397823294,17.49933993788959C814.7740485364699,33.70485197349108,826.9259109038059,67.40970394698216,839.0777732711418,86.40031698812938C851.2296356384777,105.3909300292766,863.3814980058136,109.66730413807996,875.5333603731495,117.29989323955805C887.6852227404853,124.93248234103613,899.8370851078213,135.921286435189,912.0055938619618,148.1913331366209C924.1741026161022,160.4613798380528,936.3592577570472,174.01266914676378,948.5277665111877,186.24325918270168C960.6962752653282,198.47384921863963,972.8481376326641,209.3837399818044,978.9240688163321,214.83868536338684L985,220.29363074496925L985,229.5591079807098L978.9240688163321,225.64840880508416C972.8481376326641,221.73770962945852,960.6962752653282,213.91631127820725,948.5277665111877,204.7742136541829C936.3592577570472,195.6321160301585,924.1741026161022,185.16931913336103,912.0055938619618,177.5320110497994C899.8370851078213,169.89470296623776,887.6852227404853,165.082883695912,875.5333603731495,168.26001803613124C863.3814980058136,171.43715237635047,851.2296356384777,182.60324032711478,839.0777732711417,186.77632037531905C826.9259109038059,190.94940042352323,814.7740485364699,188.1294725691674,802.6055397823294,187.36642259313354C790.4370310281889,186.6033726170997,778.251875887244,187.89720051938778,766.0833671331035,184.77036280472498C753.914858378963,181.6435250900622,741.762996011627,174.09602175844853,729.6111336442913,168.53224949052563C717.4592712769553,162.9684772226027,705.3074089096194,159.38843601837053,693.1555465422836,154.42413154845445C681.0036841749476,149.45982707853838,668.8518218076118,143.11125934293833,656.6833130534712,129.20755283615074C644.5148042993308,115.30384632936314,632.3296491583857,93.84500105138795,620.1611404042452,84.26725118527655C607.9926316501047,74.68950131916513,595.8407692827689,76.99284686491751,583.688906915433,85.34716052378606C571.5370445480971,93.70147418265462,559.3851821807611,108.10675595463935,547.2333198134253,117.36719469182526C535.0814574460893,126.62763342901117,522.9295950787536,130.74322913139827,510.76108632461296,131.79132754023547C498.59257757047254,132.8394259490727,486.40742242952746,130.82002706436,474.23891367538704,132.0163936305133C462.0704049212465,133.21276019666664,449.91854255391064,137.62489221368594,437.76668018657466,139.36768436040856C425.61481781923885,141.11047650713118,413.46295545190287,140.18392878355712,401.31109308456706,143.59796499023992C389.1592307172311,147.0120011969227,377.0073683498952,154.76662133386236,364.8388595957547,157.18839721246232C352.67035084161427,159.61017309106225,340.48519570066924,156.69910471132246,328.31668694652876,155.85218520262376C316.1481781923883,155.00526569392505,303.99631582505236,156.22249505626746,291.8444534577165,158.37535594339542C279.6925910903806,160.52821683052338,267.54072872304465,163.6167092424369,255.3888663557088,171.02909103102937C243.23700398837286,178.44147281962182,231.08514162103697,190.17774398489323,218.91663286689652,191.41314094965867C206.74812411275602,192.64853791442405,194.56296897181096,183.38306067868348,182.3944602176705,177.2060758548564C170.22595146353004,171.02909103102937,158.07408909619414,167.9405986191159,145.92222672885825,169.48484482507263C133.77036436152233,171.02909103102942,121.61850199418643,177.20607585485644,109.46663962685055,182.61093757570515C97.31477725951464,188.0157992965538,85.16291489217873,192.64853791442408,72.99440613803826,194.9649072233592C60.8258973838978,197.28127653229436,48.64074224295275,197.28127653229436,36.47223348881227,198.82552273825112C24.303724734671803,200.3697689442079,12.151862367335902,203.45826135612143,6.075931183667951,205.0025075620782L0,206.54675376803496Z"><title>Clojure</title></path><path fill="#ff9896" d="M0,206.54675376803496L6.075931183667951,205.00250756207822C12.151862367335902,203.45826135612143,24.303724734671803,200.3697689442079,36.47223348881227,198.82552273825112C48.64074224295275,197.28127653229436,60.8258973838978,197.28127653229436,72.99440613803826,194.9649072233592C85.16291489217873,192.64853791442408,97.31477725951464,188.0157992965538,109.46663962685055,182.6109375757051C121.61850199418643,177.20607585485644,133.77036436152233,171.02909103102942,145.92222672885825,169.48484482507263C158.07408909619414,167.9405986191159,170.22595146353004,171.02909103102937,182.3944602176705,177.20607585485644C194.56296897181096,183.38306067868348,206.74812411275602,192.64853791442405,218.91663286689652,191.41314094965864C231.08514162103697,190.17774398489323,243.23700398837286,178.44147281962182,255.3888663557088,171.02909103102937C267.54072872304465,163.6167092424369,279.6925910903806,160.52821683052338,291.8444534577165,158.37535594339542C303.99631582505236,156.22249505626746,316.1481781923883,155.00526569392505,328.31668694652876,155.85218520262376C340.48519570066924,156.69910471132246,352.67035084161427,159.61017309106225,364.83885959575474,157.1883972124623C377.0073683498952,154.76662133386236,389.1592307172311,147.0120011969227,401.31109308456706,143.59796499023992C413.46295545190287,140.18392878355712,425.61481781923885,141.11047650713118,437.76668018657466,139.36768436040856C449.91854255391064,137.62489221368594,462.0704049212465,133.21276019666664,474.23891367538704,132.01639363051333C486.40742242952746,130.82002706436,498.59257757047254,132.8394259490727,510.76108632461296,131.79132754023547C522.9295950787536,130.74322913139827,535.0814574460893,126.62763342901117,547.2333198134253,117.36719469182526C559.3851821807611,108.10675595463935,571.5370445480971,93.70147418265462,583.688906915433,85.34716052378604C595.8407692827689,76.99284686491751,607.9926316501047,74.68950131916513,620.1611404042452,84.26725118527655C632.3296491583857,93.84500105138795,644.5148042993308,115.30384632936314,656.6833130534712,129.20755283615074C668.8518218076118,143.11125934293833,681.0036841749476,149.45982707853838,693.1555465422836,154.42413154845443C705.3074089096194,159.38843601837053,717.4592712769553,162.9684772226027,729.6111336442913,168.53224949052563C741.762996011627,174.09602175844853,753.914858378963,181.6435250900622,766.0833671331035,184.770362804725C778.251875887244,187.89720051938778,790.4370310281889,186.6033726170997,802.6055397823294,187.36642259313354C814.7740485364699,188.1294725691674,826.9259109038059,190.94940042352323,839.0777732711418,186.77632037531905C851.2296356384777,182.60324032711478,863.3814980058136,171.43715237635047,875.5333603731495,168.26001803613124C887.6852227404853,165.082883695912,899.8370851078213,169.89470296623776,912.0055938619618,177.5320110497994C924.1741026161022,185.16931913336103,936.3592577570472,195.6321160301585,948.5277665111877,204.77421365418286C960.6962752653282,213.91631127820725,972.8481376326641,221.73770962945852,978.9240688163321,225.64840880508416L985,229.5591079807098L985,229.5591079807098L978.9240688163321,225.64840880508416C972.8481376326641,221.73770962945852,960.6962752653282,213.91631127820725,948.5277665111877,204.7742136541829C936.3592577570472,195.6321160301585,924.1741026161022,185.16931913336103,912.0055938619618,177.5320110497994C899.8370851078213,169.89470296623776,887.6852227404853,165.082883695912,875.5333603731495,168.26001803613124C863.3814980058136,171.43715237635047,851.2296356384777,182.60324032711478,839.0777732711417,192.95330519914606C826.9259109038059,203.30337007117737,814.7740485364699,212.8374118644756,802.6055397823294,218.25134671226883C790.4370310281889,223.66528156006197,778.251875887244,224.95910946235009,766.0833671331035,224.92076415960082C753.914858378963,224.88241885685156,741.762996011627,223.51190034906494,729.6111336442913,217.94812808114202C717.4592712769553,212.38435581321912,705.3074089096194,202.6273297851599,693.1555465422836,191.4860404914168C681.0036841749476,180.34475119767365,668.8518218076118,167.81919863824655,656.6833130534712,147.7385073076319C644.5148042993308,127.65781597701725,632.3296491583857,100.02198587521501,620.1611404042452,87.35574359719006C607.9926316501047,74.68950131916513,595.8407692827689,76.99284686491751,583.688906915433,85.34716052378606C571.5370445480971,93.70147418265462,559.3851821807611,108.10675595463935,547.2333198134253,117.36719469182526C535.0814574460893,126.62763342901117,522.9295950787536,130.74322913139827,510.76108632461296,131.79132754023547C498.59257757047254,132.8394259490727,486.40742242952746,130.82002706436,474.23891367538704,132.0163936305133C462.0704049212465,133.21276019666664,449.91854255391064,137.62489221368594,437.76668018657466,139.36768436040856C425.61481781923885,141.11047650713118,413.46295545190287,140.18392878355712,401.31109308456706,143.59796499023992C389.1592307172311,147.0120011969227,377.0073683498952,154.76662133386236,364.8388595957547,157.18839721246232C352.67035084161427,159.61017309106225,340.48519570066924,156.69910471132246,328.31668694652876,155.85218520262376C316.1481781923883,155.00526569392505,303.99631582505236,156.22249505626746,291.8444534577165,158.37535594339542C279.6925910903806,160.52821683052338,267.54072872304465,163.6167092424369,255.3888663557088,171.02909103102937C243.23700398837286,178.44147281962182,231.08514162103697,190.17774398489323,218.91663286689652,191.41314094965867C206.74812411275602,192.64853791442405,194.56296897181096,183.38306067868348,182.3944602176705,177.2060758548564C170.22595146353004,171.02909103102937,158.07408909619414,167.9405986191159,145.92222672885825,169.48484482507263C133.77036436152233,171.02909103102942,121.61850199418643,177.20607585485644,109.46663962685055,182.61093757570515C97.31477725951464,188.0157992965538,85.16291489217873,192.64853791442408,72.99440613803826,194.9649072233592C60.8258973838978,197.28127653229436,48.64074224295275,197.28127653229436,36.47223348881227,198.82552273825112C24.303724734671803,200.3697689442079,12.151862367335902,203.45826135612143,6.075931183667951,205.0025075620782L0,206.54675376803496Z"><title>Ruby</title></path><path fill="#ffbb78" d="M0,206.54675376803496L6.075931183667951,208.09099997399173C12.151862367335902,209.63524617994847,24.303724734671803,212.723738591862,36.47223348881227,214.26798479781874C48.64074224295275,215.8122310037755,60.8258973838978,215.8122310037755,72.99440613803826,216.58435410675392C85.16291489217873,217.35647720973228,97.31477725951464,218.90072341568904,109.46663962685055,219.67284651866746C121.61850199418643,220.4449696216458,133.77036436152233,220.4449696216458,145.92222672885825,221.98921582760258C158.07408909619414,223.53346203355932,170.22595146353004,226.62195444547285,182.3944602176705,229.7104468573864C194.56296897181096,232.7989392692999,206.74812411275602,235.88743168121343,218.91663286689652,240.82901954027508C231.08514162103697,245.77060739933668,243.23700398837286,252.56529070554652,255.3888663557088,254.41838615269458C267.54072872304465,256.27148159984273,279.6925910903806,253.18298918792917,291.8444534577165,251.03012830080124C303.99631582505236,248.87726741367328,316.1481781923883,247.66003805133087,328.31668694652876,246.9627113540728C340.48519570066924,246.26538465681475,352.67035084161427,246.08796062464103,364.83885959575474,249.8431695698681C377.0073683498952,253.59837851509522,389.1592307172311,261.2862204377232,401.31109308456706,262.50492284891067C413.46295545190287,263.72362526009823,425.61481781923885,258.4731881598452,437.76668018657466,253.64190360120907C449.91854255391064,248.81061904257294,462.0704049212465,244.39848702555358,474.23891367538704,243.20212045940025C486.40742242952746,242.00575389324695,498.59257757047254,244.02515277795965,510.76108632461296,250.69828539890625C522.9295950787536,257.37141801985285,535.0814574460893,268.6982843770334,547.2333198134253,281.9838402468162C559.3851821807611,295.269396116599,571.5370445480971,310.5136414989842,583.688906915433,325.63187017065843C595.8407692827689,340.75009884233265,607.9926316501047,355.74231080329605,620.1611404042452,353.58378950413606C632.3296491583857,351.425268204976,644.5148042993308,332.1160136456927,656.6833130534712,313.2817005861969C668.8518218076118,294.4473875267011,681.0036841749476,276.08801596699294,693.1555465422836,273.3310894071252C705.3074089096194,270.57416284725747,717.4592712769553,283.4196812872302,729.6111336442913,287.43920734919635C741.762996011627,291.45873341116254,753.914858378963,286.6522670951221,766.0833671331035,282.0578737800011C778.251875887244,277.4634804648801,790.4370310281889,273.08116015067844,802.6055397823294,266.1229790969285C814.7740485364699,259.1647980431785,826.9259109038059,249.63075624988025,839.0777732711418,245.457676201676C851.2296356384777,241.28459615347177,863.3814980058136,242.47247785036157,875.5333603731495,242.07498668086453C887.6852227404853,241.67749551136743,899.8370851078213,239.69463147548345,912.0055938619618,240.5372562528353C924.1741026161022,241.3798810301872,936.3592577570472,245.04799462077492,948.5277665111877,247.39540893858953C960.6962752653282,249.7428232564041,972.8481376326641,250.76953830144566,978.9240688163321,251.2828958239664L985,251.79625334648716L985,251.79625334648716L978.9240688163321,251.2828958239664C972.8481376326641,250.76953830144566,960.6962752653282,249.7428232564041,948.5277665111877,247.39540893858953C936.3592577570472,245.04799462077492,924.1741026161022,241.3798810301872,912.0055938619618,240.5372562528353C899.8370851078213,239.69463147548345,887.6852227404853,241.67749551136743,875.5333603731495,242.07498668086453C863.3814980058136,242.47247785036157,851.2296356384777,241.28459615347177,839.0777732711417,248.54616861358954C826.9259109038059,255.80774107370726,814.7740485364699,271.5187676908326,802.6055397823294,280.0211949505394C790.4370310281889,288.52362221024606,778.251875887244,289.8174501125341,766.0833671331035,291.32335101574165C753.914858378963,292.8292519189492,741.762996011627,294.5472258230761,729.6111336442913,288.9834535551531C717.4592712769553,283.4196812872302,705.3074089096194,270.57416284725747,693.1555465422836,273.3310894071252C681.0036841749476,276.08801596699294,668.8518218076118,294.4473875267011,656.6833130534712,313.2817005861969C644.5148042993308,332.1160136456927,632.3296491583857,351.425268204976,620.1611404042452,353.58378950413606C607.9926316501047,355.74231080329605,595.8407692827689,340.75009884233265,583.688906915433,325.6318701706584C571.5370445480971,310.5136414989842,559.3851821807611,295.269396116599,547.2333198134253,281.9838402468162C535.0814574460893,268.6982843770334,522.9295950787536,257.37141801985285,510.76108632461296,250.69828539890625C498.59257757047254,244.02515277795965,486.40742242952746,242.00575389324695,474.23891367538704,243.20212045940025C462.0704049212465,244.39848702555358,449.91854255391064,248.81061904257294,437.76668018657466,253.64190360120907C425.61481781923885,258.4731881598452,413.46295545190287,263.72362526009823,401.31109308456706,262.50492284891067C389.1592307172311,261.2862204377232,377.0073683498952,253.59837851509522,364.8388595957547,249.84316956986814C352.67035084161427,246.08796062464103,340.48519570066924,246.26538465681475,328.31668694652876,246.9627113540728C316.1481781923883,247.66003805133087,303.99631582505236,248.87726741367328,291.8444534577165,251.03012830080124C279.6925910903806,253.18298918792917,267.54072872304465,256.27148159984273,255.3888663557088,254.41838615269458C243.23700398837286,252.56529070554652,231.08514162103697,245.77060739933668,218.91663286689652,240.82901954027508C206.74812411275602,235.88743168121343,194.56296897181096,232.7989392692999,182.3944602176705,229.7104468573864C170.22595146353004,226.62195444547285,158.07408909619414,223.53346203355932,145.92222672885825,221.9892158276026C133.77036436152233,220.4449696216458,121.61850199418643,220.4449696216458,109.46663962685055,219.6728465186674C97.31477725951464,218.90072341568904,85.16291489217873,217.35647720973228,72.99440613803826,216.58435410675386C60.8258973838978,215.8122310037755,48.64074224295275,215.8122310037755,36.47223348881227,214.26798479781874C24.303724734671803,212.723738591862,12.151862367335902,209.63524617994847,6.075931183667951,208.09099997399173L0,206.54675376803496Z"><title>C#</title></path><path fill="#c7c7c7" d="M0,206.54675376803496L6.075931183667951,208.09099997399173C12.151862367335902,209.63524617994847,24.303724734671803,212.723738591862,36.47223348881227,214.26798479781874C48.64074224295275,215.8122310037755,60.8258973838978,215.8122310037755,72.99440613803826,216.58435410675392C85.16291489217873,217.35647720973228,97.31477725951464,218.90072341568904,109.46663962685055,219.67284651866746C121.61850199418643,220.4449696216458,133.77036436152233,220.4449696216458,145.92222672885825,221.98921582760258C158.07408909619414,223.53346203355932,170.22595146353004,226.62195444547285,182.3944602176705,229.7104468573864C194.56296897181096,232.7989392692999,206.74812411275602,235.88743168121343,218.91663286689652,240.82901954027508C231.08514162103697,245.77060739933668,243.23700398837286,252.56529070554652,255.3888663557088,254.41838615269458C267.54072872304465,256.27148159984273,279.6925910903806,253.18298918792917,291.8444534577165,251.03012830080124C303.99631582505236,248.87726741367328,316.1481781923883,247.66003805133087,328.31668694652876,246.9627113540728C340.48519570066924,246.26538465681475,352.67035084161427,246.08796062464103,364.83885959575474,249.8431695698681C377.0073683498952,253.59837851509522,389.1592307172311,261.2862204377232,401.31109308456706,262.50492284891067C413.46295545190287,263.72362526009823,425.61481781923885,258.4731881598452,437.76668018657466,253.64190360120907C449.91854255391064,248.81061904257294,462.0704049212465,244.39848702555358,474.23891367538704,243.20212045940025C486.40742242952746,242.00575389324695,498.59257757047254,244.02515277795965,510.76108632461296,250.69828539890625C522.9295950787536,257.37141801985285,535.0814574460893,268.6982843770334,547.2333198134253,281.9838402468162C559.3851821807611,295.269396116599,571.5370445480971,310.5136414989842,583.688906915433,325.63187017065843C595.8407692827689,340.75009884233265,607.9926316501047,355.74231080329605,620.1611404042452,353.58378950413606C632.3296491583857,351.425268204976,644.5148042993308,332.1160136456927,656.6833130534712,313.2817005861969C668.8518218076118,294.4473875267011,681.0036841749476,276.08801596699294,693.1555465422836,273.3310894071252C705.3074089096194,270.57416284725747,717.4592712769553,283.4196812872302,729.6111336442913,288.9834535551531C741.762996011627,294.5472258230761,753.914858378963,292.8292519189492,766.0833671331035,291.32335101574165C778.251875887244,289.8174501125341,790.4370310281889,288.52362221024606,802.6055397823294,280.0211949505394C814.7740485364699,271.5187676908326,826.9259109038059,255.80774107370726,839.0777732711418,248.54616861358951C851.2296356384777,241.28459615347177,863.3814980058136,242.47247785036157,875.5333603731495,242.07498668086453C887.6852227404853,241.67749551136743,899.8370851078213,239.69463147548345,912.0055938619618,240.5372562528353C924.1741026161022,241.3798810301872,936.3592577570472,245.04799462077492,948.5277665111877,247.39540893858953C960.6962752653282,249.7428232564041,972.8481376326641,250.76953830144566,978.9240688163321,251.2828958239664L985,251.79625334648716L985,261.06173058222777L978.9240688163321,262.09261926566376C972.8481376326641,263.1235079490998,960.6962752653282,265.18528531597184,948.5277665111877,267.4706096160275C936.3592577570472,269.75593391608317,924.1741026161022,272.26480514932246,912.0055938619618,277.59916519579764C899.8370851078213,282.9335252422729,887.6852227404853,291.0933741019839,875.5333603731495,291.4908652714809C863.3814980058136,291.88835644097804,851.2296356384777,284.52348992026117,839.0777732711417,288.69656996846544C826.9259109038059,292.8696500166696,814.7740485364699,308.580676633795,802.6055397823294,310.9061190696746C790.4370310281889,313.2315615055543,778.251875887244,302.17141976018826,766.0833671331035,297.5003358395687C753.914858378963,292.8292519189492,741.762996011627,294.5472258230761,729.6111336442913,288.9834535551531C717.4592712769553,283.4196812872302,705.3074089096194,270.57416284725747,693.1555465422836,273.3310894071252C681.0036841749476,276.08801596699294,668.8518218076118,294.4473875267011,656.6833130534712,313.2817005861969C644.5148042993308,332.1160136456927,632.3296491583857,351.425268204976,620.1611404042452,353.58378950413606C607.9926316501047,355.74231080329605,595.8407692827689,340.75009884233265,583.688906915433,325.6318701706584C571.5370445480971,310.5136414989842,559.3851821807611,295.269396116599,547.2333198134253,281.9838402468162C535.0814574460893,268.6982843770334,522.9295950787536,257.37141801985285,510.76108632461296,250.69828539890625C498.59257757047254,244.02515277795965,486.40742242952746,242.00575389324695,474.23891367538704,243.20212045940025C462.0704049212465,244.39848702555358,449.91854255391064,248.81061904257294,437.76668018657466,253.64190360120907C425.61481781923885,258.4731881598452,413.46295545190287,263.72362526009823,401.31109308456706,262.50492284891067C389.1592307172311,261.2862204377232,377.0073683498952,253.59837851509522,364.8388595957547,249.84316956986814C352.67035084161427,246.08796062464103,340.48519570066924,246.26538465681475,328.31668694652876,246.9627113540728C316.1481781923883,247.66003805133087,303.99631582505236,248.87726741367328,291.8444534577165,251.03012830080124C279.6925910903806,253.18298918792917,267.54072872304465,256.27148159984273,255.3888663557088,254.41838615269458C243.23700398837286,252.56529070554652,231.08514162103697,245.77060739933668,218.91663286689652,240.82901954027508C206.74812411275602,235.88743168121343,194.56296897181096,232.7989392692999,182.3944602176705,229.7104468573864C170.22595146353004,226.62195444547285,158.07408909619414,223.53346203355932,145.92222672885825,221.9892158276026C133.77036436152233,220.4449696216458,121.61850199418643,220.4449696216458,109.46663962685055,219.6728465186674C97.31477725951464,218.90072341568904,85.16291489217873,217.35647720973228,72.99440613803826,216.58435410675386C60.8258973838978,215.8122310037755,48.64074224295275,215.8122310037755,36.47223348881227,214.26798479781874C24.303724734671803,212.723738591862,12.151862367335902,209.63524617994847,6.075931183667951,208.09099997399173L0,206.54675376803496Z"><title>ClojureScript</title></path><path fill="#d62728" d="M0,206.54675376803496L6.075931183667951,208.09099997399173C12.151862367335902,209.63524617994847,24.303724734671803,212.723738591862,36.47223348881227,214.26798479781874C48.64074224295275,215.8122310037755,60.8258973838978,215.8122310037755,72.99440613803826,216.58435410675392C85.16291489217873,217.35647720973228,97.31477725951464,218.90072341568904,109.46663962685055,219.67284651866746C121.61850199418643,220.4449696216458,133.77036436152233,220.4449696216458,145.92222672885825,221.98921582760258C158.07408909619414,223.53346203355932,170.22595146353004,226.62195444547285,182.3944602176705,229.7104468573864C194.56296897181096,232.7989392692999,206.74812411275602,235.88743168121343,218.91663286689652,240.82901954027508C231.08514162103697,245.77060739933668,243.23700398837286,252.56529070554652,255.3888663557088,254.41838615269458C267.54072872304465,256.27148159984273,279.6925910903806,253.18298918792917,291.8444534577165,251.33897754199256C303.99631582505236,249.49496589605596,316.1481781923883,248.8954350160963,328.31668694652876,248.81580680122093C340.48519570066924,248.73617858634555,352.67035084161427,249.17645303655448,364.83885959575474,253.85820970535565C377.0073683498952,258.53996637415685,389.1592307172311,267.4632052615503,401.31109308456706,269.60845539631185C413.46295545190287,271.7537055310734,425.61481781923885,267.1209669132031,437.76668018657466,264.1427778017151C449.91854255391064,261.164588690227,462.0704049212465,259.84094908512117,474.23891367538704,258.64458251896787C486.40742242952746,257.44821595281456,498.59257757047254,256.37912242561373,510.76108632461296,260.2726118758382C522.9295950787536,264.16610132606263,535.0814574460893,273.02217375371237,547.2333198134253,285.07233265872975C559.3851821807611,297.1224915637472,571.5370445480971,312.36673694613233,583.688906915433,328.72036258257197C595.8407692827689,345.0739882190116,607.9926316501047,362.53699410950577,620.1611404042452,363.15811598106797C632.3296491583857,363.77923785263016,644.5148042993308,347.5584757052604,656.6833130534712,328.7241626457646C668.8518218076118,309.8898495862688,681.0036841749476,288.4419856146471,693.1555465422836,283.2142651252485C705.3074089096194,277.98654463584995,717.4592712769553,288.9789676286746,729.6111336442913,294.54273989659754C741.762996011627,300.10651216452044,753.914858378963,300.24163370754167,766.0833671331035,307.383511557692C778.251875887244,314.5253894078424,790.4370310281889,328.6740235651219,802.6055397823294,327.892827335199C814.7740485364699,327.1116311052761,826.9259109038059,311.4006044881508,839.0777732711418,307.22752443994654C851.2296356384777,303.0544443917423,863.3814980058136,310.4193109124592,875.5333603731495,313.11031215487566C887.6852227404853,315.80131339729206,899.8370851078213,313.8184493614081,912.0055938619618,308.4840893149329C924.1741026161022,303.14972926845775,936.3592577570472,294.46387321139133,948.5277665111877,287.54581029346537C960.6962752653282,280.6277473755394,972.8481376326641,275.4774775967539,978.9240688163321,272.90234270736113L985,270.3272078179684L985,288.85816228944947L978.9240688163321,294.52178959075576C972.8481376326641,300.18541689206205,960.6962752653282,311.51267149467463,948.5277665111877,324.6077192364276C936.3592577570472,337.7027669781807,924.1741026161022,352.56560785907413,912.0055938619618,357.8999679055493C899.8370851078213,363.23432795202456,887.6852227404853,359.0402071640815,875.5333603731495,350.17222109783796C863.3814980058136,341.3042350315945,851.2296356384777,327.76238368705054,839.0777732711417,325.75847891142774C826.9259109038059,323.7545741358049,814.7740485364699,333.2886159291032,802.6055397823294,330.98131974711254C790.4370310281889,328.6740235651219,778.251875887244,314.5253894078424,766.0833671331035,307.383511557692C753.914858378963,300.24163370754167,741.762996011627,300.10651216452044,729.6111336442913,294.54273989659754C717.4592712769553,288.9789676286746,705.3074089096194,277.98654463584995,693.1555465422836,283.2142651252485C681.0036841749476,288.4419856146471,668.8518218076118,309.8898495862688,656.6833130534712,328.7241626457646C644.5148042993308,347.5584757052604,632.3296491583857,363.77923785263016,620.1611404042452,363.158115981068C607.9926316501047,362.53699410950577,595.8407692827689,345.0739882190116,583.688906915433,328.72036258257197C571.5370445480971,312.36673694613233,559.3851821807611,297.1224915637472,547.2333198134253,285.07233265872975C535.0814574460893,273.02217375371237,522.9295950787536,264.16610132606263,510.76108632461296,260.2726118758382C498.59257757047254,256.37912242561373,486.40742242952746,257.44821595281456,474.23891367538704,258.64458251896787C462.0704049212465,259.84094908512117,449.91854255391064,261.164588690227,437.76668018657466,264.14277780171506C425.61481781923885,267.1209669132031,413.46295545190287,271.7537055310734,401.31109308456706,269.60845539631185C389.1592307172311,267.4632052615503,377.0073683498952,258.53996637415685,364.8388595957547,253.85820970535568C352.67035084161427,249.17645303655448,340.48519570066924,248.73617858634555,328.31668694652876,248.8158068012209C316.1481781923883,248.8954350160963,303.99631582505236,249.49496589605596,291.8444534577165,251.33897754199256C279.6925910903806,253.18298918792917,267.54072872304465,256.27148159984273,255.3888663557088,254.41838615269458C243.23700398837286,252.56529070554652,231.08514162103697,245.77060739933668,218.91663286689652,240.82901954027508C206.74812411275602,235.88743168121343,194.56296897181096,232.7989392692999,182.3944602176705,229.7104468573864C170.22595146353004,226.62195444547285,158.07408909619414,223.53346203355932,145.92222672885825,221.9892158276026C133.77036436152233,220.4449696216458,121.61850199418643,220.4449696216458,109.46663962685055,219.6728465186674C97.31477725951464,218.90072341568904,85.16291489217873,217.35647720973228,72.99440613803826,216.58435410675386C60.8258973838978,215.8122310037755,48.64074224295275,215.8122310037755,36.47223348881227,214.26798479781874C24.303724734671803,212.723738591862,12.151862367335902,209.63524617994847,6.075931183667951,208.09099997399173L0,206.54675376803496Z"><title>Scala</title></path></g><g transform="translate(0,380)" fill="none" font-size="10" font-family="sans-serif" text-anchor="middle"><g class="tick" opacity="1" transform="translate(36.455587102007705,0)"><line stroke="currentColor" y2="6"></line><text fill="currentColor" y="9" dy="0.71em">1996</text></g><g class="tick" opacity="1" transform="translate(109.46663962685054,0)"><line stroke="currentColor" y2="6"></line><text fill="currentColor" y="9" dy="0.71em">1998</text></g><g class="tick" opacity="1" transform="translate(182.37781383086593,0)"><line stroke="currentColor" y2="6"></line><text fill="currentColor" y="9" dy="0.71em">2000</text></g><g class="tick" opacity="1" transform="translate(255.38886635570879,0)"><line stroke="currentColor" y2="6"></line><text fill="currentColor" y="9" dy="0.71em">2002</text></g><g class="tick" opacity="1" transform="translate(328.3000405597242,0)"><line stroke="currentColor" y2="6"></line><text fill="currentColor" y="9" dy="0.71em">2004</text></g><g class="tick" opacity="1" transform="translate(401.311093084567,0)"><line stroke="currentColor" y2="6"></line><text fill="currentColor" y="9" dy="0.71em">2006</text></g><g class="tick" opacity="1" transform="translate(474.22226728858243,0)"><line stroke="currentColor" y2="6"></line><text fill="currentColor" y="9" dy="0.71em">2008</text></g><g class="tick" opacity="1" transform="translate(547.2333198134253,0)"><line stroke="currentColor" y2="6"></line><text fill="currentColor" y="9" dy="0.71em">2010</text></g><g class="tick" opacity="1" transform="translate(620.1444940174406,0)"><line stroke="currentColor" y2="6"></line><text fill="currentColor" y="9" dy="0.71em">2012</text></g><g class="tick" opacity="1" transform="translate(693.1555465422836,0)"><line stroke="currentColor" y2="6"></line><text fill="currentColor" y="9" dy="0.71em">2014</text></g><g class="tick" opacity="1" transform="translate(766.066720746299,0)"><line stroke="currentColor" y2="6"></line><text fill="currentColor" y="9" dy="0.71em">2016</text></g><g class="tick" opacity="1" transform="translate(839.0777732711418,0)"><line stroke="currentColor" y2="6"></line><text fill="currentColor" y="9" dy="0.71em">2018</text></g><g class="tick" opacity="1" transform="translate(911.9889474751571,0)"><line stroke="currentColor" y2="6"></line><text fill="currentColor" y="9" dy="0.71em">2020</text></g><g class="tick" opacity="1" transform="translate(985,0)"><line stroke="currentColor" y2="6"></line><text fill="currentColor" y="9" dy="0.71em">2022</text></g></g><g transform="translate(0,0) rotate(270)"><text x="0" text-anchor="end" y="10" font-family="sans-serif" font-size="10">proportion of time spent with language</text></g><text class="area-label" font-family="sans-serif" fill="white" transform="translate(36.9837296620776,212.29650880031045) scale(0.9534829986510434)" style="filter: url(&quot;#drop-shadow&quot;);">QBasic</text><text class="area-label" font-family="sans-serif" fill="white" transform="translate(107.25281602002504,197.96655423304472) scale(0.9946826797190644)" style="filter: url(&quot;#drop-shadow&quot;);">Visual Basic</text><text class="area-label" font-family="sans-serif" fill="white" transform="translate(532.5657071339174,246.6791756199748) scale(2.334379939708531)" style="filter: url(&quot;#drop-shadow&quot;);">C/C++</text><text class="area-label" font-family="sans-serif" fill="white" transform="translate(393.26032540675845,184.37810816103828) scale(2.854229205885676)" style="filter: url(&quot;#drop-shadow&quot;);">Java</text><text class="area-label" font-family="sans-serif" fill="white" transform="translate(355.0438047559449,227.23886777273543) scale(1.7985913468827706)" style="filter: url(&quot;#drop-shadow&quot;);">PHP</text><text class="area-label" font-family="sans-serif" fill="white" transform="translate(864.1864831038798,308.19777762630775) scale(0.6585948337374291)" style="filter: url(&quot;#drop-shadow&quot;);">JavaScript</text><text class="area-label" font-family="sans-serif" fill="white" transform="translate(555.9887359198999,130.01911259322785) scale(1.2948775855291819)" style="filter: url(&quot;#drop-shadow&quot;);">MATLAB</text><text class="area-label" font-family="sans-serif" fill="white" transform="translate(554.7559449311639,180.7305854172647) scale(1.2850022999660355)" style="filter: url(&quot;#drop-shadow&quot;);">Scheme</text><text class="area-label" font-family="sans-serif" fill="white" transform="translate(845.694618272841,230.51879767567476) scale(1.8808666220991936)" style="filter: url(&quot;#drop-shadow&quot;);">Python</text><text class="area-label" font-family="sans-serif" fill="white" transform="translate(691.5957446808511,143.8946542222305) scale(2.9913394860351032)" style="filter: url(&quot;#drop-shadow&quot;);">Clojure</text><text class="area-label" font-family="sans-serif" fill="white" transform="translate(731.0450563204005,215.31320988530686) scale(1.896742986478339)" style="filter: url(&quot;#drop-shadow&quot;);">Ruby</text><text class="area-label" font-family="sans-serif" fill="white" transform="translate(786.5206508135169,284.55032667517713) scale(0.7283500639795867)" style="filter: url(&quot;#drop-shadow&quot;);">C#</text><text class="area-label" font-family="sans-serif" fill="white" transform="translate(833.3667083854818,263.9702613854082) scale(1.1937902914700766)" style="filter: url(&quot;#drop-shadow&quot;);">ClojureScript</text><text class="area-label" font-family="sans-serif" fill="white" transform="translate(866.6520650813517,339.1932077215272) scale(1.5609709013095001)" style="filter: url(&quot;#drop-shadow&quot;);">Scala</text><defs><filter id="drop-shadow"><feGaussianBlur in="SourceAlpha" stdDeviation="1" result="blur"></feGaussianBlur><feOffset in="blur" dx="1" dy="1"></feOffset><feComponentTransfer result="offsetBlur"><feFuncA type="linear" slope="0.4"></feFuncA></feComponentTransfer><feMerge><feMergeNode in="offsetBlur"></feMergeNode><feMergeNode in="SourceGraphic"></feMergeNode></feMerge></filter></defs></svg>