<svg xmlns="http://www.w3.org/2000/svg" width="1000" height="400" viewBox="0,0,1000,400" style="max-width: 100%; height: auto; height: intrinsic;"><g><path fill="#7f7f7f" d="M0,206.2199091209157L6.075931183667951,204.58788579082616C12.151862367335902,202.95586246073665,24.303724734671803,199.6918158005576,36.47223348881227,196.4277691403786C48.64074224295275,193.16372248019948,60.8258973838978,189.89967582002046,72.99440613803826,189.89967582002046C85.16291489217873,189.89967582002046,97.31477725951464,193.16372248019948,109.46663962685055,198.0597924704681C121.61850199418643,202.95586246073665,133.77036436152233,209.48395578109475,145.92222672885825,211.11597911118426C158.07408909619414,212.7480024412738,170.22595146353004,209.48395578109475,182.3944602176705,206.21990912091573C194.56296897181096,202.95586246073665,206.74812411275602,199.6918158005576,218.91663286689652,198.386197136486C231.08514162103697,197.08057847241435,243.23700398837286,197.7333878044502,255.3888663557088,199.6918158005576C267.54072872304465,201.65024379666502,279.6925910903806,204.9142904568441,291.8444534577165,205.9031045921336C303.99631582505236,206.8919187274232,316.1481781923883,205.6055003378232,328.31668694652876,203.23651328120513C340.48519570066924,200.86752622458707,352.67035084161427,197.41597050095092,364.83885959575474,194.85653747862764C377.0073683498952,192.2971044563044,389.1592307172311,190.62979413529402,401.31109308456706,193.5497926339947C413.46295545190287,196.46979113269546,425.61481781923885,203.97709845110725,437.76668018657466,208.6633368703643C449.91854255391064,213.34957528962138,462.0704049212465,215.2147448097237,474.23891367538704,212.31835175687252C486.40742242952746,209.4219587040213,498.59257757047254,201.76400307821663,510.76108632461296,193.4830174369538C522.9295950787536,185.20203179569094,535.0814574460893,176.29801613896998,547.2333198134253,169.2079765695842C559.3851821807611,162.1179370001984,571.5370445480971,156.8418735181478,583.688906915433,158.64569804540227C595.8407692827689,160.44952257265678,607.9926316501047,169.3332351092164,620.1611404042452,176.0925645062233C632.3296491583857,182.85189390323023,644.5148042993308,187.48684016068447,656.6833130534712,190.07631717775988C668.8518218076118,192.66579419483526,681.0036841749476,193.20980197153176,693.1555465422836,199.78693261260617C705.3074089096194,206.36406325368057,717.4592712769553,218.97431675913285,729.6111336442913,231.5117326036383C741.762996011627,244.04914844814388,753.914858378963,256.5137266317026,766.0833671331035,261.6653516265308C778.251875887244,266.816976621359,790.4370310281889,264.65564842745664,802.6055397823294,259.104659556782C814.7740485364699,253.55367068610732,826.9259109038059,244.61302113866034,839.0777732711418,235.86679524010233C851.2296356384777,227.1205693415443,863.3814980058136,218.56876709187523,875.5333603731495,214.2291772517201C887.6852227404853,209.88958741156497,899.8370851078213,209.7622099809238,912.0055938619618,209.8356913246353C924.1741026161022,209.90917266834683,936.3592577570472,210.18351278641094,948.5277665111877,212.29166486716653C960.6962752653282,214.3998169479221,972.8481376326641,218.3417809913691,978.9240688163321,220.31276301309256L985,222.2837450348161L985,222.2837450348161L978.9240688163321,220.31276301309256C972.8481376326641,218.3417809913691,960.6962752653282,214.3998169479221,948.5277665111877,212.29166486716653C936.3592577570472,210.18351278641094,924.1741026161022,209.90917266834683,912.0055938619618,209.8356913246353C899.8370851078213,209.7622099809238,887.6852227404853,209.88958741156497,875.5333603731495,214.2291772517201C863.3814980058136,218.56876709187523,851.2296356384777,227.1205693415443,839.0777732711417,235.86679524010233C826.9259109038059,244.61302113866034,814.7740485364699,253.55367068610732,802.6055397823294,259.104659556782C790.4370310281889,264.65564842745664,778.251875887244,266.816976621359,766.0833671331035,261.6653516265308C753.914858378963,256.5137266317026,741.762996011627,244.04914844814388,729.6111336442913,231.51173260363836C717.4592712769553,218.97431675913285,705.3074089096194,206.36406325368057,693.1555465422836,199.78693261260617C681.0036841749476,193.20980197153176,668.8518218076118,192.66579419483526,656.6833130534712,190.07631717775985C644.5148042993308,187.48684016068447,632.3296491583857,182.85189390323023,620.1611404042452,176.0925645062233C607.9926316501047,169.3332351092164,595.8407692827689,160.44952257265678,583.688906915433,158.6456980454023C571.5370445480971,156.8418735181478,559.3851821807611,162.1179370001984,547.2333198134253,169.2079765695842C535.0814574460893,176.29801613896998,522.9295950787536,185.20203179569094,510.76108632461296,193.4830174369538C498.59257757047254,201.76400307821663,486.40742242952746,209.4219587040213,474.23891367538704,212.3183517568725C462.0704049212465,215.2147448097237,449.91854255391064,213.34957528962138,437.76668018657466,208.6633368703643C425.61481781923885,203.97709845110725,413.46295545190287,196.46979113269546,401.31109308456706,193.5497926339947C389.1592307172311,190.62979413529402,377.0073683498952,192.2971044563044,364.8388595957547,194.85653747862762C352.67035084161427,197.41597050095092,340.48519570066924,200.86752622458707,328.31668694652876,203.23651328120513C316.1481781923883,205.6055003378232,303.99631582505236,206.8919187274232,291.8444534577165,205.90310459213364C279.6925910903806,204.9142904568441,267.54072872304465,201.65024379666502,255.3888663557088,199.6918158005576C243.23700398837286,197.7333878044502,231.08514162103697,197.08057847241435,218.91663286689652,198.38619713648598C206.74812411275602,199.6918158005576,194.56296897181096,202.95586246073665,182.3944602176705,206.21990912091573C170.22595146353004,209.48395578109475,158.07408909619414,212.7480024412738,145.92222672885825,214.38002577136334C133.77036436152233,216.01204910145285,121.61850199418643,216.01204910145285,109.46663962685055,217.64407243154236C97.31477725951464,219.27609576163186,85.16291489217873,222.54014242181094,72.99440613803826,222.54014242181094C60.8258973838978,222.54014242181094,48.64074224295275,219.27609576163186,36.47223348881227,216.01204910145282C24.303724734671803,212.7480024412738,12.151862367335902,209.48395578109475,6.075931183667951,207.85193245100524L0,206.2199091209157Z"><title>QBasic</title></path><path fill="#c49c94" d="M0,206.2199091209157L6.075931183667951,204.58788579082616C12.151862367335902,202.95586246073665,24.303724734671803,199.6918158005576,36.47223348881227,196.4277691403786C48.64074224295275,193.16372248019948,60.8258973838978,189.89967582002046,72.99440613803826,186.63562915984141C85.16291489217873,183.37158249966237,97.31477725951464,180.1075358394833,109.46663962685055,175.21146584921473C121.61850199418643,170.31539585894618,133.77036436152233,163.78730253858808,145.92222672885825,162.15527920849854C158.07408909619414,160.52325587840903,170.22595146353004,163.78730253858808,182.3944602176705,170.31539585894618C194.56296897181096,176.84348917930427,206.74812411275602,186.63562915984141,218.91663286689652,191.8581038161279C231.08514162103697,197.08057847241435,243.23700398837286,197.7333878044502,255.3888663557088,199.6918158005576C267.54072872304465,201.65024379666502,279.6925910903806,204.9142904568441,291.8444534577165,205.9031045921336C303.99631582505236,206.8919187274232,316.1481781923883,205.6055003378232,328.31668694652876,203.23651328120513C340.48519570066924,200.86752622458707,352.67035084161427,197.41597050095092,364.83885959575474,194.85653747862764C377.0073683498952,192.2971044563044,389.1592307172311,190.62979413529402,401.31109308456706,190.28574597381566C413.46295545190287,189.94169781233737,425.61481781923885,190.9209118103911,437.76668018657466,193.97512689955863C449.91854255391064,197.02934198872617,462.0704049212465,202.15855816900753,474.23891367538704,202.52621177633537C486.40742242952746,202.8938653836632,498.59257757047254,198.4999564180376,510.76108632461296,191.85099410686425C522.9295950787536,185.20203179569094,535.0814574460893,176.29801613896998,547.2333198134253,169.2079765695842C559.3851821807611,162.1179370001984,571.5370445480971,156.8418735181478,583.688906915433,158.64569804540227C595.8407692827689,160.44952257265678,607.9926316501047,169.3332351092164,620.1611404042452,176.0925645062233C632.3296491583857,182.85189390323023,644.5148042993308,187.48684016068447,656.6833130534712,190.07631717775988C668.8518218076118,192.66579419483526,681.0036841749476,193.20980197153176,693.1555465422836,199.78693261260617C705.3074089096194,206.36406325368057,717.4592712769553,218.97431675913285,729.6111336442913,231.5117326036383C741.762996011627,244.04914844814388,753.914858378963,256.5137266317026,766.0833671331035,261.6653516265308C778.251875887244,266.816976621359,790.4370310281889,264.65564842745664,802.6055397823294,259.104659556782C814.7740485364699,253.55367068610732,826.9259109038059,244.61302113866034,839.0777732711418,235.86679524010233C851.2296356384777,227.1205693415443,863.3814980058136,218.56876709187523,875.5333603731495,214.2291772517201C887.6852227404853,209.88958741156497,899.8370851078213,209.7622099809238,912.0055938619618,209.8356913246353C924.1741026161022,209.90917266834683,936.3592577570472,210.18351278641094,948.5277665111877,212.29166486716653C960.6962752653282,214.3998169479221,972.8481376326641,218.3417809913691,978.9240688163321,220.31276301309256L985,222.2837450348161L985,222.2837450348161L978.9240688163321,220.31276301309256C972.8481376326641,218.3417809913691,960.6962752653282,214.3998169479221,948.5277665111877,212.29166486716653C936.3592577570472,210.18351278641094,924.1741026161022,209.90917266834683,912.0055938619618,209.8356913246353C899.8370851078213,209.7622099809238,887.6852227404853,209.88958741156497,875.5333603731495,214.2291772517201C863.3814980058136,218.56876709187523,851.2296356384777,227.1205693415443,839.0777732711417,235.86679524010233C826.9259109038059,244.61302113866034,814.7740485364699,253.55367068610732,802.6055397823294,259.104659556782C790.4370310281889,264.65564842745664,778.251875887244,266.816976621359,766.0833671331035,261.6653516265308C753.914858378963,256.5137266317026,741.762996011627,244.04914844814388,729.6111336442913,231.51173260363836C717.4592712769553,218.97431675913285,705.3074089096194,206.36406325368057,693.1555465422836,199.78693261260617C681.0036841749476,193.20980197153176,668.8518218076118,192.66579419483526,656.6833130534712,190.07631717775985C644.5148042993308,187.48684016068447,632.3296491583857,182.85189390323023,620.1611404042452,176.0925645062233C607.9926316501047,169.3332351092164,595.8407692827689,160.44952257265678,583.688906915433,158.6456980454023C571.5370445480971,156.8418735181478,559.3851821807611,162.1179370001984,547.2333198134253,169.2079765695842C535.0814574460893,176.29801613896998,522.9295950787536,185.20203179569094,510.76108632461296,193.4830174369538C498.59257757047254,201.76400307821663,486.40742242952746,209.4219587040213,474.23891367538704,212.3183517568725C462.0704049212465,215.2147448097237,449.91854255391064,213.34957528962138,437.76668018657466,208.6633368703643C425.61481781923885,203.97709845110725,413.46295545190287,196.46979113269546,401.31109308456706,193.5497926339947C389.1592307172311,190.62979413529402,377.0073683498952,192.2971044563044,364.8388595957547,194.85653747862762C352.67035084161427,197.41597050095092,340.48519570066924,200.86752622458707,328.31668694652876,203.23651328120513C316.1481781923883,205.6055003378232,303.99631582505236,206.8919187274232,291.8444534577165,205.90310459213364C279.6925910903806,204.9142904568441,267.54072872304465,201.65024379666502,255.3888663557088,199.6918158005576C243.23700398837286,197.7333878044502,231.08514162103697,197.08057847241435,218.91663286689652,198.38619713648598C206.74812411275602,199.6918158005576,194.56296897181096,202.95586246073665,182.3944602176705,206.21990912091573C170.22595146353004,209.48395578109475,158.07408909619414,212.7480024412738,145.92222672885825,211.1159791111843C133.77036436152233,209.48395578109475,121.61850199418643,202.95586246073665,109.46663962685055,198.05979247046807C97.31477725951464,193.16372248019948,85.16291489217873,189.89967582002046,72.99440613803826,189.89967582002046C60.8258973838978,189.89967582002046,48.64074224295275,193.16372248019948,36.47223348881227,196.42776914037856C24.303724734671803,199.6918158005576,12.151862367335902,202.95586246073665,6.075931183667951,204.58788579082616L0,206.2199091209157Z"><title>Visual Basic</title></path><path fill="#ff7f0e" d="M0,206.2199091209157L6.075931183667951,207.85193245100524C12.151862367335902,209.48395578109475,24.303724734671803,212.7480024412738,36.47223348881227,216.01204910145285C48.64074224295275,219.27609576163186,60.8258973838978,222.54014242181094,72.99440613803826,222.54014242181094C85.16291489217873,222.54014242181094,97.31477725951464,219.27609576163186,109.46663962685055,217.64407243154236C121.61850199418643,216.01204910145285,133.77036436152233,216.01204910145285,145.92222672885825,214.3800257713633C158.07408909619414,212.7480024412738,170.22595146353004,209.48395578109475,182.3944602176705,206.21990912091573C194.56296897181096,202.95586246073665,206.74812411275602,199.6918158005576,218.91663286689652,198.386197136486C231.08514162103697,197.08057847241435,243.23700398837286,197.7333878044502,255.3888663557088,199.6918158005576C267.54072872304465,201.65024379666502,279.6925910903806,204.9142904568441,291.8444534577165,209.16715125231266C303.99631582505236,213.42001204778126,316.1481781923883,218.66168697853936,328.31668694652876,222.8207932422794C340.48519570066924,226.97989950601945,352.67035084161427,230.0564371027414,364.83885959575474,234.02509740077622C377.0073683498952,237.99375769881104,389.1592307172311,242.8545406981588,401.31109308456706,242.51049253668046C413.46295545190287,242.1664443752021,425.61481781923885,236.61756505289773,437.76668018657466,231.5116634916176C449.91854255391064,226.40576193033755,462.0704049212465,221.74283813008176,474.23891367538704,217.21442174714105C486.40742242952746,212.68600536420035,498.59257757047254,208.2920963985747,510.76108632461296,206.53920407766998C522.9295950787536,204.78631175676523,535.0814574460893,205.6744360805814,547.2333198134253,210.00855982182227C559.3851821807611,214.34268356306313,571.5370445480971,222.12280672172872,583.688906915433,223.92663124898323C595.8407692827689,225.7304557762377,607.9926316501047,221.55798167208113,620.1611404042452,216.8931477584614C632.3296491583857,212.22831384484164,644.5148042993308,207.07112012175875,656.6833130534712,203.13250381847604C668.8518218076118,199.19388751519332,681.0036841749476,196.4738486317108,693.1555465422836,201.41895594269567C705.3074089096194,206.36406325368057,717.4592712769553,218.97431675913285,729.6111336442913,231.5117326036383C741.762996011627,244.04914844814388,753.914858378963,256.5137266317026,766.0833671331035,261.6653516265308C778.251875887244,266.816976621359,790.4370310281889,264.65564842745664,802.6055397823294,259.104659556782C814.7740485364699,253.55367068610732,826.9259109038059,244.61302113866034,839.0777732711418,235.86679524010233C851.2296356384777,227.1205693415443,863.3814980058136,218.56876709187523,875.5333603731495,214.2291772517201C887.6852227404853,209.88958741156497,899.8370851078213,209.7622099809238,912.0055938619618,209.8356913246353C924.1741026161022,209.90917266834683,936.3592577570472,210.18351278641094,948.5277665111877,212.29166486716653C960.6962752653282,214.3998169479221,972.8481376326641,218.3417809913691,978.9240688163321,220.31276301309256L985,222.2837450348161L985,222.2837450348161L978.9240688163321,220.31276301309256C972.8481376326641,218.3417809913691,960.6962752653282,214.3998169479221,948.5277665111877,212.29166486716653C936.3592577570472,210.18351278641094,924.1741026161022,209.90917266834683,912.0055938619618,209.8356913246353C899.8370851078213,209.7622099809238,887.6852227404853,209.88958741156497,875.5333603731495,214.2291772517201C863.3814980058136,218.56876709187523,851.2296356384777,227.1205693415443,839.0777732711417,235.86679524010233C826.9259109038059,244.61302113866034,814.7740485364699,253.55367068610732,802.6055397823294,259.104659556782C790.4370310281889,264.65564842745664,778.251875887244,266.816976621359,766.0833671331035,261.6653516265308C753.914858378963,256.5137266317026,741.762996011627,244.04914844814388,729.6111336442913,233.14375593372787C717.4592712769553,222.23836341931187,705.3074089096194,212.89215657403864,693.1555465422836,214.47514258341187C681.0036841749476,216.0581285927851,668.8518218076118,228.57030745680478,656.6833130534712,247.19713373089317C644.5148042993308,265.82396000498164,632.3296491583857,290.56543368913884,620.1611404042452,301.75836092311664C607.9926316501047,312.9512881570945,595.8407692827689,310.59566894089295,583.688906915433,302.2637510932804C571.5370445480971,293.9318332456678,559.3851821807611,279.6236167666441,547.2333198134253,268.76139970504516C535.0814574460893,257.8991826434462,522.9295950787536,250.4829649992719,510.76108632461296,245.70776399981855C498.59257757047254,240.9325630003652,486.40742242952746,238.79837864563274,474.23891367538704,240.0627483683944C462.0704049212465,241.32711809115608,449.91854255391064,245.99004189141183,437.76668018657466,251.09594345269193C425.61481781923885,256.201845013972,413.46295545190287,261.7507243362764,401.31109308456706,260.4627491676652C389.1592307172311,259.174773999054,377.0073683498952,251.04994433952723,364.8388595957547,247.0812840414924C352.67035084161427,243.11262374345756,340.48519570066924,243.30013280691466,328.31668694652876,244.0370965334432C316.1481781923883,244.77406025997172,303.99631582505236,246.0604786495717,291.8444534577165,248.33571117446124C279.6925910903806,250.61094369935074,267.54072872304465,253.8749903595298,255.3888663557088,251.91656236342234C243.23700398837286,249.95813436731495,231.08514162103697,242.777231714921,218.91663286689652,237.55475705863455C206.74812411275602,232.33228240234806,194.56296897181096,229.068235742169,182.3944602176705,225.80418908199C170.22595146353004,222.54014242181094,158.07408909619414,219.27609576163186,145.92222672885825,217.64407243154236C133.77036436152233,216.01204910145285,121.61850199418643,216.01204910145285,109.46663962685055,217.64407243154236C97.31477725951464,219.27609576163186,85.16291489217873,222.54014242181094,72.99440613803826,222.54014242181094C60.8258973838978,222.54014242181094,48.64074224295275,219.27609576163186,36.47223348881227,216.01204910145282C24.303724734671803,212.7480024412738,12.151862367335902,209.48395578109475,6.075931183667951,207.85193245100524L0,206.2199091209157Z"><title>C/C++</title></path><path fill="#1f77b4" d="M0,206.2199091209157L6.075931183667951,204.58788579082616C12.151862367335902,202.95586246073665,24.303724734671803,199.6918158005576,36.47223348881227,196.4277691403786C48.64074224295275,193.16372248019948,60.8258973838978,189.89967582002046,72.99440613803826,186.63562915984141C85.16291489217873,183.37158249966237,97.31477725951464,180.1075358394833,109.46663962685055,175.21146584921473C121.61850199418643,170.31539585894618,133.77036436152233,163.78730253858808,145.92222672885825,162.15527920849854C158.07408909619414,160.52325587840903,170.22595146353004,163.78730253858808,182.3944602176705,170.31539585894618C194.56296897181096,176.84348917930427,206.74812411275602,186.63562915984141,218.91663286689652,185.33001049576978C231.08514162103697,184.02439183169818,243.23700398837286,171.6210145230178,255.3888663557088,163.78730253858808C267.54072872304465,155.95359055415838,279.6925910903806,152.68954389397933,291.8444534577165,150.4143113690898C303.99631582505236,148.1390788442003,316.1481781923883,146.85266045460034,328.31668694652876,147.74772005816132C340.48519570066924,148.6427796617223,352.67035084161427,151.71931725844425,364.83885959575474,149.15988423612097C377.0073683498952,146.60045121379773,389.1592307172311,138.40504757242925,401.31109308456706,134.79695275077188C413.46295545190287,131.1888579291145,425.61481781923885,132.16807192716823,437.76668018657466,131.95824035615672C449.91854255391064,131.74840878514522,462.0704049212465,130.34953164506848,474.23891367538704,132.34920858248586C486.40742242952746,134.34888551990323,498.59257757047254,139.74711653481472,510.76108632461296,144.52231753426807C522.9295950787536,149.29751853372142,535.0814574460893,153.44968951771662,547.2333198134253,153.54055260072474C559.3851821807611,153.63141568373285,571.5370445480971,149.66097086575385,583.688906915433,152.77041405708C595.8407692827689,155.8798572484061,607.9926316501047,166.06918844903734,620.1611404042452,170.5436851839189C632.3296491583857,175.01818191880048,644.5148042993308,173.77784418793246,656.6833130534712,173.42967921084667C668.8518218076118,173.08151423376094,681.0036841749476,173.62552201045744,693.1555465422836,180.20265265153185C705.3074089096194,186.77978329260625,717.4592712769553,199.39003679805856,729.6111336442913,208.66340598238503C741.762996011627,217.9367751667115,753.914858378963,223.8732600299121,766.0833671331035,225.76083836456124C778.251875887244,227.64841669921043,790.4370310281889,225.48708850530807,802.6055397823294,223.2001462948125C814.7740485364699,220.9132040843169,826.9259109038059,218.50064785722802,839.0777732711418,214.65049194893854C851.2296356384777,210.80033604064906,863.3814980058136,205.512580451159,875.5333603731495,203.1314186071113C887.6852227404853,200.7502567630636,899.8370851078213,201.27568866445827,912.0055938619618,202.0019793402056C924.1741026161022,202.72827001595292,936.3592577570472,203.65541946605285,948.5277665111877,206.41638087884425C960.6962752653282,209.1773422916356,972.8481376326641,213.77211566711844,978.9240688163321,216.06950235485985L985,218.36688904260123L985,222.2837450348161L978.9240688163321,220.31276301309256C972.8481376326641,218.3417809913691,960.6962752653282,214.3998169479221,948.5277665111877,212.29166486716653C936.3592577570472,210.18351278641094,924.1741026161022,209.90917266834683,912.0055938619618,209.8356913246353C899.8370851078213,209.7622099809238,887.6852227404853,209.88958741156497,875.5333603731495,214.2291772517201C863.3814980058136,218.56876709187523,851.2296356384777,227.1205693415443,839.0777732711417,235.86679524010233C826.9259109038059,244.61302113866034,814.7740485364699,253.55367068610732,802.6055397823294,259.104659556782C790.4370310281889,264.65564842745664,778.251875887244,266.816976621359,766.0833671331035,261.6653516265308C753.914858378963,256.5137266317026,741.762996011627,244.04914844814388,729.6111336442913,231.51173260363836C717.4592712769553,218.97431675913285,705.3074089096194,206.36406325368057,693.1555465422836,199.78693261260617C681.0036841749476,193.20980197153176,668.8518218076118,192.66579419483526,656.6833130534712,190.07631717775985C644.5148042993308,187.48684016068447,632.3296491583857,182.85189390323023,620.1611404042452,176.0925645062233C607.9926316501047,169.3332351092164,595.8407692827689,160.44952257265678,583.688906915433,158.6456980454023C571.5370445480971,156.8418735181478,559.3851821807611,162.1179370001984,547.2333198134253,169.2079765695842C535.0814574460893,176.29801613896998,522.9295950787536,185.20203179569094,510.76108632461296,191.85099410686428C498.59257757047254,198.4999564180376,486.40742242952746,202.8938653836632,474.23891367538704,202.52621177633537C462.0704049212465,202.15855816900753,449.91854255391064,197.02934198872617,437.76668018657466,193.97512689955863C425.61481781923885,190.9209118103911,413.46295545190287,189.94169781233737,401.31109308456706,190.2857459738157C389.1592307172311,190.62979413529402,377.0073683498952,192.2971044563044,364.8388595957547,194.85653747862762C352.67035084161427,197.41597050095092,340.48519570066924,200.86752622458707,328.31668694652876,203.23651328120513C316.1481781923883,205.6055003378232,303.99631582505236,206.8919187274232,291.8444534577165,205.90310459213364C279.6925910903806,204.9142904568441,267.54072872304465,201.65024379666502,255.3888663557088,199.6918158005576C243.23700398837286,197.7333878044502,231.08514162103697,197.08057847241435,218.91663286689652,191.8581038161279C206.74812411275602,186.63562915984141,194.56296897181096,176.84348917930427,182.3944602176705,170.31539585894618C170.22595146353004,163.78730253858808,158.07408909619414,160.52325587840903,145.92222672885825,162.15527920849854C133.77036436152233,163.78730253858808,121.61850199418643,170.31539585894618,109.46663962685055,175.21146584921473C97.31477725951464,180.1075358394833,85.16291489217873,183.37158249966237,72.99440613803826,186.63562915984141C60.8258973838978,189.89967582002046,48.64074224295275,193.16372248019948,36.47223348881227,196.42776914037856C24.303724734671803,199.6918158005576,12.151862367335902,202.95586246073665,6.075931183667951,204.58788579082616L0,206.2199091209157Z"><title>Java</title></path><path fill="#2ca02c" d="M0,206.2199091209157L6.075931183667951,207.85193245100524C12.151862367335902,209.48395578109475,24.303724734671803,212.7480024412738,36.47223348881227,216.01204910145285C48.64074224295275,219.27609576163186,60.8258973838978,222.54014242181094,72.99440613803826,222.54014242181094C85.16291489217873,222.54014242181094,97.31477725951464,219.27609576163186,109.46663962685055,217.64407243154236C121.61850199418643,216.01204910145285,133.77036436152233,216.01204910145285,145.92222672885825,214.3800257713633C158.07408909619414,212.7480024412738,170.22595146353004,209.48395578109475,182.3944602176705,206.21990912091573C194.56296897181096,202.95586246073665,206.74812411275602,199.6918158005576,218.91663286689652,198.386197136486C231.08514162103697,197.08057847241435,243.23700398837286,197.7333878044502,255.3888663557088,199.6918158005576C267.54072872304465,201.65024379666502,279.6925910903806,204.9142904568441,291.8444534577165,205.9031045921336C303.99631582505236,206.8919187274232,316.1481781923883,205.6055003378232,328.31668694652876,203.23651328120513C340.48519570066924,200.86752622458707,352.67035084161427,197.41597050095092,364.83885959575474,194.85653747862764C377.0073683498952,192.2971044563044,389.1592307172311,190.62979413529402,401.31109308456706,193.5497926339947C413.46295545190287,196.46979113269546,425.61481781923885,203.97709845110725,437.76668018657466,208.6633368703643C449.91854255391064,213.34957528962138,462.0704049212465,215.2147448097237,474.23891367538704,212.31835175687252C486.40742242952746,209.4219587040213,498.59257757047254,201.76400307821663,510.76108632461296,193.4830174369538C522.9295950787536,185.20203179569094,535.0814574460893,176.29801613896998,547.2333198134253,169.2079765695842C559.3851821807611,162.1179370001984,571.5370445480971,156.8418735181478,583.688906915433,158.64569804540227C595.8407692827689,160.44952257265678,607.9926316501047,169.3332351092164,620.1611404042452,176.0925645062233C632.3296491583857,182.85189390323023,644.5148042993308,187.48684016068447,656.6833130534712,190.07631717775988C668.8518218076118,192.66579419483526,681.0036841749476,193.20980197153176,693.1555465422836,199.78693261260617C705.3074089096194,206.36406325368057,717.4592712769553,218.97431675913285,729.6111336442913,231.5117326036383C741.762996011627,244.04914844814388,753.914858378963,256.5137266317026,766.0833671331035,261.6653516265308C778.251875887244,266.816976621359,790.4370310281889,264.65564842745664,802.6055397823294,259.104659556782C814.7740485364699,253.55367068610732,826.9259109038059,244.61302113866034,839.0777732711418,235.86679524010233C851.2296356384777,227.1205693415443,863.3814980058136,218.56876709187523,875.5333603731495,214.2291772517201C887.6852227404853,209.88958741156497,899.8370851078213,209.7622099809238,912.0055938619618,209.8356913246353C924.1741026161022,209.90917266834683,936.3592577570472,210.18351278641094,948.5277665111877,212.29166486716653C960.6962752653282,214.3998169479221,972.8481376326641,218.3417809913691,978.9240688163321,220.31276301309256L985,222.2837450348161L985,222.2837450348161L978.9240688163321,220.31276301309256C972.8481376326641,218.3417809913691,960.6962752653282,214.3998169479221,948.5277665111877,212.29166486716653C936.3592577570472,210.18351278641094,924.1741026161022,209.90917266834683,912.0055938619618,209.8356913246353C899.8370851078213,209.7622099809238,887.6852227404853,209.88958741156497,875.5333603731495,214.2291772517201C863.3814980058136,218.56876709187523,851.2296356384777,227.1205693415443,839.0777732711417,235.86679524010233C826.9259109038059,244.61302113866034,814.7740485364699,253.55367068610732,802.6055397823294,259.104659556782C790.4370310281889,264.65564842745664,778.251875887244,266.816976621359,766.0833671331035,261.6653516265308C753.914858378963,256.5137266317026,741.762996011627,244.04914844814388,729.6111336442913,231.51173260363836C717.4592712769553,218.97431675913285,705.3074089096194,206.36406325368057,693.1555465422836,199.78693261260617C681.0036841749476,193.20980197153176,668.8518218076118,192.66579419483526,656.6833130534712,190.07631717775985C644.5148042993308,187.48684016068447,632.3296491583857,182.85189390323023,620.1611404042452,176.0925645062233C607.9926316501047,169.3332351092164,595.8407692827689,160.44952257265678,583.688906915433,158.6456980454023C571.5370445480971,156.8418735181478,559.3851821807611,162.1179370001984,547.2333198134253,169.2079765695842C535.0814574460893,176.29801613896998,522.9295950787536,185.20203179569094,510.76108632461296,193.4830174369538C498.59257757047254,201.76400307821663,486.40742242952746,209.4219587040213,474.23891367538704,215.58239841705154C462.0704049212465,221.74283813008176,449.91854255391064,226.40576193033755,437.76668018657466,231.51166349161767C425.61481781923885,236.61756505289773,413.46295545190287,242.1664443752021,401.31109308456706,242.51049253668046C389.1592307172311,242.8545406981588,377.0073683498952,237.99375769881104,364.8388595957547,234.02509740077622C352.67035084161427,230.0564371027414,340.48519570066924,226.97989950601945,328.31668694652876,222.8207932422794C316.1481781923883,218.66168697853936,303.99631582505236,213.42001204778126,291.8444534577165,209.16715125231266C279.6925910903806,204.9142904568441,267.54072872304465,201.65024379666502,255.3888663557088,199.6918158005576C243.23700398837286,197.7333878044502,231.08514162103697,197.08057847241435,218.91663286689652,198.38619713648598C206.74812411275602,199.6918158005576,194.56296897181096,202.95586246073665,182.3944602176705,206.21990912091573C170.22595146353004,209.48395578109475,158.07408909619414,212.7480024412738,145.92222672885825,214.38002577136334C133.77036436152233,216.01204910145285,121.61850199418643,216.01204910145285,109.46663962685055,217.64407243154236C97.31477725951464,219.27609576163186,85.16291489217873,222.54014242181094,72.99440613803826,222.54014242181094C60.8258973838978,222.54014242181094,48.64074224295275,219.27609576163186,36.47223348881227,216.01204910145282C24.303724734671803,212.7480024412738,12.151862367335902,209.48395578109475,6.075931183667951,207.85193245100524L0,206.2199091209157Z"><title>PHP</title></path><path fill="#9467bd" d="M0,206.2199091209157L6.075931183667951,207.85193245100524C12.151862367335902,209.48395578109475,24.303724734671803,212.7480024412738,36.47223348881227,216.01204910145285C48.64074224295275,219.27609576163186,60.8258973838978,222.54014242181094,72.99440613803826,222.54014242181094C85.16291489217873,222.54014242181094,97.31477725951464,219.27609576163186,109.46663962685055,217.64407243154236C121.61850199418643,216.01204910145285,133.77036436152233,216.01204910145285,145.92222672885825,217.64407243154236C158.07408909619414,219.27609576163186,170.22595146353004,222.54014242181094,182.3944602176705,225.80418908198996C194.56296897181096,229.068235742169,206.74812411275602,232.33228240234806,218.91663286689652,237.55475705863455C231.08514162103697,242.777231714921,243.23700398837286,249.95813436731495,255.3888663557088,251.91656236342234C267.54072872304465,253.8749903595298,279.6925910903806,250.61094369935074,291.8444534577165,248.33571117446124C303.99631582505236,246.0604786495717,316.1481781923883,244.77406025997172,328.31668694652876,244.0370965334432C340.48519570066924,243.30013280691466,352.67035084161427,243.11262374345756,364.83885959575474,247.08128404149238C377.0073683498952,251.04994433952723,389.1592307172311,259.174773999054,401.31109308456706,260.4627491676652C413.46295545190287,261.7507243362764,425.61481781923885,256.201845013972,437.76668018657466,251.09594345269193C449.91854255391064,245.99004189141183,462.0704049212465,241.32711809115608,474.23891367538704,240.0627483683944C486.40742242952746,238.79837864563274,498.59257757047254,240.9325630003652,510.76108632461296,245.70776399981855C522.9295950787536,250.4829649992719,535.0814574460893,257.8991826434462,547.2333198134253,268.76139970504516C559.3851821807611,279.6236167666441,571.5370445480971,293.9318332456678,583.688906915433,302.2637510932804C595.8407692827689,310.59566894089295,607.9926316501047,312.9512881570945,620.1611404042452,305.0224075832957C632.3296491583857,297.0935270094969,644.5148042993308,278.88014664569783,656.6833130534712,266.78141369196743C668.8518218076118,254.68268073823717,681.0036841749476,248.69859519457557,693.1555465422836,253.64370250556044C705.3074089096194,258.58880981654534,717.4592712769553,274.46310998217666,729.6111336442913,287.0005258266821C741.762996011627,299.53794167118764,753.914858378963,308.73847319456735,766.0833671331035,320.4181915097536C778.251875887244,332.09790982493996,790.4370310281889,346.25681493193287,802.6055397823294,342.3378493913477C814.7740485364699,338.41888385076254,826.9259109038059,316.4220476625994,839.0777732711418,307.67582176404136C851.2296356384777,298.92959586548335,863.3814980058136,303.43398025653045,875.5333603731495,308.8865303969125C887.6852227404853,314.3390805372945,899.8370851078213,320.73979642701147,912.0055938619618,320.81327777072295C924.1741026161022,320.8867591144344,936.3592577570472,314.63300591214045,948.5277665111877,313.47711133271696C960.6962752653282,312.3212167532935,972.8481376326641,316.2631807967405,978.9240688163321,318.23416281846403L985,320.20514484018753L985,378.9579847234104L978.9240688163321,376.9870027016869C972.8481376326641,375.01602067996333,960.6962752653282,371.07405663651633,948.5277665111877,368.9659045557608C936.3592577570472,366.85775247500516,924.1741026161022,366.5834123569411,912.0055938619618,359.9818376928715C899.8370851078213,353.3802630288019,887.6852227404853,340.45145381872686,875.5333603731495,331.7348570181658C863.3814980058136,323.0182602176048,851.2296356384777,318.5138758265577,839.0777732711417,327.2601017251157C826.9259109038059,336.0063276236737,814.7740485364699,358.0031638118369,802.6055397823294,360.2901060223325C790.4370310281889,362.577048232828,778.251875887244,345.1540964656561,766.0833671331035,330.86314082232656C753.914858378963,316.572185178997,741.762996011627,305.4132256595099,729.6111336442913,292.87580981500446C717.4592712769553,280.3383939704989,705.3074089096194,266.422521800975,693.1555465422836,264.08865181813337C681.0036841749476,261.75478183529174,668.8518218076118,271.00291403913235,656.6833130534712,283.10164699286275C644.5148042993308,295.20037994659305,632.3296491583857,310.1497136502131,620.1611404042452,315.1409522298507C607.9926316501047,320.13219080948835,595.8407692827689,315.1653342651436,583.688906915433,305.5277977534594C571.5370445480971,295.89026124177514,559.3851821807611,281.58204476275154,547.2333198134253,272.0254463652241C535.0814574460893,262.46884796769683,522.9295950787536,257.66386765166584,510.76108632461296,255.8263086463736C498.59257757047254,253.9887496410814,486.40742242952746,255.11861194652798,474.23891367538704,256.3829816692897C462.0704049212465,257.64735139205135,449.91854255391064,259.04622853212805,437.76668018657466,262.1937020973007C425.61481781923885,265.3411756624733,413.46295545190287,270.2372456527419,401.31109308456706,267.970056486077C389.1592307172311,265.70286731941206,377.0073683498952,256.2724189958137,364.8388595957547,251.32454469972518C352.67035084161427,246.3766704036366,340.48519570066924,245.91137013505792,328.31668694652876,245.9955245295506C316.1481781923883,246.07967892404338,303.99631582505236,246.71328798160752,291.8444534577165,248.66211584047915C279.6925910903806,250.61094369935074,267.54072872304465,253.8749903595298,255.3888663557088,251.91656236342234C243.23700398837286,249.95813436731495,231.08514162103697,242.777231714921,218.91663286689652,237.55475705863455C206.74812411275602,232.33228240234806,194.56296897181096,229.068235742169,182.3944602176705,225.80418908199C170.22595146353004,222.54014242181094,158.07408909619414,219.27609576163186,145.92222672885825,217.64407243154236C133.77036436152233,216.01204910145285,121.61850199418643,216.01204910145285,109.46663962685055,217.64407243154236C97.31477725951464,219.27609576163186,85.16291489217873,222.54014242181094,72.99440613803826,222.54014242181094C60.8258973838978,222.54014242181094,48.64074224295275,219.27609576163186,36.47223348881227,216.01204910145282C24.303724734671803,212.7480024412738,12.151862367335902,209.48395578109475,6.075931183667951,207.85193245100524L0,206.2199091209157Z"><title>JavaScript</title></path><path fill="#e377c2" d="M0,206.2199091209157L6.075931183667951,204.58788579082616C12.151862367335902,202.95586246073665,24.303724734671803,199.6918158005576,36.47223348881227,196.4277691403786C48.64074224295275,193.16372248019948,60.8258973838978,189.89967582002046,72.99440613803826,186.63562915984141C85.16291489217873,183.37158249966237,97.31477725951464,180.1075358394833,109.46663962685055,175.21146584921473C121.61850199418643,170.31539585894618,133.77036436152233,163.78730253858808,145.92222672885825,162.15527920849854C158.07408909619414,160.52325587840903,170.22595146353004,163.78730253858808,182.3944602176705,170.31539585894618C194.56296897181096,176.84348917930427,206.74812411275602,186.63562915984141,218.91663286689652,185.33001049576978C231.08514162103697,184.02439183169818,243.23700398837286,171.6210145230178,255.3888663557088,163.78730253858808C267.54072872304465,155.95359055415838,279.6925910903806,152.68954389397933,291.8444534577165,150.4143113690898C303.99631582505236,148.1390788442003,316.1481781923883,146.85266045460034,328.31668694652876,147.74772005816132C340.48519570066924,148.6427796617223,352.67035084161427,151.71931725844425,364.83885959575474,149.15988423612097C377.0073683498952,146.60045121379773,389.1592307172311,138.40504757242925,401.31109308456706,134.79695275077188C413.46295545190287,131.1888579291145,425.61481781923885,132.16807192716823,437.76668018657466,130.3262170260672C449.91854255391064,128.48436212496617,462.0704049212465,123.8214383247104,474.23891367538704,122.55706860194873C486.40742242952746,121.29269887918706,498.59257757047254,123.42688323391951,510.76108632461296,123.30601424310429C522.9295950787536,123.18514525228905,535.0814574460893,120.80922291592617,547.2333198134253,114.37199267857618C559.3851821807611,107.93476244122617,571.5370445480971,97.4362243028891,583.688906915433,94.01757417385711C595.8407692827689,90.59892404482515,607.9926316501047,94.2601619250983,620.1611404042452,105.26275198033797C632.3296491583857,116.26534203557766,644.5148042993308,134.6092842657839,656.6833130534712,147.31730592941435C668.8518218076118,160.02532759304475,681.0036841749476,167.09742869009938,693.1555465422836,176.93860599135283C705.3074089096194,186.77978329260625,717.4592712769553,199.39003679805856,729.6111336442913,208.66340598238503C741.762996011627,217.9367751667115,753.914858378963,223.8732600299121,766.0833671331035,225.76083836456124C778.251875887244,227.64841669921043,790.4370310281889,225.48708850530807,802.6055397823294,223.2001462948125C814.7740485364699,220.9132040843169,826.9259109038059,218.50064785722802,839.0777732711418,214.65049194893854C851.2296356384777,210.80033604064906,863.3814980058136,205.512580451159,875.5333603731495,203.1314186071113C887.6852227404853,200.7502567630636,899.8370851078213,201.27568866445827,912.0055938619618,202.0019793402056C924.1741026161022,202.72827001595292,936.3592577570472,203.65541946605285,948.5277665111877,206.41638087884425C960.6962752653282,209.1773422916356,972.8481376326641,213.77211566711844,978.9240688163321,216.06950235485985L985,218.36688904260123L985,218.36688904260123L978.9240688163321,216.0695023548598C972.8481376326641,213.77211566711844,960.6962752653282,209.1773422916356,948.5277665111877,206.41638087884425C936.3592577570472,203.65541946605285,924.1741026161022,202.72827001595292,912.0055938619618,202.0019793402056C899.8370851078213,201.27568866445827,887.6852227404853,200.7502567630636,875.5333603731495,203.1314186071113C863.3814980058136,205.512580451159,851.2296356384777,210.80033604064906,839.0777732711417,214.65049194893854C826.9259109038059,218.50064785722802,814.7740485364699,220.9132040843169,802.6055397823294,223.2001462948125C790.4370310281889,225.48708850530807,778.251875887244,227.64841669921043,766.0833671331035,225.76083836456124C753.914858378963,223.8732600299121,741.762996011627,217.9367751667115,729.6111336442913,208.66340598238503C717.4592712769553,199.39003679805856,705.3074089096194,186.77978329260625,693.1555465422836,180.20265265153185C681.0036841749476,173.62552201045744,668.8518218076118,173.08151423376094,656.6833130534712,173.42967921084673C644.5148042993308,173.77784418793246,632.3296491583857,175.01818191880048,620.1611404042452,170.5436851839189C607.9926316501047,166.06918844903734,595.8407692827689,155.8798572484061,583.688906915433,152.77041405708C571.5370445480971,149.66097086575385,559.3851821807611,153.63141568373285,547.2333198134253,153.54055260072474C535.0814574460893,153.44968951771662,522.9295950787536,149.29751853372142,510.76108632461296,144.52231753426807C498.59257757047254,139.74711653481472,486.40742242952746,134.34888551990323,474.23891367538704,132.34920858248586C462.0704049212465,130.34953164506848,449.91854255391064,131.74840878514522,437.76668018657466,131.95824035615672C425.61481781923885,132.16807192716823,413.46295545190287,131.1888579291145,401.31109308456706,134.79695275077188C389.1592307172311,138.40504757242925,377.0073683498952,146.60045121379773,364.8388595957547,149.15988423612097C352.67035084161427,151.71931725844425,340.48519570066924,148.6427796617223,328.31668694652876,147.74772005816132C316.1481781923883,146.85266045460034,303.99631582505236,148.1390788442003,291.8444534577165,150.4143113690898C279.6925910903806,152.68954389397933,267.54072872304465,155.95359055415838,255.3888663557088,163.78730253858808C243.23700398837286,171.6210145230178,231.08514162103697,184.02439183169818,218.91663286689652,185.33001049576978C206.74812411275602,186.63562915984141,194.56296897181096,176.84348917930427,182.3944602176705,170.31539585894618C170.22595146353004,163.78730253858808,158.07408909619414,160.52325587840903,145.92222672885825,162.15527920849854C133.77036436152233,163.78730253858808,121.61850199418643,170.31539585894618,109.46663962685055,175.21146584921473C97.31477725951464,180.1075358394833,85.16291489217873,183.37158249966237,72.99440613803826,186.63562915984141C60.8258973838978,189.89967582002046,48.64074224295275,193.16372248019948,36.47223348881227,196.42776914037856C24.303724734671803,199.6918158005576,12.151862367335902,202.95586246073665,6.075931183667951,204.58788579082616L0,206.2199091209157Z"><title>MATLAB</title></path><path fill="#7f7f7f" d="M0,206.2199091209157L6.075931183667951,207.85193245100524C12.151862367335902,209.48395578109475,24.303724734671803,212.7480024412738,36.47223348881227,216.01204910145285C48.64074224295275,219.27609576163186,60.8258973838978,222.54014242181094,72.99440613803826,222.54014242181094C85.16291489217873,222.54014242181094,97.31477725951464,219.27609576163186,109.46663962685055,217.64407243154236C121.61850199418643,216.01204910145285,133.77036436152233,216.01204910145285,145.92222672885825,214.3800257713633C158.07408909619414,212.7480024412738,170.22595146353004,209.48395578109475,182.3944602176705,206.21990912091573C194.56296897181096,202.95586246073665,206.74812411275602,199.6918158005576,218.91663286689652,198.386197136486C231.08514162103697,197.08057847241435,243.23700398837286,197.7333878044502,255.3888663557088,199.6918158005576C267.54072872304465,201.65024379666502,279.6925910903806,204.9142904568441,291.8444534577165,209.16715125231266C303.99631582505236,213.42001204778126,316.1481781923883,218.66168697853936,328.31668694652876,222.8207932422794C340.48519570066924,226.97989950601945,352.67035084161427,230.0564371027414,364.83885959575474,234.02509740077622C377.0073683498952,237.99375769881104,389.1592307172311,242.8545406981588,401.31109308456706,242.51049253668046C413.46295545190287,242.1664443752021,425.61481781923885,236.61756505289773,437.76668018657466,231.5116634916176C449.91854255391064,226.40576193033755,462.0704049212465,221.74283813008176,474.23891367538704,215.58239841705154C486.40742242952746,209.4219587040213,498.59257757047254,201.76400307821663,510.76108632461296,193.4830174369538C522.9295950787536,185.20203179569094,535.0814574460893,176.29801613896998,547.2333198134253,169.2079765695842C559.3851821807611,162.1179370001984,571.5370445480971,156.8418735181478,583.688906915433,158.64569804540227C595.8407692827689,160.44952257265678,607.9926316501047,169.3332351092164,620.1611404042452,176.0925645062233C632.3296491583857,182.85189390323023,644.5148042993308,187.48684016068447,656.6833130534712,190.07631717775988C668.8518218076118,192.66579419483526,681.0036841749476,193.20980197153176,693.1555465422836,199.78693261260617C705.3074089096194,206.36406325368057,717.4592712769553,218.97431675913285,729.6111336442913,231.5117326036383C741.762996011627,244.04914844814388,753.914858378963,256.5137266317026,766.0833671331035,261.6653516265308C778.251875887244,266.816976621359,790.4370310281889,264.65564842745664,802.6055397823294,259.104659556782C814.7740485364699,253.55367068610732,826.9259109038059,244.61302113866034,839.0777732711418,235.86679524010233C851.2296356384777,227.1205693415443,863.3814980058136,218.56876709187523,875.5333603731495,214.2291772517201C887.6852227404853,209.88958741156497,899.8370851078213,209.7622099809238,912.0055938619618,209.8356913246353C924.1741026161022,209.90917266834683,936.3592577570472,210.18351278641094,948.5277665111877,212.29166486716653C960.6962752653282,214.3998169479221,972.8481376326641,218.3417809913691,978.9240688163321,220.31276301309256L985,222.2837450348161L985,222.2837450348161L978.9240688163321,220.31276301309256C972.8481376326641,218.3417809913691,960.6962752653282,214.3998169479221,948.5277665111877,212.29166486716653C936.3592577570472,210.18351278641094,924.1741026161022,209.90917266834683,912.0055938619618,209.8356913246353C899.8370851078213,209.7622099809238,887.6852227404853,209.88958741156497,875.5333603731495,214.2291772517201C863.3814980058136,218.56876709187523,851.2296356384777,227.1205693415443,839.0777732711417,235.86679524010233C826.9259109038059,244.61302113866034,814.7740485364699,253.55367068610732,802.6055397823294,259.104659556782C790.4370310281889,264.65564842745664,778.251875887244,266.816976621359,766.0833671331035,261.6653516265308C753.914858378963,256.5137266317026,741.762996011627,244.04914844814388,729.6111336442913,231.51173260363836C717.4592712769553,218.97431675913285,705.3074089096194,206.36406325368057,693.1555465422836,201.41895594269567C681.0036841749476,196.4738486317108,668.8518218076118,199.19388751519332,656.6833130534712,203.13250381847604C644.5148042993308,207.07112012175875,632.3296491583857,212.22831384484164,620.1611404042452,216.8931477584614C607.9926316501047,221.55798167208113,595.8407692827689,225.7304557762377,583.688906915433,223.92663124898323C571.5370445480971,222.12280672172872,559.3851821807611,214.34268356306313,547.2333198134253,210.00855982182225C535.0814574460893,205.6744360805814,522.9295950787536,204.78631175676523,510.76108632461296,206.53920407766998C498.59257757047254,208.2920963985747,486.40742242952746,212.68600536420035,474.23891367538704,217.21442174714107C462.0704049212465,221.74283813008176,449.91854255391064,226.40576193033755,437.76668018657466,231.51166349161767C425.61481781923885,236.61756505289773,413.46295545190287,242.1664443752021,401.31109308456706,242.51049253668046C389.1592307172311,242.8545406981588,377.0073683498952,237.99375769881104,364.8388595957547,234.02509740077622C352.67035084161427,230.0564371027414,340.48519570066924,226.97989950601945,328.31668694652876,222.8207932422794C316.1481781923883,218.66168697853936,303.99631582505236,213.42001204778126,291.8444534577165,209.16715125231266C279.6925910903806,204.9142904568441,267.54072872304465,201.65024379666502,255.3888663557088,199.6918158005576C243.23700398837286,197.7333878044502,231.08514162103697,197.08057847241435,218.91663286689652,198.38619713648598C206.74812411275602,199.6918158005576,194.56296897181096,202.95586246073665,182.3944602176705,206.21990912091573C170.22595146353004,209.48395578109475,158.07408909619414,212.7480024412738,145.92222672885825,214.38002577136334C133.77036436152233,216.01204910145285,121.61850199418643,216.01204910145285,109.46663962685055,217.64407243154236C97.31477725951464,219.27609576163186,85.16291489217873,222.54014242181094,72.99440613803826,222.54014242181094C60.8258973838978,222.54014242181094,48.64074224295275,219.27609576163186,36.47223348881227,216.01204910145282C24.303724734671803,212.7480024412738,12.151862367335902,209.48395578109475,6.075931183667951,207.85193245100524L0,206.2199091209157Z"><title>Scheme</title></path><path fill="#ffd43b" d="M0,206.2199091209157L6.075931183667951,204.58788579082616C12.151862367335902,202.95586246073665,24.303724734671803,199.6918158005576,36.47223348881227,196.4277691403786C48.64074224295275,193.16372248019948,60.8258973838978,189.89967582002046,72.99440613803826,186.63562915984141C85.16291489217873,183.37158249966237,97.31477725951464,180.1075358394833,109.46663962685055,175.21146584921473C121.61850199418643,170.31539585894618,133.77036436152233,163.78730253858808,145.92222672885825,162.15527920849854C158.07408909619414,160.52325587840903,170.22595146353004,163.78730253858808,182.3944602176705,170.31539585894618C194.56296897181096,176.84348917930427,206.74812411275602,186.63562915984141,218.91663286689652,185.33001049576978C231.08514162103697,184.02439183169818,243.23700398837286,171.6210145230178,255.3888663557088,163.78730253858808C267.54072872304465,155.95359055415838,279.6925910903806,152.68954389397933,291.8444534577165,150.4143113690898C303.99631582505236,148.1390788442003,316.1481781923883,146.85266045460034,328.31668694652876,147.74772005816132C340.48519570066924,148.6427796617223,352.67035084161427,151.71931725844425,364.83885959575474,149.15988423612097C377.0073683498952,146.60045121379773,389.1592307172311,138.40504757242925,401.31109308456706,134.79695275077188C413.46295545190287,131.1888579291145,425.61481781923885,132.16807192716823,437.76668018657466,130.3262170260672C449.91854255391064,128.48436212496617,462.0704049212465,123.8214383247104,474.23891367538704,122.55706860194873C486.40742242952746,121.29269887918706,498.59257757047254,123.42688323391951,510.76108632461296,120.04196758292524C522.9295950787536,116.65705193193098,535.0814574460893,107.75303627520998,547.2333198134253,94.7877127175019C559.3851821807611,81.82238915979381,571.5370445480971,64.79575770109862,583.688906915433,48.32092093135045C595.8407692827689,31.84608416160228,607.9926316501047,15.92304208080114,620.1611404042452,13.869445495324642C632.3296491583857,11.815848909848144,644.5148042993308,23.63169781969629,656.6833130534712,36.33971948332672C668.8518218076118,49.047741146957144,681.0036841749476,62.647935564369845,693.1555465422836,59.432926224907106C705.3074089096194,56.21791688544437,717.4592712769553,36.18770378910617,729.6111336442913,25.87679301235836C741.762996011627,15.565882235610532,753.914858378963,14.974273778453076,766.0833671331035,15.229828783012701C778.251875887244,15.485383787572326,790.4370310281889,16.588102253849033,802.6055397823294,28.989370014159146C814.7740485364699,41.39063777446925,826.9259109038059,65.09045482881275,839.0777732711418,75.928508891329C851.2296356384777,86.76656295384525,863.3814980058136,84.74285402453425,875.5333603731495,77.46562219021799C887.6852227404853,70.18839035590173,899.8370851078213,57.65763561658022,912.0055938619618,51.85583297196943C924.1741026161022,46.054030327358646,936.3592577570472,46.98117977745858,948.5277665111877,43.214047869891864C960.6962752653282,39.44691596232515,972.8481376326641,30.985502697091786,978.9240688163321,26.7547960644751L985,22.524089431858417L985,159.61404915937837L978.9240688163321,160.580709131816C972.8481376326641,161.54736910425368,960.6962752653282,163.48068904912896,948.5277665111877,160.71972763633758C936.3592577570472,157.95876622354623,924.1741026161022,150.50352345308818,912.0055938619618,146.51318611716184C899.8370851078213,142.52284878123547,887.6852227404853,141.99741687984078,875.5333603731495,137.85048540353037C863.3814980058136,133.70355392721996,851.2296356384777,125.93512287599383,839.0777732711417,106.93695216302996C826.9259109038059,87.93878145006609,814.7740485364699,57.71087107536449,802.6055397823294,43.677579984964865C790.4370310281889,29.644288894565236,778.251875887244,31.805617088467574,766.0833671331035,39.710178734355566C753.914858378963,47.61474038024355,741.762996011627,61.26253547811718,729.6111336442913,74.83749291504405C717.4592712769553,88.41245035197092,705.3074089096194,101.91457012795102,693.1555465422836,108.39362612759281C681.0036841749476,114.87268212723461,668.8518218076118,114.32867435053811,656.6833130534712,111.41279266744482C644.5148042993308,108.49691098435154,632.3296491583857,103.2091553948615,620.1611404042452,98.73465865997987C607.9926316501047,94.2601619250983,595.8407692827689,90.59892404482515,583.688906915433,94.01757417385714C571.5370445480971,97.4362243028891,559.3851821807611,107.93476244122617,547.2333198134253,114.37199267857618C535.0814574460893,120.80922291592617,522.9295950787536,123.18514525228905,510.76108632461296,123.30601424310429C498.59257757047254,123.42688323391951,486.40742242952746,121.29269887918706,474.23891367538704,122.55706860194873C462.0704049212465,123.8214383247104,449.91854255391064,128.48436212496617,437.76668018657466,130.3262170260672C425.61481781923885,132.16807192716823,413.46295545190287,131.1888579291145,401.31109308456706,134.79695275077188C389.1592307172311,138.40504757242925,377.0073683498952,146.60045121379773,364.8388595957547,149.15988423612097C352.67035084161427,151.71931725844425,340.48519570066924,148.6427796617223,328.31668694652876,147.74772005816132C316.1481781923883,146.85266045460034,303.99631582505236,148.1390788442003,291.8444534577165,150.4143113690898C279.6925910903806,152.68954389397933,267.54072872304465,155.95359055415838,255.3888663557088,163.78730253858808C243.23700398837286,171.6210145230178,231.08514162103697,184.02439183169818,218.91663286689652,185.33001049576978C206.74812411275602,186.63562915984141,194.56296897181096,176.84348917930427,182.3944602176705,170.31539585894618C170.22595146353004,163.78730253858808,158.07408909619414,160.52325587840903,145.92222672885825,162.15527920849854C133.77036436152233,163.78730253858808,121.61850199418643,170.31539585894618,109.46663962685055,175.21146584921473C97.31477725951464,180.1075358394833,85.16291489217873,183.37158249966237,72.99440613803826,186.63562915984141C60.8258973838978,189.89967582002046,48.64074224295275,193.16372248019948,36.47223348881227,196.42776914037856C24.303724734671803,199.6918158005576,12.151862367335902,202.95586246073665,6.075931183667951,204.58788579082616L0,206.2199091209157Z"><title>Python</title></path><path fill="#aec7e8" d="M0,206.2199091209157L6.075931183667951,204.58788579082616C12.151862367335902,202.95586246073665,24.303724734671803,199.6918158005576,36.47223348881227,196.4277691403786C48.64074224295275,193.16372248019948,60.8258973838978,189.89967582002046,72.99440613803826,186.63562915984141C85.16291489217873,183.37158249966237,97.31477725951464,180.1075358394833,109.46663962685055,175.21146584921473C121.61850199418643,170.31539585894618,133.77036436152233,163.78730253858808,145.92222672885825,162.15527920849854C158.07408909619414,160.52325587840903,170.22595146353004,163.78730253858808,182.3944602176705,170.31539585894618C194.56296897181096,176.84348917930427,206.74812411275602,186.63562915984141,218.91663286689652,185.33001049576978C231.08514162103697,184.02439183169818,243.23700398837286,171.6210145230178,255.3888663557088,163.78730253858808C267.54072872304465,155.95359055415838,279.6925910903806,152.68954389397933,291.8444534577165,150.4143113690898C303.99631582505236,148.1390788442003,316.1481781923883,146.85266045460034,328.31668694652876,147.74772005816132C340.48519570066924,148.6427796617223,352.67035084161427,151.71931725844425,364.83885959575474,149.15988423612097C377.0073683498952,146.60045121379773,389.1592307172311,138.40504757242925,401.31109308456706,134.79695275077188C413.46295545190287,131.1888579291145,425.61481781923885,132.16807192716823,437.76668018657466,130.3262170260672C449.91854255391064,128.48436212496617,462.0704049212465,123.8214383247104,474.23891367538704,122.55706860194873C486.40742242952746,121.29269887918706,498.59257757047254,123.42688323391951,510.76108632461296,123.30601424310429C522.9295950787536,123.18514525228905,535.0814574460893,120.80922291592617,547.2333198134253,114.37199267857618C559.3851821807611,107.93476244122617,571.5370445480971,97.4362243028891,583.688906915433,94.01757417385711C595.8407692827689,90.59892404482515,607.9926316501047,94.2601619250983,620.1611404042452,98.73465865997987C632.3296491583857,103.2091553948615,644.5148042993308,108.49691098435154,656.6833130534712,111.41279266744482C668.8518218076118,114.32867435053811,681.0036841749476,114.87268212723461,693.1555465422836,108.39362612759281C705.3074089096194,101.91457012795102,717.4592712769553,88.41245035197092,729.6111336442913,74.83749291504405C741.762996011627,61.26253547811718,753.914858378963,47.61474038024355,766.0833671331035,39.710178734355566C778.251875887244,31.805617088467574,790.4370310281889,29.644288894565236,802.6055397823294,43.677579984964865C814.7740485364699,57.71087107536449,826.9259109038059,87.93878145006609,839.0777732711418,106.93695216302996C851.2296356384777,125.93512287599383,863.3814980058136,133.70355392721996,875.5333603731495,137.85048540353037C887.6852227404853,141.99741687984078,899.8370851078213,142.52284878123547,912.0055938619618,146.51318611716184C924.1741026161022,150.50352345308818,936.3592577570472,157.95876622354623,948.5277665111877,160.7197276363376C960.6962752653282,163.48068904912896,972.8481376326641,161.54736910425368,978.9240688163321,160.580709131816L985,159.61404915937837L985,218.36688904260123L978.9240688163321,216.0695023548598C972.8481376326641,213.77211566711844,960.6962752653282,209.1773422916356,948.5277665111877,206.41638087884425C936.3592577570472,203.65541946605285,924.1741026161022,202.72827001595292,912.0055938619618,202.0019793402056C899.8370851078213,201.27568866445827,887.6852227404853,200.7502567630636,875.5333603731495,203.1314186071113C863.3814980058136,205.512580451159,851.2296356384777,210.80033604064906,839.0777732711417,214.65049194893854C826.9259109038059,218.50064785722802,814.7740485364699,220.9132040843169,802.6055397823294,223.2001462948125C790.4370310281889,225.48708850530807,778.251875887244,227.64841669921043,766.0833671331035,225.76083836456124C753.914858378963,223.8732600299121,741.762996011627,217.9367751667115,729.6111336442913,208.66340598238503C717.4592712769553,199.39003679805856,705.3074089096194,186.77978329260625,693.1555465422836,176.9386059913528C681.0036841749476,167.09742869009938,668.8518218076118,160.02532759304475,656.6833130534712,147.31730592941432C644.5148042993308,134.6092842657839,632.3296491583857,116.26534203557766,620.1611404042452,105.26275198033797C607.9926316501047,94.2601619250983,595.8407692827689,90.59892404482515,583.688906915433,94.01757417385714C571.5370445480971,97.4362243028891,559.3851821807611,107.93476244122617,547.2333198134253,114.37199267857618C535.0814574460893,120.80922291592617,522.9295950787536,123.18514525228905,510.76108632461296,123.30601424310429C498.59257757047254,123.42688323391951,486.40742242952746,121.29269887918706,474.23891367538704,122.55706860194873C462.0704049212465,123.8214383247104,449.91854255391064,128.48436212496617,437.76668018657466,130.3262170260672C425.61481781923885,132.16807192716823,413.46295545190287,131.1888579291145,401.31109308456706,134.79695275077188C389.1592307172311,138.40504757242925,377.0073683498952,146.60045121379773,364.8388595957547,149.15988423612097C352.67035084161427,151.71931725844425,340.48519570066924,148.6427796617223,328.31668694652876,147.74772005816132C316.1481781923883,146.85266045460034,303.99631582505236,148.1390788442003,291.8444534577165,150.4143113690898C279.6925910903806,152.68954389397933,267.54072872304465,155.95359055415838,255.3888663557088,163.78730253858808C243.23700398837286,171.6210145230178,231.08514162103697,184.02439183169818,218.91663286689652,185.33001049576978C206.74812411275602,186.63562915984141,194.56296897181096,176.84348917930427,182.3944602176705,170.31539585894618C170.22595146353004,163.78730253858808,158.07408909619414,160.52325587840903,145.92222672885825,162.15527920849854C133.77036436152233,163.78730253858808,121.61850199418643,170.31539585894618,109.46663962685055,175.21146584921473C97.31477725951464,180.1075358394833,85.16291489217873,183.37158249966237,72.99440613803826,186.63562915984141C60.8258973838978,189.89967582002046,48.64074224295275,193.16372248019948,36.47223348881227,196.42776914037856C24.303724734671803,199.6918158005576,12.151862367335902,202.95586246073665,6.075931183667951,204.58788579082616L0,206.2199091209157Z"><title>Clojure</title></path><path fill="#ff9896" d="M0,206.2199091209157L6.075931183667951,207.85193245100524C12.151862367335902,209.48395578109475,24.303724734671803,212.7480024412738,36.47223348881227,216.01204910145285C48.64074224295275,219.27609576163186,60.8258973838978,222.54014242181094,72.99440613803826,222.54014242181094C85.16291489217873,222.54014242181094,97.31477725951464,219.27609576163186,109.46663962685055,217.64407243154236C121.61850199418643,216.01204910145285,133.77036436152233,216.01204910145285,145.92222672885825,217.64407243154236C158.07408909619414,219.27609576163186,170.22595146353004,222.54014242181094,182.3944602176705,225.80418908198996C194.56296897181096,229.068235742169,206.74812411275602,232.33228240234806,218.91663286689652,237.55475705863455C231.08514162103697,242.777231714921,243.23700398837286,249.95813436731495,255.3888663557088,251.91656236342234C267.54072872304465,253.8749903595298,279.6925910903806,250.61094369935074,291.8444534577165,248.33571117446124C303.99631582505236,246.0604786495717,316.1481781923883,244.77406025997172,328.31668694652876,244.0370965334432C340.48519570066924,243.30013280691466,352.67035084161427,243.11262374345756,364.83885959575474,247.08128404149238C377.0073683498952,251.04994433952723,389.1592307172311,259.174773999054,401.31109308456706,260.4627491676652C413.46295545190287,261.7507243362764,425.61481781923885,256.201845013972,437.76668018657466,251.09594345269193C449.91854255391064,245.99004189141183,462.0704049212465,241.32711809115608,474.23891367538704,240.0627483683944C486.40742242952746,238.79837864563274,498.59257757047254,240.9325630003652,510.76108632461296,245.70776399981855C522.9295950787536,250.4829649992719,535.0814574460893,257.8991826434462,547.2333198134253,268.76139970504516C559.3851821807611,279.6236167666441,571.5370445480971,293.9318332456678,583.688906915433,302.2637510932804C595.8407692827689,310.59566894089295,607.9926316501047,312.9512881570945,620.1611404042452,301.75836092311664C632.3296491583857,290.56543368913884,644.5148042993308,265.82396000498164,656.6833130534712,247.19713373089323C668.8518218076118,228.57030745680478,681.0036841749476,216.0581285927851,693.1555465422836,214.47514258341187C705.3074089096194,212.89215657403864,717.4592712769553,222.23836341931187,729.6111336442913,233.14375593372787C741.762996011627,244.04914844814388,753.914858378963,256.5137266317026,766.0833671331035,261.6653516265308C778.251875887244,266.816976621359,790.4370310281889,264.65564842745664,802.6055397823294,259.104659556782C814.7740485364699,253.55367068610732,826.9259109038059,244.61302113866034,839.0777732711418,235.86679524010233C851.2296356384777,227.1205693415443,863.3814980058136,218.56876709187523,875.5333603731495,214.2291772517201C887.6852227404853,209.88958741156497,899.8370851078213,209.7622099809238,912.0055938619618,209.8356913246353C924.1741026161022,209.90917266834683,936.3592577570472,210.18351278641094,948.5277665111877,212.29166486716653C960.6962752653282,214.3998169479221,972.8481376326641,218.3417809913691,978.9240688163321,220.31276301309256L985,222.2837450348161L985,222.2837450348161L978.9240688163321,220.31276301309256C972.8481376326641,218.3417809913691,960.6962752653282,214.3998169479221,948.5277665111877,212.29166486716653C936.3592577570472,210.18351278641094,924.1741026161022,209.90917266834683,912.0055938619618,209.8356913246353C899.8370851078213,209.7622099809238,887.6852227404853,209.88958741156497,875.5333603731495,214.2291772517201C863.3814980058136,218.56876709187523,851.2296356384777,227.1205693415443,839.0777732711417,242.39488856046043C826.9259109038059,257.66920777937656,814.7740485364699,279.6660439675397,802.6055397823294,291.7451261585725C790.4370310281889,303.8242083496052,778.251875887244,305.9855365435075,766.0833671331035,304.0979582088584C753.914858378963,302.21037987420925,741.762996011627,296.2738950110086,729.6111336442913,285.3685024965926C717.4592712769553,274.46310998217666,705.3074089096194,258.58880981654534,693.1555465422836,253.64370250556044C681.0036841749476,248.69859519457557,668.8518218076118,254.68268073823717,656.6833130534712,266.78141369196743C644.5148042993308,278.88014664569783,632.3296491583857,297.0935270094969,620.1611404042452,305.02240758329566C607.9926316501047,312.9512881570945,595.8407692827689,310.59566894089295,583.688906915433,302.2637510932804C571.5370445480971,293.9318332456678,559.3851821807611,279.6236167666441,547.2333198134253,268.76139970504516C535.0814574460893,257.8991826434462,522.9295950787536,250.4829649992719,510.76108632461296,245.70776399981855C498.59257757047254,240.9325630003652,486.40742242952746,238.79837864563274,474.23891367538704,240.0627483683944C462.0704049212465,241.32711809115608,449.91854255391064,245.99004189141183,437.76668018657466,251.09594345269193C425.61481781923885,256.201845013972,413.46295545190287,261.7507243362764,401.31109308456706,260.4627491676652C389.1592307172311,259.174773999054,377.0073683498952,251.04994433952723,364.8388595957547,247.0812840414924C352.67035084161427,243.11262374345756,340.48519570066924,243.30013280691466,328.31668694652876,244.0370965334432C316.1481781923883,244.77406025997172,303.99631582505236,246.0604786495717,291.8444534577165,248.33571117446124C279.6925910903806,250.61094369935074,267.54072872304465,253.8749903595298,255.3888663557088,251.91656236342234C243.23700398837286,249.95813436731495,231.08514162103697,242.777231714921,218.91663286689652,237.55475705863455C206.74812411275602,232.33228240234806,194.56296897181096,229.068235742169,182.3944602176705,225.80418908199C170.22595146353004,222.54014242181094,158.07408909619414,219.27609576163186,145.92222672885825,217.64407243154236C133.77036436152233,216.01204910145285,121.61850199418643,216.01204910145285,109.46663962685055,217.64407243154236C97.31477725951464,219.27609576163186,85.16291489217873,222.54014242181094,72.99440613803826,222.54014242181094C60.8258973838978,222.54014242181094,48.64074224295275,219.27609576163186,36.47223348881227,216.01204910145282C24.303724734671803,212.7480024412738,12.151862367335902,209.48395578109475,6.075931183667951,207.85193245100524L0,206.2199091209157Z"><title>Ruby</title></path><path fill="#ffbb78" d="M0,206.2199091209157L6.075931183667951,207.85193245100524C12.151862367335902,209.48395578109475,24.303724734671803,212.7480024412738,36.47223348881227,216.01204910145285C48.64074224295275,219.27609576163186,60.8258973838978,222.54014242181094,72.99440613803826,222.54014242181094C85.16291489217873,222.54014242181094,97.31477725951464,219.27609576163186,109.46663962685055,217.64407243154236C121.61850199418643,216.01204910145285,133.77036436152233,216.01204910145285,145.92222672885825,217.64407243154236C158.07408909619414,219.27609576163186,170.22595146353004,222.54014242181094,182.3944602176705,225.80418908198996C194.56296897181096,229.068235742169,206.74812411275602,232.33228240234806,218.91663286689652,237.55475705863455C231.08514162103697,242.777231714921,243.23700398837286,249.95813436731495,255.3888663557088,251.91656236342234C267.54072872304465,253.8749903595298,279.6925910903806,250.61094369935074,291.8444534577165,248.33571117446124C303.99631582505236,246.0604786495717,316.1481781923883,244.77406025997172,328.31668694652876,244.0370965334432C340.48519570066924,243.30013280691466,352.67035084161427,243.11262374345756,364.83885959575474,247.08128404149238C377.0073683498952,251.04994433952723,389.1592307172311,259.174773999054,401.31109308456706,260.4627491676652C413.46295545190287,261.7507243362764,425.61481781923885,256.201845013972,437.76668018657466,251.09594345269193C449.91854255391064,245.99004189141183,462.0704049212465,241.32711809115608,474.23891367538704,240.0627483683944C486.40742242952746,238.79837864563274,498.59257757047254,240.9325630003652,510.76108632461296,245.70776399981855C522.9295950787536,250.4829649992719,535.0814574460893,257.8991826434462,547.2333198134253,268.76139970504516C559.3851821807611,279.6236167666441,571.5370445480971,293.9318332456678,583.688906915433,302.2637510932804C595.8407692827689,310.59566894089295,607.9926316501047,312.9512881570945,620.1611404042452,305.0224075832957C632.3296491583857,297.0935270094969,644.5148042993308,278.88014664569783,656.6833130534712,266.78141369196743C668.8518218076118,254.68268073823717,681.0036841749476,248.69859519457557,693.1555465422836,253.64370250556044C705.3074089096194,258.58880981654534,717.4592712769553,274.46310998217666,729.6111336442913,285.3685024965926C741.762996011627,296.2738950110086,753.914858378963,302.21037987420925,766.0833671331035,304.0979582088584C778.251875887244,305.9855365435075,790.4370310281889,303.8242083496052,802.6055397823294,291.7451261585725C814.7740485364699,279.6660439675397,826.9259109038059,257.66920777937656,839.0777732711418,242.39488856046043C851.2296356384777,227.1205693415443,863.3814980058136,218.56876709187523,875.5333603731495,214.2291772517201C887.6852227404853,209.88958741156497,899.8370851078213,209.7622099809238,912.0055938619618,209.8356913246353C924.1741026161022,209.90917266834683,936.3592577570472,210.18351278641094,948.5277665111877,212.29166486716653C960.6962752653282,214.3998169479221,972.8481376326641,218.3417809913691,978.9240688163321,220.31276301309256L985,222.2837450348161L985,222.2837450348161L978.9240688163321,220.31276301309256C972.8481376326641,218.3417809913691,960.6962752653282,214.3998169479221,948.5277665111877,212.29166486716653C936.3592577570472,210.18351278641094,924.1741026161022,209.90917266834683,912.0055938619618,209.8356913246353C899.8370851078213,209.7622099809238,887.6852227404853,209.88958741156497,875.5333603731495,214.2291772517201C863.3814980058136,218.56876709187523,851.2296356384777,227.1205693415443,839.0777732711417,245.65893522063948C826.9259109038059,264.19730109973466,814.7740485364699,292.72223060825587,802.6055397823294,306.4333361293781C790.4370310281889,320.1444416505005,778.251875887244,319.0417231842237,766.0833671331035,313.8900981893956C753.914858378963,308.73847319456735,741.762996011627,299.53794167118764,729.6111336442913,287.0005258266822C717.4592712769553,274.46310998217666,705.3074089096194,258.58880981654534,693.1555465422836,253.64370250556044C681.0036841749476,248.69859519457557,668.8518218076118,254.68268073823717,656.6833130534712,266.78141369196743C644.5148042993308,278.88014664569783,632.3296491583857,297.0935270094969,620.1611404042452,305.02240758329566C607.9926316501047,312.9512881570945,595.8407692827689,310.59566894089295,583.688906915433,302.2637510932804C571.5370445480971,293.9318332456678,559.3851821807611,279.6236167666441,547.2333198134253,268.76139970504516C535.0814574460893,257.8991826434462,522.9295950787536,250.4829649992719,510.76108632461296,245.70776399981855C498.59257757047254,240.9325630003652,486.40742242952746,238.79837864563274,474.23891367538704,240.0627483683944C462.0704049212465,241.32711809115608,449.91854255391064,245.99004189141183,437.76668018657466,251.09594345269193C425.61481781923885,256.201845013972,413.46295545190287,261.7507243362764,401.31109308456706,260.4627491676652C389.1592307172311,259.174773999054,377.0073683498952,251.04994433952723,364.8388595957547,247.0812840414924C352.67035084161427,243.11262374345756,340.48519570066924,243.30013280691466,328.31668694652876,244.0370965334432C316.1481781923883,244.77406025997172,303.99631582505236,246.0604786495717,291.8444534577165,248.33571117446124C279.6925910903806,250.61094369935074,267.54072872304465,253.8749903595298,255.3888663557088,251.91656236342234C243.23700398837286,249.95813436731495,231.08514162103697,242.777231714921,218.91663286689652,237.55475705863455C206.74812411275602,232.33228240234806,194.56296897181096,229.068235742169,182.3944602176705,225.80418908199C170.22595146353004,222.54014242181094,158.07408909619414,219.27609576163186,145.92222672885825,217.64407243154236C133.77036436152233,216.01204910145285,121.61850199418643,216.01204910145285,109.46663962685055,217.64407243154236C97.31477725951464,219.27609576163186,85.16291489217873,222.54014242181094,72.99440613803826,222.54014242181094C60.8258973838978,222.54014242181094,48.64074224295275,219.27609576163186,36.47223348881227,216.01204910145282C24.303724734671803,212.7480024412738,12.151862367335902,209.48395578109475,6.075931183667951,207.85193245100524L0,206.2199091209157Z"><title>C#</title></path><path fill="#c7c7c7" d="M0,206.2199091209157L6.075931183667951,207.85193245100524C12.151862367335902,209.48395578109475,24.303724734671803,212.7480024412738,36.47223348881227,216.01204910145285C48.64074224295275,219.27609576163186,60.8258973838978,222.54014242181094,72.99440613803826,222.54014242181094C85.16291489217873,222.54014242181094,97.31477725951464,219.27609576163186,109.46663962685055,217.64407243154236C121.61850199418643,216.01204910145285,133.77036436152233,216.01204910145285,145.92222672885825,217.64407243154236C158.07408909619414,219.27609576163186,170.22595146353004,222.54014242181094,182.3944602176705,225.80418908198996C194.56296897181096,229.068235742169,206.74812411275602,232.33228240234806,218.91663286689652,237.55475705863455C231.08514162103697,242.777231714921,243.23700398837286,249.95813436731495,255.3888663557088,251.91656236342234C267.54072872304465,253.8749903595298,279.6925910903806,250.61094369935074,291.8444534577165,248.33571117446124C303.99631582505236,246.0604786495717,316.1481781923883,244.77406025997172,328.31668694652876,244.0370965334432C340.48519570066924,243.30013280691466,352.67035084161427,243.11262374345756,364.83885959575474,247.08128404149238C377.0073683498952,251.04994433952723,389.1592307172311,259.174773999054,401.31109308456706,260.4627491676652C413.46295545190287,261.7507243362764,425.61481781923885,256.201845013972,437.76668018657466,251.09594345269193C449.91854255391064,245.99004189141183,462.0704049212465,241.32711809115608,474.23891367538704,240.0627483683944C486.40742242952746,238.79837864563274,498.59257757047254,240.9325630003652,510.76108632461296,245.70776399981855C522.9295950787536,250.4829649992719,535.0814574460893,257.8991826434462,547.2333198134253,268.76139970504516C559.3851821807611,279.6236167666441,571.5370445480971,293.9318332456678,583.688906915433,302.2637510932804C595.8407692827689,310.59566894089295,607.9926316501047,312.9512881570945,620.1611404042452,305.0224075832957C632.3296491583857,297.0935270094969,644.5148042993308,278.88014664569783,656.6833130534712,266.78141369196743C668.8518218076118,254.68268073823717,681.0036841749476,248.69859519457557,693.1555465422836,253.64370250556044C705.3074089096194,258.58880981654534,717.4592712769553,274.46310998217666,729.6111336442913,287.0005258266821C741.762996011627,299.53794167118764,753.914858378963,308.73847319456735,766.0833671331035,313.8900981893956C778.251875887244,319.0417231842237,790.4370310281889,320.1444416505005,802.6055397823294,306.4333361293782C814.7740485364699,292.72223060825587,826.9259109038059,264.19730109973466,839.0777732711418,245.65893522063948C851.2296356384777,227.1205693415443,863.3814980058136,218.56876709187523,875.5333603731495,214.2291772517201C887.6852227404853,209.88958741156497,899.8370851078213,209.7622099809238,912.0055938619618,209.8356913246353C924.1741026161022,209.90917266834683,936.3592577570472,210.18351278641094,948.5277665111877,212.29166486716653C960.6962752653282,214.3998169479221,972.8481376326641,218.3417809913691,978.9240688163321,220.31276301309256L985,222.2837450348161L985,261.45230495696467L978.9240688163321,259.48132293524117C972.8481376326641,257.51034091351767,960.6962752653282,253.56837687007067,948.5277665111877,254.72427144949415C936.3592577570472,255.8801660289176,924.1741026161022,262.13391923121156,912.0055938619618,265.3244845476791C899.8370851078213,268.5150498641467,887.6852227404853,268.64242729478786,875.5333603731495,269.7179704747639C863.3814980058136,270.79351365474,851.2296356384777,272.817222584051,839.0777732711417,288.09154180296713C826.9259109038059,303.3658610218833,814.7740485364699,331.8907905304045,802.6055397823294,339.07380273116866C790.4370310281889,346.25681493193287,778.251875887244,332.09790982493996,766.0833671331035,320.4181915097536C753.914858378963,308.73847319456735,741.762996011627,299.53794167118764,729.6111336442913,287.0005258266822C717.4592712769553,274.46310998217666,705.3074089096194,258.58880981654534,693.1555465422836,253.64370250556044C681.0036841749476,248.69859519457557,668.8518218076118,254.68268073823717,656.6833130534712,266.78141369196743C644.5148042993308,278.88014664569783,632.3296491583857,297.0935270094969,620.1611404042452,305.02240758329566C607.9926316501047,312.9512881570945,595.8407692827689,310.59566894089295,583.688906915433,302.2637510932804C571.5370445480971,293.9318332456678,559.3851821807611,279.6236167666441,547.2333198134253,268.76139970504516C535.0814574460893,257.8991826434462,522.9295950787536,250.4829649992719,510.76108632461296,245.70776399981855C498.59257757047254,240.9325630003652,486.40742242952746,238.79837864563274,474.23891367538704,240.0627483683944C462.0704049212465,241.32711809115608,449.91854255391064,245.99004189141183,437.76668018657466,251.09594345269193C425.61481781923885,256.201845013972,413.46295545190287,261.7507243362764,401.31109308456706,260.4627491676652C389.1592307172311,259.174773999054,377.0073683498952,251.04994433952723,364.8388595957547,247.0812840414924C352.67035084161427,243.11262374345756,340.48519570066924,243.30013280691466,328.31668694652876,244.0370965334432C316.1481781923883,244.77406025997172,303.99631582505236,246.0604786495717,291.8444534577165,248.33571117446124C279.6925910903806,250.61094369935074,267.54072872304465,253.8749903595298,255.3888663557088,251.91656236342234C243.23700398837286,249.95813436731495,231.08514162103697,242.777231714921,218.91663286689652,237.55475705863455C206.74812411275602,232.33228240234806,194.56296897181096,229.068235742169,182.3944602176705,225.80418908199C170.22595146353004,222.54014242181094,158.07408909619414,219.27609576163186,145.92222672885825,217.64407243154236C133.77036436152233,216.01204910145285,121.61850199418643,216.01204910145285,109.46663962685055,217.64407243154236C97.31477725951464,219.27609576163186,85.16291489217873,222.54014242181094,72.99440613803826,222.54014242181094C60.8258973838978,222.54014242181094,48.64074224295275,219.27609576163186,36.47223348881227,216.01204910145282C24.303724734671803,212.7480024412738,12.151862367335902,209.48395578109475,6.075931183667951,207.85193245100524L0,206.2199091209157Z"><title>ClojureScript</title></path><path fill="#d62728" d="M0,206.2199091209157L6.075931183667951,207.85193245100524C12.151862367335902,209.48395578109475,24.303724734671803,212.7480024412738,36.47223348881227,216.01204910145285C48.64074224295275,219.27609576163186,60.8258973838978,222.54014242181094,72.99440613803826,222.54014242181094C85.16291489217873,222.54014242181094,97.31477725951464,219.27609576163186,109.46663962685055,217.64407243154236C121.61850199418643,216.01204910145285,133.77036436152233,216.01204910145285,145.92222672885825,217.64407243154236C158.07408909619414,219.27609576163186,170.22595146353004,222.54014242181094,182.3944602176705,225.80418908198996C194.56296897181096,229.068235742169,206.74812411275602,232.33228240234806,218.91663286689652,237.55475705863455C231.08514162103697,242.777231714921,243.23700398837286,249.95813436731495,255.3888663557088,251.91656236342234C267.54072872304465,253.8749903595298,279.6925910903806,250.61094369935074,291.8444534577165,248.33571117446124C303.99631582505236,246.0604786495717,316.1481781923883,244.77406025997172,328.31668694652876,244.0370965334432C340.48519570066924,243.30013280691466,352.67035084161427,243.11262374345756,364.83885959575474,247.08128404149238C377.0073683498952,251.04994433952723,389.1592307172311,259.174773999054,401.31109308456706,260.4627491676652C413.46295545190287,261.7507243362764,425.61481781923885,256.201845013972,437.76668018657466,251.09594345269193C449.91854255391064,245.99004189141183,462.0704049212465,241.32711809115608,474.23891367538704,240.0627483683944C486.40742242952746,238.79837864563274,498.59257757047254,240.9325630003652,510.76108632461296,245.70776399981855C522.9295950787536,250.4829649992719,535.0814574460893,257.8991826434462,547.2333198134253,268.76139970504516C559.3851821807611,279.6236167666441,571.5370445480971,293.9318332456678,583.688906915433,302.2637510932804C595.8407692827689,310.59566894089295,607.9926316501047,312.9512881570945,620.1611404042452,305.0224075832957C632.3296491583857,297.0935270094969,644.5148042993308,278.88014664569783,656.6833130534712,266.78141369196743C668.8518218076118,254.68268073823717,681.0036841749476,248.69859519457557,693.1555465422836,253.64370250556044C705.3074089096194,258.58880981654534,717.4592712769553,274.46310998217666,729.6111336442913,287.0005258266821C741.762996011627,299.53794167118764,753.914858378963,308.73847319456735,766.0833671331035,320.4181915097536C778.251875887244,332.09790982493996,790.4370310281889,346.25681493193287,802.6055397823294,339.07380273116866C814.7740485364699,331.8907905304045,826.9259109038059,303.3658610218833,839.0777732711418,288.09154180296713C851.2296356384777,272.817222584051,863.3814980058136,270.79351365474,875.5333603731495,269.7179704747639C887.6852227404853,268.64242729478786,899.8370851078213,268.5150498641467,912.0055938619618,265.3244845476791C924.1741026161022,262.13391923121156,936.3592577570472,255.8801660289176,948.5277665111877,254.72427144949415C960.6962752653282,253.56837687007067,972.8481376326641,257.51034091351767,978.9240688163321,259.48132293524117L985,261.45230495696467L985,320.20514484018753L978.9240688163321,318.23416281846403C972.8481376326641,316.2631807967405,960.6962752653282,312.3212167532935,948.5277665111877,313.47711133271696C936.3592577570472,314.63300591214045,924.1741026161022,320.8867591144344,912.0055938619618,320.81327777072295C899.8370851078213,320.73979642701147,887.6852227404853,314.3390805372945,875.5333603731495,308.8865303969125C863.3814980058136,303.43398025653045,851.2296356384777,298.92959586548335,839.0777732711417,307.67582176404136C826.9259109038059,316.4220476625994,814.7740485364699,338.41888385076254,802.6055397823294,342.3378493913477C790.4370310281889,346.25681493193287,778.251875887244,332.09790982493996,766.0833671331035,320.4181915097536C753.914858378963,308.73847319456735,741.762996011627,299.53794167118764,729.6111336442913,287.0005258266822C717.4592712769553,274.46310998217666,705.3074089096194,258.58880981654534,693.1555465422836,253.64370250556044C681.0036841749476,248.69859519457557,668.8518218076118,254.68268073823717,656.6833130534712,266.78141369196743C644.5148042993308,278.88014664569783,632.3296491583857,297.0935270094969,620.1611404042452,305.02240758329566C607.9926316501047,312.9512881570945,595.8407692827689,310.59566894089295,583.688906915433,302.2637510932804C571.5370445480971,293.9318332456678,559.3851821807611,279.6236167666441,547.2333198134253,268.76139970504516C535.0814574460893,257.8991826434462,522.9295950787536,250.4829649992719,510.76108632461296,245.70776399981855C498.59257757047254,240.9325630003652,486.40742242952746,238.79837864563274,474.23891367538704,240.0627483683944C462.0704049212465,241.32711809115608,449.91854255391064,245.99004189141183,437.76668018657466,251.09594345269193C425.61481781923885,256.201845013972,413.46295545190287,261.7507243362764,401.31109308456706,260.4627491676652C389.1592307172311,259.174773999054,377.0073683498952,251.04994433952723,364.8388595957547,247.0812840414924C352.67035084161427,243.11262374345756,340.48519570066924,243.30013280691466,328.31668694652876,244.0370965334432C316.1481781923883,244.77406025997172,303.99631582505236,246.0604786495717,291.8444534577165,248.33571117446124C279.6925910903806,250.61094369935074,267.54072872304465,253.8749903595298,255.3888663557088,251.91656236342234C243.23700398837286,249.95813436731495,231.08514162103697,242.777231714921,218.91663286689652,237.55475705863455C206.74812411275602,232.33228240234806,194.56296897181096,229.068235742169,182.3944602176705,225.80418908199C170.22595146353004,222.54014242181094,158.07408909619414,219.27609576163186,145.92222672885825,217.64407243154236C133.77036436152233,216.01204910145285,121.61850199418643,216.01204910145285,109.46663962685055,217.64407243154236C97.31477725951464,219.27609576163186,85.16291489217873,222.54014242181094,72.99440613803826,222.54014242181094C60.8258973838978,222.54014242181094,48.64074224295275,219.27609576163186,36.47223348881227,216.01204910145282C24.303724734671803,212.7480024412738,12.151862367335902,209.48395578109475,6.075931183667951,207.85193245100524L0,206.2199091209157Z"><title>Scala</title></path></g><g transform="translate(0,380)" fill="none" font-size="10" font-family="sans-serif" text-anchor="middle"><g class="tick" opacity="1" transform="translate(36.955587102007705,0)"><line stroke="currentColor" y2="6"></line><text fill="currentColor" y="9" dy="0.71em">1996</text></g><g class="tick" opacity="1" transform="translate(109.96663962685054,0)"><line stroke="currentColor" y2="6"></line><text fill="currentColor" y="9" dy="0.71em">1998</text></g><g class="tick" opacity="1" transform="translate(182.87781383086593,0)"><line stroke="currentColor" y2="6"></line><text fill="currentColor" y="9" dy="0.71em">2000</text></g><g class="tick" opacity="1" transform="translate(255.88886635570879,0)"><line stroke="currentColor" y2="6"></line><text fill="currentColor" y="9" dy="0.71em">2002</text></g><g class="tick" opacity="1" transform="translate(328.8000405597242,0)"><line stroke="currentColor" y2="6"></line><text fill="currentColor" y="9" dy="0.71em">2004</text></g><g class="tick" opacity="1" transform="translate(401.811093084567,0)"><line stroke="currentColor" y2="6"></line><text fill="currentColor" y="9" dy="0.71em">2006</text></g><g class="tick" opacity="1" transform="translate(474.72226728858243,0)"><line stroke="currentColor" y2="6"></line><text fill="currentColor" y="9" dy="0.71em">2008</text></g><g class="tick" opacity="1" transform="translate(547.7333198134253,0)"><line stroke="currentColor" y2="6"></line><text fill="currentColor" y="9" dy="0.71em">2010</text></g><g class="tick" opacity="1" transform="translate(620.6444940174406,0)"><line stroke="currentColor" y2="6"></line><text fill="currentColor" y="9" dy="0.71em">2012</text></g><g class="tick" opacity="1" transform="translate(693.6555465422836,0)"><line stroke="currentColor" y2="6"></line><text fill="currentColor" y="9" dy="0.71em">2014</text></g><g class="tick" opacity="1" transform="translate(766.566720746299,0)"><line stroke="currentColor" y2="6"></line><text fill="currentColor" y="9" dy="0.71em">2016</text></g><g class="tick" opacity="1" transform="translate(839.5777732711418,0)"><line stroke="currentColor" y2="6"></line><text fill="currentColor" y="9" dy="0.71em">2018</text></g><g class="tick" opacity="1" transform="translate(912.4889474751571,0)"><line stroke="currentColor" y2="6"></line><text fill="currentColor" y="9" dy="0.71em">2020</text></g><g class="tick" opacity="1" transform="translate(985.5,0)"><line stroke="currentColor" y2="6"></line><text fill="currentColor" y="9" dy="0.71em">2022</text></g></g><g transform="translate(0,0) rotate(270)"><text x="-170" y="10" font-family="sans-serif" font-size="10">proportion of time spent with language</text></g><text class="area-label" font-family="sans-serif" fill="white" transform="translate(40.68210262828536,213.14874129360354) scale(1.260482059876494)" style="filter: url(&quot;#drop-shadow&quot;);">QBasic</text><text class="area-label" font-family="sans-serif" fill="white" transform="translate(106.02002503128912,192.4148539340532) scale(1.0289632510114395)" style="filter: url(&quot;#drop-shadow&quot;);">Visual Basic</text><text class="area-label" font-family="sans-serif" fill="white" transform="translate(547.3591989987484,259.050980921326) scale(2.0980440371552893)" style="filter: url(&quot;#drop-shadow&quot;);">C/C++</text><text class="area-label" font-family="sans-serif" fill="white" transform="translate(390.79474342928665,179.5797153565521) scale(3.018474331385073)" style="filter: url(&quot;#drop-shadow&quot;);">Java</text><text class="area-label" font-family="sans-serif" fill="white" transform="translate(352.5782227784731,224.32533280275032) scale(1.9019725803415903)" style="filter: url(&quot;#drop-shadow&quot;);">PHP</text><text class="area-label" font-family="sans-serif" fill="white" transform="translate(895.0062578222778,343.7361821002959) scale(1.1955369764700459)" style="filter: url(&quot;#drop-shadow&quot;);">JavaScript</text><text class="area-label" font-family="sans-serif" fill="white" transform="translate(538.729662077597,141.33266456174925) scale(1.5154899883885151)" style="filter: url(&quot;#drop-shadow&quot;);">MATLAB</text><text class="area-label" font-family="sans-serif" fill="white" transform="translate(531.3329161451816,200.75816533438564) scale(1.5444732519151065)" style="filter: url(&quot;#drop-shadow&quot;);">Scheme</text><text class="area-label" font-family="sans-serif" fill="white" transform="translate(856.7897371714644,121.78494594468374) scale(2.567452416215617)" style="filter: url(&quot;#drop-shadow&quot;);">Python</text><text class="area-label" font-family="sans-serif" fill="white" transform="translate(718.7171464330413,190.02090572631354) scale(3.415253207058545)" style="filter: url(&quot;#drop-shadow&quot;);">Clojure</text><text class="area-label" font-family="sans-serif" fill="white" transform="translate(743.3729662077598,291.942147361939) scale(1.6495140533162544)" style="filter: url(&quot;#drop-shadow&quot;);">Ruby</text><text class="area-label" font-family="sans-serif" fill="white" transform="translate(784.055068836045,316.98685462863153) scale(0.8593323507248849)" style="filter: url(&quot;#drop-shadow&quot;);">C#</text><text class="area-label" font-family="sans-serif" fill="white" transform="translate(854.3241551939924,244.7954184136985) scale(1.4180427968991567)" style="filter: url(&quot;#drop-shadow&quot;);">ClojureScript</text><text class="area-label" font-family="sans-serif" fill="white" transform="translate(890.0750938673342,301.5464714140222) scale(2.352078218920259)" style="filter: url(&quot;#drop-shadow&quot;);">Scala</text><defs><filter id="drop-shadow"><feGaussianBlur in="SourceAlpha" stdDeviation="1" result="blur"></feGaussianBlur><feOffset in="blur" dx="1" dy="1"></feOffset><feComponentTransfer result="offsetBlur"><feFuncA type="linear" slope="0.4"></feFuncA></feComponentTransfer><feMerge><feMergeNode in="offsetBlur"></feMergeNode><feMergeNode in="SourceGraphic"></feMergeNode></feMerge></filter></defs></svg>
