<svg xmlns="http://www.w3.org/2000/svg" width="1000" height="250" viewBox="0,0,1000,250" style="max-width: 100%; height: auto; height: intrinsic;" id="chartSmall"><g><path fill="#7f7f7f" d="M-587.3648429912594,125.01514043854748L-577.6657764109204,124.08046510336311C-567.9667098305816,123.14578976817876,-548.568576669904,121.27643909781004,-529.1438707240746,120.34176376262569C-509.7191647782454,119.40708842744134,-490.2678860472645,119.40708842744134,-470.84318010143517,119.87442609503348C-451.4184741556059,120.34176376262569,-432.0203409949283,121.27643909781004,-412.62220783425056,123.61312743577092C-393.2240746735729,125.94981577373181,-373.8259415128952,129.68851711446925,-354.4278083522175,130.6231924496536C-335.02967519153987,131.55786778483795,-315.6315420308622,129.68851711446925,-296.2068360850329,127.81916644410052C-276.7821301392036,125.94981577373181,-257.3308514082227,124.0804651033631,-237.90614546239343,123.33272483521561C-218.48143951656414,122.58498456706813,-199.0833063558865,122.95885470114187,-179.6851731952088,124.0804651033631C-160.28704003453112,125.20207550558432,-140.88890687385344,127.07142617595304,-121.49077371317577,127.6377294672706C-102.09264055249811,128.2040327585882,-82.69450739182044,127.46728867085466,-63.269801445991156,126.11054717680359C-43.84509550016187,124.7538056827525,-24.39381676918097,122.77706678238387,-4.96911082335168,121.31125506638917C14.455595122477606,119.84544335039448,33.85372828315528,118.8905588187737,53.25186144383295,120.56286982388734C72.64999460451062,122.23518082900097,92.04812776518831,126.534687370849,111.44626092586596,129.21854083330695C130.84439408654364,131.90239429576488,150.24252724722132,132.97059467883273,169.6672331930506,131.3118027378187C189.0919391388799,129.65301079680472,208.5432178698608,125.26722653170889,227.9679238156901,119.95947450306987C247.3926297615194,114.65172247443081,266.7907629221971,108.42200268224859,286.18889608287475,102.44313015461493C305.5870292435524,96.4642576269813,324.98516240423004,90.73623236389626,344.3832955649077,88.6706351692763C363.7814287255854,86.60503797465633,383.1795618862631,88.2018688485014,402.6042678320924,93.43812277687927C422.0289737779217,98.67437670525713,441.4802525089026,107.55005368816778,460.9049584547319,113.90916925750207C480.3296644005611,120.26828482683635,499.7277975612388,124.11083898259426,519.1259307219165,128.98490025317534C538.5240638825941,133.85896152375645,557.9221970432718,139.7645299091607,577.3203302039495,145.0014269522196C596.7184633646272,150.23832399527848,616.1165965253048,154.806549695992,635.5413024711341,156.69910936539318C654.9660084169634,158.59166903479434,674.4172871479443,157.80856267288314,693.8419930937736,152.66235669990274C713.2666990396028,147.51615072692238,732.6648322002806,138.00684514287283,752.0629653609584,128.9383061884587C771.4610985216359,119.86976723404462,790.8592316823136,111.24199490926594,810.2573648429913,108.1973821432278C829.655498003669,105.15276937718966,849.0536311643465,107.69131616989205,868.4783371101759,111.94002724428981C887.9030430560051,116.18873831868757,907.3543217869861,122.14761367478071,926.7790277328154,127.30711841840593C946.2037336786447,132.46662316203117,965.6018668393223,136.82675729318848,975.3009334196612,139.0068243587671L985,141.18689142434576L985,141.18689142434576L975.3009334196612,139.0068243587671C965.6018668393223,136.82675729318848,946.2037336786447,132.46662316203117,926.7790277328153,127.30711841840593C907.3543217869861,122.14761367478071,887.9030430560051,116.18873831868757,868.4783371101759,111.94002724428981C849.0536311643465,107.69131616989205,829.655498003669,105.15276937718966,810.2573648429913,108.1973821432278C790.8592316823136,111.24199490926594,771.4610985216359,119.86976723404462,752.0629653609582,128.9383061884587C732.6648322002806,138.00684514287283,713.2666990396028,147.51615072692238,693.8419930937736,152.66235669990274C674.4172871479443,157.80856267288314,654.9660084169634,158.59166903479434,635.5413024711341,156.69910936539318C616.1165965253048,154.806549695992,596.7184633646272,150.23832399527848,577.3203302039494,145.0014269522196C557.9221970432718,139.7645299091607,538.5240638825941,133.85896152375645,519.1259307219165,128.98490025317537C499.7277975612388,124.11083898259426,480.3296644005611,120.26828482683635,460.9049584547318,113.90916925750206C441.4802525089026,107.55005368816778,422.0289737779217,98.67437670525713,402.6042678320924,93.43812277687927C383.1795618862631,88.2018688485014,363.7814287255854,86.60503797465633,344.3832955649077,88.6706351692763C324.98516240423004,90.73623236389626,305.5870292435524,96.4642576269813,286.18889608287475,102.44313015461493C266.7907629221971,108.42200268224859,247.3926297615194,114.65172247443081,227.9679238156901,119.95947450306987C208.5432178698608,125.26722653170889,189.0919391388799,129.65301079680472,169.6672331930506,131.3118027378187C150.24252724722132,132.97059467883273,130.84439408654364,131.90239429576488,111.44626092586596,129.21854083330695C92.04812776518831,126.534687370849,72.64999460451062,122.23518082900097,53.25186144383296,120.56286982388734C33.85372828315528,118.8905588187737,14.455595122477606,119.84544335039448,-4.969110823351681,121.31125506638917C-24.39381676918097,122.77706678238387,-43.84509550016187,124.7538056827525,-63.269801445991156,126.11054717680356C-82.69450739182044,127.46728867085466,-102.09264055249811,128.2040327585882,-121.49077371317578,127.63772946727062C-140.88890687385344,127.07142617595304,-160.28704003453112,125.20207550558432,-179.6851731952088,124.0804651033631C-199.0833063558865,122.95885470114187,-218.48143951656414,122.58498456706813,-237.90614546239343,123.33272483521561C-257.3308514082227,124.0804651033631,-276.7821301392036,125.94981577373181,-296.2068360850329,127.81916644410053C-315.6315420308622,129.68851711446925,-335.02967519153987,131.55786778483795,-354.4278083522176,132.49254312002233C-373.8259415128952,133.42721845520668,-393.2240746735729,133.42721845520668,-412.62220783425056,132.9598807876145C-432.0203409949283,132.49254312002233,-451.4184741556059,131.55786778483795,-470.84318010143517,131.09053011724578C-490.2678860472645,130.6231924496536,-509.7191647782454,130.6231924496536,-529.1438707240746,129.68851711446925C-548.568576669904,128.7538417792849,-567.9667098305816,126.88449110891618,-577.6657764109204,125.94981577373183L-587.3648429912594,125.01514043854748Z"><title>QBasic</title></path><path fill="#c49c94" d="M-587.3648429912594,125.01514043854748L-577.6657764109204,124.08046510336311C-567.9667098305816,123.14578976817876,-548.568576669904,121.27643909781004,-529.1438707240746,120.34176376262569C-509.7191647782454,119.40708842744134,-490.2678860472645,119.40708842744134,-470.84318010143517,118.00507542466478C-451.4184741556059,116.60306242188825,-432.0203409949283,113.79903641633518,-412.62220783425056,110.52767274318994C-393.2240746735729,107.25630907004468,-373.8259415128952,103.51760772930726,-354.4278083522175,102.5829323941229C-335.02967519153987,101.64825705893854,-315.6315420308622,103.51760772930726,-296.2068360850329,107.25630907004467C-276.7821301392036,110.99501041078209,-257.3308514082227,116.60306242188824,-237.90614546239343,119.59402349447818C-218.48143951656414,122.58498456706813,-199.0833063558865,122.95885470114187,-179.6851731952088,124.0804651033631C-160.28704003453112,125.20207550558432,-140.88890687385344,127.07142617595304,-121.49077371317577,127.6377294672706C-102.09264055249811,128.2040327585882,-82.69450739182044,127.46728867085466,-63.269801445991156,126.11054717680359C-43.84509550016187,124.7538056827525,-24.39381676918097,122.77706678238387,-4.96911082335168,121.31125506638917C14.455595122477606,119.84544335039448,33.85372828315528,118.8905588187737,53.25186144383295,118.69351915351861C72.64999460451062,118.49647948826355,92.04812776518831,119.05728468937416,111.44626092586596,120.80646281664774C130.84439408654364,122.55564094392132,150.24252724722132,125.49319199735787,169.6672331930506,125.70375072671258C189.0919391388799,125.91430945606731,208.5432178698608,123.39787586134018,227.9679238156901,119.02479916788552C247.3926297615194,114.65172247443081,266.7907629221971,108.42200268224859,286.18889608287475,102.44313015461493C305.5870292435524,96.4642576269813,324.98516240423004,90.73623236389626,344.3832955649077,88.6706351692763C363.7814287255854,86.60503797465633,383.1795618862631,88.2018688485014,402.6042678320924,93.43812277687927C422.0289737779217,98.67437670525713,441.4802525089026,107.55005368816778,460.9049584547319,113.90916925750207C480.3296644005611,120.26828482683635,499.7277975612388,124.11083898259426,519.1259307219165,128.98490025317534C538.5240638825941,133.85896152375645,557.9221970432718,139.7645299091607,577.3203302039495,145.0014269522196C596.7184633646272,150.23832399527848,616.1165965253048,154.806549695992,635.5413024711341,156.69910936539318C654.9660084169634,158.59166903479434,674.4172871479443,157.80856267288314,693.8419930937736,152.66235669990274C713.2666990396028,147.51615072692238,732.6648322002806,138.00684514287283,752.0629653609584,128.9383061884587C771.4610985216359,119.86976723404462,790.8592316823136,111.24199490926594,810.2573648429913,108.1973821432278C829.655498003669,105.15276937718966,849.0536311643465,107.69131616989205,868.4783371101759,111.94002724428981C887.9030430560051,116.18873831868757,907.3543217869861,122.14761367478071,926.7790277328154,127.30711841840593C946.2037336786447,132.46662316203117,965.6018668393223,136.82675729318848,975.3009334196612,139.0068243587671L985,141.18689142434576L985,141.18689142434576L975.3009334196612,139.0068243587671C965.6018668393223,136.82675729318848,946.2037336786447,132.46662316203117,926.7790277328153,127.30711841840593C907.3543217869861,122.14761367478071,887.9030430560051,116.18873831868757,868.4783371101759,111.94002724428981C849.0536311643465,107.69131616989205,829.655498003669,105.15276937718966,810.2573648429913,108.1973821432278C790.8592316823136,111.24199490926594,771.4610985216359,119.86976723404462,752.0629653609582,128.9383061884587C732.6648322002806,138.00684514287283,713.2666990396028,147.51615072692238,693.8419930937736,152.66235669990274C674.4172871479443,157.80856267288314,654.9660084169634,158.59166903479434,635.5413024711341,156.69910936539318C616.1165965253048,154.806549695992,596.7184633646272,150.23832399527848,577.3203302039494,145.0014269522196C557.9221970432718,139.7645299091607,538.5240638825941,133.85896152375645,519.1259307219165,128.98490025317537C499.7277975612388,124.11083898259426,480.3296644005611,120.26828482683635,460.9049584547318,113.90916925750206C441.4802525089026,107.55005368816778,422.0289737779217,98.67437670525713,402.6042678320924,93.43812277687927C383.1795618862631,88.2018688485014,363.7814287255854,86.60503797465633,344.3832955649077,88.6706351692763C324.98516240423004,90.73623236389626,305.5870292435524,96.4642576269813,286.18889608287475,102.44313015461493C266.7907629221971,108.42200268224859,247.3926297615194,114.65172247443081,227.9679238156901,119.95947450306987C208.5432178698608,125.26722653170889,189.0919391388799,129.65301079680472,169.6672331930506,131.3118027378187C150.24252724722132,132.97059467883273,130.84439408654364,131.90239429576488,111.44626092586596,129.21854083330695C92.04812776518831,126.534687370849,72.64999460451062,122.23518082900097,53.25186144383296,120.56286982388734C33.85372828315528,118.8905588187737,14.455595122477606,119.84544335039448,-4.969110823351681,121.31125506638917C-24.39381676918097,122.77706678238387,-43.84509550016187,124.7538056827525,-63.269801445991156,126.11054717680356C-82.69450739182044,127.46728867085466,-102.09264055249811,128.2040327585882,-121.49077371317578,127.63772946727062C-140.88890687385344,127.07142617595304,-160.28704003453112,125.20207550558432,-179.6851731952088,124.0804651033631C-199.0833063558865,122.95885470114187,-218.48143951656414,122.58498456706813,-237.90614546239343,123.33272483521561C-257.3308514082227,124.0804651033631,-276.7821301392036,125.94981577373181,-296.2068360850329,127.81916644410053C-315.6315420308622,129.68851711446925,-335.02967519153987,131.55786778483795,-354.4278083522176,130.6231924496536C-373.8259415128952,129.68851711446925,-393.2240746735729,125.94981577373181,-412.62220783425056,123.61312743577092C-432.0203409949283,121.27643909781004,-451.4184741556059,120.34176376262569,-470.84318010143517,119.87442609503348C-490.2678860472645,119.40708842744134,-509.7191647782454,119.40708842744134,-529.1438707240746,120.34176376262569C-548.568576669904,121.27643909781004,-567.9667098305816,123.14578976817876,-577.6657764109204,124.08046510336312L-587.3648429912594,125.01514043854748Z"><title>Visual Basic</title></path><path fill="#ff7f0e" d="M-587.3648429912594,125.01514043854748L-577.6657764109204,125.94981577373183C-567.9667098305816,126.88449110891618,-548.568576669904,128.7538417792849,-529.1438707240746,129.68851711446925C-509.7191647782454,130.6231924496536,-490.2678860472645,130.6231924496536,-470.84318010143517,131.09053011724578C-451.4184741556059,131.55786778483795,-432.0203409949283,132.49254312002233,-412.62220783425056,132.9598807876145C-393.2240746735729,133.42721845520668,-373.8259415128952,133.42721845520668,-354.4278083522175,132.49254312002233C-335.02967519153987,131.55786778483795,-315.6315420308622,129.68851711446925,-296.2068360850329,127.81916644410052C-276.7821301392036,125.94981577373181,-257.3308514082227,124.0804651033631,-237.90614546239343,123.33272483521561C-218.48143951656414,122.58498456706813,-199.0833063558865,122.95885470114187,-179.6851731952088,124.0804651033631C-160.28704003453112,125.20207550558432,-140.88890687385344,127.07142617595304,-121.49077371317577,129.50708013763932C-102.09264055249811,131.94273409932563,-82.69450739182044,134.9446913523295,-63.269801445991156,137.32665119901583C-43.84509550016187,139.70861104570216,-24.39381676918097,141.47057348607098,-4.96911082335168,143.74346311081374C14.455595122477606,146.01635273555644,33.85372828315528,148.80016954467308,53.25186144383295,148.60312987941802C72.64999460451062,148.40609021416296,92.04812776518831,145.2281940745361,111.44626092586596,142.30399552588793C130.84439408654364,139.37979697723972,150.24252724722132,136.70929601957013,169.6672331930506,134.1158287433718C189.0919391388799,131.52236146717345,208.5432178698608,129.00592787244634,227.9679238156901,127.43687718454471C247.3926297615194,125.8678264966431,266.7907629221971,125.246158715567,286.18889608287475,125.81001353422387C305.5870292435524,126.37386835288072,324.98516240423004,128.12324577127055,344.3832955649077,126.05764857665058C363.7814287255854,123.9920513820306,383.1795618862631,118.11147957440083,402.6042678320924,116.80500615648818C422.0289737779217,115.49853273857555,441.4802525089026,118.76615771038007,460.9049584547319,121.38657193897694C480.3296644005611,124.00698616757377,499.7277975612388,125.98018965296298,519.1259307219165,129.91957558835972C538.5240638825941,133.85896152375645,557.9221970432718,139.7645299091607,577.3203302039495,145.0014269522196C596.7184633646272,150.23832399527848,616.1165965253048,154.806549695992,635.5413024711341,156.69910936539318C654.9660084169634,158.59166903479434,674.4172871479443,157.80856267288314,693.8419930937736,152.66235669990274C713.2666990396028,147.51615072692238,732.6648322002806,138.00684514287283,752.0629653609584,128.9383061884587C771.4610985216359,119.86976723404462,790.8592316823136,111.24199490926594,810.2573648429913,108.1973821432278C829.655498003669,105.15276937718966,849.0536311643465,107.69131616989205,868.4783371101759,111.94002724428981C887.9030430560051,116.18873831868757,907.3543217869861,122.14761367478071,926.7790277328154,127.30711841840593C946.2037336786447,132.46662316203117,965.6018668393223,136.82675729318848,975.3009334196612,139.0068243587671L985,141.18689142434576L985,141.18689142434576L975.3009334196612,139.0068243587671C965.6018668393223,136.82675729318848,946.2037336786447,132.46662316203117,926.7790277328153,127.30711841840593C907.3543217869861,122.14761367478071,887.9030430560051,116.18873831868757,868.4783371101759,111.94002724428981C849.0536311643465,107.69131616989205,829.655498003669,105.15276937718966,810.2573648429913,108.1973821432278C790.8592316823136,111.24199490926594,771.4610985216359,119.86976723404462,752.0629653609582,128.9383061884587C732.6648322002806,138.00684514287283,713.2666990396028,147.51615072692238,693.8419930937736,152.66235669990274C674.4172871479443,157.80856267288314,654.9660084169634,158.59166903479434,635.5413024711341,156.69910936539318C616.1165965253048,154.806549695992,596.7184633646272,150.23832399527848,577.3203302039494,145.93610228740394C557.9221970432718,141.6338805795294,538.5240638825941,137.59766286449386,519.1259307219165,137.39697826983453C499.7277975612388,137.19629367517527,480.3296644005611,140.83114220089217,460.9049584547318,146.62280598895455C441.4802525089026,152.41446977701693,422.0289737779217,160.3629488274247,402.6042678320924,165.40812358607477C383.1795618862631,170.4532983447248,363.7814287255854,172.59516881161719,344.3832955649077,170.92206466549973C324.98516240423004,169.24896051938225,305.5870292435524,163.760881760255,286.18889608287475,159.45832560086072C266.7907629221971,155.15576944146642,247.3926297615194,152.03873588180508,227.9679238156901,149.86908522896928C208.5432178698608,147.69943457613348,189.0919391388799,146.47716683012314,169.6672331930506,147.2012834359528C150.24252724722132,147.92540004178244,130.84439408654364,150.59590099945203,111.44626092586596,153.5200995481002C92.04812776518831,156.4442980967484,72.64999460451062,159.62219423637524,53.25186144383296,158.88455856644595C33.85372828315528,158.14692289651668,14.455595122477606,153.49375541703134,-4.969110823351681,151.22086579228858C-24.39381676918097,148.94797616754587,-43.84509550016187,149.05536439754576,-63.269801445991156,149.4774305564125C-82.69450739182044,149.8994967152792,-102.09264055249811,150.63624080301275,-121.49077371317578,151.93928818206388C-140.88890687385344,153.24233556111503,-160.28704003453112,155.11168623148373,-179.6851731952088,153.9900758292625C-199.0833063558865,152.8684654270413,-218.48143951656414,148.7558939522301,-237.90614546239343,145.76493287964016C-257.3308514082227,142.77397180705023,-276.7821301392036,140.9046211366815,-296.2068360850329,139.0352704663128C-315.6315420308622,137.1659197959441,-335.02967519153987,135.2965691255754,-354.4278083522176,134.36189379039104C-373.8259415128952,133.42721845520668,-393.2240746735729,133.42721845520668,-412.62220783425056,132.9598807876145C-432.0203409949283,132.49254312002233,-451.4184741556059,131.55786778483795,-470.84318010143517,131.09053011724578C-490.2678860472645,130.6231924496536,-509.7191647782454,130.6231924496536,-529.1438707240746,129.68851711446925C-548.568576669904,128.7538417792849,-567.9667098305816,126.88449110891618,-577.6657764109204,125.94981577373183L-587.3648429912594,125.01514043854748Z"><title>C/C++</title></path><path fill="#1f77b4" d="M-587.3648429912594,125.01514043854748L-577.6657764109204,124.08046510336311C-567.9667098305816,123.14578976817876,-548.568576669904,121.27643909781004,-529.1438707240746,120.34176376262569C-509.7191647782454,119.40708842744134,-490.2678860472645,119.40708842744134,-470.84318010143517,118.00507542466478C-451.4184741556059,116.60306242188825,-432.0203409949283,113.79903641633518,-412.62220783425056,110.52767274318994C-393.2240746735729,107.25630907004468,-373.8259415128952,103.51760772930726,-354.4278083522175,102.5829323941229C-335.02967519153987,101.64825705893854,-315.6315420308622,103.51760772930726,-296.2068360850329,107.25630907004467C-276.7821301392036,110.99501041078209,-257.3308514082227,116.60306242188824,-237.90614546239343,115.85532215374076C-218.48143951656414,115.10758188559328,-199.0833063558865,108.00404933819216,-179.6851731952088,103.51760772930726C-160.28704003453112,99.03116612042236,-140.88890687385344,97.16181545005362,-121.49077371317577,95.85876807100249C-102.09264055249811,94.55572069195136,-82.69450739182044,93.81897660421781,-63.269801445991156,94.33158578053543C-43.84509550016187,94.84419495685306,-24.39381676918097,96.60615739722186,-4.96911082335168,95.14034568122717C14.455595122477606,93.67453396523247,33.85372828315528,88.98094809287427,53.25186144383295,86.91455775725048C72.64999460451062,84.84816742162668,92.04812776518831,85.4089726227373,111.44626092586596,85.28880007964217C130.84439408654364,85.16862753654705,150.24252724722132,84.36747724924618,169.6672331930506,85.51271131378525C189.0919391388799,86.65794537832433,208.5432178698608,89.74956379470336,227.9679238156901,91.91921444753918C247.3926297615194,94.088865100375,266.7907629221971,95.33654798966761,286.18889608287475,93.47024693684513C305.5870292435524,91.60394588402266,324.98516240423004,86.6236608890851,344.3832955649077,85.30580396261261C363.7814287255854,83.98794703614011,383.1795618862631,86.3325181781327,402.6042678320924,90.26022663725246C422.0289737779217,94.18793509637224,441.4802525089026,99.6987808726192,460.9049584547319,104.37548083862164C480.3296644005611,109.05218080462409,499.7277975612388,112.894734960382,519.1259307219165,117.76879623096308C538.5240638825941,122.64285750154416,557.9221970432718,128.54842588694842,577.3203302039495,131.9159722596386C596.7184633646272,135.2835186323288,616.1165965253048,136.1130429923049,635.5413024711341,136.13625199133733C654.9660084169634,136.15946099036978,674.4172871479443,135.37635462845859,693.8419930937736,132.09949932584692C713.2666990396028,128.82264402323526,732.6648322002806,123.05203977992313,752.0629653609584,116.78752683106211C771.4610985216359,110.52301388220106,790.8592316823136,103.76459222779108,810.2573648429913,101.84158986397416C829.655498003669,99.91858750015724,849.0536311643465,102.83100442693338,868.4783371101759,107.4535856354049C887.9030430560051,112.07616684387642,907.3543217869861,118.4089123340433,926.7790277328154,123.94228721174227C946.2037336786447,129.47566208944122,965.6018668393223,134.20966635467224,975.3009334196612,136.57666848728778L985,138.9436706199033L985,141.18689142434576L975.3009334196612,139.0068243587671C965.6018668393223,136.82675729318848,946.2037336786447,132.46662316203117,926.7790277328153,127.30711841840593C907.3543217869861,122.14761367478071,887.9030430560051,116.18873831868757,868.4783371101759,111.94002724428981C849.0536311643465,107.69131616989205,829.655498003669,105.15276937718966,810.2573648429913,108.1973821432278C790.8592316823136,111.24199490926594,771.4610985216359,119.86976723404462,752.0629653609582,128.9383061884587C732.6648322002806,138.00684514287283,713.2666990396028,147.51615072692238,693.8419930937736,152.66235669990274C674.4172871479443,157.80856267288314,654.9660084169634,158.59166903479434,635.5413024711341,156.69910936539318C616.1165965253048,154.806549695992,596.7184633646272,150.23832399527848,577.3203302039494,145.0014269522196C557.9221970432718,139.7645299091607,538.5240638825941,133.85896152375645,519.1259307219165,128.98490025317537C499.7277975612388,124.11083898259426,480.3296644005611,120.26828482683635,460.9049584547318,113.90916925750206C441.4802525089026,107.55005368816778,422.0289737779217,98.67437670525713,402.6042678320924,93.43812277687927C383.1795618862631,88.2018688485014,363.7814287255854,86.60503797465633,344.3832955649077,88.6706351692763C324.98516240423004,90.73623236389626,305.5870292435524,96.4642576269813,286.18889608287475,102.44313015461493C266.7907629221971,108.42200268224859,247.3926297615194,114.65172247443081,227.9679238156901,119.02479916788552C208.5432178698608,123.39787586134018,189.0919391388799,125.91430945606731,169.6672331930506,125.70375072671258C150.24252724722132,125.49319199735787,130.84439408654364,122.55564094392132,111.44626092586596,120.80646281664771C92.04812776518831,119.05728468937416,72.64999460451062,118.49647948826355,53.25186144383296,118.69351915351861C33.85372828315528,118.8905588187737,14.455595122477606,119.84544335039448,-4.969110823351681,121.31125506638917C-24.39381676918097,122.77706678238387,-43.84509550016187,124.7538056827525,-63.269801445991156,126.11054717680356C-82.69450739182044,127.46728867085466,-102.09264055249811,128.2040327585882,-121.49077371317578,127.63772946727062C-140.88890687385344,127.07142617595304,-160.28704003453112,125.20207550558432,-179.6851731952088,124.0804651033631C-199.0833063558865,122.95885470114187,-218.48143951656414,122.58498456706813,-237.90614546239343,119.59402349447817C-257.3308514082227,116.60306242188824,-276.7821301392036,110.99501041078209,-296.2068360850329,107.25630907004467C-315.6315420308622,103.51760772930726,-335.02967519153987,101.64825705893854,-354.4278083522176,102.5829323941229C-373.8259415128952,103.51760772930726,-393.2240746735729,107.25630907004468,-412.62220783425056,110.52767274318994C-432.0203409949283,113.79903641633518,-451.4184741556059,116.60306242188825,-470.84318010143517,118.00507542466478C-490.2678860472645,119.40708842744134,-509.7191647782454,119.40708842744134,-529.1438707240746,120.34176376262569C-548.568576669904,121.27643909781004,-567.9667098305816,123.14578976817876,-577.6657764109204,124.08046510336312L-587.3648429912594,125.01514043854748Z"><title>Java</title></path><path fill="#2ca02c" d="M-587.3648429912594,125.01514043854748L-577.6657764109204,125.94981577373183C-567.9667098305816,126.88449110891618,-548.568576669904,128.7538417792849,-529.1438707240746,129.68851711446925C-509.7191647782454,130.6231924496536,-490.2678860472645,130.6231924496536,-470.84318010143517,131.09053011724578C-451.4184741556059,131.55786778483795,-432.0203409949283,132.49254312002233,-412.62220783425056,132.9598807876145C-393.2240746735729,133.42721845520668,-373.8259415128952,133.42721845520668,-354.4278083522175,132.49254312002233C-335.02967519153987,131.55786778483795,-315.6315420308622,129.68851711446925,-296.2068360850329,127.81916644410052C-276.7821301392036,125.94981577373181,-257.3308514082227,124.0804651033631,-237.90614546239343,123.33272483521561C-218.48143951656414,122.58498456706813,-199.0833063558865,122.95885470114187,-179.6851731952088,124.0804651033631C-160.28704003453112,125.20207550558432,-140.88890687385344,127.07142617595304,-121.49077371317577,127.6377294672706C-102.09264055249811,128.2040327585882,-82.69450739182044,127.46728867085466,-63.269801445991156,126.11054717680359C-43.84509550016187,124.7538056827525,-24.39381676918097,122.77706678238387,-4.96911082335168,121.31125506638917C14.455595122477606,119.84544335039448,33.85372828315528,118.8905588187737,53.25186144383295,120.56286982388734C72.64999460451062,122.23518082900097,92.04812776518831,126.534687370849,111.44626092586596,129.21854083330695C130.84439408654364,131.90239429576488,150.24252724722132,132.97059467883273,169.6672331930506,131.3118027378187C189.0919391388799,129.65301079680472,208.5432178698608,125.26722653170889,227.9679238156901,119.95947450306987C247.3926297615194,114.65172247443081,266.7907629221971,108.42200268224859,286.18889608287475,102.44313015461493C305.5870292435524,96.4642576269813,324.98516240423004,90.73623236389626,344.3832955649077,88.6706351692763C363.7814287255854,86.60503797465633,383.1795618862631,88.2018688485014,402.6042678320924,93.43812277687927C422.0289737779217,98.67437670525713,441.4802525089026,107.55005368816778,460.9049584547319,113.90916925750207C480.3296644005611,120.26828482683635,499.7277975612388,124.11083898259426,519.1259307219165,128.98490025317534C538.5240638825941,133.85896152375645,557.9221970432718,139.7645299091607,577.3203302039495,145.0014269522196C596.7184633646272,150.23832399527848,616.1165965253048,154.806549695992,635.5413024711341,156.69910936539318C654.9660084169634,158.59166903479434,674.4172871479443,157.80856267288314,693.8419930937736,152.66235669990274C713.2666990396028,147.51615072692238,732.6648322002806,138.00684514287283,752.0629653609584,128.9383061884587C771.4610985216359,119.86976723404462,790.8592316823136,111.24199490926594,810.2573648429913,108.1973821432278C829.655498003669,105.15276937718966,849.0536311643465,107.69131616989205,868.4783371101759,111.94002724428981C887.9030430560051,116.18873831868757,907.3543217869861,122.14761367478071,926.7790277328154,127.30711841840593C946.2037336786447,132.46662316203117,965.6018668393223,136.82675729318848,975.3009334196612,139.0068243587671L985,141.18689142434576L985,141.18689142434576L975.3009334196612,139.0068243587671C965.6018668393223,136.82675729318848,946.2037336786447,132.46662316203117,926.7790277328153,127.30711841840593C907.3543217869861,122.14761367478071,887.9030430560051,116.18873831868757,868.4783371101759,111.94002724428981C849.0536311643465,107.69131616989205,829.655498003669,105.15276937718966,810.2573648429913,108.1973821432278C790.8592316823136,111.24199490926594,771.4610985216359,119.86976723404462,752.0629653609582,128.9383061884587C732.6648322002806,138.00684514287283,713.2666990396028,147.51615072692238,693.8419930937736,152.66235669990274C674.4172871479443,157.80856267288314,654.9660084169634,158.59166903479434,635.5413024711341,156.69910936539318C616.1165965253048,154.806549695992,596.7184633646272,150.23832399527848,577.3203302039494,145.0014269522196C557.9221970432718,139.7645299091607,538.5240638825941,133.85896152375645,519.1259307219165,128.98490025317537C499.7277975612388,124.11083898259426,480.3296644005611,120.26828482683635,460.9049584547318,113.90916925750206C441.4802525089026,107.55005368816778,422.0289737779217,98.67437670525713,402.6042678320924,93.43812277687927C383.1795618862631,88.2018688485014,363.7814287255854,86.60503797465633,344.3832955649077,88.6706351692763C324.98516240423004,90.73623236389626,305.5870292435524,96.4642576269813,286.18889608287475,102.44313015461493C266.7907629221971,108.42200268224859,247.3926297615194,114.65172247443081,227.9679238156901,119.95947450306987C208.5432178698608,125.26722653170889,189.0919391388799,129.65301079680472,169.6672331930506,133.1811534081874C150.24252724722132,136.70929601957013,130.84439408654364,139.37979697723972,111.44626092586596,142.30399552588793C92.04812776518831,145.2281940745361,72.64999460451062,148.40609021416296,53.25186144383296,148.60312987941802C33.85372828315528,148.80016954467308,14.455595122477606,146.01635273555644,-4.969110823351681,143.74346311081374C-24.39381676918097,141.47057348607098,-43.84509550016187,139.70861104570216,-63.269801445991156,137.32665119901583C-82.69450739182044,134.9446913523295,-102.09264055249811,131.94273409932563,-121.49077371317578,129.50708013763932C-140.88890687385344,127.07142617595304,-160.28704003453112,125.20207550558432,-179.6851731952088,124.0804651033631C-199.0833063558865,122.95885470114187,-218.48143951656414,122.58498456706813,-237.90614546239343,123.33272483521561C-257.3308514082227,124.0804651033631,-276.7821301392036,125.94981577373181,-296.2068360850329,127.81916644410053C-315.6315420308622,129.68851711446925,-335.02967519153987,131.55786778483795,-354.4278083522176,132.49254312002233C-373.8259415128952,133.42721845520668,-393.2240746735729,133.42721845520668,-412.62220783425056,132.9598807876145C-432.0203409949283,132.49254312002233,-451.4184741556059,131.55786778483795,-470.84318010143517,131.09053011724578C-490.2678860472645,130.6231924496536,-509.7191647782454,130.6231924496536,-529.1438707240746,129.68851711446925C-548.568576669904,128.7538417792849,-567.9667098305816,126.88449110891618,-577.6657764109204,125.94981577373183L-587.3648429912594,125.01514043854748Z"><title>PHP</title></path><path fill="#9467bd" d="M-587.3648429912594,125.01514043854748L-577.6657764109204,125.94981577373183C-567.9667098305816,126.88449110891618,-548.568576669904,128.7538417792849,-529.1438707240746,129.68851711446925C-509.7191647782454,130.6231924496536,-490.2678860472645,130.6231924496536,-470.84318010143517,131.09053011724578C-451.4184741556059,131.55786778483795,-432.0203409949283,132.49254312002233,-412.62220783425056,132.9598807876145C-393.2240746735729,133.42721845520668,-373.8259415128952,133.42721845520668,-354.4278083522175,134.36189379039104C-335.02967519153987,135.2965691255754,-315.6315420308622,137.1659197959441,-296.2068360850329,139.0352704663128C-276.7821301392036,140.9046211366815,-257.3308514082227,142.77397180705023,-237.90614546239343,145.76493287964016C-218.48143951656414,148.7558939522301,-199.0833063558865,152.8684654270413,-179.6851731952088,153.9900758292625C-160.28704003453112,155.11168623148373,-140.88890687385344,153.24233556111503,-121.49077371317577,151.9392881820639C-102.09264055249811,150.63624080301275,-82.69450739182044,149.8994967152792,-63.269801445991156,149.4774305564125C-43.84509550016187,149.05536439754576,-24.39381676918097,148.94797616754587,-4.96911082335168,151.2208657922886C14.455595122477606,153.49375541703134,33.85372828315528,158.14692289651668,53.25186144383295,158.88455856644595C72.64999460451062,159.62219423637524,92.04812776518831,156.4442980967484,111.44626092586596,153.5200995481002C130.84439408654364,150.59590099945203,150.24252724722132,147.92540004178244,169.6672331930506,147.2012834359528C189.0919391388799,146.47716683012314,208.5432178698608,147.69943457613348,227.9679238156901,151.738435899338C247.3926297615194,155.77743722254252,266.7907629221971,162.63317212294126,286.18889608287475,170.674429623073C305.5870292435524,178.7156871232047,324.98516240423004,187.94246722306937,344.3832955649077,197.0929740506617C363.7814287255854,206.243480878254,383.1795618862631,215.3177144335739,402.6042678320924,214.01124101566128C422.0289737779217,212.70476759774866,441.4802525089026,201.01758720660348,460.9049584547319,189.617871407435C480.3296644005611,178.21815560826647,499.7277975612388,167.10590440107467,519.1259307219165,165.43723832536526C538.5240638825941,163.76857224965582,557.9221970432718,171.5434913054288,577.3203302039495,174.91103767811902C596.7184633646272,178.2785840508092,616.1165965253048,177.23875774041662,635.5413024711341,180.06599274500215C654.9660084169634,182.89322774958762,674.4172871479443,189.58752406915127,693.8419930937736,188.1800194369083C713.2666990396028,186.77251480466535,732.6648322002806,177.26320922061583,752.0629653609584,174.73739761249217C771.4610985216359,172.21158600436857,790.8592316823136,176.6692683721709,810.2573648429913,176.42868161168585C829.655498003669,176.18809485120073,849.0536311643465,171.2492389624283,868.4783371101759,168.0205473553512C887.9030430560051,164.79185574827412,907.3543217869861,163.27332842289243,926.7790277328154,161.89010582022715C946.2037336786447,160.50688321756186,965.6018668393223,159.25896533761303,975.3009334196612,158.6350063976386L985,158.01104745766418L985,163.61909946877032L975.3009334196612,165.17773374392908C965.6018668393223,166.73636801908788,946.2037336786447,169.85363656940544,926.7790277328153,174.04088517762375C907.3543217869861,178.22813378584212,887.9030430560051,183.48536245196124,868.4783371101759,186.71405405903832C849.0536311643465,189.94274566611543,829.655498003669,191.14290021415047,810.2573648429913,189.51413630426683C790.8592316823136,187.8853723943832,771.4610985216359,183.42769002658088,752.0629653609582,185.95350163470448C732.6648322002806,188.47931324282808,713.2666990396028,197.98861882687766,693.8419930937736,198.46144812393626C674.4172871479443,198.93427742099485,654.9660084169634,190.3706304310625,635.5413024711341,186.04791489018203C616.1165965253048,181.7251993493015,596.7184633646272,181.64341525747287,577.3203302039494,178.27586888478268C557.9221970432718,174.9083225120925,538.5240638825941,168.25501385854076,519.1259307219165,171.41916047054517C499.7277975612388,174.58330708254957,480.3296644005611,187.56490896011005,460.9049584547318,198.96462475927854C441.4802525089026,210.36434055844703,422.0289737779217,220.18217027922353,402.6042678320924,219.80622809380432C383.1795618862631,219.43028590838512,363.7814287255854,208.8605718167702,344.3832955649077,198.9623247210304C324.98516240423004,189.0640776252906,305.5870292435524,179.83729752542592,286.18889608287475,172.5437802934417C266.7907629221971,165.25026306145747,247.3926297615194,159.8900086973537,227.9679238156901,157.53342297748102C208.5432178698608,155.17683725760833,189.0919391388799,155.8239201819667,169.6672331930506,156.54803678779635C150.24252724722132,157.272153393626,130.84439408654364,158.07330368092687,111.44626092586596,159.87589182735385C92.04812776518831,161.6784799737808,72.64999460451062,164.48250597933392,53.25186144383296,163.184065108294C33.85372828315528,161.88562423725412,14.455595122477606,156.48471648962126,-4.969110823351681,153.65102166376792C-24.39381676918097,150.81732683791458,-43.84509550016187,150.55084493384072,-63.269801445991156,150.5990409586337C-82.69450739182044,150.6472369834267,-102.09264055249811,151.0101109370865,-121.49077371317578,152.12622324910075C-140.88890687385344,153.24233556111503,-160.28704003453112,155.11168623148373,-179.6851731952088,153.9900758292625C-199.0833063558865,152.8684654270413,-218.48143951656414,148.7558939522301,-237.90614546239343,145.76493287964016C-257.3308514082227,142.77397180705023,-276.7821301392036,140.9046211366815,-296.2068360850329,139.0352704663128C-315.6315420308622,137.1659197959441,-335.02967519153987,135.2965691255754,-354.4278083522176,134.36189379039104C-373.8259415128952,133.42721845520668,-393.2240746735729,133.42721845520668,-412.62220783425056,132.9598807876145C-432.0203409949283,132.49254312002233,-451.4184741556059,131.55786778483795,-470.84318010143517,131.09053011724578C-490.2678860472645,130.6231924496536,-509.7191647782454,130.6231924496536,-529.1438707240746,129.68851711446925C-548.568576669904,128.7538417792849,-567.9667098305816,126.88449110891618,-577.6657764109204,125.94981577373183L-587.3648429912594,125.01514043854748Z"><title>JavaScript</title></path><path fill="#e377c2" d="M-587.3648429912594,125.01514043854748L-577.6657764109204,124.08046510336311C-567.9667098305816,123.14578976817876,-548.568576669904,121.27643909781004,-529.1438707240746,120.34176376262569C-509.7191647782454,119.40708842744134,-490.2678860472645,119.40708842744134,-470.84318010143517,118.00507542466478C-451.4184741556059,116.60306242188825,-432.0203409949283,113.79903641633518,-412.62220783425056,110.52767274318994C-393.2240746735729,107.25630907004468,-373.8259415128952,103.51760772930726,-354.4278083522175,102.5829323941229C-335.02967519153987,101.64825705893854,-315.6315420308622,103.51760772930726,-296.2068360850329,107.25630907004467C-276.7821301392036,110.99501041078209,-257.3308514082227,116.60306242188824,-237.90614546239343,115.85532215374076C-218.48143951656414,115.10758188559328,-199.0833063558865,108.00404933819216,-179.6851731952088,103.51760772930726C-160.28704003453112,99.03116612042236,-140.88890687385344,97.16181545005362,-121.49077371317577,95.85876807100249C-102.09264055249811,94.55572069195136,-82.69450739182044,93.81897660421781,-63.269801445991156,94.33158578053543C-43.84509550016187,94.84419495685306,-24.39381676918097,96.60615739722186,-4.96911082335168,95.14034568122717C14.455595122477606,93.67453396523247,33.85372828315528,88.98094809287427,53.25186144383295,86.91455775725048C72.64999460451062,84.84816742162668,92.04812776518831,85.4089726227373,111.44626092586596,84.35412474445782C130.84439408654364,83.29927686617835,150.24252724722132,80.62877590850876,169.6672331930506,79.90465930267912C189.0919391388799,79.18054269684949,208.5432178698608,80.40281044285979,227.9679238156901,79.76843509014253C247.3926297615194,79.13405973742526,266.7907629221971,76.64304128598043,286.18889608287475,71.03803889242054C305.5870292435524,65.43303649886064,324.98516240423004,56.714050163185675,344.3832955649077,51.65749189597577C363.7814287255854,46.60093362876586,383.1795618862631,45.206803430021004,402.6042678320924,52.873213229878196C422.0289737779217,60.5396230297354,441.4802525089026,77.26657282819464,460.9049584547319,89.42067547567194C480.3296644005611,101.57477812314924,499.7277975612388,109.15603361964457,519.1259307219165,115.89944556059437C538.5240638825941,122.64285750154416,557.9221970432718,128.54842588694842,577.3203302039495,131.9159722596386C596.7184633646272,135.2835186323288,616.1165965253048,136.1130429923049,635.5413024711341,136.13625199133733C654.9660084169634,136.15946099036978,674.4172871479443,135.37635462845859,693.8419930937736,132.09949932584692C713.2666990396028,128.82264402323526,732.6648322002806,123.05203977992313,752.0629653609584,116.78752683106211C771.4610985216359,110.52301388220106,790.8592316823136,103.76459222779108,810.2573648429913,101.84158986397416C829.655498003669,99.91858750015724,849.0536311643465,102.83100442693338,868.4783371101759,107.4535856354049C887.9030430560051,112.07616684387642,907.3543217869861,118.4089123340433,926.7790277328154,123.94228721174227C946.2037336786447,129.47566208944122,965.6018668393223,134.20966635467224,975.3009334196612,136.57666848728778L985,138.9436706199033L985,138.9436706199033L975.3009334196612,136.57666848728778C965.6018668393223,134.20966635467224,946.2037336786447,129.47566208944122,926.7790277328153,123.94228721174227C907.3543217869861,118.4089123340433,887.9030430560051,112.07616684387642,868.4783371101759,107.4535856354049C849.0536311643465,102.83100442693338,829.655498003669,99.91858750015724,810.2573648429913,101.84158986397416C790.8592316823136,103.76459222779108,771.4610985216359,110.52301388220106,752.0629653609582,116.7875268310621C732.6648322002806,123.05203977992313,713.2666990396028,128.82264402323526,693.8419930937736,132.09949932584692C674.4172871479443,135.37635462845859,654.9660084169634,136.15946099036978,635.5413024711341,136.13625199133733C616.1165965253048,136.1130429923049,596.7184633646272,135.2835186323288,577.3203302039494,131.9159722596386C557.9221970432718,128.54842588694842,538.5240638825941,122.64285750154416,519.1259307219165,117.76879623096308C499.7277975612388,112.894734960382,480.3296644005611,109.05218080462409,460.9049584547318,104.37548083862164C441.4802525089026,99.6987808726192,422.0289737779217,94.18793509637224,402.6042678320924,90.26022663725246C383.1795618862631,86.3325181781327,363.7814287255854,83.98794703614011,344.3832955649077,85.30580396261261C324.98516240423004,86.6236608890851,305.5870292435524,91.60394588402266,286.18889608287475,93.47024693684513C266.7907629221971,95.33654798966761,247.3926297615194,94.088865100375,227.9679238156901,91.91921444753918C208.5432178698608,89.74956379470336,189.0919391388799,86.65794537832433,169.6672331930506,85.51271131378526C150.24252724722132,84.36747724924618,130.84439408654364,85.16862753654705,111.44626092586596,85.28880007964217C92.04812776518831,85.4089726227373,72.64999460451062,84.84816742162668,53.25186144383296,86.91455775725048C33.85372828315528,88.98094809287427,14.455595122477606,93.67453396523247,-4.969110823351681,95.14034568122717C-24.39381676918097,96.60615739722186,-43.84509550016187,94.84419495685306,-63.269801445991156,94.33158578053543C-82.69450739182044,93.81897660421781,-102.09264055249811,94.55572069195136,-121.49077371317578,95.85876807100249C-140.88890687385344,97.16181545005362,-160.28704003453112,99.03116612042236,-179.6851731952088,103.51760772930726C-199.0833063558865,108.00404933819216,-218.48143951656414,115.10758188559328,-237.90614546239343,115.85532215374076C-257.3308514082227,116.60306242188824,-276.7821301392036,110.99501041078209,-296.2068360850329,107.25630907004467C-315.6315420308622,103.51760772930726,-335.02967519153987,101.64825705893854,-354.4278083522176,102.5829323941229C-373.8259415128952,103.51760772930726,-393.2240746735729,107.25630907004468,-412.62220783425056,110.52767274318994C-432.0203409949283,113.79903641633518,-451.4184741556059,116.60306242188825,-470.84318010143517,118.00507542466478C-490.2678860472645,119.40708842744134,-509.7191647782454,119.40708842744134,-529.1438707240746,120.34176376262569C-548.568576669904,121.27643909781004,-567.9667098305816,123.14578976817876,-577.6657764109204,124.08046510336312L-587.3648429912594,125.01514043854748Z"><title>MATLAB</title></path><path fill="#7f7f7f" d="M-587.3648429912594,125.01514043854748L-577.6657764109204,125.94981577373183C-567.9667098305816,126.88449110891618,-548.568576669904,128.7538417792849,-529.1438707240746,129.68851711446925C-509.7191647782454,130.6231924496536,-490.2678860472645,130.6231924496536,-470.84318010143517,131.09053011724578C-451.4184741556059,131.55786778483795,-432.0203409949283,132.49254312002233,-412.62220783425056,132.9598807876145C-393.2240746735729,133.42721845520668,-373.8259415128952,133.42721845520668,-354.4278083522175,132.49254312002233C-335.02967519153987,131.55786778483795,-315.6315420308622,129.68851711446925,-296.2068360850329,127.81916644410052C-276.7821301392036,125.94981577373181,-257.3308514082227,124.0804651033631,-237.90614546239343,123.33272483521561C-218.48143951656414,122.58498456706813,-199.0833063558865,122.95885470114187,-179.6851731952088,124.0804651033631C-160.28704003453112,125.20207550558432,-140.88890687385344,127.07142617595304,-121.49077371317577,129.50708013763932C-102.09264055249811,131.94273409932563,-82.69450739182044,134.9446913523295,-63.269801445991156,137.32665119901583C-43.84509550016187,139.70861104570216,-24.39381676918097,141.47057348607098,-4.96911082335168,143.74346311081374C14.455595122477606,146.01635273555644,33.85372828315528,148.80016954467308,53.25186144383295,148.60312987941802C72.64999460451062,148.40609021416296,92.04812776518831,145.2281940745361,111.44626092586596,142.30399552588793C130.84439408654364,139.37979697723972,150.24252724722132,136.70929601957013,169.6672331930506,133.1811534081874C189.0919391388799,129.65301079680472,208.5432178698608,125.26722653170889,227.9679238156901,119.95947450306987C247.3926297615194,114.65172247443081,266.7907629221971,108.42200268224859,286.18889608287475,102.44313015461493C305.5870292435524,96.4642576269813,324.98516240423004,90.73623236389626,344.3832955649077,88.6706351692763C363.7814287255854,86.60503797465633,383.1795618862631,88.2018688485014,402.6042678320924,93.43812277687927C422.0289737779217,98.67437670525713,441.4802525089026,107.55005368816778,460.9049584547319,113.90916925750207C480.3296644005611,120.26828482683635,499.7277975612388,124.11083898259426,519.1259307219165,128.98490025317534C538.5240638825941,133.85896152375645,557.9221970432718,139.7645299091607,577.3203302039495,145.0014269522196C596.7184633646272,150.23832399527848,616.1165965253048,154.806549695992,635.5413024711341,156.69910936539318C654.9660084169634,158.59166903479434,674.4172871479443,157.80856267288314,693.8419930937736,152.66235669990274C713.2666990396028,147.51615072692238,732.6648322002806,138.00684514287283,752.0629653609584,128.9383061884587C771.4610985216359,119.86976723404462,790.8592316823136,111.24199490926594,810.2573648429913,108.1973821432278C829.655498003669,105.15276937718966,849.0536311643465,107.69131616989205,868.4783371101759,111.94002724428981C887.9030430560051,116.18873831868757,907.3543217869861,122.14761367478071,926.7790277328154,127.30711841840593C946.2037336786447,132.46662316203117,965.6018668393223,136.82675729318848,975.3009334196612,139.0068243587671L985,141.18689142434576L985,141.18689142434576L975.3009334196612,139.0068243587671C965.6018668393223,136.82675729318848,946.2037336786447,132.46662316203117,926.7790277328153,127.30711841840593C907.3543217869861,122.14761367478071,887.9030430560051,116.18873831868757,868.4783371101759,111.94002724428981C849.0536311643465,107.69131616989205,829.655498003669,105.15276937718966,810.2573648429913,108.1973821432278C790.8592316823136,111.24199490926594,771.4610985216359,119.86976723404462,752.0629653609582,128.9383061884587C732.6648322002806,138.00684514287283,713.2666990396028,147.51615072692238,693.8419930937736,152.66235669990274C674.4172871479443,157.80856267288314,654.9660084169634,158.59166903479434,635.5413024711341,156.69910936539318C616.1165965253048,154.806549695992,596.7184633646272,150.23832399527848,577.3203302039494,145.0014269522196C557.9221970432718,139.7645299091607,538.5240638825941,133.85896152375645,519.1259307219165,129.91957558835972C499.7277975612388,125.98018965296298,480.3296644005611,124.00698616757377,460.9049584547318,121.38657193897693C441.4802525089026,118.76615771038007,422.0289737779217,115.49853273857555,402.6042678320924,116.8050061564882C383.1795618862631,118.11147957440083,363.7814287255854,123.9920513820306,344.3832955649077,126.05764857665058C324.98516240423004,128.12324577127055,305.5870292435524,126.37386835288072,286.18889608287475,125.81001353422386C266.7907629221971,125.246158715567,247.3926297615194,125.8678264966431,227.9679238156901,127.43687718454471C208.5432178698608,129.00592787244634,189.0919391388799,131.52236146717345,169.6672331930506,134.1158287433718C150.24252724722132,136.70929601957013,130.84439408654364,139.37979697723972,111.44626092586596,142.30399552588793C92.04812776518831,145.2281940745361,72.64999460451062,148.40609021416296,53.25186144383296,148.60312987941802C33.85372828315528,148.80016954467308,14.455595122477606,146.01635273555644,-4.969110823351681,143.74346311081374C-24.39381676918097,141.47057348607098,-43.84509550016187,139.70861104570216,-63.269801445991156,137.32665119901583C-82.69450739182044,134.9446913523295,-102.09264055249811,131.94273409932563,-121.49077371317578,129.50708013763932C-140.88890687385344,127.07142617595304,-160.28704003453112,125.20207550558432,-179.6851731952088,124.0804651033631C-199.0833063558865,122.95885470114187,-218.48143951656414,122.58498456706813,-237.90614546239343,123.33272483521561C-257.3308514082227,124.0804651033631,-276.7821301392036,125.94981577373181,-296.2068360850329,127.81916644410053C-315.6315420308622,129.68851711446925,-335.02967519153987,131.55786778483795,-354.4278083522176,132.49254312002233C-373.8259415128952,133.42721845520668,-393.2240746735729,133.42721845520668,-412.62220783425056,132.9598807876145C-432.0203409949283,132.49254312002233,-451.4184741556059,131.55786778483795,-470.84318010143517,131.09053011724578C-490.2678860472645,130.6231924496536,-509.7191647782454,130.6231924496536,-529.1438707240746,129.68851711446925C-548.568576669904,128.7538417792849,-567.9667098305816,126.88449110891618,-577.6657764109204,125.94981577373183L-587.3648429912594,125.01514043854748Z"><title>Scheme</title></path><path fill="#ffd43b" d="M-587.3648429912594,125.01514043854748L-577.6657764109204,125.94981577373183C-567.9667098305816,126.88449110891618,-548.568576669904,128.7538417792849,-529.1438707240746,129.68851711446925C-509.7191647782454,130.6231924496536,-490.2678860472645,130.6231924496536,-470.84318010143517,131.09053011724578C-451.4184741556059,131.55786778483795,-432.0203409949283,132.49254312002233,-412.62220783425056,132.9598807876145C-393.2240746735729,133.42721845520668,-373.8259415128952,133.42721845520668,-354.4278083522175,134.36189379039104C-335.02967519153987,135.2965691255754,-315.6315420308622,137.1659197959441,-296.2068360850329,139.0352704663128C-276.7821301392036,140.9046211366815,-257.3308514082227,142.77397180705023,-237.90614546239343,145.76493287964016C-218.48143951656414,148.7558939522301,-199.0833063558865,152.8684654270413,-179.6851731952088,153.9900758292625C-160.28704003453112,155.11168623148373,-140.88890687385344,153.24233556111503,-121.49077371317577,151.9392881820639C-102.09264055249811,150.63624080301275,-82.69450739182044,149.8994967152792,-63.269801445991156,149.4774305564125C-43.84509550016187,149.05536439754576,-24.39381676918097,148.94797616754587,-4.96911082335168,151.2208657922886C14.455595122477606,153.49375541703134,33.85372828315528,158.14692289651668,53.25186144383295,158.88455856644595C72.64999460451062,159.62219423637524,92.04812776518831,156.4442980967484,111.44626092586596,153.5200995481002C130.84439408654364,150.59590099945203,150.24252724722132,147.92540004178244,169.6672331930506,147.2012834359528C189.0919391388799,146.47716683012314,208.5432178698608,147.69943457613348,227.9679238156901,149.86908522896928C247.3926297615194,152.03873588180508,266.7907629221971,155.15576944146642,286.18889608287475,159.45832560086072C305.5870292435524,163.760881760255,324.98516240423004,169.24896051938225,344.3832955649077,170.92206466549973C363.7814287255854,172.59516881161719,383.1795618862631,170.4532983447248,402.6042678320924,165.40812358607477C422.0289737779217,160.3629488274247,441.4802525089026,152.41446977701693,460.9049584547319,146.62280598895455C480.3296644005611,140.83114220089217,499.7277975612388,137.19629367517527,519.1259307219165,137.39697826983453C538.5240638825941,137.59766286449386,557.9221970432718,141.6338805795294,577.3203302039495,145.93610228740394C596.7184633646272,150.23832399527848,616.1165965253048,154.806549695992,635.5413024711341,156.69910936539318C654.9660084169634,158.59166903479434,674.4172871479443,157.80856267288314,693.8419930937736,152.66235669990274C713.2666990396028,147.51615072692238,732.6648322002806,138.00684514287283,752.0629653609584,128.9383061884587C771.4610985216359,119.86976723404462,790.8592316823136,111.24199490926594,810.2573648429913,108.1973821432278C829.655498003669,105.15276937718966,849.0536311643465,107.69131616989205,868.4783371101759,111.94002724428981C887.9030430560051,116.18873831868757,907.3543217869861,122.14761367478071,926.7790277328154,127.30711841840593C946.2037336786447,132.46662316203117,965.6018668393223,136.82675729318848,975.3009334196612,139.0068243587671L985,141.18689142434576L985,152.402995446558L975.3009334196612,152.09227905134807C965.6018668393223,151.78156265613814,946.2037336786447,151.1601298657183,926.7790277328153,149.7393264628305C907.3543217869861,148.3185230599427,887.9030430560051,146.09834904458697,868.4783371101759,145.58833931092664C849.0536311643465,145.07832957726632,829.655498003669,146.27848412530133,810.2573648429913,146.51907088578642C790.8592316823136,146.7596576462715,771.4610985216359,146.0406766192066,752.0629653609582,148.5664882273302C732.6648322002806,151.09229983545382,713.2666990396028,156.86290407876595,693.8419930937736,161.07443471656197C674.4172871479443,165.285965354358,654.9660084169634,167.93842238663794,635.5413024711341,170.71923939315855C616.1165965253048,173.50005639967915,596.7184633646272,176.40923338044047,577.3203302039494,173.97636234293464C557.9221970432718,171.5434913054288,538.5240638825941,163.76857224965582,519.1259307219165,165.43723832536526C499.7277975612388,167.10590440107467,480.3296644005611,178.21815560826647,460.9049584547318,189.617871407435C441.4802525089026,201.01758720660348,422.0289737779217,212.70476759774866,402.6042678320924,214.0112410156613C383.1795618862631,215.3177144335739,363.7814287255854,206.243480878254,344.3832955649077,197.0929740506617C324.98516240423004,187.94246722306937,305.5870292435524,178.7156871232047,286.18889608287475,170.674429623073C266.7907629221971,162.63317212294126,247.3926297615194,155.77743722254252,227.9679238156901,151.738435899338C208.5432178698608,147.69943457613348,189.0919391388799,146.47716683012314,169.6672331930506,147.2012834359528C150.24252724722132,147.92540004178244,130.84439408654364,150.59590099945203,111.44626092586596,153.5200995481002C92.04812776518831,156.4442980967484,72.64999460451062,159.62219423637524,53.25186144383296,158.88455856644595C33.85372828315528,158.14692289651668,14.455595122477606,153.49375541703134,-4.969110823351681,151.22086579228858C-24.39381676918097,148.94797616754587,-43.84509550016187,149.05536439754576,-63.269801445991156,149.4774305564125C-82.69450739182044,149.8994967152792,-102.09264055249811,150.63624080301275,-121.49077371317578,151.93928818206388C-140.88890687385344,153.24233556111503,-160.28704003453112,155.11168623148373,-179.6851731952088,153.9900758292625C-199.0833063558865,152.8684654270413,-218.48143951656414,148.7558939522301,-237.90614546239343,145.76493287964016C-257.3308514082227,142.77397180705023,-276.7821301392036,140.9046211366815,-296.2068360850329,139.0352704663128C-315.6315420308622,137.1659197959441,-335.02967519153987,135.2965691255754,-354.4278083522176,134.36189379039104C-373.8259415128952,133.42721845520668,-393.2240746735729,133.42721845520668,-412.62220783425056,132.9598807876145C-432.0203409949283,132.49254312002233,-451.4184741556059,131.55786778483795,-470.84318010143517,131.09053011724578C-490.2678860472645,130.6231924496536,-509.7191647782454,130.6231924496536,-529.1438707240746,129.68851711446925C-548.568576669904,128.7538417792849,-567.9667098305816,126.88449110891618,-577.6657764109204,125.94981577373183L-587.3648429912594,125.01514043854748Z"><title>Python</title></path><path fill="#aec7e8" d="M-587.3648429912594,125.01514043854748L-577.6657764109204,124.08046510336311C-567.9667098305816,123.14578976817876,-548.568576669904,121.27643909781004,-529.1438707240746,120.34176376262569C-509.7191647782454,119.40708842744134,-490.2678860472645,119.40708842744134,-470.84318010143517,118.00507542466478C-451.4184741556059,116.60306242188825,-432.0203409949283,113.79903641633518,-412.62220783425056,110.52767274318994C-393.2240746735729,107.25630907004468,-373.8259415128952,103.51760772930726,-354.4278083522175,102.5829323941229C-335.02967519153987,101.64825705893854,-315.6315420308622,103.51760772930726,-296.2068360850329,107.25630907004467C-276.7821301392036,110.99501041078209,-257.3308514082227,116.60306242188824,-237.90614546239343,115.85532215374076C-218.48143951656414,115.10758188559328,-199.0833063558865,108.00404933819216,-179.6851731952088,103.51760772930726C-160.28704003453112,99.03116612042236,-140.88890687385344,97.16181545005362,-121.49077371317577,95.85876807100249C-102.09264055249811,94.55572069195136,-82.69450739182044,93.81897660421781,-63.269801445991156,94.33158578053543C-43.84509550016187,94.84419495685306,-24.39381676918097,96.60615739722186,-4.96911082335168,95.14034568122717C14.455595122477606,93.67453396523247,33.85372828315528,88.98094809287427,53.25186144383295,86.91455775725048C72.64999460451062,84.84816742162668,92.04812776518831,85.4089726227373,111.44626092586596,84.35412474445782C130.84439408654364,83.29927686617835,150.24252724722132,80.62877590850876,169.6672331930506,79.90465930267912C189.0919391388799,79.18054269684949,208.5432178698608,80.40281044285979,227.9679238156901,79.76843509014253C247.3926297615194,79.13405973742526,266.7907629221971,76.64304128598043,286.18889608287475,71.03803889242054C305.5870292435524,65.43303649886064,324.98516240423004,56.714050163185675,344.3832955649077,51.65749189597577C363.7814287255854,46.60093362876586,383.1795618862631,45.206803430021004,402.6042678320924,47.26516121877206C422.0289737779217,49.32351900752312,441.4802525089026,54.83436478377009,460.9049584547319,57.64171407940381C480.3296644005611,60.44906337503753,499.7277975612388,60.55291619005802,519.1259307219165,54.21087343842682C538.5240638825941,47.86883068679561,557.9221970432718,35.08089236851273,577.3203302039495,25.362984048621914C596.7184633646272,15.64507572873111,616.1165965253048,8.997197407232377,635.5413024711341,5.281705065527404C654.9660084169634,1.5662127238224304,674.4172871479443,0.7831063619112152,693.8419930937736,10.591705751880541C713.2666990396028,20.400305141849866,732.6648322002806,40.80061028369973,752.0629653609584,52.294928703341476C771.4610985216359,63.789247122983205,790.8592316823136,66.37757882041682,810.2573648429913,70.99730380289041C829.655498003669,75.61702878536398,849.0536311643465,82.26814705287754,868.4783371101759,89.69475426690212C887.9030430560051,97.12136148092668,907.3543217869861,105.3234576414623,926.7790277328154,112.72618318952998C946.2037336786447,120.12890873759765,965.6018668393223,126.73226367319741,975.3009334196612,130.03394114099729L985,133.33561860879718L985,138.9436706199033L975.3009334196612,136.57666848728778C965.6018668393223,134.20966635467224,946.2037336786447,129.47566208944122,926.7790277328153,123.94228721174227C907.3543217869861,118.4089123340433,887.9030430560051,112.07616684387642,868.4783371101759,107.4535856354049C849.0536311643465,102.83100442693338,829.655498003669,99.91858750015724,810.2573648429913,101.84158986397416C790.8592316823136,103.76459222779108,771.4610985216359,110.52301388220106,752.0629653609582,113.04882549032466C732.6648322002806,115.57463709844829,713.2666990396028,113.86783866028554,693.8419930937736,113.40599262215977C674.4172871479443,112.94414658403402,654.9660084169634,113.72725294594524,635.5413024711341,111.83469327654409C616.1165965253048,109.94213360714292,596.7184633646272,105.37390790642938,577.3203302039494,102.0063615337392C557.9221970432718,98.63881516104898,538.5240638825941,96.47194811638217,519.1259307219165,93.4672375161698C499.7277975612388,90.46252691595743,480.3296644005611,86.61997276019952,460.9049584547318,78.20457145345966C441.4802525089026,69.7891701467198,422.0289737779217,56.80092168899798,402.6042678320924,51.003862559509486C383.1795618862631,45.206803430021004,363.7814287255854,46.60093362876586,344.3832955649077,51.65749189597577C324.98516240423004,56.714050163185675,305.5870292435524,65.43303649886064,286.18889608287475,71.03803889242054C266.7907629221971,76.64304128598043,247.3926297615194,79.13405973742526,227.9679238156901,79.76843509014253C208.5432178698608,80.40281044285979,189.0919391388799,79.18054269684949,169.6672331930506,79.90465930267912C150.24252724722132,80.62877590850876,130.84439408654364,83.29927686617835,111.44626092586596,84.35412474445782C92.04812776518831,85.4089726227373,72.64999460451062,84.84816742162668,53.25186144383296,86.91455775725048C33.85372828315528,88.98094809287427,14.455595122477606,93.67453396523247,-4.969110823351681,95.14034568122717C-24.39381676918097,96.60615739722186,-43.84509550016187,94.84419495685306,-63.269801445991156,94.33158578053543C-82.69450739182044,93.81897660421781,-102.09264055249811,94.55572069195136,-121.49077371317578,95.85876807100249C-140.88890687385344,97.16181545005362,-160.28704003453112,99.03116612042236,-179.6851731952088,103.51760772930726C-199.0833063558865,108.00404933819216,-218.48143951656414,115.10758188559328,-237.90614546239343,115.85532215374076C-257.3308514082227,116.60306242188824,-276.7821301392036,110.99501041078209,-296.2068360850329,107.25630907004467C-315.6315420308622,103.51760772930726,-335.02967519153987,101.64825705893854,-354.4278083522176,102.5829323941229C-373.8259415128952,103.51760772930726,-393.2240746735729,107.25630907004468,-412.62220783425056,110.52767274318994C-432.0203409949283,113.79903641633518,-451.4184741556059,116.60306242188825,-470.84318010143517,118.00507542466478C-490.2678860472645,119.40708842744134,-509.7191647782454,119.40708842744134,-529.1438707240746,120.34176376262569C-548.568576669904,121.27643909781004,-567.9667098305816,123.14578976817876,-577.6657764109204,124.08046510336312L-587.3648429912594,125.01514043854748Z"><title>Clojure</title></path><path fill="#ff9896" d="M-587.3648429912594,125.01514043854748L-577.6657764109204,124.08046510336311C-567.9667098305816,123.14578976817876,-548.568576669904,121.27643909781004,-529.1438707240746,120.34176376262569C-509.7191647782454,119.40708842744134,-490.2678860472645,119.40708842744134,-470.84318010143517,118.00507542466478C-451.4184741556059,116.60306242188825,-432.0203409949283,113.79903641633518,-412.62220783425056,110.52767274318994C-393.2240746735729,107.25630907004468,-373.8259415128952,103.51760772930726,-354.4278083522175,102.5829323941229C-335.02967519153987,101.64825705893854,-315.6315420308622,103.51760772930726,-296.2068360850329,107.25630907004467C-276.7821301392036,110.99501041078209,-257.3308514082227,116.60306242188824,-237.90614546239343,115.85532215374076C-218.48143951656414,115.10758188559328,-199.0833063558865,108.00404933819216,-179.6851731952088,103.51760772930726C-160.28704003453112,99.03116612042236,-140.88890687385344,97.16181545005362,-121.49077371317577,95.85876807100249C-102.09264055249811,94.55572069195136,-82.69450739182044,93.81897660421781,-63.269801445991156,94.33158578053543C-43.84509550016187,94.84419495685306,-24.39381676918097,96.60615739722186,-4.96911082335168,95.14034568122717C14.455595122477606,93.67453396523247,33.85372828315528,88.98094809287427,53.25186144383295,86.91455775725048C72.64999460451062,84.84816742162668,92.04812776518831,85.4089726227373,111.44626092586596,84.35412474445782C130.84439408654364,83.29927686617835,150.24252724722132,80.62877590850876,169.6672331930506,79.90465930267912C189.0919391388799,79.18054269684949,208.5432178698608,80.40281044285979,227.9679238156901,79.76843509014253C247.3926297615194,79.13405973742526,266.7907629221971,76.64304128598043,286.18889608287475,71.03803889242054C305.5870292435524,65.43303649886064,324.98516240423004,56.714050163185675,344.3832955649077,51.65749189597577C363.7814287255854,46.60093362876586,383.1795618862631,45.206803430021004,402.6042678320924,51.003862559509486C422.0289737779217,56.80092168899798,441.4802525089026,69.7891701467198,460.9049584547319,78.20457145345966C480.3296644005611,86.61997276019952,499.7277975612388,90.46252691595743,519.1259307219165,93.4672375161698C538.5240638825941,96.47194811638217,557.9221970432718,98.63881516104898,577.3203302039495,102.0063615337392C596.7184633646272,105.37390790642938,616.1165965253048,109.94213360714292,635.5413024711341,111.83469327654409C654.9660084169634,113.72725294594524,674.4172871479443,112.94414658403402,693.8419930937736,113.40599262215979C713.2666990396028,113.86783866028554,732.6648322002806,115.57463709844829,752.0629653609584,113.04882549032469C771.4610985216359,110.52301388220106,790.8592316823136,103.76459222779108,810.2573648429913,101.84158986397416C829.655498003669,99.91858750015724,849.0536311643465,102.83100442693338,868.4783371101759,107.4535856354049C887.9030430560051,112.07616684387642,907.3543217869861,118.4089123340433,926.7790277328154,123.94228721174227C946.2037336786447,129.47566208944122,965.6018668393223,134.20966635467224,975.3009334196612,136.57666848728778L985,138.9436706199033L985,138.9436706199033L975.3009334196612,136.57666848728778C965.6018668393223,134.20966635467224,946.2037336786447,129.47566208944122,926.7790277328153,123.94228721174227C907.3543217869861,118.4089123340433,887.9030430560051,112.07616684387642,868.4783371101759,107.4535856354049C849.0536311643465,102.83100442693338,829.655498003669,99.91858750015724,810.2573648429913,101.84158986397416C790.8592316823136,103.76459222779108,771.4610985216359,110.52301388220106,752.0629653609582,116.7875268310621C732.6648322002806,123.05203977992313,713.2666990396028,128.82264402323526,693.8419930937736,132.09949932584692C674.4172871479443,135.37635462845859,654.9660084169634,136.15946099036978,635.5413024711341,136.13625199133733C616.1165965253048,136.1130429923049,596.7184633646272,135.2835186323288,577.3203302039494,131.9159722596386C557.9221970432718,128.54842588694842,538.5240638825941,122.64285750154416,519.1259307219165,115.89944556059436C499.7277975612388,109.15603361964457,480.3296644005611,101.57477812314924,460.9049584547318,89.42067547567194C441.4802525089026,77.26657282819464,422.0289737779217,60.5396230297354,402.6042678320924,52.873213229878196C383.1795618862631,45.206803430021004,363.7814287255854,46.60093362876586,344.3832955649077,51.65749189597577C324.98516240423004,56.714050163185675,305.5870292435524,65.43303649886064,286.18889608287475,71.03803889242054C266.7907629221971,76.64304128598043,247.3926297615194,79.13405973742526,227.9679238156901,79.76843509014253C208.5432178698608,80.40281044285979,189.0919391388799,79.18054269684949,169.6672331930506,79.90465930267912C150.24252724722132,80.62877590850876,130.84439408654364,83.29927686617835,111.44626092586596,84.35412474445782C92.04812776518831,85.4089726227373,72.64999460451062,84.84816742162668,53.25186144383296,86.91455775725048C33.85372828315528,88.98094809287427,14.455595122477606,93.67453396523247,-4.969110823351681,95.14034568122717C-24.39381676918097,96.60615739722186,-43.84509550016187,94.84419495685306,-63.269801445991156,94.33158578053543C-82.69450739182044,93.81897660421781,-102.09264055249811,94.55572069195136,-121.49077371317578,95.85876807100249C-140.88890687385344,97.16181545005362,-160.28704003453112,99.03116612042236,-179.6851731952088,103.51760772930726C-199.0833063558865,108.00404933819216,-218.48143951656414,115.10758188559328,-237.90614546239343,115.85532215374076C-257.3308514082227,116.60306242188824,-276.7821301392036,110.99501041078209,-296.2068360850329,107.25630907004467C-315.6315420308622,103.51760772930726,-335.02967519153987,101.64825705893854,-354.4278083522176,102.5829323941229C-373.8259415128952,103.51760772930726,-393.2240746735729,107.25630907004468,-412.62220783425056,110.52767274318994C-432.0203409949283,113.79903641633518,-451.4184741556059,116.60306242188825,-470.84318010143517,118.00507542466478C-490.2678860472645,119.40708842744134,-509.7191647782454,119.40708842744134,-529.1438707240746,120.34176376262569C-548.568576669904,121.27643909781004,-567.9667098305816,123.14578976817876,-577.6657764109204,124.08046510336312L-587.3648429912594,125.01514043854748Z"><title>Ruby</title></path><path fill="#ffbb78" d="M-587.3648429912594,125.01514043854748L-577.6657764109204,125.94981577373183C-567.9667098305816,126.88449110891618,-548.568576669904,128.7538417792849,-529.1438707240746,129.68851711446925C-509.7191647782454,130.6231924496536,-490.2678860472645,130.6231924496536,-470.84318010143517,131.09053011724578C-451.4184741556059,131.55786778483795,-432.0203409949283,132.49254312002233,-412.62220783425056,132.9598807876145C-393.2240746735729,133.42721845520668,-373.8259415128952,133.42721845520668,-354.4278083522175,134.36189379039104C-335.02967519153987,135.2965691255754,-315.6315420308622,137.1659197959441,-296.2068360850329,139.0352704663128C-276.7821301392036,140.9046211366815,-257.3308514082227,142.77397180705023,-237.90614546239343,145.76493287964016C-218.48143951656414,148.7558939522301,-199.0833063558865,152.8684654270413,-179.6851731952088,153.9900758292625C-160.28704003453112,155.11168623148373,-140.88890687385344,153.24233556111503,-121.49077371317577,151.9392881820639C-102.09264055249811,150.63624080301275,-82.69450739182044,149.8994967152792,-63.269801445991156,149.4774305564125C-43.84509550016187,149.05536439754576,-24.39381676918097,148.94797616754587,-4.96911082335168,151.2208657922886C14.455595122477606,153.49375541703134,33.85372828315528,158.14692289651668,53.25186144383295,158.88455856644595C72.64999460451062,159.62219423637524,92.04812776518831,156.4442980967484,111.44626092586596,153.5200995481002C130.84439408654364,150.59590099945203,150.24252724722132,147.92540004178244,169.6672331930506,147.2012834359528C189.0919391388799,146.47716683012314,208.5432178698608,147.69943457613348,227.9679238156901,151.738435899338C247.3926297615194,155.77743722254252,266.7907629221971,162.63317212294126,286.18889608287475,170.674429623073C305.5870292435524,178.7156871232047,324.98516240423004,187.94246722306937,344.3832955649077,197.0929740506617C363.7814287255854,206.243480878254,383.1795618862631,215.3177144335739,402.6042678320924,214.01124101566128C422.0289737779217,212.70476759774866,441.4802525089026,201.01758720660348,460.9049584547319,189.617871407435C480.3296644005611,178.21815560826647,499.7277975612388,167.10590440107467,519.1259307219165,165.43723832536526C538.5240638825941,163.76857224965582,557.9221970432718,171.5434913054288,577.3203302039495,173.97636234293464C596.7184633646272,176.40923338044047,616.1165965253048,173.50005639967915,635.5413024711341,170.71923939315855C654.9660084169634,167.93842238663794,674.4172871479443,165.285965354358,693.8419930937736,161.07443471656197C713.2666990396028,156.86290407876595,732.6648322002806,151.09229983545382,752.0629653609584,148.5664882273302C771.4610985216359,146.0406766192066,790.8592316823136,146.7596576462715,810.2573648429913,146.51907088578642C829.655498003669,146.27848412530133,849.0536311643465,145.07832957726632,868.4783371101759,145.58833931092664C887.9030430560051,146.09834904458697,907.3543217869861,148.3185230599427,926.7790277328154,149.7393264628305C946.2037336786447,151.1601298657183,965.6018668393223,151.78156265613814,975.3009334196612,152.09227905134807L985,152.402995446558L985,152.402995446558L975.3009334196612,152.09227905134807C965.6018668393223,151.78156265613814,946.2037336786447,151.1601298657183,926.7790277328153,149.7393264628305C907.3543217869861,148.3185230599427,887.9030430560051,146.09834904458697,868.4783371101759,145.58833931092664C849.0536311643465,145.07832957726632,829.655498003669,146.27848412530133,810.2573648429913,146.51907088578642C790.8592316823136,146.7596576462715,771.4610985216359,146.0406766192066,752.0629653609582,150.43583889769891C732.6648322002806,154.83100117619128,713.2666990396028,164.3403067602408,693.8419930937736,169.4865127332212C674.4172871479443,174.63271870620156,654.9660084169634,175.41582506811278,635.5413024711341,176.32729140426468C616.1165965253048,177.23875774041662,596.7184633646272,178.2785840508092,577.3203302039494,174.911037678119C557.9221970432718,171.5434913054288,538.5240638825941,163.76857224965582,519.1259307219165,165.43723832536526C499.7277975612388,167.10590440107467,480.3296644005611,178.21815560826647,460.9049584547318,189.617871407435C441.4802525089026,201.01758720660348,422.0289737779217,212.70476759774866,402.6042678320924,214.0112410156613C383.1795618862631,215.3177144335739,363.7814287255854,206.243480878254,344.3832955649077,197.0929740506617C324.98516240423004,187.94246722306937,305.5870292435524,178.7156871232047,286.18889608287475,170.674429623073C266.7907629221971,162.63317212294126,247.3926297615194,155.77743722254252,227.9679238156901,151.738435899338C208.5432178698608,147.69943457613348,189.0919391388799,146.47716683012314,169.6672331930506,147.2012834359528C150.24252724722132,147.92540004178244,130.84439408654364,150.59590099945203,111.44626092586596,153.5200995481002C92.04812776518831,156.4442980967484,72.64999460451062,159.62219423637524,53.25186144383296,158.88455856644595C33.85372828315528,158.14692289651668,14.455595122477606,153.49375541703134,-4.969110823351681,151.22086579228858C-24.39381676918097,148.94797616754587,-43.84509550016187,149.05536439754576,-63.269801445991156,149.4774305564125C-82.69450739182044,149.8994967152792,-102.09264055249811,150.63624080301275,-121.49077371317578,151.93928818206388C-140.88890687385344,153.24233556111503,-160.28704003453112,155.11168623148373,-179.6851731952088,153.9900758292625C-199.0833063558865,152.8684654270413,-218.48143951656414,148.7558939522301,-237.90614546239343,145.76493287964016C-257.3308514082227,142.77397180705023,-276.7821301392036,140.9046211366815,-296.2068360850329,139.0352704663128C-315.6315420308622,137.1659197959441,-335.02967519153987,135.2965691255754,-354.4278083522176,134.36189379039104C-373.8259415128952,133.42721845520668,-393.2240746735729,133.42721845520668,-412.62220783425056,132.9598807876145C-432.0203409949283,132.49254312002233,-451.4184741556059,131.55786778483795,-470.84318010143517,131.09053011724578C-490.2678860472645,130.6231924496536,-509.7191647782454,130.6231924496536,-529.1438707240746,129.68851711446925C-548.568576669904,128.7538417792849,-567.9667098305816,126.88449110891618,-577.6657764109204,125.94981577373183L-587.3648429912594,125.01514043854748Z"><title>C#</title></path><path fill="#c7c7c7" d="M-587.3648429912594,125.01514043854748L-577.6657764109204,125.94981577373183C-567.9667098305816,126.88449110891618,-548.568576669904,128.7538417792849,-529.1438707240746,129.68851711446925C-509.7191647782454,130.6231924496536,-490.2678860472645,130.6231924496536,-470.84318010143517,131.09053011724578C-451.4184741556059,131.55786778483795,-432.0203409949283,132.49254312002233,-412.62220783425056,132.9598807876145C-393.2240746735729,133.42721845520668,-373.8259415128952,133.42721845520668,-354.4278083522175,134.36189379039104C-335.02967519153987,135.2965691255754,-315.6315420308622,137.1659197959441,-296.2068360850329,139.0352704663128C-276.7821301392036,140.9046211366815,-257.3308514082227,142.77397180705023,-237.90614546239343,145.76493287964016C-218.48143951656414,148.7558939522301,-199.0833063558865,152.8684654270413,-179.6851731952088,153.9900758292625C-160.28704003453112,155.11168623148373,-140.88890687385344,153.24233556111503,-121.49077371317577,151.9392881820639C-102.09264055249811,150.63624080301275,-82.69450739182044,149.8994967152792,-63.269801445991156,149.4774305564125C-43.84509550016187,149.05536439754576,-24.39381676918097,148.94797616754587,-4.96911082335168,151.2208657922886C14.455595122477606,153.49375541703134,33.85372828315528,158.14692289651668,53.25186144383295,158.88455856644595C72.64999460451062,159.62219423637524,92.04812776518831,156.4442980967484,111.44626092586596,153.5200995481002C130.84439408654364,150.59590099945203,150.24252724722132,147.92540004178244,169.6672331930506,147.2012834359528C189.0919391388799,146.47716683012314,208.5432178698608,147.69943457613348,227.9679238156901,151.738435899338C247.3926297615194,155.77743722254252,266.7907629221971,162.63317212294126,286.18889608287475,170.674429623073C305.5870292435524,178.7156871232047,324.98516240423004,187.94246722306937,344.3832955649077,197.0929740506617C363.7814287255854,206.243480878254,383.1795618862631,215.3177144335739,402.6042678320924,214.01124101566128C422.0289737779217,212.70476759774866,441.4802525089026,201.01758720660348,460.9049584547319,189.617871407435C480.3296644005611,178.21815560826647,499.7277975612388,167.10590440107467,519.1259307219165,165.43723832536526C538.5240638825941,163.76857224965582,557.9221970432718,171.5434913054288,577.3203302039495,174.91103767811902C596.7184633646272,178.2785840508092,616.1165965253048,177.23875774041662,635.5413024711341,176.32729140426468C654.9660084169634,175.41582506811278,674.4172871479443,174.63271870620156,693.8419930937736,169.4865127332212C713.2666990396028,164.3403067602408,732.6648322002806,154.83100117619128,752.0629653609584,150.43583889769891C771.4610985216359,146.0406766192066,790.8592316823136,146.7596576462715,810.2573648429913,146.51907088578642C829.655498003669,146.27848412530133,849.0536311643465,145.07832957726632,868.4783371101759,145.58833931092664C887.9030430560051,146.09834904458697,907.3543217869861,148.3185230599427,926.7790277328154,149.7393264628305C946.2037336786447,151.1601298657183,965.6018668393223,151.78156265613814,975.3009334196612,152.09227905134807L985,152.402995446558L985,158.01104745766418L975.3009334196612,158.6350063976386C965.6018668393223,159.25896533761303,946.2037336786447,160.50688321756186,926.7790277328153,161.89010582022715C907.3543217869861,163.27332842289243,887.9030430560051,164.79185574827412,868.4783371101759,168.02054735535123C849.0536311643465,171.2492389624283,829.655498003669,176.18809485120073,810.2573648429913,176.42868161168585C790.8592316823136,176.6692683721709,771.4610985216359,172.21158600436857,752.0629653609582,174.73739761249223C732.6648322002806,177.26320922061583,713.2666990396028,186.77251480466535,693.8419930937736,188.18001943690834C674.4172871479443,189.58752406915127,654.9660084169634,182.89322774958762,635.5413024711341,180.0659927450021C616.1165965253048,177.23875774041662,596.7184633646272,178.2785840508092,577.3203302039494,174.911037678119C557.9221970432718,171.5434913054288,538.5240638825941,163.76857224965582,519.1259307219165,165.43723832536526C499.7277975612388,167.10590440107467,480.3296644005611,178.21815560826647,460.9049584547318,189.617871407435C441.4802525089026,201.01758720660348,422.0289737779217,212.70476759774866,402.6042678320924,214.0112410156613C383.1795618862631,215.3177144335739,363.7814287255854,206.243480878254,344.3832955649077,197.0929740506617C324.98516240423004,187.94246722306937,305.5870292435524,178.7156871232047,286.18889608287475,170.674429623073C266.7907629221971,162.63317212294126,247.3926297615194,155.77743722254252,227.9679238156901,151.738435899338C208.5432178698608,147.69943457613348,189.0919391388799,146.47716683012314,169.6672331930506,147.2012834359528C150.24252724722132,147.92540004178244,130.84439408654364,150.59590099945203,111.44626092586596,153.5200995481002C92.04812776518831,156.4442980967484,72.64999460451062,159.62219423637524,53.25186144383296,158.88455856644595C33.85372828315528,158.14692289651668,14.455595122477606,153.49375541703134,-4.969110823351681,151.22086579228858C-24.39381676918097,148.94797616754587,-43.84509550016187,149.05536439754576,-63.269801445991156,149.4774305564125C-82.69450739182044,149.8994967152792,-102.09264055249811,150.63624080301275,-121.49077371317578,151.93928818206388C-140.88890687385344,153.24233556111503,-160.28704003453112,155.11168623148373,-179.6851731952088,153.9900758292625C-199.0833063558865,152.8684654270413,-218.48143951656414,148.7558939522301,-237.90614546239343,145.76493287964016C-257.3308514082227,142.77397180705023,-276.7821301392036,140.9046211366815,-296.2068360850329,139.0352704663128C-315.6315420308622,137.1659197959441,-335.02967519153987,135.2965691255754,-354.4278083522176,134.36189379039104C-373.8259415128952,133.42721845520668,-393.2240746735729,133.42721845520668,-412.62220783425056,132.9598807876145C-432.0203409949283,132.49254312002233,-451.4184741556059,131.55786778483795,-470.84318010143517,131.09053011724578C-490.2678860472645,130.6231924496536,-509.7191647782454,130.6231924496536,-529.1438707240746,129.68851711446925C-548.568576669904,128.7538417792849,-567.9667098305816,126.88449110891618,-577.6657764109204,125.94981577373183L-587.3648429912594,125.01514043854748Z"><title>ClojureScript</title></path><path fill="#d62728" d="M-587.3648429912594,125.01514043854748L-577.6657764109204,125.94981577373183C-567.9667098305816,126.88449110891618,-548.568576669904,128.7538417792849,-529.1438707240746,129.68851711446925C-509.7191647782454,130.6231924496536,-490.2678860472645,130.6231924496536,-470.84318010143517,131.09053011724578C-451.4184741556059,131.55786778483795,-432.0203409949283,132.49254312002233,-412.62220783425056,132.9598807876145C-393.2240746735729,133.42721845520668,-373.8259415128952,133.42721845520668,-354.4278083522175,134.36189379039104C-335.02967519153987,135.2965691255754,-315.6315420308622,137.1659197959441,-296.2068360850329,139.0352704663128C-276.7821301392036,140.9046211366815,-257.3308514082227,142.77397180705023,-237.90614546239343,145.76493287964016C-218.48143951656414,148.7558939522301,-199.0833063558865,152.8684654270413,-179.6851731952088,153.9900758292625C-160.28704003453112,155.11168623148373,-140.88890687385344,153.24233556111503,-121.49077371317577,152.12622324910078C-102.09264055249811,151.0101109370865,-82.69450739182044,150.6472369834267,-63.269801445991156,150.5990409586337C-43.84509550016187,150.55084493384072,-24.39381676918097,150.81732683791458,-4.96911082335168,153.65102166376792C14.455595122477606,156.48471648962126,33.85372828315528,161.88562423725412,53.25186144383295,163.184065108294C72.64999460451062,164.48250597933392,92.04812776518831,161.6784799737808,111.44626092586596,159.87589182735385C130.84439408654364,158.07330368092687,150.24252724722132,157.272153393626,169.6672331930506,156.54803678779635C189.0919391388799,155.8239201819667,208.5432178698608,155.17683725760833,227.9679238156901,157.53342297748102C247.3926297615194,159.8900086973537,266.7907629221971,165.25026306145747,286.18889608287475,172.5437802934417C305.5870292435524,179.83729752542592,324.98516240423004,189.0640776252906,344.3832955649077,198.96232472103043C363.7814287255854,208.8605718167702,383.1795618862631,219.43028590838512,402.6042678320924,219.8062280938043C422.0289737779217,220.18217027922353,441.4802525089026,210.36434055844703,460.9049584547319,198.96462475927854C480.3296644005611,187.56490896011005,499.7277975612388,174.58330708254957,519.1259307219165,171.41916047054517C538.5240638825941,168.25501385854076,557.9221970432718,174.9083225120925,577.3203302039495,178.27586888478268C596.7184633646272,181.64341525747287,616.1165965253048,181.7251993493015,635.5413024711341,186.047914890182C654.9660084169634,190.3706304310625,674.4172871479443,198.93427742099485,693.8419930937736,198.46144812393626C713.2666990396028,197.98861882687766,732.6648322002806,188.47931324282808,752.0629653609584,185.95350163470448C771.4610985216359,183.42769002658088,790.8592316823136,187.8853723943832,810.2573648429913,189.51413630426683C829.655498003669,191.14290021415047,849.0536311643465,189.94274566611543,868.4783371101759,186.71405405903832C887.9030430560051,183.48536245196124,907.3543217869861,178.22813378584212,926.7790277328154,174.04088517762378C946.2037336786447,169.85363656940544,965.6018668393223,166.73636801908788,975.3009334196612,165.17773374392908L985,163.61909946877032L985,174.8352034909826L975.3009334196612,178.2631884365101C965.6018668393223,181.6911733820376,946.2037336786447,188.54714327309253,926.7790277328153,196.47309322204833C907.3543217869861,204.3990431710041,887.9030430560051,213.3949731778607,868.4783371101759,216.62366478493777C849.0536311643465,219.85235639201485,829.655498003669,217.31380959931246,810.2573648429913,211.94634434869138C790.8592316823136,206.5788790980703,771.4610985216359,198.3824953895306,752.0629653609582,197.16960565691673C732.6648322002806,195.95671592430293,713.2666990396028,201.72732016761506,693.8419930937736,200.33079879430497C674.4172871479443,198.93427742099485,654.9660084169634,190.3706304310625,635.5413024711341,186.04791489018203C616.1165965253048,181.7251993493015,596.7184633646272,181.64341525747287,577.3203302039494,178.27586888478268C557.9221970432718,174.9083225120925,538.5240638825941,168.25501385854076,519.1259307219165,171.41916047054517C499.7277975612388,174.58330708254957,480.3296644005611,187.56490896011005,460.9049584547318,198.96462475927854C441.4802525089026,210.36434055844703,422.0289737779217,220.18217027922353,402.6042678320924,219.80622809380432C383.1795618862631,219.43028590838512,363.7814287255854,208.8605718167702,344.3832955649077,198.9623247210304C324.98516240423004,189.0640776252906,305.5870292435524,179.83729752542592,286.18889608287475,172.5437802934417C266.7907629221971,165.25026306145747,247.3926297615194,159.8900086973537,227.9679238156901,157.53342297748102C208.5432178698608,155.17683725760833,189.0919391388799,155.8239201819667,169.6672331930506,156.54803678779635C150.24252724722132,157.272153393626,130.84439408654364,158.07330368092687,111.44626092586596,159.87589182735385C92.04812776518831,161.6784799737808,72.64999460451062,164.48250597933392,53.25186144383296,163.184065108294C33.85372828315528,161.88562423725412,14.455595122477606,156.48471648962126,-4.969110823351681,153.65102166376792C-24.39381676918097,150.81732683791458,-43.84509550016187,150.55084493384072,-63.269801445991156,150.5990409586337C-82.69450739182044,150.6472369834267,-102.09264055249811,151.0101109370865,-121.49077371317578,152.12622324910075C-140.88890687385344,153.24233556111503,-160.28704003453112,155.11168623148373,-179.6851731952088,153.9900758292625C-199.0833063558865,152.8684654270413,-218.48143951656414,148.7558939522301,-237.90614546239343,145.76493287964016C-257.3308514082227,142.77397180705023,-276.7821301392036,140.9046211366815,-296.2068360850329,139.0352704663128C-315.6315420308622,137.1659197959441,-335.02967519153987,135.2965691255754,-354.4278083522176,134.36189379039104C-373.8259415128952,133.42721845520668,-393.2240746735729,133.42721845520668,-412.62220783425056,132.9598807876145C-432.0203409949283,132.49254312002233,-451.4184741556059,131.55786778483795,-470.84318010143517,131.09053011724578C-490.2678860472645,130.6231924496536,-509.7191647782454,130.6231924496536,-529.1438707240746,129.68851711446925C-548.568576669904,128.7538417792849,-567.9667098305816,126.88449110891618,-577.6657764109204,125.94981577373183L-587.3648429912594,125.01514043854748Z"><title>Scala</title></path></g><g transform="translate(0,230)" fill="none" font-size="10" font-family="sans-serif" text-anchor="middle"><g class="tick" opacity="1" transform="translate(53.25186144383295,0)"><line stroke="currentColor" y2="6"></line><text fill="currentColor" y="9" dy="0.71em">2006</text></g><g class="tick" opacity="1" transform="translate(111.44626092586597,0)"><line stroke="currentColor" y2="6"></line><text fill="currentColor" y="9" dy="0.71em">2007</text></g><g class="tick" opacity="1" transform="translate(169.640660407899,0)"><line stroke="currentColor" y2="6"></line><text fill="currentColor" y="9" dy="0.71em">2008</text></g><g class="tick" opacity="1" transform="translate(227.9944966008417,0)"><line stroke="currentColor" y2="6"></line><text fill="currentColor" y="9" dy="0.71em">2009</text></g><g class="tick" opacity="1" transform="translate(286.18889608287475,0)"><line stroke="currentColor" y2="6"></line><text fill="currentColor" y="9" dy="0.71em">2010</text></g><g class="tick" opacity="1" transform="translate(344.3832955649077,0)"><line stroke="currentColor" y2="6"></line><text fill="currentColor" y="9" dy="0.71em">2011</text></g><g class="tick" opacity="1" transform="translate(402.5776950469408,0)"><line stroke="currentColor" y2="6"></line><text fill="currentColor" y="9" dy="0.71em">2012</text></g><g class="tick" opacity="1" transform="translate(460.93153123988344,0)"><line stroke="currentColor" y2="6"></line><text fill="currentColor" y="9" dy="0.71em">2013</text></g><g class="tick" opacity="1" transform="translate(519.1259307219165,0)"><line stroke="currentColor" y2="6"></line><text fill="currentColor" y="9" dy="0.71em">2014</text></g><g class="tick" opacity="1" transform="translate(577.3203302039494,0)"><line stroke="currentColor" y2="6"></line><text fill="currentColor" y="9" dy="0.71em">2015</text></g><g class="tick" opacity="1" transform="translate(635.5147296859825,0)"><line stroke="currentColor" y2="6"></line><text fill="currentColor" y="9" dy="0.71em">2016</text></g><g class="tick" opacity="1" transform="translate(693.8685658789252,0)"><line stroke="currentColor" y2="6"></line><text fill="currentColor" y="9" dy="0.71em">2017</text></g><g class="tick" opacity="1" transform="translate(752.0629653609583,0)"><line stroke="currentColor" y2="6"></line><text fill="currentColor" y="9" dy="0.71em">2018</text></g><g class="tick" opacity="1" transform="translate(810.2573648429913,0)"><line stroke="currentColor" y2="6"></line><text fill="currentColor" y="9" dy="0.71em">2019</text></g><g class="tick" opacity="1" transform="translate(868.4517643250242,0)"><line stroke="currentColor" y2="6"></line><text fill="currentColor" y="9" dy="0.71em">2020</text></g><g class="tick" opacity="1" transform="translate(926.805600517967,0)"><line stroke="currentColor" y2="6"></line><text fill="currentColor" y="9" dy="0.71em">2021</text></g><g class="tick" opacity="1" transform="translate(985,0)"><line stroke="currentColor" y2="6"></line><text fill="currentColor" y="9" dy="0.71em">2022</text></g></g><g transform="translate(0,0) rotate(270)"><text x="0" text-anchor="end" y="10" font-family="sans-serif" font-size="10">% time spent with language</text></g><text class="area-label" font-family="sans-serif" fill="white" transform="translate(-528.3273645310118,128.25480243479885) scale(0.6405376057502439)" style="filter: url(&quot;#drop-shadow&quot;);">QBasic</text><text class="area-label" font-family="sans-serif" fill="white" transform="translate(-390.57324812376766,122.30854913132202) scale(1.1267069857143917)" style="filter: url(&quot;#drop-shadow&quot;);">Visual Basic</text><text class="area-label" font-family="sans-serif" fill="white" transform="translate(311.972745553178,158.03447821782606) scale(2.044832867025641)" style="filter: url(&quot;#drop-shadow&quot;);">C/C++</text><text class="area-label" font-family="sans-serif" fill="white" transform="translate(117.1490666343613,113.19091729711913) scale(1.9787982339312649)" style="filter: url(&quot;#drop-shadow&quot;);">Java</text><text class="area-label" font-family="sans-serif" fill="white" transform="translate(12.849521354590593,140.34094582493813) scale(1.478065319049501)" style="filter: url(&quot;#drop-shadow&quot;);">PHP</text><text class="area-label" font-family="sans-serif" fill="white" transform="translate(821.662976259982,186.56772970223733) scale(0.6041215788812809)" style="filter: url(&quot;#drop-shadow&quot;);">JavaScript</text><text class="area-label" font-family="sans-serif" fill="white" transform="translate(325.74815719390244,76.27059007316151) scale(1.4406399219569332)" style="filter: url(&quot;#drop-shadow&quot;);">MATLAB</text><text class="area-label" font-family="sans-serif" fill="white" transform="translate(286.38983822040416,119.72739259523217) scale(1.2737644909585035)" style="filter: url(&quot;#drop-shadow&quot;);">Scheme</text><text class="area-label" font-family="sans-serif" fill="white" transform="translate(788.2084051325083,137.33170974629246) scale(1.7776950290178606)" style="filter: url(&quot;#drop-shadow&quot;);">Python</text><text class="area-label" font-family="sans-serif" fill="white" transform="translate(554.026407240193,85.37210478528111) scale(3.454944016510488)" style="filter: url(&quot;#drop-shadow&quot;);">Clojure</text><text class="area-label" font-family="sans-serif" fill="white" transform="translate(577.6413986242922,129.83605144124826) scale(1.2574244300722142)" style="filter: url(&quot;#drop-shadow&quot;);">Ruby</text><text class="area-label" font-family="sans-serif" fill="white" transform="translate(681.9409439040626,171.82876046598028) scale(0.5479460994169713)" style="filter: url(&quot;#drop-shadow&quot;);">C#</text><text class="area-label" font-family="sans-serif" fill="white" transform="translate(748.8500861590098,163.61248837066015) scale(1.1691018325331446)" style="filter: url(&quot;#drop-shadow&quot;);">ClojureScript</text><text class="area-label" font-family="sans-serif" fill="white" transform="translate(823.6308922086567,211.2054227522315) scale(1.4254581718902941)" style="filter: url(&quot;#drop-shadow&quot;);">Scala</text><defs><filter id="drop-shadow"><feGaussianBlur in="SourceAlpha" stdDeviation="1" result="blur"></feGaussianBlur><feOffset in="blur" dx="1" dy="1"></feOffset><feComponentTransfer result="offsetBlur"><feFuncA type="linear" slope="0.4"></feFuncA></feComponentTransfer><feMerge><feMergeNode in="offsetBlur"></feMergeNode><feMergeNode in="SourceGraphic"></feMergeNode></feMerge></filter></defs></svg>