<svg xmlns="http://www.w3.org/2000/svg" width="1000" height="150" viewBox="0,0,1000,150" style="max-width: 100%; height: auto; height: intrinsic;" id="chartSmall"><g><path fill="#7f7f7f" d="M-602.5257394999182,72.24561581623074L-592.7331535653974,71.71732106156132C-582.9405676308764,71.18902630689189,-563.3553957618348,70.13243679755305,-543.7433948902326,69.0758472882142C-524.1313940186305,68.01925777887537,-504.4925641444681,66.96266826953654,-484.8805632728659,66.96266826953654C-465.2685624012638,66.96266826953654,-445.68339053222206,68.01925777887537,-426.09821866318026,69.60414204288362C-406.5130467941385,71.18902630689189,-386.92787492509666,73.30220532556957,-367.3427030560549,73.83050008023899C-347.75753118701306,74.35879483490841,-328.1723593179713,73.30220532556957,-308.5603584463692,72.24561581623074C-288.94835757476704,71.18902630689189,-269.30952770060463,70.13243679755305,-249.69752682900253,69.70980099381751C-230.08552595740045,69.28716519008198,-210.50035408835868,69.49848309194975,-190.91518221931688,70.13243679755305C-171.3300103502751,70.76639050315636,-151.7448384812333,71.8229800124952,-132.15966661219153,72.14306448150079C-112.57449474314974,72.46314895050638,-92.98932287410797,72.04672837917872,-73.37732200250585,71.27987449123681C-53.76532113090374,70.51302060329489,-34.126491256741296,69.39573339873871,-14.514490385139181,68.56723112448084C5.09751048646293,67.73872885022297,24.682682355504713,67.19901150626339,44.26785422454649,68.14423077002327C63.85302609358828,69.08945003378315,83.43819796263006,71.51960590526248,103.02336983167186,73.0365665579561C122.60854170071362,74.55352721064972,142.19371356975543,75.15729264455763,161.80571444135754,74.21971459094102C181.41771531295964,73.2821365373244,201.05654518712208,70.80321499618329,220.66854605872422,67.80318124086557C240.28054693032632,64.80314748554785,259.8657187993681,61.28200151605355,279.4508906684099,57.90263878304324C299.0360625374517,54.52327605003291,318.62123440649344,51.28569655350659,338.20640627553524,50.11818509567791C357.79157814457704,48.95067363784923,377.37675001361885,49.85323021871819,396.98875088522095,52.81285200432307C416.600751756823,55.77247378992795,436.2395816309854,60.78916078026875,455.85158250258763,64.38344349337073C475.4635833741897,67.97772620647272,495.0487552432315,70.14960464233589,514.6339271122733,72.90450883875128C534.2190989813151,75.65941303516668,553.8042708503568,78.9973429921343,573.3894427193986,81.9573282773415C592.9746145884404,84.9173135625487,612.5597864574821,87.49935417599549,632.1717873290843,88.56906181522224C651.7837882006864,89.63876945444899,671.4226180748489,89.1961441194557,691.0346189464509,86.28741900429286C710.646619818053,83.37869388913003,730.2317916870948,78.00386899379768,749.8169635561366,72.87817306304187C769.4021354251785,67.75247713228607,788.9873072942202,62.87591016610683,808.572479163262,61.155042080954836C828.1576510323038,59.434173995802844,847.7428229013454,60.869004791678115,867.3548237729477,63.27045018155511C886.9668246445498,65.6718955714321,906.6056545187122,69.03995555531084,926.2176553903142,71.9561973669251C945.8296562619165,74.87243917853935,965.4148281309582,77.33686281788914,975.2074140654792,78.56907463756403L985,79.80128645723892L985,79.80128645723892L975.2074140654792,78.56907463756403C965.4148281309582,77.33686281788914,945.8296562619165,74.87243917853935,926.2176553903142,71.9561973669251C906.6056545187122,69.03995555531084,886.9668246445498,65.6718955714321,867.3548237729477,63.270450181555105C847.7428229013454,60.869004791678115,828.1576510323038,59.434173995802844,808.5724791632618,61.15504208095484C788.9873072942202,62.87591016610683,769.4021354251785,67.75247713228607,749.8169635561366,72.87817306304187C730.2317916870948,78.00386899379768,710.646619818053,83.37869388913003,691.0346189464509,86.28741900429286C671.4226180748489,89.1961441194557,651.7837882006864,89.63876945444899,632.1717873290843,88.56906181522224C612.5597864574821,87.49935417599549,592.9746145884404,84.9173135625487,573.3894427193986,81.9573282773415C553.8042708503568,78.9973429921343,534.2190989813151,75.65941303516668,514.6339271122733,72.90450883875128C495.0487552432315,70.14960464233589,475.4635833741897,67.97772620647272,455.8515825025875,64.38344349337073C436.2395816309854,60.78916078026875,416.600751756823,55.77247378992795,396.9887508852209,52.81285200432307C377.37675001361885,49.85323021871819,357.79157814457704,48.95067363784923,338.20640627553524,50.11818509567791C318.62123440649344,51.28569655350659,299.0360625374517,54.52327605003291,279.4508906684099,57.90263878304322C259.8657187993681,61.28200151605355,240.28054693032632,64.80314748554785,220.66854605872422,67.80318124086557C201.05654518712208,70.80321499618329,181.41771531295964,73.2821365373244,161.80571444135754,74.21971459094102C142.19371356975543,75.15729264455763,122.60854170071362,74.55352721064972,103.02336983167184,73.0365665579561C83.43819796263006,71.51960590526248,63.85302609358828,69.08945003378315,44.267854224546504,68.14423077002327C24.682682355504713,67.19901150626339,5.09751048646293,67.73872885022297,-14.514490385139183,68.56723112448084C-34.126491256741296,69.39573339873871,-53.76532113090374,70.51302060329489,-73.37732200250585,71.27987449123681C-92.98932287410797,72.04672837917872,-112.57449474314974,72.46314895050638,-132.15966661219153,72.14306448150079C-151.7448384812333,71.8229800124952,-171.3300103502751,70.76639050315636,-190.91518221931688,70.13243679755305C-210.50035408835868,69.49848309194975,-230.08552595740045,69.28716519008198,-249.69752682900253,69.70980099381751C-269.30952770060463,70.13243679755305,-288.94835757476704,71.18902630689189,-308.5603584463692,72.24561581623074C-328.1723593179713,73.30220532556957,-347.75753118701306,74.35879483490841,-367.3427030560549,74.88708958957784C-386.92787492509666,75.41538434424726,-406.5130467941385,75.41538434424726,-426.09821866318026,75.94367909891668C-445.68339053222206,76.47197385358609,-465.2685624012638,77.52856336292493,-484.880563272866,77.52856336292494C-504.4925641444681,77.52856336292493,-524.1313940186305,76.47197385358609,-543.7433948902326,75.41538434424724C-563.3553957618348,74.35879483490841,-582.9405676308764,73.30220532556957,-592.7331535653974,72.77391057090016L-602.5257394999182,72.24561581623074Z"><title>QBasic</title></path><path fill="#c49c94" d="M-602.5257394999182,72.24561581623074L-592.7331535653974,71.71732106156132C-582.9405676308764,71.18902630689189,-563.3553957618348,70.13243679755305,-543.7433948902326,69.0758472882142C-524.1313940186305,68.01925777887537,-504.4925641444681,66.96266826953654,-484.8805632728659,65.9060787601977C-465.2685624012638,64.84948925085887,-445.68339053222206,63.792899741520024,-426.09821866318026,62.208015477511786C-406.5130467941385,60.62313121350352,-386.92787492509666,58.50995219482585,-367.3427030560549,57.981657440156425C-347.75753118701306,57.45336268548701,-328.1723593179713,58.50995219482584,-308.5603584463692,60.62313121350351C-288.94835757476704,62.73631023218119,-269.30952770060463,65.9060787601977,-249.69752682900253,67.59662197513983C-230.08552595740045,69.28716519008198,-210.50035408835868,69.49848309194975,-190.91518221931688,70.13243679755305C-171.3300103502751,70.76639050315636,-151.7448384812333,71.8229800124952,-132.15966661219153,72.14306448150079C-112.57449474314974,72.46314895050638,-92.98932287410797,72.04672837917872,-73.37732200250585,71.27987449123681C-53.76532113090374,70.51302060329489,-34.126491256741296,69.39573339873871,-14.514490385139181,68.56723112448084C5.09751048646293,67.73872885022297,24.682682355504713,67.19901150626339,44.26785422454649,67.08764126068444C63.85302609358828,66.97627101510547,83.43819796263006,67.29324786790711,103.02336983167186,68.28191376593132C122.60854170071362,69.27057966395552,142.19371356975543,70.93093460720227,161.80571444135754,71.0499460629245C181.41771531295964,71.16895751864674,201.05654518712208,69.74662548684445,220.66854605872422,67.27488648619615C240.28054693032632,64.80314748554785,259.8657187993681,61.28200151605355,279.4508906684099,57.90263878304324C299.0360625374517,54.52327605003291,318.62123440649344,51.28569655350659,338.20640627553524,50.11818509567791C357.79157814457704,48.95067363784923,377.37675001361885,49.85323021871819,396.98875088522095,52.81285200432307C416.600751756823,55.77247378992795,436.2395816309854,60.78916078026875,455.85158250258763,64.38344349337073C475.4635833741897,67.97772620647272,495.0487552432315,70.14960464233589,514.6339271122733,72.90450883875128C534.2190989813151,75.65941303516668,553.8042708503568,78.9973429921343,573.3894427193986,81.9573282773415C592.9746145884404,84.9173135625487,612.5597864574821,87.49935417599549,632.1717873290843,88.56906181522224C651.7837882006864,89.63876945444899,671.4226180748489,89.1961441194557,691.0346189464509,86.28741900429286C710.646619818053,83.37869388913003,730.2317916870948,78.00386899379768,749.8169635561366,72.87817306304187C769.4021354251785,67.75247713228607,788.9873072942202,62.87591016610683,808.572479163262,61.155042080954836C828.1576510323038,59.434173995802844,847.7428229013454,60.869004791678115,867.3548237729477,63.27045018155511C886.9668246445498,65.6718955714321,906.6056545187122,69.03995555531084,926.2176553903142,71.9561973669251C945.8296562619165,74.87243917853935,965.4148281309582,77.33686281788914,975.2074140654792,78.56907463756403L985,79.80128645723892L985,79.80128645723892L975.2074140654792,78.56907463756403C965.4148281309582,77.33686281788914,945.8296562619165,74.87243917853935,926.2176553903142,71.9561973669251C906.6056545187122,69.03995555531084,886.9668246445498,65.6718955714321,867.3548237729477,63.270450181555105C847.7428229013454,60.869004791678115,828.1576510323038,59.434173995802844,808.5724791632618,61.15504208095484C788.9873072942202,62.87591016610683,769.4021354251785,67.75247713228607,749.8169635561366,72.87817306304187C730.2317916870948,78.00386899379768,710.646619818053,83.37869388913003,691.0346189464509,86.28741900429286C671.4226180748489,89.1961441194557,651.7837882006864,89.63876945444899,632.1717873290843,88.56906181522224C612.5597864574821,87.49935417599549,592.9746145884404,84.9173135625487,573.3894427193986,81.9573282773415C553.8042708503568,78.9973429921343,534.2190989813151,75.65941303516668,514.6339271122733,72.90450883875128C495.0487552432315,70.14960464233589,475.4635833741897,67.97772620647272,455.8515825025875,64.38344349337073C436.2395816309854,60.78916078026875,416.600751756823,55.77247378992795,396.9887508852209,52.81285200432307C377.37675001361885,49.85323021871819,357.79157814457704,48.95067363784923,338.20640627553524,50.11818509567791C318.62123440649344,51.28569655350659,299.0360625374517,54.52327605003291,279.4508906684099,57.90263878304322C259.8657187993681,61.28200151605355,240.28054693032632,64.80314748554785,220.66854605872422,67.80318124086557C201.05654518712208,70.80321499618329,181.41771531295964,73.2821365373244,161.80571444135754,74.21971459094102C142.19371356975543,75.15729264455763,122.60854170071362,74.55352721064972,103.02336983167184,73.0365665579561C83.43819796263006,71.51960590526248,63.85302609358828,69.08945003378315,44.267854224546504,68.14423077002327C24.682682355504713,67.19901150626339,5.09751048646293,67.73872885022297,-14.514490385139183,68.56723112448084C-34.126491256741296,69.39573339873871,-53.76532113090374,70.51302060329489,-73.37732200250585,71.27987449123681C-92.98932287410797,72.04672837917872,-112.57449474314974,72.46314895050638,-132.15966661219153,72.14306448150079C-151.7448384812333,71.8229800124952,-171.3300103502751,70.76639050315636,-190.91518221931688,70.13243679755305C-210.50035408835868,69.49848309194975,-230.08552595740045,69.28716519008198,-249.69752682900253,69.70980099381751C-269.30952770060463,70.13243679755305,-288.94835757476704,71.18902630689189,-308.5603584463692,72.24561581623074C-328.1723593179713,73.30220532556957,-347.75753118701306,74.35879483490841,-367.3427030560549,73.83050008023899C-386.92787492509666,73.30220532556957,-406.5130467941385,71.18902630689189,-426.09821866318026,69.60414204288362C-445.68339053222206,68.01925777887537,-465.2685624012638,66.96266826953654,-484.880563272866,66.96266826953654C-504.4925641444681,66.96266826953654,-524.1313940186305,68.01925777887537,-543.7433948902326,69.0758472882142C-563.3553957618348,70.13243679755305,-582.9405676308764,71.18902630689189,-592.7331535653974,71.71732106156132L-602.5257394999182,72.24561581623074Z"><title>Visual Basic</title></path><path fill="#ff7f0e" d="M-602.5257394999182,72.24561581623074L-592.7331535653974,72.77391057090016C-582.9405676308764,73.30220532556957,-563.3553957618348,74.35879483490841,-543.7433948902326,75.41538434424724C-524.1313940186305,76.47197385358609,-504.4925641444681,77.52856336292493,-484.8805632728659,77.52856336292494C-465.2685624012638,77.52856336292493,-445.68339053222206,76.47197385358609,-426.09821866318026,75.94367909891668C-406.5130467941385,75.41538434424726,-386.92787492509666,75.41538434424726,-367.3427030560549,74.88708958957784C-347.75753118701306,74.35879483490841,-328.1723593179713,73.30220532556957,-308.5603584463692,72.24561581623074C-288.94835757476704,71.18902630689189,-269.30952770060463,70.13243679755305,-249.69752682900253,69.70980099381751C-230.08552595740045,69.28716519008198,-210.50035408835868,69.49848309194975,-190.91518221931688,70.13243679755305C-171.3300103502751,70.76639050315636,-151.7448384812333,71.8229800124952,-132.15966661219153,73.19965399083962C-112.57449474314974,74.57632796918405,-92.98932287410797,76.27308641653406,-73.37732200250585,77.61941154726982C-53.76532113090374,78.96573667800557,-34.126491256741296,79.96162849212708,-14.514490385139181,81.24630523654689C5.09751048646293,82.5309819809667,24.682682355504713,84.1044436556848,44.26785422454649,83.99307341010584C63.85302609358828,83.88170316452688,83.43819796263006,82.08550099865086,103.02336983167186,80.43269312332797C122.60854170071362,78.77988524800507,142.19371356975543,77.2704716632353,161.80571444135754,75.80459885494928C181.41771531295964,74.33872604666325,201.05654518712208,72.91639401486097,220.66854605872422,72.02953927822092C240.28054693032632,71.14268454158089,259.8657187993681,70.79130710010308,279.4508906684099,71.11000764977871C299.0360625374517,71.42870819945432,318.62123440649344,72.41748674028337,338.20640627553524,71.24997528245468C357.79157814457704,70.082463824626,377.37675001361885,66.7586623681396,396.98875088522095,66.02022087105854C416.600751756823,65.28177937397749,436.2395816309854,67.12869783630178,455.85158250258763,68.60980153072609C475.4635833741897,70.0909052251504,495.0487552432315,71.20619415167472,514.6339271122733,73.4328035934207C534.2190989813151,75.65941303516668,553.8042708503568,78.9973429921343,573.3894427193986,81.9573282773415C592.9746145884404,84.9173135625487,612.5597864574821,87.49935417599549,632.1717873290843,88.56906181522224C651.7837882006864,89.63876945444899,671.4226180748489,89.1961441194557,691.0346189464509,86.28741900429286C710.646619818053,83.37869388913003,730.2317916870948,78.00386899379768,749.8169635561366,72.87817306304187C769.4021354251785,67.75247713228607,788.9873072942202,62.87591016610683,808.572479163262,61.155042080954836C828.1576510323038,59.434173995802844,847.7428229013454,60.869004791678115,867.3548237729477,63.27045018155511C886.9668246445498,65.6718955714321,906.6056545187122,69.03995555531084,926.2176553903142,71.9561973669251C945.8296562619165,74.87243917853935,965.4148281309582,77.33686281788914,975.2074140654792,78.56907463756403L985,79.80128645723892L985,79.80128645723892L975.2074140654792,78.56907463756403C965.4148281309582,77.33686281788914,945.8296562619165,74.87243917853935,926.2176553903142,71.9561973669251C906.6056545187122,69.03995555531084,886.9668246445498,65.6718955714321,867.3548237729477,63.270450181555105C847.7428229013454,60.869004791678115,828.1576510323038,59.434173995802844,808.5724791632618,61.15504208095484C788.9873072942202,62.87591016610683,769.4021354251785,67.75247713228607,749.8169635561366,72.87817306304187C730.2317916870948,78.00386899379768,710.646619818053,83.37869388913003,691.0346189464509,86.28741900429286C671.4226180748489,89.1961441194557,651.7837882006864,89.63876945444899,632.1717873290843,88.56906181522224C612.5597864574821,87.49935417599549,592.9746145884404,84.9173135625487,573.3894427193986,82.4856230320109C553.8042708503568,80.05393250147314,534.2190989813151,77.77259205384435,514.6339271122733,77.65916163077605C495.0487552432315,77.54573120770776,475.4635833741897,79.60021080919994,455.8515825025875,82.8737599068004C436.2395816309854,86.14730900440087,416.600751756823,90.63992759810962,396.9887508852209,93.49154811386835C377.37675001361885,96.34316862962707,357.79157814457704,97.55379106743578,338.20640627553524,96.60812350658678C318.62123440649344,95.66245594573779,299.0360625374517,92.56049838623107,279.4508906684099,90.1286188178778C259.8657187993681,87.6967392495245,240.28054693032632,85.93493767232462,220.66854605872422,84.70861339028698C201.05654518712208,83.48228910824935,181.41771531295964,82.79144212137396,161.80571444135754,83.20072542032115C142.19371356975543,83.61000871926832,122.60854170071362,85.1194223040381,103.02336983167184,86.77223017936099C83.43819796263006,88.4250380546839,63.85302609358828,90.22124022055992,44.267854224546504,89.80431571146944C24.682682355504713,89.38739120237899,5.09751048646293,86.75734001832204,-14.514490385139183,85.47266327390224C-34.126491256741296,84.18798652948244,-53.76532113090374,84.24868422469977,-73.37732200250585,84.48724335797228C-92.98932287410797,84.72580249124478,-112.57449474314974,85.14222306257243,-132.15966661219153,85.87872810290567C-151.7448384812333,86.61523314323892,-171.3300103502751,87.67182265257777,-190.91518221931688,87.03786894697447C-210.50035408835868,86.40391524137117,-230.08552595740045,84.07941832082571,-249.69752682900253,82.38887510588357C-269.30952770060463,80.69833189094143,-288.94835757476704,79.6417423816026,-308.5603584463692,78.58515287226378C-328.1723593179713,77.52856336292493,-347.75753118701306,76.47197385358609,-367.3427030560549,75.94367909891668C-386.92787492509666,75.41538434424726,-406.5130467941385,75.41538434424726,-426.09821866318026,75.94367909891668C-445.68339053222206,76.47197385358609,-465.2685624012638,77.52856336292493,-484.880563272866,77.52856336292494C-504.4925641444681,77.52856336292493,-524.1313940186305,76.47197385358609,-543.7433948902326,75.41538434424724C-563.3553957618348,74.35879483490841,-582.9405676308764,73.30220532556957,-592.7331535653974,72.77391057090016L-602.5257394999182,72.24561581623074Z"><title>C/C++</title></path><path fill="#1f77b4" d="M-602.5257394999182,72.24561581623074L-592.7331535653974,71.71732106156132C-582.9405676308764,71.18902630689189,-563.3553957618348,70.13243679755305,-543.7433948902326,69.0758472882142C-524.1313940186305,68.01925777887537,-504.4925641444681,66.96266826953654,-484.8805632728659,65.9060787601977C-465.2685624012638,64.84948925085887,-445.68339053222206,63.792899741520024,-426.09821866318026,62.208015477511786C-406.5130467941385,60.62313121350352,-386.92787492509666,58.50995219482585,-367.3427030560549,57.981657440156425C-347.75753118701306,57.45336268548701,-328.1723593179713,58.50995219482584,-308.5603584463692,60.62313121350351C-288.94835757476704,62.73631023218119,-269.30952770060463,65.9060787601977,-249.69752682900253,65.48344295646216C-230.08552595740045,65.06080715272662,-210.50035408835868,61.04576701723905,-190.91518221931688,58.509952194825836C-171.3300103502751,55.97413737241263,-151.7448384812333,54.91754786307379,-132.15966661219153,54.181042822740544C-112.57449474314974,53.44453778240729,-92.98932287410797,53.02811721107963,-73.37732200250585,53.31785283247655C-53.76532113090374,53.60758845387347,-34.126491256741296,54.603480267994975,-14.514490385139181,53.7749779937371C5.09751048646293,52.946475719479224,24.682682355504713,50.293579356841974,44.26785422454649,49.12561960192418C63.85302609358828,47.95765984700639,83.43819796263006,48.27463669980804,103.02336983167186,48.206713088493395C122.60854170071362,48.13878947717876,142.19371356975543,47.685965401747836,161.80571444135754,48.33327161213949C181.41771531295964,48.98057782253114,201.05654518712208,50.72801431874537,220.66854605872422,51.95433860078302C240.28054693032632,53.18066288282065,259.8657187993681,53.88587495068168,279.4508906684099,52.831009138216814C299.0360625374517,51.77614332575194,318.62123440649344,48.96119963296115,338.20640627553524,48.216323978868C357.79157814457704,47.471448324774855,377.37675001361885,48.796640709379346,396.98875088522095,51.01664983844705C416.600751756823,53.236658967514735,436.2395816309854,56.35148484104564,455.85158250258763,58.99483699574267C475.4635833741897,61.6381891504397,495.0487552432315,63.810067586302864,514.6339271122733,66.56497178271826C534.2190989813151,69.31987597913366,553.8042708503568,72.65780593610127,573.3894427193986,74.56120171196964C592.9746145884404,76.464597487838,612.5597864574821,76.93345908260711,632.1717873290843,76.94657721249503C651.7837882006864,76.95969534238293,671.4226180748489,76.51707000738963,691.0346189464509,74.66493440156565C710.646619818053,72.81279879574167,730.2317916870948,69.55115291908699,749.8169635561366,66.01034125233944C769.4021354251785,62.46952958559191,788.9873072942202,58.64955212875148,808.572479163262,57.56263774920279C828.1576510323038,56.4757233696541,847.7428229013454,58.121872067397135,867.3548237729477,60.7346353591419C886.9668246445498,63.34739865088667,906.6056545187122,66.92677653663317,926.2176553903142,70.0543362501152C945.8296562619165,73.18189596359723,965.4148281309582,75.85763750481476,975.2074140654792,77.19550827542352L985,78.5333790460323L985,79.80128645723892L975.2074140654792,78.56907463756403C965.4148281309582,77.33686281788914,945.8296562619165,74.87243917853935,926.2176553903142,71.9561973669251C906.6056545187122,69.03995555531084,886.9668246445498,65.6718955714321,867.3548237729477,63.270450181555105C847.7428229013454,60.869004791678115,828.1576510323038,59.434173995802844,808.5724791632618,61.15504208095484C788.9873072942202,62.87591016610683,769.4021354251785,67.75247713228607,749.8169635561366,72.87817306304187C730.2317916870948,78.00386899379768,710.646619818053,83.37869388913003,691.0346189464509,86.28741900429286C671.4226180748489,89.1961441194557,651.7837882006864,89.63876945444899,632.1717873290843,88.56906181522224C612.5597864574821,87.49935417599549,592.9746145884404,84.9173135625487,573.3894427193986,81.9573282773415C553.8042708503568,78.9973429921343,534.2190989813151,75.65941303516668,514.6339271122733,72.90450883875128C495.0487552432315,70.14960464233589,475.4635833741897,67.97772620647272,455.8515825025875,64.38344349337073C436.2395816309854,60.78916078026875,416.600751756823,55.77247378992795,396.9887508852209,52.81285200432307C377.37675001361885,49.85323021871819,357.79157814457704,48.95067363784923,338.20640627553524,50.11818509567791C318.62123440649344,51.28569655350659,299.0360625374517,54.52327605003291,279.4508906684099,57.90263878304322C259.8657187993681,61.28200151605355,240.28054693032632,64.80314748554785,220.66854605872422,67.27488648619615C201.05654518712208,69.74662548684445,181.41771531295964,71.16895751864674,161.80571444135754,71.0499460629245C142.19371356975543,70.93093460720227,122.60854170071362,69.27057966395552,103.02336983167184,68.28191376593132C83.43819796263006,67.29324786790711,63.85302609358828,66.97627101510547,44.267854224546504,67.08764126068444C24.682682355504713,67.19901150626339,5.09751048646293,67.73872885022297,-14.514490385139183,68.56723112448084C-34.126491256741296,69.39573339873871,-53.76532113090374,70.51302060329489,-73.37732200250585,71.27987449123681C-92.98932287410797,72.04672837917872,-112.57449474314974,72.46314895050638,-132.15966661219153,72.14306448150079C-151.7448384812333,71.8229800124952,-171.3300103502751,70.76639050315636,-190.91518221931688,70.13243679755305C-210.50035408835868,69.49848309194975,-230.08552595740045,69.28716519008198,-249.69752682900253,67.59662197513984C-269.30952770060463,65.9060787601977,-288.94835757476704,62.73631023218119,-308.5603584463692,60.62313121350352C-328.1723593179713,58.50995219482584,-347.75753118701306,57.45336268548701,-367.3427030560549,57.98165744015643C-386.92787492509666,58.50995219482585,-406.5130467941385,60.62313121350352,-426.09821866318026,62.208015477511786C-445.68339053222206,63.792899741520024,-465.2685624012638,64.84948925085887,-484.880563272866,65.9060787601977C-504.4925641444681,66.96266826953654,-524.1313940186305,68.01925777887537,-543.7433948902326,69.0758472882142C-563.3553957618348,70.13243679755305,-582.9405676308764,71.18902630689189,-592.7331535653974,71.71732106156132L-602.5257394999182,72.24561581623074Z"><title>Java</title></path><path fill="#2ca02c" d="M-602.5257394999182,72.24561581623074L-592.7331535653974,72.77391057090016C-582.9405676308764,73.30220532556957,-563.3553957618348,74.35879483490841,-543.7433948902326,75.41538434424724C-524.1313940186305,76.47197385358609,-504.4925641444681,77.52856336292493,-484.8805632728659,77.52856336292494C-465.2685624012638,77.52856336292493,-445.68339053222206,76.47197385358609,-426.09821866318026,75.94367909891668C-406.5130467941385,75.41538434424726,-386.92787492509666,75.41538434424726,-367.3427030560549,74.88708958957784C-347.75753118701306,74.35879483490841,-328.1723593179713,73.30220532556957,-308.5603584463692,72.24561581623074C-288.94835757476704,71.18902630689189,-269.30952770060463,70.13243679755305,-249.69752682900253,69.70980099381751C-230.08552595740045,69.28716519008198,-210.50035408835868,69.49848309194975,-190.91518221931688,70.13243679755305C-171.3300103502751,70.76639050315636,-151.7448384812333,71.8229800124952,-132.15966661219153,72.14306448150079C-112.57449474314974,72.46314895050638,-92.98932287410797,72.04672837917872,-73.37732200250585,71.27987449123681C-53.76532113090374,70.51302060329489,-34.126491256741296,69.39573339873871,-14.514490385139181,68.56723112448084C5.09751048646293,67.73872885022297,24.682682355504713,67.19901150626339,44.26785422454649,68.14423077002327C63.85302609358828,69.08945003378315,83.43819796263006,71.51960590526248,103.02336983167186,73.0365665579561C122.60854170071362,74.55352721064972,142.19371356975543,75.15729264455763,161.80571444135754,74.21971459094102C181.41771531295964,73.2821365373244,201.05654518712208,70.80321499618329,220.66854605872422,67.80318124086557C240.28054693032632,64.80314748554785,259.8657187993681,61.28200151605355,279.4508906684099,57.90263878304324C299.0360625374517,54.52327605003291,318.62123440649344,51.28569655350659,338.20640627553524,50.11818509567791C357.79157814457704,48.95067363784923,377.37675001361885,49.85323021871819,396.98875088522095,52.81285200432307C416.600751756823,55.77247378992795,436.2395816309854,60.78916078026875,455.85158250258763,64.38344349337073C475.4635833741897,67.97772620647272,495.0487552432315,70.14960464233589,514.6339271122733,72.90450883875128C534.2190989813151,75.65941303516668,553.8042708503568,78.9973429921343,573.3894427193986,81.9573282773415C592.9746145884404,84.9173135625487,612.5597864574821,87.49935417599549,632.1717873290843,88.56906181522224C651.7837882006864,89.63876945444899,671.4226180748489,89.1961441194557,691.0346189464509,86.28741900429286C710.646619818053,83.37869388913003,730.2317916870948,78.00386899379768,749.8169635561366,72.87817306304187C769.4021354251785,67.75247713228607,788.9873072942202,62.87591016610683,808.572479163262,61.155042080954836C828.1576510323038,59.434173995802844,847.7428229013454,60.869004791678115,867.3548237729477,63.27045018155511C886.9668246445498,65.6718955714321,906.6056545187122,69.03995555531084,926.2176553903142,71.9561973669251C945.8296562619165,74.87243917853935,965.4148281309582,77.33686281788914,975.2074140654792,78.56907463756403L985,79.80128645723892L985,79.80128645723892L975.2074140654792,78.56907463756403C965.4148281309582,77.33686281788914,945.8296562619165,74.87243917853935,926.2176553903142,71.9561973669251C906.6056545187122,69.03995555531084,886.9668246445498,65.6718955714321,867.3548237729477,63.270450181555105C847.7428229013454,60.869004791678115,828.1576510323038,59.434173995802844,808.5724791632618,61.15504208095484C788.9873072942202,62.87591016610683,769.4021354251785,67.75247713228607,749.8169635561366,72.87817306304187C730.2317916870948,78.00386899379768,710.646619818053,83.37869388913003,691.0346189464509,86.28741900429286C671.4226180748489,89.1961441194557,651.7837882006864,89.63876945444899,632.1717873290843,88.56906181522224C612.5597864574821,87.49935417599549,592.9746145884404,84.9173135625487,573.3894427193986,81.9573282773415C553.8042708503568,78.9973429921343,534.2190989813151,75.65941303516668,514.6339271122733,72.90450883875128C495.0487552432315,70.14960464233589,475.4635833741897,67.97772620647272,455.8515825025875,64.38344349337073C436.2395816309854,60.78916078026875,416.600751756823,55.77247378992795,396.9887508852209,52.81285200432307C377.37675001361885,49.85323021871819,357.79157814457704,48.95067363784923,338.20640627553524,50.11818509567791C318.62123440649344,51.28569655350659,299.0360625374517,54.52327605003291,279.4508906684099,57.90263878304322C259.8657187993681,61.28200151605355,240.28054693032632,64.80314748554785,220.66854605872422,67.80318124086557C201.05654518712208,70.80321499618329,181.41771531295964,73.2821365373244,161.80571444135754,75.27630410027986C142.19371356975543,77.2704716632353,122.60854170071362,78.77988524800507,103.02336983167184,80.43269312332795C83.43819796263006,82.08550099865086,63.85302609358828,83.88170316452688,44.267854224546504,83.99307341010584C24.682682355504713,84.1044436556848,5.09751048646293,82.5309819809667,-14.514490385139183,81.24630523654689C-34.126491256741296,79.96162849212708,-53.76532113090374,78.96573667800557,-73.37732200250585,77.61941154726982C-92.98932287410797,76.27308641653406,-112.57449474314974,74.57632796918405,-132.15966661219153,73.19965399083962C-151.7448384812333,71.8229800124952,-171.3300103502751,70.76639050315636,-190.91518221931688,70.13243679755305C-210.50035408835868,69.49848309194975,-230.08552595740045,69.28716519008198,-249.69752682900253,69.70980099381751C-269.30952770060463,70.13243679755305,-288.94835757476704,71.18902630689189,-308.5603584463692,72.24561581623074C-328.1723593179713,73.30220532556957,-347.75753118701306,74.35879483490841,-367.3427030560549,74.88708958957784C-386.92787492509666,75.41538434424726,-406.5130467941385,75.41538434424726,-426.09821866318026,75.94367909891668C-445.68339053222206,76.47197385358609,-465.2685624012638,77.52856336292493,-484.880563272866,77.52856336292494C-504.4925641444681,77.52856336292493,-524.1313940186305,76.47197385358609,-543.7433948902326,75.41538434424724C-563.3553957618348,74.35879483490841,-582.9405676308764,73.30220532556957,-592.7331535653974,72.77391057090016L-602.5257394999182,72.24561581623074Z"><title>PHP</title></path><path fill="#9467bd" d="M-602.5257394999182,72.24561581623074L-592.7331535653974,72.77391057090016C-582.9405676308764,73.30220532556957,-563.3553957618348,74.35879483490841,-543.7433948902326,75.41538434424724C-524.1313940186305,76.47197385358609,-504.4925641444681,77.52856336292493,-484.8805632728659,77.52856336292494C-465.2685624012638,77.52856336292493,-445.68339053222206,76.47197385358609,-426.09821866318026,75.94367909891668C-406.5130467941385,75.41538434424726,-386.92787492509666,75.41538434424726,-367.3427030560549,75.94367909891668C-347.75753118701306,76.47197385358609,-328.1723593179713,77.52856336292493,-308.5603584463692,78.58515287226378C-288.94835757476704,79.6417423816026,-269.30952770060463,80.69833189094143,-249.69752682900253,82.38887510588357C-230.08552595740045,84.07941832082571,-210.50035408835868,86.40391524137117,-190.91518221931688,87.03786894697446C-171.3300103502751,87.67182265257777,-151.7448384812333,86.61523314323892,-132.15966661219153,85.87872810290567C-112.57449474314974,85.14222306257243,-92.98932287410797,84.72580249124478,-73.37732200250585,84.48724335797228C-53.76532113090374,84.24868422469977,-34.126491256741296,84.18798652948244,-14.514490385139181,85.47266327390224C5.09751048646293,86.75734001832204,24.682682355504713,89.38739120237899,44.26785422454649,89.80431571146944C63.85302609358828,90.22124022055992,83.43819796263006,88.4250380546839,103.02336983167186,86.77223017936099C122.60854170071362,85.1194223040381,142.19371356975543,83.61000871926832,161.80571444135754,83.20072542032115C181.41771531295964,82.79144212137396,201.05654518712208,83.48228910824935,220.66854605872422,85.76520289962582C240.28054693032632,88.04811669100229,259.8657187993681,91.92309728687985,279.4508906684099,96.46815587391082C299.0360625374517,101.0132144609418,318.62123440649344,106.22835103912617,338.20640627553524,111.40037663733051C357.79157814457704,116.57240223553487,377.37675001361885,121.70131685375918,396.98875088522095,120.96287535667811C416.600751756823,120.22443385959707,436.2395816309854,113.61863624721065,455.85158250258763,107.17531862159369C475.4635833741897,100.7320009959767,495.0487552432315,94.45116335712915,514.6339271122733,93.50800427085862C534.2190989813151,92.56484518458808,553.8042708503568,96.95936465089454,573.3894427193986,98.86276042676292C592.9746145884404,100.76615620263128,612.5597864574821,100.17842828806154,632.1717873290843,101.77643068195772C651.7837882006864,103.37443307585387,671.4226180748489,107.15816577821595,691.0346189464509,106.36261968173079C710.646619818053,105.56707358524564,730.2317916870948,100.19224868991328,749.8169635561366,98.76461604184341C769.4021354251785,97.33698339377355,788.9873072942202,99.85654299296617,808.572479163262,99.72055917182242C828.1576510323038,99.58457535067869,847.7428229013454,96.7930481091986,867.3548237729477,94.96813546172025C886.9668246445498,93.1432228142419,906.6056545187122,92.28492476076529,926.2176553903142,91.50310328969361C945.8296562619165,90.72128181862193,965.4148281309582,90.0159369299552,975.2074140654792,89.66326448562182L985,89.31059204128844L985,92.48036056930496L975.2074140654792,93.36132776830773C965.4148281309582,94.24229496731054,945.8296562619165,96.0042293653161,926.2176553903142,98.37093510039604C906.6056545187122,100.73764083547599,886.9668246445498,103.70911790763027,867.3548237729477,105.53403055510863C847.7428229013454,107.35894320258699,828.1576510323038,108.0372914253894,808.5724791632618,107.11668573719429C788.9873072942202,106.19608004899919,769.4021354251785,103.67652044980657,749.8169635561366,105.10415309787645C730.2317916870948,106.53178574594631,710.646619818053,111.90661064127868,691.0346189464509,112.1738619830944C671.4226180748489,112.44111332491013,651.7837882006864,107.60079111320924,632.1717873290843,105.15751711184198C612.5597864574821,102.71424311047478,592.9746145884404,102.66801731944118,573.3894427193986,100.76462154357283C553.8042708503568,98.86122576770445,534.2190989813151,95.1006600070013,514.6339271122733,96.8890907007429C495.0487552432315,98.67752139448451,475.4635833741897,106.01494854267088,455.8515825025875,112.45826616828786C436.2395816309854,118.90158379390483,416.600751756823,124.45079189695241,396.9887508852209,124.23830283562852C377.37675001361885,124.02581377430461,357.79157814457704,118.05162754860923,338.20640627553524,112.45696614666934C318.62123440649344,106.86230474472949,299.0360625374517,101.6471681665451,279.4508906684099,97.52474538324965C259.8657187993681,93.40232259995423,240.28054693032632,90.37261361154775,220.66854605872422,89.04063037857622C201.05654518712208,87.70864714560469,181.41771531295964,88.07438966806814,161.80571444135754,88.48367296701532C142.19371356975543,88.89295626596252,122.60854170071362,89.34578034139345,103.02336983167184,90.36463451111304C83.43819796263006,91.38348868083263,63.85302609358828,92.9683729448409,44.267854224546504,92.2344715829488C24.682682355504713,91.50057022105666,5.09751048646293,88.44788323326419,-14.514490385139183,86.84622963604274C-34.126491256741296,85.24457603882128,-53.76532113090374,85.09395583217085,-73.37732200250585,85.12119706357558C-92.98932287410797,85.14843829498031,-112.57449474314974,85.3535409644402,-132.15966661219153,85.98438705383957C-151.7448384812333,86.61523314323892,-171.3300103502751,87.67182265257777,-190.91518221931688,87.03786894697447C-210.50035408835868,86.40391524137117,-230.08552595740045,84.07941832082571,-249.69752682900253,82.38887510588357C-269.30952770060463,80.69833189094143,-288.94835757476704,79.6417423816026,-308.5603584463692,78.58515287226378C-328.1723593179713,77.52856336292493,-347.75753118701306,76.47197385358609,-367.3427030560549,75.94367909891668C-386.92787492509666,75.41538434424726,-406.5130467941385,75.41538434424726,-426.09821866318026,75.94367909891668C-445.68339053222206,76.47197385358609,-465.2685624012638,77.52856336292493,-484.880563272866,77.52856336292494C-504.4925641444681,77.52856336292493,-524.1313940186305,76.47197385358609,-543.7433948902326,75.41538434424724C-563.3553957618348,74.35879483490841,-582.9405676308764,73.30220532556957,-592.7331535653974,72.77391057090016L-602.5257394999182,72.24561581623074Z"><title>JavaScript</title></path><path fill="#e377c2" d="M-602.5257394999182,72.24561581623074L-592.7331535653974,71.71732106156132C-582.9405676308764,71.18902630689189,-563.3553957618348,70.13243679755305,-543.7433948902326,69.0758472882142C-524.1313940186305,68.01925777887537,-504.4925641444681,66.96266826953654,-484.8805632728659,65.9060787601977C-465.2685624012638,64.84948925085887,-445.68339053222206,63.792899741520024,-426.09821866318026,62.208015477511786C-406.5130467941385,60.62313121350352,-386.92787492509666,58.50995219482585,-367.3427030560549,57.981657440156425C-347.75753118701306,57.45336268548701,-328.1723593179713,58.50995219482584,-308.5603584463692,60.62313121350351C-288.94835757476704,62.73631023218119,-269.30952770060463,65.9060787601977,-249.69752682900253,65.48344295646216C-230.08552595740045,65.06080715272662,-210.50035408835868,61.04576701723905,-190.91518221931688,58.509952194825836C-171.3300103502751,55.97413737241263,-151.7448384812333,54.91754786307379,-132.15966661219153,54.181042822740544C-112.57449474314974,53.44453778240729,-92.98932287410797,53.02811721107963,-73.37732200250585,53.31785283247655C-53.76532113090374,53.60758845387347,-34.126491256741296,54.603480267994975,-14.514490385139181,53.7749779937371C5.09751048646293,52.946475719479224,24.682682355504713,50.293579356841974,44.26785422454649,49.12561960192418C63.85302609358828,47.95765984700639,83.43819796263006,48.27463669980804,103.02336983167186,47.67841833382399C122.60854170071362,47.08219996783993,142.19371356975543,45.57278638307017,161.80571444135754,45.163503084122986C181.41771531295964,44.75421978517579,201.05654518712208,45.445066772051185,220.66854605872422,45.08650679008056C240.28054693032632,44.72794680810994,259.8657187993681,43.3199798572933,279.4508906684099,40.151935026150746C299.0360625374517,36.98389019500819,318.62123440649344,32.05576748353973,338.20640627553524,29.197712810768916C357.79157814457704,26.33965813799809,377.37675001361885,25.55167150392491,396.98875088522095,29.884859651670286C416.600751756823,34.218047799415665,436.2395816309854,43.67241072897958,455.85158250258763,50.542120921031966C475.4635833741897,57.41183111308434,495.0487552432315,61.69688856762519,514.6339271122733,65.50838227337942C534.2190989813151,69.31987597913366,553.8042708503568,72.65780593610127,573.3894427193986,74.56120171196964C592.9746145884404,76.464597487838,612.5597864574821,76.93345908260711,632.1717873290843,76.94657721249503C651.7837882006864,76.95969534238293,671.4226180748489,76.51707000738963,691.0346189464509,74.66493440156565C710.646619818053,72.81279879574167,730.2317916870948,69.55115291908699,749.8169635561366,66.01034125233944C769.4021354251785,62.46952958559191,788.9873072942202,58.64955212875148,808.572479163262,57.56263774920279C828.1576510323038,56.4757233696541,847.7428229013454,58.121872067397135,867.3548237729477,60.7346353591419C886.9668246445498,63.34739865088667,906.6056545187122,66.92677653663317,926.2176553903142,70.0543362501152C945.8296562619165,73.18189596359723,965.4148281309582,75.85763750481476,975.2074140654792,77.19550827542352L985,78.5333790460323L985,78.5333790460323L975.2074140654792,77.19550827542352C965.4148281309582,75.85763750481476,945.8296562619165,73.18189596359723,926.2176553903142,70.05433625011518C906.6056545187122,66.92677653663317,886.9668246445498,63.34739865088667,867.3548237729477,60.7346353591419C847.7428229013454,58.121872067397135,828.1576510323038,56.4757233696541,808.5724791632618,57.56263774920279C788.9873072942202,58.64955212875148,769.4021354251785,62.46952958559191,749.8169635561366,66.01034125233944C730.2317916870948,69.55115291908699,710.646619818053,72.81279879574167,691.0346189464509,74.66493440156565C671.4226180748489,76.51707000738963,651.7837882006864,76.95969534238293,632.1717873290843,76.94657721249503C612.5597864574821,76.93345908260711,592.9746145884404,76.464597487838,573.3894427193986,74.56120171196964C553.8042708503568,72.65780593610127,534.2190989813151,69.31987597913366,514.6339271122733,66.56497178271826C495.0487552432315,63.810067586302864,475.4635833741897,61.6381891504397,455.8515825025875,58.99483699574267C436.2395816309854,56.35148484104564,416.600751756823,53.236658967514735,396.9887508852209,51.01664983844705C377.37675001361885,48.796640709379346,357.79157814457704,47.471448324774855,338.20640627553524,48.216323978868C318.62123440649344,48.96119963296115,299.0360625374517,51.77614332575194,279.4508906684099,52.831009138216814C259.8657187993681,53.88587495068168,240.28054693032632,53.18066288282065,220.66854605872422,51.95433860078301C201.05654518712208,50.72801431874537,181.41771531295964,48.98057782253114,161.80571444135754,48.33327161213949C142.19371356975543,47.685965401747836,122.60854170071362,48.13878947717876,103.02336983167184,48.20671308849341C83.43819796263006,48.27463669980804,63.85302609358828,47.95765984700639,44.267854224546504,49.12561960192418C24.682682355504713,50.293579356841974,5.09751048646293,52.946475719479224,-14.514490385139183,53.7749779937371C-34.126491256741296,54.603480267994975,-53.76532113090374,53.60758845387347,-73.37732200250585,53.31785283247655C-92.98932287410797,53.02811721107963,-112.57449474314974,53.44453778240729,-132.15966661219153,54.181042822740544C-151.7448384812333,54.91754786307379,-171.3300103502751,55.97413737241263,-190.91518221931688,58.50995219482584C-210.50035408835868,61.04576701723905,-230.08552595740045,65.06080715272662,-249.69752682900253,65.48344295646217C-269.30952770060463,65.9060787601977,-288.94835757476704,62.73631023218119,-308.5603584463692,60.62313121350352C-328.1723593179713,58.50995219482584,-347.75753118701306,57.45336268548701,-367.3427030560549,57.98165744015643C-386.92787492509666,58.50995219482585,-406.5130467941385,60.62313121350352,-426.09821866318026,62.208015477511786C-445.68339053222206,63.792899741520024,-465.2685624012638,64.84948925085887,-484.880563272866,65.9060787601977C-504.4925641444681,66.96266826953654,-524.1313940186305,68.01925777887537,-543.7433948902326,69.0758472882142C-563.3553957618348,70.13243679755305,-582.9405676308764,71.18902630689189,-592.7331535653974,71.71732106156132L-602.5257394999182,72.24561581623074Z"><title>MATLAB</title></path><path fill="#7f7f7f" d="M-602.5257394999182,72.24561581623074L-592.7331535653974,72.77391057090016C-582.9405676308764,73.30220532556957,-563.3553957618348,74.35879483490841,-543.7433948902326,75.41538434424724C-524.1313940186305,76.47197385358609,-504.4925641444681,77.52856336292493,-484.8805632728659,77.52856336292494C-465.2685624012638,77.52856336292493,-445.68339053222206,76.47197385358609,-426.09821866318026,75.94367909891668C-406.5130467941385,75.41538434424726,-386.92787492509666,75.41538434424726,-367.3427030560549,74.88708958957784C-347.75753118701306,74.35879483490841,-328.1723593179713,73.30220532556957,-308.5603584463692,72.24561581623074C-288.94835757476704,71.18902630689189,-269.30952770060463,70.13243679755305,-249.69752682900253,69.70980099381751C-230.08552595740045,69.28716519008198,-210.50035408835868,69.49848309194975,-190.91518221931688,70.13243679755305C-171.3300103502751,70.76639050315636,-151.7448384812333,71.8229800124952,-132.15966661219153,73.19965399083962C-112.57449474314974,74.57632796918405,-92.98932287410797,76.27308641653406,-73.37732200250585,77.61941154726982C-53.76532113090374,78.96573667800557,-34.126491256741296,79.96162849212708,-14.514490385139181,81.24630523654689C5.09751048646293,82.5309819809667,24.682682355504713,84.1044436556848,44.26785422454649,83.99307341010584C63.85302609358828,83.88170316452688,83.43819796263006,82.08550099865086,103.02336983167186,80.43269312332797C122.60854170071362,78.77988524800507,142.19371356975543,77.2704716632353,161.80571444135754,75.27630410027986C181.41771531295964,73.2821365373244,201.05654518712208,70.80321499618329,220.66854605872422,67.80318124086557C240.28054693032632,64.80314748554785,259.8657187993681,61.28200151605355,279.4508906684099,57.90263878304324C299.0360625374517,54.52327605003291,318.62123440649344,51.28569655350659,338.20640627553524,50.11818509567791C357.79157814457704,48.95067363784923,377.37675001361885,49.85323021871819,396.98875088522095,52.81285200432307C416.600751756823,55.77247378992795,436.2395816309854,60.78916078026875,455.85158250258763,64.38344349337073C475.4635833741897,67.97772620647272,495.0487552432315,70.14960464233589,514.6339271122733,72.90450883875128C534.2190989813151,75.65941303516668,553.8042708503568,78.9973429921343,573.3894427193986,81.9573282773415C592.9746145884404,84.9173135625487,612.5597864574821,87.49935417599549,632.1717873290843,88.56906181522224C651.7837882006864,89.63876945444899,671.4226180748489,89.1961441194557,691.0346189464509,86.28741900429286C710.646619818053,83.37869388913003,730.2317916870948,78.00386899379768,749.8169635561366,72.87817306304187C769.4021354251785,67.75247713228607,788.9873072942202,62.87591016610683,808.572479163262,61.155042080954836C828.1576510323038,59.434173995802844,847.7428229013454,60.869004791678115,867.3548237729477,63.27045018155511C886.9668246445498,65.6718955714321,906.6056545187122,69.03995555531084,926.2176553903142,71.9561973669251C945.8296562619165,74.87243917853935,965.4148281309582,77.33686281788914,975.2074140654792,78.56907463756403L985,79.80128645723892L985,79.80128645723892L975.2074140654792,78.56907463756403C965.4148281309582,77.33686281788914,945.8296562619165,74.87243917853935,926.2176553903142,71.9561973669251C906.6056545187122,69.03995555531084,886.9668246445498,65.6718955714321,867.3548237729477,63.270450181555105C847.7428229013454,60.869004791678115,828.1576510323038,59.434173995802844,808.5724791632618,61.15504208095484C788.9873072942202,62.87591016610683,769.4021354251785,67.75247713228607,749.8169635561366,72.87817306304187C730.2317916870948,78.00386899379768,710.646619818053,83.37869388913003,691.0346189464509,86.28741900429286C671.4226180748489,89.1961441194557,651.7837882006864,89.63876945444899,632.1717873290843,88.56906181522224C612.5597864574821,87.49935417599549,592.9746145884404,84.9173135625487,573.3894427193986,81.9573282773415C553.8042708503568,78.9973429921343,534.2190989813151,75.65941303516668,514.6339271122733,73.4328035934207C495.0487552432315,71.20619415167472,475.4635833741897,70.0909052251504,455.8515825025875,68.60980153072609C436.2395816309854,67.12869783630178,416.600751756823,65.28177937397749,396.9887508852209,66.02022087105854C377.37675001361885,66.7586623681396,357.79157814457704,70.082463824626,338.20640627553524,71.24997528245467C318.62123440649344,72.41748674028337,299.0360625374517,71.42870819945432,279.4508906684099,71.11000764977871C259.8657187993681,70.79130710010308,240.28054693032632,71.14268454158089,220.66854605872422,72.02953927822092C201.05654518712208,72.91639401486097,181.41771531295964,74.33872604666325,161.80571444135754,75.80459885494928C142.19371356975543,77.2704716632353,122.60854170071362,78.77988524800507,103.02336983167184,80.43269312332795C83.43819796263006,82.08550099865086,63.85302609358828,83.88170316452688,44.267854224546504,83.99307341010584C24.682682355504713,84.1044436556848,5.09751048646293,82.5309819809667,-14.514490385139183,81.24630523654689C-34.126491256741296,79.96162849212708,-53.76532113090374,78.96573667800557,-73.37732200250585,77.61941154726982C-92.98932287410797,76.27308641653406,-112.57449474314974,74.57632796918405,-132.15966661219153,73.19965399083962C-151.7448384812333,71.8229800124952,-171.3300103502751,70.76639050315636,-190.91518221931688,70.13243679755305C-210.50035408835868,69.49848309194975,-230.08552595740045,69.28716519008198,-249.69752682900253,69.70980099381751C-269.30952770060463,70.13243679755305,-288.94835757476704,71.18902630689189,-308.5603584463692,72.24561581623074C-328.1723593179713,73.30220532556957,-347.75753118701306,74.35879483490841,-367.3427030560549,74.88708958957784C-386.92787492509666,75.41538434424726,-406.5130467941385,75.41538434424726,-426.09821866318026,75.94367909891668C-445.68339053222206,76.47197385358609,-465.2685624012638,77.52856336292493,-484.880563272866,77.52856336292494C-504.4925641444681,77.52856336292493,-524.1313940186305,76.47197385358609,-543.7433948902326,75.41538434424724C-563.3553957618348,74.35879483490841,-582.9405676308764,73.30220532556957,-592.7331535653974,72.77391057090016L-602.5257394999182,72.24561581623074Z"><title>Scheme</title></path><path fill="#ffd43b" d="M-602.5257394999182,72.24561581623074L-592.7331535653974,72.77391057090016C-582.9405676308764,73.30220532556957,-563.3553957618348,74.35879483490841,-543.7433948902326,75.41538434424724C-524.1313940186305,76.47197385358609,-504.4925641444681,77.52856336292493,-484.8805632728659,77.52856336292494C-465.2685624012638,77.52856336292493,-445.68339053222206,76.47197385358609,-426.09821866318026,75.94367909891668C-406.5130467941385,75.41538434424726,-386.92787492509666,75.41538434424726,-367.3427030560549,75.94367909891668C-347.75753118701306,76.47197385358609,-328.1723593179713,77.52856336292493,-308.5603584463692,78.58515287226378C-288.94835757476704,79.6417423816026,-269.30952770060463,80.69833189094143,-249.69752682900253,82.38887510588357C-230.08552595740045,84.07941832082571,-210.50035408835868,86.40391524137117,-190.91518221931688,87.03786894697446C-171.3300103502751,87.67182265257777,-151.7448384812333,86.61523314323892,-132.15966661219153,85.87872810290567C-112.57449474314974,85.14222306257243,-92.98932287410797,84.72580249124478,-73.37732200250585,84.48724335797228C-53.76532113090374,84.24868422469977,-34.126491256741296,84.18798652948244,-14.514490385139181,85.47266327390224C5.09751048646293,86.75734001832204,24.682682355504713,89.38739120237899,44.26785422454649,89.80431571146944C63.85302609358828,90.22124022055992,83.43819796263006,88.4250380546839,103.02336983167186,86.77223017936099C122.60854170071362,85.1194223040381,142.19371356975543,83.61000871926832,161.80571444135754,83.20072542032115C181.41771531295964,82.79144212137396,201.05654518712208,83.48228910824935,220.66854605872422,84.70861339028698C240.28054693032632,85.93493767232462,259.8657187993681,87.6967392495245,279.4508906684099,90.1286188178778C299.0360625374517,92.56049838623107,318.62123440649344,95.66245594573779,338.20640627553524,96.60812350658681C357.79157814457704,97.55379106743578,377.37675001361885,96.34316862962707,396.98875088522095,93.49154811386832C416.600751756823,90.63992759810962,436.2395816309854,86.14730900440087,455.85158250258763,82.8737599068004C475.4635833741897,79.60021080919994,495.0487552432315,77.54573120770776,514.6339271122733,77.65916163077605C534.2190989813151,77.77259205384435,553.8042708503568,80.05393250147314,573.3894427193986,82.4856230320109C592.9746145884404,84.9173135625487,612.5597864574821,87.49935417599549,632.1717873290843,88.56906181522224C651.7837882006864,89.63876945444899,671.4226180748489,89.1961441194557,691.0346189464509,86.28741900429286C710.646619818053,83.37869388913003,730.2317916870948,78.00386899379768,749.8169635561366,72.87817306304187C769.4021354251785,67.75247713228607,788.9873072942202,62.87591016610683,808.572479163262,61.155042080954836C828.1576510323038,59.434173995802844,847.7428229013454,60.869004791678115,867.3548237729477,63.27045018155511C886.9668246445498,65.6718955714321,906.6056545187122,69.03995555531084,926.2176553903142,71.9561973669251C945.8296562619165,74.87243917853935,965.4148281309582,77.33686281788914,975.2074140654792,78.56907463756403L985,79.80128645723892L985,86.14082351327193L975.2074140654792,85.96520120293587C965.4148281309582,85.78957889259982,945.8296562619165,85.43833427192772,926.2176553903142,84.63527147899116C906.6056545187122,83.83220868605457,886.9668246445498,82.57732772085352,867.3548237729477,82.2890613496542C847.7428229013454,82.00079497845488,828.1576510323038,82.67914320125729,808.5724791632618,82.81512702240103C788.9873072942202,82.95111084354477,769.4021354251785,82.54473026302982,749.8169635561366,83.9723629110997C730.2317916870948,85.39999555916955,710.646619818053,88.66164143582422,691.0346189464509,91.04207179631764C671.4226180748489,93.42250215681105,651.7837882006864,94.92171700114318,632.1717873290843,96.49348313526355C612.5597864574821,98.06524926938387,592.9746145884404,99.70956669329244,573.3894427193986,98.33446567209349C553.8042708503568,96.95936465089454,534.2190989813151,92.56484518458808,514.6339271122733,93.50800427085862C495.0487552432315,94.45116335712915,475.4635833741897,100.7320009959767,455.8515825025875,107.17531862159366C436.2395816309854,113.61863624721065,416.600751756823,120.22443385959707,396.9887508852209,120.96287535667813C377.37675001361885,121.70131685375918,357.79157814457704,116.57240223553487,338.20640627553524,111.40037663733051C318.62123440649344,106.22835103912617,299.0360625374517,101.0132144609418,279.4508906684099,96.46815587391082C259.8657187993681,91.92309728687985,240.28054693032632,88.04811669100229,220.66854605872422,85.76520289962582C201.05654518712208,83.48228910824935,181.41771531295964,82.79144212137396,161.80571444135754,83.20072542032115C142.19371356975543,83.61000871926832,122.60854170071362,85.1194223040381,103.02336983167184,86.77223017936099C83.43819796263006,88.4250380546839,63.85302609358828,90.22124022055992,44.267854224546504,89.80431571146944C24.682682355504713,89.38739120237899,5.09751048646293,86.75734001832204,-14.514490385139183,85.47266327390224C-34.126491256741296,84.18798652948244,-53.76532113090374,84.24868422469977,-73.37732200250585,84.48724335797228C-92.98932287410797,84.72580249124478,-112.57449474314974,85.14222306257243,-132.15966661219153,85.87872810290567C-151.7448384812333,86.61523314323892,-171.3300103502751,87.67182265257777,-190.91518221931688,87.03786894697447C-210.50035408835868,86.40391524137117,-230.08552595740045,84.07941832082571,-249.69752682900253,82.38887510588357C-269.30952770060463,80.69833189094143,-288.94835757476704,79.6417423816026,-308.5603584463692,78.58515287226378C-328.1723593179713,77.52856336292493,-347.75753118701306,76.47197385358609,-367.3427030560549,75.94367909891668C-386.92787492509666,75.41538434424726,-406.5130467941385,75.41538434424726,-426.09821866318026,75.94367909891668C-445.68339053222206,76.47197385358609,-465.2685624012638,77.52856336292493,-484.880563272866,77.52856336292494C-504.4925641444681,77.52856336292493,-524.1313940186305,76.47197385358609,-543.7433948902326,75.41538434424724C-563.3553957618348,74.35879483490841,-582.9405676308764,73.30220532556957,-592.7331535653974,72.77391057090016L-602.5257394999182,72.24561581623074Z"><title>Python</title></path><path fill="#aec7e8" d="M-602.5257394999182,72.24561581623074L-592.7331535653974,71.71732106156132C-582.9405676308764,71.18902630689189,-563.3553957618348,70.13243679755305,-543.7433948902326,69.0758472882142C-524.1313940186305,68.01925777887537,-504.4925641444681,66.96266826953654,-484.8805632728659,65.9060787601977C-465.2685624012638,64.84948925085887,-445.68339053222206,63.792899741520024,-426.09821866318026,62.208015477511786C-406.5130467941385,60.62313121350352,-386.92787492509666,58.50995219482585,-367.3427030560549,57.981657440156425C-347.75753118701306,57.45336268548701,-328.1723593179713,58.50995219482584,-308.5603584463692,60.62313121350351C-288.94835757476704,62.73631023218119,-269.30952770060463,65.9060787601977,-249.69752682900253,65.48344295646216C-230.08552595740045,65.06080715272662,-210.50035408835868,61.04576701723905,-190.91518221931688,58.509952194825836C-171.3300103502751,55.97413737241263,-151.7448384812333,54.91754786307379,-132.15966661219153,54.181042822740544C-112.57449474314974,53.44453778240729,-92.98932287410797,53.02811721107963,-73.37732200250585,53.31785283247655C-53.76532113090374,53.60758845387347,-34.126491256741296,54.603480267994975,-14.514490385139181,53.7749779937371C5.09751048646293,52.946475719479224,24.682682355504713,50.293579356841974,44.26785422454649,49.12561960192418C63.85302609358828,47.95765984700639,83.43819796263006,48.27463669980804,103.02336983167186,47.67841833382399C122.60854170071362,47.08219996783993,142.19371356975543,45.57278638307017,161.80571444135754,45.163503084122986C181.41771531295964,44.75421978517579,201.05654518712208,45.445066772051185,220.66854605872422,45.08650679008056C240.28054693032632,44.72794680810994,259.8657187993681,43.3199798572933,279.4508906684099,40.151935026150746C299.0360625374517,36.98389019500819,318.62123440649344,32.05576748353973,338.20640627553524,29.197712810768916C357.79157814457704,26.33965813799809,377.37675001361885,25.55167150392491,396.98875088522095,26.715091123653774C416.600751756823,27.878510743382634,436.2395816309854,30.993336616913524,455.85158250258763,32.58009926227172C475.4635833741897,34.166861907629915,495.0487552432315,34.2255613248154,514.6339271122733,30.64092846519777C534.2190989813151,27.056295605580132,553.8042708503568,19.82833046915937,573.3894427193986,14.335599679655866C592.9746145884404,8.842868890152365,612.5597864574821,5.085372447566126,632.1717873290843,2.9853115587763583C651.7837882006864,0.8852506699865911,671.4226180748489,0.44262533499329554,691.0346189464509,5.986616294541175C710.646619818053,11.530607254089055,730.2317916870948,23.06121450817811,749.8169635561366,29.558003180149527C769.4021354251785,36.05479185212095,788.9873072942202,37.517761941974726,808.572479163262,40.12891084511197C828.1576510323038,42.7400597482492,847.7428229013454,46.499387464669915,867.3548237729477,50.69703502042294C886.9668246445498,54.89468257617596,906.6056545187122,59.53064997126129,926.2176553903142,63.714799194082154C945.8296562619165,67.89894841690301,965.4148281309582,71.63127946745941,975.2074140654792,73.4974449927376L985,75.36361051801579L985,78.5333790460323L975.2074140654792,77.19550827542352C965.4148281309582,75.85763750481476,945.8296562619165,73.18189596359723,926.2176553903142,70.05433625011518C906.6056545187122,66.92677653663317,886.9668246445498,63.34739865088667,867.3548237729477,60.7346353591419C847.7428229013454,58.121872067397135,828.1576510323038,56.4757233696541,808.5724791632618,57.56263774920279C788.9873072942202,58.64955212875148,769.4021354251785,62.46952958559191,749.8169635561366,63.89716223366177C730.2317916870948,65.32479488173163,710.646619818053,64.36008272103096,691.0346189464509,64.09903930817727C671.4226180748489,63.83799589532358,651.7837882006864,64.28062123031687,632.1717873290843,63.21091359109013C612.5597864574821,62.14120595186339,592.9746145884404,59.5591653384166,573.3894427193986,57.65576956254822C553.8042708503568,55.75237378667987,534.2190989813151,54.52762284838992,514.6339271122733,52.82930816131336C495.0487552432315,51.13099347423681,475.4635833741897,48.959115038373646,455.8515825025875,44.202583864998935C436.2395816309854,39.44605269162423,416.600751756823,32.10486878073798,396.9887508852209,28.82827014233145C377.37675001361885,25.55167150392491,357.79157814457704,26.33965813799809,338.20640627553524,29.197712810768916C318.62123440649344,32.05576748353973,299.0360625374517,36.98389019500819,279.4508906684099,40.151935026150746C259.8657187993681,43.3199798572933,240.28054693032632,44.72794680810994,220.66854605872422,45.08650679008056C201.05654518712208,45.445066772051185,181.41771531295964,44.75421978517579,161.80571444135754,45.163503084122986C142.19371356975543,45.57278638307017,122.60854170071362,47.08219996783993,103.02336983167184,47.67841833382399C83.43819796263006,48.27463669980804,63.85302609358828,47.95765984700639,44.267854224546504,49.12561960192418C24.682682355504713,50.293579356841974,5.09751048646293,52.946475719479224,-14.514490385139183,53.7749779937371C-34.126491256741296,54.603480267994975,-53.76532113090374,53.60758845387347,-73.37732200250585,53.31785283247655C-92.98932287410797,53.02811721107963,-112.57449474314974,53.44453778240729,-132.15966661219153,54.181042822740544C-151.7448384812333,54.91754786307379,-171.3300103502751,55.97413737241263,-190.91518221931688,58.50995219482584C-210.50035408835868,61.04576701723905,-230.08552595740045,65.06080715272662,-249.69752682900253,65.48344295646217C-269.30952770060463,65.9060787601977,-288.94835757476704,62.73631023218119,-308.5603584463692,60.62313121350352C-328.1723593179713,58.50995219482584,-347.75753118701306,57.45336268548701,-367.3427030560549,57.98165744015643C-386.92787492509666,58.50995219482585,-406.5130467941385,60.62313121350352,-426.09821866318026,62.208015477511786C-445.68339053222206,63.792899741520024,-465.2685624012638,64.84948925085887,-484.880563272866,65.9060787601977C-504.4925641444681,66.96266826953654,-524.1313940186305,68.01925777887537,-543.7433948902326,69.0758472882142C-563.3553957618348,70.13243679755305,-582.9405676308764,71.18902630689189,-592.7331535653974,71.71732106156132L-602.5257394999182,72.24561581623074Z"><title>Clojure</title></path><path fill="#ff9896" d="M-602.5257394999182,72.24561581623074L-592.7331535653974,71.71732106156132C-582.9405676308764,71.18902630689189,-563.3553957618348,70.13243679755305,-543.7433948902326,69.0758472882142C-524.1313940186305,68.01925777887537,-504.4925641444681,66.96266826953654,-484.8805632728659,65.9060787601977C-465.2685624012638,64.84948925085887,-445.68339053222206,63.792899741520024,-426.09821866318026,62.208015477511786C-406.5130467941385,60.62313121350352,-386.92787492509666,58.50995219482585,-367.3427030560549,57.981657440156425C-347.75753118701306,57.45336268548701,-328.1723593179713,58.50995219482584,-308.5603584463692,60.62313121350351C-288.94835757476704,62.73631023218119,-269.30952770060463,65.9060787601977,-249.69752682900253,65.48344295646216C-230.08552595740045,65.06080715272662,-210.50035408835868,61.04576701723905,-190.91518221931688,58.509952194825836C-171.3300103502751,55.97413737241263,-151.7448384812333,54.91754786307379,-132.15966661219153,54.181042822740544C-112.57449474314974,53.44453778240729,-92.98932287410797,53.02811721107963,-73.37732200250585,53.31785283247655C-53.76532113090374,53.60758845387347,-34.126491256741296,54.603480267994975,-14.514490385139181,53.7749779937371C5.09751048646293,52.946475719479224,24.682682355504713,50.293579356841974,44.26785422454649,49.12561960192418C63.85302609358828,47.95765984700639,83.43819796263006,48.27463669980804,103.02336983167186,47.67841833382399C122.60854170071362,47.08219996783993,142.19371356975543,45.57278638307017,161.80571444135754,45.163503084122986C181.41771531295964,44.75421978517579,201.05654518712208,45.445066772051185,220.66854605872422,45.08650679008056C240.28054693032632,44.72794680810994,259.8657187993681,43.3199798572933,279.4508906684099,40.151935026150746C299.0360625374517,36.98389019500819,318.62123440649344,32.05576748353973,338.20640627553524,29.197712810768916C357.79157814457704,26.33965813799809,377.37675001361885,25.55167150392491,396.98875088522095,28.82827014233145C416.600751756823,32.10486878073798,436.2395816309854,39.44605269162423,455.85158250258763,44.202583864998935C475.4635833741897,48.959115038373646,495.0487552432315,51.13099347423681,514.6339271122733,52.82930816131337C534.2190989813151,54.52762284838992,553.8042708503568,55.75237378667987,573.3894427193986,57.65576956254822C592.9746145884404,59.5591653384166,612.5597864574821,62.14120595186339,632.1717873290843,63.21091359109013C651.7837882006864,64.28062123031687,671.4226180748489,63.83799589532358,691.0346189464509,64.09903930817727C710.646619818053,64.36008272103096,730.2317916870948,65.32479488173163,749.8169635561366,63.89716223366177C769.4021354251785,62.46952958559191,788.9873072942202,58.64955212875148,808.572479163262,57.56263774920279C828.1576510323038,56.4757233696541,847.7428229013454,58.121872067397135,867.3548237729477,60.7346353591419C886.9668246445498,63.34739865088667,906.6056545187122,66.92677653663317,926.2176553903142,70.0543362501152C945.8296562619165,73.18189596359723,965.4148281309582,75.85763750481476,975.2074140654792,77.19550827542352L985,78.5333790460323L985,78.5333790460323L975.2074140654792,77.19550827542352C965.4148281309582,75.85763750481476,945.8296562619165,73.18189596359723,926.2176553903142,70.05433625011518C906.6056545187122,66.92677653663317,886.9668246445498,63.34739865088667,867.3548237729477,60.7346353591419C847.7428229013454,58.121872067397135,828.1576510323038,56.4757233696541,808.5724791632618,57.56263774920279C788.9873072942202,58.64955212875148,769.4021354251785,62.46952958559191,749.8169635561366,66.01034125233944C730.2317916870948,69.55115291908699,710.646619818053,72.81279879574167,691.0346189464509,74.66493440156565C671.4226180748489,76.51707000738963,651.7837882006864,76.95969534238293,632.1717873290843,76.94657721249503C612.5597864574821,76.93345908260711,592.9746145884404,76.464597487838,573.3894427193986,74.56120171196964C553.8042708503568,72.65780593610127,534.2190989813151,69.31987597913366,514.6339271122733,65.50838227337942C495.0487552432315,61.69688856762519,475.4635833741897,57.41183111308434,455.8515825025875,50.542120921031966C436.2395816309854,43.67241072897958,416.600751756823,34.218047799415665,396.9887508852209,29.884859651670286C377.37675001361885,25.55167150392491,357.79157814457704,26.33965813799809,338.20640627553524,29.197712810768916C318.62123440649344,32.05576748353973,299.0360625374517,36.98389019500819,279.4508906684099,40.151935026150746C259.8657187993681,43.3199798572933,240.28054693032632,44.72794680810994,220.66854605872422,45.08650679008056C201.05654518712208,45.445066772051185,181.41771531295964,44.75421978517579,161.80571444135754,45.163503084122986C142.19371356975543,45.57278638307017,122.60854170071362,47.08219996783993,103.02336983167184,47.67841833382399C83.43819796263006,48.27463669980804,63.85302609358828,47.95765984700639,44.267854224546504,49.12561960192418C24.682682355504713,50.293579356841974,5.09751048646293,52.946475719479224,-14.514490385139183,53.7749779937371C-34.126491256741296,54.603480267994975,-53.76532113090374,53.60758845387347,-73.37732200250585,53.31785283247655C-92.98932287410797,53.02811721107963,-112.57449474314974,53.44453778240729,-132.15966661219153,54.181042822740544C-151.7448384812333,54.91754786307379,-171.3300103502751,55.97413737241263,-190.91518221931688,58.50995219482584C-210.50035408835868,61.04576701723905,-230.08552595740045,65.06080715272662,-249.69752682900253,65.48344295646217C-269.30952770060463,65.9060787601977,-288.94835757476704,62.73631023218119,-308.5603584463692,60.62313121350352C-328.1723593179713,58.50995219482584,-347.75753118701306,57.45336268548701,-367.3427030560549,57.98165744015643C-386.92787492509666,58.50995219482585,-406.5130467941385,60.62313121350352,-426.09821866318026,62.208015477511786C-445.68339053222206,63.792899741520024,-465.2685624012638,64.84948925085887,-484.880563272866,65.9060787601977C-504.4925641444681,66.96266826953654,-524.1313940186305,68.01925777887537,-543.7433948902326,69.0758472882142C-563.3553957618348,70.13243679755305,-582.9405676308764,71.18902630689189,-592.7331535653974,71.71732106156132L-602.5257394999182,72.24561581623074Z"><title>Ruby</title></path><path fill="#ffbb78" d="M-602.5257394999182,72.24561581623074L-592.7331535653974,72.77391057090016C-582.9405676308764,73.30220532556957,-563.3553957618348,74.35879483490841,-543.7433948902326,75.41538434424724C-524.1313940186305,76.47197385358609,-504.4925641444681,77.52856336292493,-484.8805632728659,77.52856336292494C-465.2685624012638,77.52856336292493,-445.68339053222206,76.47197385358609,-426.09821866318026,75.94367909891668C-406.5130467941385,75.41538434424726,-386.92787492509666,75.41538434424726,-367.3427030560549,75.94367909891668C-347.75753118701306,76.47197385358609,-328.1723593179713,77.52856336292493,-308.5603584463692,78.58515287226378C-288.94835757476704,79.6417423816026,-269.30952770060463,80.69833189094143,-249.69752682900253,82.38887510588357C-230.08552595740045,84.07941832082571,-210.50035408835868,86.40391524137117,-190.91518221931688,87.03786894697446C-171.3300103502751,87.67182265257777,-151.7448384812333,86.61523314323892,-132.15966661219153,85.87872810290567C-112.57449474314974,85.14222306257243,-92.98932287410797,84.72580249124478,-73.37732200250585,84.48724335797228C-53.76532113090374,84.24868422469977,-34.126491256741296,84.18798652948244,-14.514490385139181,85.47266327390224C5.09751048646293,86.75734001832204,24.682682355504713,89.38739120237899,44.26785422454649,89.80431571146944C63.85302609358828,90.22124022055992,83.43819796263006,88.4250380546839,103.02336983167186,86.77223017936099C122.60854170071362,85.1194223040381,142.19371356975543,83.61000871926832,161.80571444135754,83.20072542032115C181.41771531295964,82.79144212137396,201.05654518712208,83.48228910824935,220.66854605872422,85.76520289962582C240.28054693032632,88.04811669100229,259.8657187993681,91.92309728687985,279.4508906684099,96.46815587391082C299.0360625374517,101.0132144609418,318.62123440649344,106.22835103912617,338.20640627553524,111.40037663733051C357.79157814457704,116.57240223553487,377.37675001361885,121.70131685375918,396.98875088522095,120.96287535667811C416.600751756823,120.22443385959707,436.2395816309854,113.61863624721065,455.85158250258763,107.17531862159369C475.4635833741897,100.7320009959767,495.0487552432315,94.45116335712915,514.6339271122733,93.50800427085862C534.2190989813151,92.56484518458808,553.8042708503568,96.95936465089454,573.3894427193986,98.33446567209349C592.9746145884404,99.70956669329244,612.5597864574821,98.06524926938387,632.1717873290843,96.49348313526353C651.7837882006864,94.92171700114318,671.4226180748489,93.42250215681105,691.0346189464509,91.04207179631764C710.646619818053,88.66164143582422,730.2317916870948,85.39999555916955,749.8169635561366,83.9723629110997C769.4021354251785,82.54473026302982,788.9873072942202,82.95111084354477,808.572479163262,82.81512702240103C828.1576510323038,82.67914320125729,847.7428229013454,82.00079497845488,867.3548237729477,82.2890613496542C886.9668246445498,82.57732772085352,906.6056545187122,83.83220868605457,926.2176553903142,84.63527147899116C945.8296562619165,85.43833427192772,965.4148281309582,85.78957889259982,975.2074140654792,85.96520120293587L985,86.14082351327193L985,86.14082351327193L975.2074140654792,85.96520120293587C965.4148281309582,85.78957889259982,945.8296562619165,85.43833427192772,926.2176553903142,84.63527147899116C906.6056545187122,83.83220868605457,886.9668246445498,82.57732772085352,867.3548237729477,82.2890613496542C847.7428229013454,82.00079497845488,828.1576510323038,82.67914320125729,808.5724791632618,82.81512702240103C788.9873072942202,82.95111084354477,769.4021354251785,82.54473026302982,749.8169635561366,85.02895242043853C730.2317916870948,87.51317457784724,710.646619818053,92.88799947317959,691.0346189464509,95.79672458834243C671.4226180748489,98.70544970350524,651.7837882006864,99.14807503849853,632.1717873290843,99.66325166328004C612.5597864574821,100.17842828806154,592.9746145884404,100.76615620263128,573.3894427193986,98.8627604267629C553.8042708503568,96.95936465089454,534.2190989813151,92.56484518458808,514.6339271122733,93.50800427085862C495.0487552432315,94.45116335712915,475.4635833741897,100.7320009959767,455.8515825025875,107.17531862159366C436.2395816309854,113.61863624721065,416.600751756823,120.22443385959707,396.9887508852209,120.96287535667813C377.37675001361885,121.70131685375918,357.79157814457704,116.57240223553487,338.20640627553524,111.40037663733051C318.62123440649344,106.22835103912617,299.0360625374517,101.0132144609418,279.4508906684099,96.46815587391082C259.8657187993681,91.92309728687985,240.28054693032632,88.04811669100229,220.66854605872422,85.76520289962582C201.05654518712208,83.48228910824935,181.41771531295964,82.79144212137396,161.80571444135754,83.20072542032115C142.19371356975543,83.61000871926832,122.60854170071362,85.1194223040381,103.02336983167184,86.77223017936099C83.43819796263006,88.4250380546839,63.85302609358828,90.22124022055992,44.267854224546504,89.80431571146944C24.682682355504713,89.38739120237899,5.09751048646293,86.75734001832204,-14.514490385139183,85.47266327390224C-34.126491256741296,84.18798652948244,-53.76532113090374,84.24868422469977,-73.37732200250585,84.48724335797228C-92.98932287410797,84.72580249124478,-112.57449474314974,85.14222306257243,-132.15966661219153,85.87872810290567C-151.7448384812333,86.61523314323892,-171.3300103502751,87.67182265257777,-190.91518221931688,87.03786894697447C-210.50035408835868,86.40391524137117,-230.08552595740045,84.07941832082571,-249.69752682900253,82.38887510588357C-269.30952770060463,80.69833189094143,-288.94835757476704,79.6417423816026,-308.5603584463692,78.58515287226378C-328.1723593179713,77.52856336292493,-347.75753118701306,76.47197385358609,-367.3427030560549,75.94367909891668C-386.92787492509666,75.41538434424726,-406.5130467941385,75.41538434424726,-426.09821866318026,75.94367909891668C-445.68339053222206,76.47197385358609,-465.2685624012638,77.52856336292493,-484.880563272866,77.52856336292494C-504.4925641444681,77.52856336292493,-524.1313940186305,76.47197385358609,-543.7433948902326,75.41538434424724C-563.3553957618348,74.35879483490841,-582.9405676308764,73.30220532556957,-592.7331535653974,72.77391057090016L-602.5257394999182,72.24561581623074Z"><title>C#</title></path><path fill="#c7c7c7" d="M-602.5257394999182,72.24561581623074L-592.7331535653974,72.77391057090016C-582.9405676308764,73.30220532556957,-563.3553957618348,74.35879483490841,-543.7433948902326,75.41538434424724C-524.1313940186305,76.47197385358609,-504.4925641444681,77.52856336292493,-484.8805632728659,77.52856336292494C-465.2685624012638,77.52856336292493,-445.68339053222206,76.47197385358609,-426.09821866318026,75.94367909891668C-406.5130467941385,75.41538434424726,-386.92787492509666,75.41538434424726,-367.3427030560549,75.94367909891668C-347.75753118701306,76.47197385358609,-328.1723593179713,77.52856336292493,-308.5603584463692,78.58515287226378C-288.94835757476704,79.6417423816026,-269.30952770060463,80.69833189094143,-249.69752682900253,82.38887510588357C-230.08552595740045,84.07941832082571,-210.50035408835868,86.40391524137117,-190.91518221931688,87.03786894697446C-171.3300103502751,87.67182265257777,-151.7448384812333,86.61523314323892,-132.15966661219153,85.87872810290567C-112.57449474314974,85.14222306257243,-92.98932287410797,84.72580249124478,-73.37732200250585,84.48724335797228C-53.76532113090374,84.24868422469977,-34.126491256741296,84.18798652948244,-14.514490385139181,85.47266327390224C5.09751048646293,86.75734001832204,24.682682355504713,89.38739120237899,44.26785422454649,89.80431571146944C63.85302609358828,90.22124022055992,83.43819796263006,88.4250380546839,103.02336983167186,86.77223017936099C122.60854170071362,85.1194223040381,142.19371356975543,83.61000871926832,161.80571444135754,83.20072542032115C181.41771531295964,82.79144212137396,201.05654518712208,83.48228910824935,220.66854605872422,85.76520289962582C240.28054693032632,88.04811669100229,259.8657187993681,91.92309728687985,279.4508906684099,96.46815587391082C299.0360625374517,101.0132144609418,318.62123440649344,106.22835103912617,338.20640627553524,111.40037663733051C357.79157814457704,116.57240223553487,377.37675001361885,121.70131685375918,396.98875088522095,120.96287535667811C416.600751756823,120.22443385959707,436.2395816309854,113.61863624721065,455.85158250258763,107.17531862159369C475.4635833741897,100.7320009959767,495.0487552432315,94.45116335712915,514.6339271122733,93.50800427085862C534.2190989813151,92.56484518458808,553.8042708503568,96.95936465089454,573.3894427193986,98.86276042676292C592.9746145884404,100.76615620263128,612.5597864574821,100.17842828806154,632.1717873290843,99.66325166328005C651.7837882006864,99.14807503849853,671.4226180748489,98.70544970350524,691.0346189464509,95.7967245883424C710.646619818053,92.88799947317959,730.2317916870948,87.51317457784724,749.8169635561366,85.02895242043853C769.4021354251785,82.54473026302982,788.9873072942202,82.95111084354477,808.572479163262,82.81512702240103C828.1576510323038,82.67914320125729,847.7428229013454,82.00079497845488,867.3548237729477,82.2890613496542C886.9668246445498,82.57732772085352,906.6056545187122,83.83220868605457,926.2176553903142,84.63527147899116C945.8296562619165,85.43833427192772,965.4148281309582,85.78957889259982,975.2074140654792,85.96520120293587L985,86.14082351327193L985,89.31059204128844L975.2074140654792,89.66326448562181C965.4148281309582,90.0159369299552,945.8296562619165,90.72128181862193,926.2176553903142,91.50310328969361C906.6056545187122,92.28492476076529,886.9668246445498,93.1432228142419,867.3548237729477,94.96813546172025C847.7428229013454,96.7930481091986,828.1576510323038,99.58457535067869,808.5724791632618,99.72055917182242C788.9873072942202,99.85654299296617,769.4021354251785,97.33698339377355,749.8169635561366,98.76461604184341C730.2317916870948,100.19224868991328,710.646619818053,105.56707358524564,691.0346189464509,106.36261968173079C671.4226180748489,107.15816577821595,651.7837882006864,103.37443307585387,632.1717873290843,101.77643068195772C612.5597864574821,100.17842828806154,592.9746145884404,100.76615620263128,573.3894427193986,98.8627604267629C553.8042708503568,96.95936465089454,534.2190989813151,92.56484518458808,514.6339271122733,93.50800427085862C495.0487552432315,94.45116335712915,475.4635833741897,100.7320009959767,455.8515825025875,107.17531862159366C436.2395816309854,113.61863624721065,416.600751756823,120.22443385959707,396.9887508852209,120.96287535667813C377.37675001361885,121.70131685375918,357.79157814457704,116.57240223553487,338.20640627553524,111.40037663733051C318.62123440649344,106.22835103912617,299.0360625374517,101.0132144609418,279.4508906684099,96.46815587391082C259.8657187993681,91.92309728687985,240.28054693032632,88.04811669100229,220.66854605872422,85.76520289962582C201.05654518712208,83.48228910824935,181.41771531295964,82.79144212137396,161.80571444135754,83.20072542032115C142.19371356975543,83.61000871926832,122.60854170071362,85.1194223040381,103.02336983167184,86.77223017936099C83.43819796263006,88.4250380546839,63.85302609358828,90.22124022055992,44.267854224546504,89.80431571146944C24.682682355504713,89.38739120237899,5.09751048646293,86.75734001832204,-14.514490385139183,85.47266327390224C-34.126491256741296,84.18798652948244,-53.76532113090374,84.24868422469977,-73.37732200250585,84.48724335797228C-92.98932287410797,84.72580249124478,-112.57449474314974,85.14222306257243,-132.15966661219153,85.87872810290567C-151.7448384812333,86.61523314323892,-171.3300103502751,87.67182265257777,-190.91518221931688,87.03786894697447C-210.50035408835868,86.40391524137117,-230.08552595740045,84.07941832082571,-249.69752682900253,82.38887510588357C-269.30952770060463,80.69833189094143,-288.94835757476704,79.6417423816026,-308.5603584463692,78.58515287226378C-328.1723593179713,77.52856336292493,-347.75753118701306,76.47197385358609,-367.3427030560549,75.94367909891668C-386.92787492509666,75.41538434424726,-406.5130467941385,75.41538434424726,-426.09821866318026,75.94367909891668C-445.68339053222206,76.47197385358609,-465.2685624012638,77.52856336292493,-484.880563272866,77.52856336292494C-504.4925641444681,77.52856336292493,-524.1313940186305,76.47197385358609,-543.7433948902326,75.41538434424724C-563.3553957618348,74.35879483490841,-582.9405676308764,73.30220532556957,-592.7331535653974,72.77391057090016L-602.5257394999182,72.24561581623074Z"><title>ClojureScript</title></path><path fill="#d62728" d="M-602.5257394999182,72.24561581623074L-592.7331535653974,72.77391057090016C-582.9405676308764,73.30220532556957,-563.3553957618348,74.35879483490841,-543.7433948902326,75.41538434424724C-524.1313940186305,76.47197385358609,-504.4925641444681,77.52856336292493,-484.8805632728659,77.52856336292494C-465.2685624012638,77.52856336292493,-445.68339053222206,76.47197385358609,-426.09821866318026,75.94367909891668C-406.5130467941385,75.41538434424726,-386.92787492509666,75.41538434424726,-367.3427030560549,75.94367909891668C-347.75753118701306,76.47197385358609,-328.1723593179713,77.52856336292493,-308.5603584463692,78.58515287226378C-288.94835757476704,79.6417423816026,-269.30952770060463,80.69833189094143,-249.69752682900253,82.38887510588357C-230.08552595740045,84.07941832082571,-210.50035408835868,86.40391524137117,-190.91518221931688,87.03786894697446C-171.3300103502751,87.67182265257777,-151.7448384812333,86.61523314323892,-132.15966661219153,85.98438705383955C-112.57449474314974,85.3535409644402,-92.98932287410797,85.14843829498031,-73.37732200250585,85.12119706357558C-53.76532113090374,85.09395583217085,-34.126491256741296,85.24457603882128,-14.514490385139181,86.84622963604274C5.09751048646293,88.44788323326419,24.682682355504713,91.50057022105666,44.26785422454649,92.23447158294879C63.85302609358828,92.9683729448409,83.43819796263006,91.38348868083263,103.02336983167186,90.36463451111304C122.60854170071362,89.34578034139345,142.19371356975543,88.89295626596252,161.80571444135754,88.48367296701532C181.41771531295964,88.07438966806814,201.05654518712208,87.70864714560469,220.66854605872422,89.04063037857622C240.28054693032632,90.37261361154775,259.8657187993681,93.40232259995423,279.4508906684099,97.52474538324965C299.0360625374517,101.6471681665451,318.62123440649344,106.86230474472949,338.20640627553524,112.45696614666936C357.79157814457704,118.05162754860923,377.37675001361885,124.02581377430461,396.98875088522095,124.23830283562852C416.600751756823,124.45079189695241,436.2395816309854,118.90158379390483,455.85158250258763,112.45826616828786C475.4635833741897,106.01494854267088,495.0487552432315,98.67752139448451,514.6339271122733,96.8890907007429C534.2190989813151,95.1006600070013,553.8042708503568,98.86122576770445,573.3894427193986,100.76462154357283C592.9746145884404,102.66801731944118,612.5597864574821,102.71424311047478,632.1717873290843,105.15751711184198C651.7837882006864,107.60079111320924,671.4226180748489,112.44111332491013,691.0346189464509,112.1738619830944C710.646619818053,111.90661064127868,730.2317916870948,106.53178574594631,749.8169635561366,105.10415309787645C769.4021354251785,103.67652044980657,788.9873072942202,106.19608004899919,808.572479163262,107.1166857371943C828.1576510323038,108.0372914253894,847.7428229013454,107.35894320258699,867.3548237729477,105.53403055510864C886.9668246445498,103.70911790763027,906.6056545187122,100.73764083547599,926.2176553903142,98.37093510039604C945.8296562619165,96.0042293653161,965.4148281309582,94.24229496731054,975.2074140654792,93.36132776830776L985,92.48036056930496L985,98.81989762533799L975.2074140654792,100.75745433367962C965.4148281309582,102.69501104202124,945.8296562619165,106.57012445870448,926.2176553903142,111.05000921246209C906.6056545187122,115.52989396621972,886.9668246445498,120.61455005705169,867.3548237729477,122.43946270453004C847.7428229013454,124.2643753520084,828.1576510323038,122.82954455613311,808.5724791632618,119.79575984926036C788.9873072942202,116.76197514238758,769.4021354251785,112.12923652451728,749.8169635561366,111.44369015390949C730.2317916870948,110.75814378330166,710.646619818053,114.01978965995634,691.0346189464509,113.23045149243323C671.4226180748489,112.44111332491013,651.7837882006864,107.60079111320924,632.1717873290843,105.15751711184198C612.5597864574821,102.71424311047478,592.9746145884404,102.66801731944118,573.3894427193986,100.76462154357283C553.8042708503568,98.86122576770445,534.2190989813151,95.1006600070013,514.6339271122733,96.8890907007429C495.0487552432315,98.67752139448451,475.4635833741897,106.01494854267088,455.8515825025875,112.45826616828786C436.2395816309854,118.90158379390483,416.600751756823,124.45079189695241,396.9887508852209,124.23830283562852C377.37675001361885,124.02581377430461,357.79157814457704,118.05162754860923,338.20640627553524,112.45696614666934C318.62123440649344,106.86230474472949,299.0360625374517,101.6471681665451,279.4508906684099,97.52474538324965C259.8657187993681,93.40232259995423,240.28054693032632,90.37261361154775,220.66854605872422,89.04063037857622C201.05654518712208,87.70864714560469,181.41771531295964,88.07438966806814,161.80571444135754,88.48367296701532C142.19371356975543,88.89295626596252,122.60854170071362,89.34578034139345,103.02336983167184,90.36463451111304C83.43819796263006,91.38348868083263,63.85302609358828,92.9683729448409,44.267854224546504,92.2344715829488C24.682682355504713,91.50057022105666,5.09751048646293,88.44788323326419,-14.514490385139183,86.84622963604274C-34.126491256741296,85.24457603882128,-53.76532113090374,85.09395583217085,-73.37732200250585,85.12119706357558C-92.98932287410797,85.14843829498031,-112.57449474314974,85.3535409644402,-132.15966661219153,85.98438705383957C-151.7448384812333,86.61523314323892,-171.3300103502751,87.67182265257777,-190.91518221931688,87.03786894697447C-210.50035408835868,86.40391524137117,-230.08552595740045,84.07941832082571,-249.69752682900253,82.38887510588357C-269.30952770060463,80.69833189094143,-288.94835757476704,79.6417423816026,-308.5603584463692,78.58515287226378C-328.1723593179713,77.52856336292493,-347.75753118701306,76.47197385358609,-367.3427030560549,75.94367909891668C-386.92787492509666,75.41538434424726,-406.5130467941385,75.41538434424726,-426.09821866318026,75.94367909891668C-445.68339053222206,76.47197385358609,-465.2685624012638,77.52856336292493,-484.880563272866,77.52856336292494C-504.4925641444681,77.52856336292493,-524.1313940186305,76.47197385358609,-543.7433948902326,75.41538434424724C-563.3553957618348,74.35879483490841,-582.9405676308764,73.30220532556957,-592.7331535653974,72.77391057090016L-602.5257394999182,72.24561581623074Z"><title>Scala</title></path></g><g transform="translate(0,130)" fill="none" font-size="10" font-family="sans-serif" text-anchor="middle"><g class="tick" opacity="1" transform="translate(44.2678542245465,0)"><line stroke="currentColor" y2="6"></line><text fill="currentColor" y="9" dy="0.71em">2006</text></g><g class="tick" opacity="1" transform="translate(103.02336983167184,0)"><line stroke="currentColor" y2="6"></line><text fill="currentColor" y="9" dy="0.71em">2007</text></g><g class="tick" opacity="1" transform="translate(161.7788854387972,0)"><line stroke="currentColor" y2="6"></line><text fill="currentColor" y="9" dy="0.71em">2008</text></g><g class="tick" opacity="1" transform="translate(220.69537506128452,0)"><line stroke="currentColor" y2="6"></line><text fill="currentColor" y="9" dy="0.71em">2009</text></g><g class="tick" opacity="1" transform="translate(279.4508906684099,0)"><line stroke="currentColor" y2="6"></line><text fill="currentColor" y="9" dy="0.71em">2010</text></g><g class="tick" opacity="1" transform="translate(338.20640627553524,0)"><line stroke="currentColor" y2="6"></line><text fill="currentColor" y="9" dy="0.71em">2011</text></g><g class="tick" opacity="1" transform="translate(396.9619218826606,0)"><line stroke="currentColor" y2="6"></line><text fill="currentColor" y="9" dy="0.71em">2012</text></g><g class="tick" opacity="1" transform="translate(455.8784115051479,0)"><line stroke="currentColor" y2="6"></line><text fill="currentColor" y="9" dy="0.71em">2013</text></g><g class="tick" opacity="1" transform="translate(514.6339271122733,0)"><line stroke="currentColor" y2="6"></line><text fill="currentColor" y="9" dy="0.71em">2014</text></g><g class="tick" opacity="1" transform="translate(573.3894427193986,0)"><line stroke="currentColor" y2="6"></line><text fill="currentColor" y="9" dy="0.71em">2015</text></g><g class="tick" opacity="1" transform="translate(632.1449583265239,0)"><line stroke="currentColor" y2="6"></line><text fill="currentColor" y="9" dy="0.71em">2016</text></g><g class="tick" opacity="1" transform="translate(691.0614479490113,0)"><line stroke="currentColor" y2="6"></line><text fill="currentColor" y="9" dy="0.71em">2017</text></g><g class="tick" opacity="1" transform="translate(749.8169635561366,0)"><line stroke="currentColor" y2="6"></line><text fill="currentColor" y="9" dy="0.71em">2018</text></g><g class="tick" opacity="1" transform="translate(808.572479163262,0)"><line stroke="currentColor" y2="6"></line><text fill="currentColor" y="9" dy="0.71em">2019</text></g><g class="tick" opacity="1" transform="translate(867.3279947703872,0)"><line stroke="currentColor" y2="6"></line><text fill="currentColor" y="9" dy="0.71em">2020</text></g><g class="tick" opacity="1" transform="translate(926.2444843928747,0)"><line stroke="currentColor" y2="6"></line><text fill="currentColor" y="9" dy="0.71em">2021</text></g><g class="tick" opacity="1" transform="translate(985,0)"><line stroke="currentColor" y2="6"></line><text fill="currentColor" y="9" dy="0.71em">2022</text></g></g><g transform="translate(0,0) rotate(270)"><text x="0" text-anchor="end" y="10" font-family="sans-serif" font-size="10">% time spent with language</text></g><text class="area-label" font-family="sans-serif" fill="white" transform="translate(-501.19430931907243,75.59103952681843) scale(0.615086515102758)" style="filter: url(&quot;#drop-shadow&quot;);">QBasic</text><text class="area-label" font-family="sans-serif" fill="white" transform="translate(-389.9284251989279,70.18129346804339) scale(0.7859064749387621)" style="filter: url(&quot;#drop-shadow&quot;);">Visual Basic</text><text class="area-label" font-family="sans-serif" fill="white" transform="translate(321.37847685485275,91.69772311810173) scale(1.2809476742874102)" style="filter: url(&quot;#drop-shadow&quot;);">C/C++</text><text class="area-label" font-family="sans-serif" fill="white" transform="translate(128.6500704324596,65.56569670684571) scale(1.227026313476067)" style="filter: url(&quot;#drop-shadow&quot;);">Java</text><text class="area-label" font-family="sans-serif" fill="white" transform="translate(19.371077100174887,80.54859400754786) scale(0.9104211420961036)" style="filter: url(&quot;#drop-shadow&quot;);">PHP</text><text class="area-label" font-family="sans-serif" fill="white" transform="translate(833.9963001226612,105.08766928871498) scale(0.44252011836793276)" style="filter: url(&quot;#drop-shadow&quot;);">JavaScript</text><text class="area-label" font-family="sans-serif" fill="white" transform="translate(337.2736031577306,42.53914338820482) scale(1.0439222301111797)" style="filter: url(&quot;#drop-shadow&quot;);">MATLAB</text><text class="area-label" font-family="sans-serif" fill="white" transform="translate(297.535787400536,67.86340345409768) scale(0.9144845080219896)" style="filter: url(&quot;#drop-shadow&quot;);">Scheme</text><text class="area-label" font-family="sans-serif" fill="white" transform="translate(363.10318339990687,113.94875191735002) scale(1.1681215548896442)" style="filter: url(&quot;#drop-shadow&quot;);">Python</text><text class="area-label" font-family="sans-serif" fill="white" transform="translate(579.6742792766166,48.68264487107881) scale(2.588388951392159)" style="filter: url(&quot;#drop-shadow&quot;);">Clojure</text><text class="area-label" font-family="sans-serif" fill="white" transform="translate(573.7136069130376,73.13750071774062) scale(0.8330675753752365)" style="filter: url(&quot;#drop-shadow&quot;);">Ruby</text><text class="area-label" font-family="sans-serif" fill="white" transform="translate(682.9926002453221,97.15281767261524) scale(0.3222571334106131)" style="filter: url(&quot;#drop-shadow&quot;);">C#</text><text class="area-label" font-family="sans-serif" fill="white" transform="translate(770.41579491115,94.62890019552503) scale(0.7878959010117641)" style="filter: url(&quot;#drop-shadow&quot;);">ClojureScript</text><text class="area-label" font-family="sans-serif" fill="white" transform="translate(839.9569724862401,120.42633191044358) scale(0.8939206081964935)" style="filter: url(&quot;#drop-shadow&quot;);">Scala</text><defs><filter id="drop-shadow"><feGaussianBlur in="SourceAlpha" stdDeviation="1" result="blur"></feGaussianBlur><feOffset in="blur" dx="1" dy="1"></feOffset><feComponentTransfer result="offsetBlur"><feFuncA type="linear" slope="0.4"></feFuncA></feComponentTransfer><feMerge><feMergeNode in="offsetBlur"></feMergeNode><feMergeNode in="SourceGraphic"></feMergeNode></feMerge></filter></defs></svg>